<?xml version="1.0" encoding="utf-8" standalone="no"?>
<!DOCTYPE svg PUBLIC "-//W3C//DTD SVG 1.1//EN"
  "http://www.w3.org/Graphics/SVG/1.1/DTD/svg11.dtd">
<svg xmlns:xlink="http://www.w3.org/1999/xlink" width="435.465pt" height="313.767974pt" viewBox="0 0 435.465 313.767974" xmlns="http://www.w3.org/2000/svg" version="1.1">
 <metadata>
  <rdf:RDF xmlns:dc="http://purl.org/dc/elements/1.1/" xmlns:cc="http://creativecommons.org/ns#" xmlns:rdf="http://www.w3.org/1999/02/22-rdf-syntax-ns#">
   <cc:Work>
    <dc:type rdf:resource="http://purl.org/dc/dcmitype/StillImage"/>
    <dc:date>2026-07-02T14:39:55.641390</dc:date>
    <dc:format>image/svg+xml</dc:format>
    <dc:creator>
     <cc:Agent>
      <dc:title>TEA-Sim plotting scripts</dc:title>
     </cc:Agent>
    </dc:creator>
   </cc:Work>
  </rdf:RDF>
 </metadata>
 <defs>
  <style type="text/css">*{stroke-linejoin: round; stroke-linecap: butt}</style>
 </defs>
 <g id="figure_1">
  <g id="patch_1">
   <path d="M 0 313.767974 
L 435.465 313.767974 
L 435.465 0 
L 0 0 
z
" style="fill: #ffffff"/>
  </g>
  <g id="axes_1">
   <g id="patch_2">
    <path d="M 19.665 284.50688 
L 432.585 284.50688 
L 432.585 29.48288 
L 19.665 29.48288 
z
" style="fill: #ffffff"/>
   </g>
   <g id="line2d_1">
    <path d="M 38.434091 41.07488 
L 281.737121 41.07488 
" clip-path="url(#p5bc724d80d)" style="fill: none; stroke: #dadada; stroke-linecap: square"/>
   </g>
   <g id="line2d_2">
    <path d="M 114.900758 99.03488 
L 358.203788 99.03488 
" clip-path="url(#p5bc724d80d)" style="fill: none; stroke: #dadada; stroke-linecap: square"/>
   </g>
   <g id="line2d_3">
    <path d="M 128.803788 156.99488 
L 372.106818 156.99488 
" clip-path="url(#p5bc724d80d)" style="fill: none; stroke: #dadada; stroke-linecap: square"/>
   </g>
   <g id="line2d_4">
    <path d="M 170.512879 214.95488 
L 413.815909 214.95488 
" clip-path="url(#p5bc724d80d)" style="fill: none; stroke: #dadada; stroke-linecap: square"/>
   </g>
   <g id="line2d_5">
    <path d="M 114.900758 272.91488 
L 358.203788 272.91488 
" clip-path="url(#p5bc724d80d)" style="fill: none; stroke: #dadada; stroke-linecap: square"/>
   </g>
   <g id="matplotlib.axis_1">
    <g id="xtick_1">
     <g id="line2d_6">
      <path d="M 45.385606 284.50688 
L 45.385606 29.48288 
" clip-path="url(#p5bc724d80d)" style="fill: none; stroke: #eeeeee; stroke-width: 0.8; stroke-linecap: square"/>
     </g>
     <g id="line2d_7">
      <defs>
       <path id="mee41e43be2" d="M 0 0 
L 0 3.5 
" style="stroke: #000000; stroke-width: 0.8"/>
      </defs>
      <g>
       <use xlink:href="#mee41e43be2" x="45.385606" y="284.50688" style="stroke: #000000; stroke-width: 0.8"/>
      </g>
     </g>
     <g id="text_1">
      <!-- 0.3 -->
      <g transform="translate(39.825606 297.30438) scale(0.08 -0.08)">
       <defs>
        <path id="LiberationSans-30" d="M 3309 2203 
Q 3309 1100 2920 518 
Q 2531 -63 1772 -63 
Q 1013 -63 631 515 
Q 250 1094 250 2203 
Q 250 3338 620 3903 
Q 991 4469 1791 4469 
Q 2569 4469 2939 3897 
Q 3309 3325 3309 2203 
z
M 2738 2203 
Q 2738 3156 2517 3584 
Q 2297 4013 1791 4013 
Q 1272 4013 1045 3591 
Q 819 3169 819 2203 
Q 819 1266 1048 831 
Q 1278 397 1778 397 
Q 2275 397 2506 840 
Q 2738 1284 2738 2203 
z
" transform="scale(0.015625)"/>
        <path id="LiberationSans-2e" d="M 584 0 
L 584 684 
L 1194 684 
L 1194 0 
L 584 0 
z
" transform="scale(0.015625)"/>
        <path id="LiberationSans-33" d="M 3278 1216 
Q 3278 606 2890 271 
Q 2503 -63 1784 -63 
Q 1116 -63 717 239 
Q 319 541 244 1131 
L 825 1184 
Q 938 403 1784 403 
Q 2209 403 2451 612 
Q 2694 822 2694 1234 
Q 2694 1594 2417 1795 
Q 2141 1997 1619 1997 
L 1300 1997 
L 1300 2484 
L 1606 2484 
Q 2069 2484 2323 2686 
Q 2578 2888 2578 3244 
Q 2578 3597 2370 3801 
Q 2163 4006 1753 4006 
Q 1381 4006 1151 3815 
Q 922 3625 884 3278 
L 319 3322 
Q 381 3863 767 4166 
Q 1153 4469 1759 4469 
Q 2422 4469 2789 4161 
Q 3156 3853 3156 3303 
Q 3156 2881 2920 2617 
Q 2684 2353 2234 2259 
L 2234 2247 
Q 2728 2194 3003 1916 
Q 3278 1638 3278 1216 
z
" transform="scale(0.015625)"/>
       </defs>
       <use xlink:href="#LiberationSans-30"/>
       <use xlink:href="#LiberationSans-2e" transform="translate(55.615234 0)"/>
       <use xlink:href="#LiberationSans-33" transform="translate(83.398438 0)"/>
      </g>
     </g>
    </g>
    <g id="xtick_2">
     <g id="line2d_8">
      <path d="M 114.900758 284.50688 
L 114.900758 29.48288 
" clip-path="url(#p5bc724d80d)" style="fill: none; stroke: #eeeeee; stroke-width: 0.8; stroke-linecap: square"/>
     </g>
     <g id="line2d_9">
      <g>
       <use xlink:href="#mee41e43be2" x="114.900758" y="284.50688" style="stroke: #000000; stroke-width: 0.8"/>
      </g>
     </g>
     <g id="text_2">
      <!-- 0.4 -->
      <g transform="translate(109.340758 297.30438) scale(0.08 -0.08)">
       <defs>
        <path id="LiberationSans-34" d="M 2753 997 
L 2753 0 
L 2222 0 
L 2222 997 
L 147 997 
L 147 1434 
L 2163 4403 
L 2753 4403 
L 2753 1441 
L 3372 1441 
L 3372 997 
L 2753 997 
z
M 2222 3769 
Q 2216 3750 2134 3603 
Q 2053 3456 2013 3397 
L 884 1734 
L 716 1503 
L 666 1441 
L 2222 1441 
L 2222 3769 
z
" transform="scale(0.015625)"/>
       </defs>
       <use xlink:href="#LiberationSans-30"/>
       <use xlink:href="#LiberationSans-2e" transform="translate(55.615234 0)"/>
       <use xlink:href="#LiberationSans-34" transform="translate(83.398438 0)"/>
      </g>
     </g>
    </g>
    <g id="xtick_3">
     <g id="line2d_10">
      <path d="M 184.415909 284.50688 
L 184.415909 29.48288 
" clip-path="url(#p5bc724d80d)" style="fill: none; stroke: #eeeeee; stroke-width: 0.8; stroke-linecap: square"/>
     </g>
     <g id="line2d_11">
      <g>
       <use xlink:href="#mee41e43be2" x="184.415909" y="284.50688" style="stroke: #000000; stroke-width: 0.8"/>
      </g>
     </g>
     <g id="text_3">
      <!-- 0.5 -->
      <g transform="translate(178.855909 297.30438) scale(0.08 -0.08)">
       <defs>
        <path id="LiberationSans-35" d="M 3291 1434 
Q 3291 738 2877 337 
Q 2463 -63 1728 -63 
Q 1113 -63 734 206 
Q 356 475 256 984 
L 825 1050 
Q 1003 397 1741 397 
Q 2194 397 2450 670 
Q 2706 944 2706 1422 
Q 2706 1838 2448 2094 
Q 2191 2350 1753 2350 
Q 1525 2350 1328 2278 
Q 1131 2206 934 2034 
L 384 2034 
L 531 4403 
L 3034 4403 
L 3034 3925 
L 1044 3925 
L 959 2528 
Q 1325 2809 1869 2809 
Q 2519 2809 2905 2428 
Q 3291 2047 3291 1434 
z
" transform="scale(0.015625)"/>
       </defs>
       <use xlink:href="#LiberationSans-30"/>
       <use xlink:href="#LiberationSans-2e" transform="translate(55.615234 0)"/>
       <use xlink:href="#LiberationSans-35" transform="translate(83.398438 0)"/>
      </g>
     </g>
    </g>
    <g id="xtick_4">
     <g id="line2d_12">
      <path d="M 253.931061 284.50688 
L 253.931061 29.48288 
" clip-path="url(#p5bc724d80d)" style="fill: none; stroke: #eeeeee; stroke-width: 0.8; stroke-linecap: square"/>
     </g>
     <g id="line2d_13">
      <g>
       <use xlink:href="#mee41e43be2" x="253.931061" y="284.50688" style="stroke: #000000; stroke-width: 0.8"/>
      </g>
     </g>
     <g id="text_4">
      <!-- 0.6 -->
      <g transform="translate(248.371061 297.30438) scale(0.08 -0.08)">
       <defs>
        <path id="LiberationSans-36" d="M 3278 1441 
Q 3278 744 2900 340 
Q 2522 -63 1856 -63 
Q 1113 -63 719 490 
Q 325 1044 325 2100 
Q 325 3244 734 3856 
Q 1144 4469 1900 4469 
Q 2897 4469 3156 3572 
L 2619 3475 
Q 2453 4013 1894 4013 
Q 1413 4013 1148 3564 
Q 884 3116 884 2266 
Q 1038 2550 1316 2698 
Q 1594 2847 1953 2847 
Q 2563 2847 2920 2465 
Q 3278 2084 3278 1441 
z
M 2706 1416 
Q 2706 1894 2472 2153 
Q 2238 2413 1819 2413 
Q 1425 2413 1183 2183 
Q 941 1953 941 1550 
Q 941 1041 1192 716 
Q 1444 391 1838 391 
Q 2244 391 2475 664 
Q 2706 938 2706 1416 
z
" transform="scale(0.015625)"/>
       </defs>
       <use xlink:href="#LiberationSans-30"/>
       <use xlink:href="#LiberationSans-2e" transform="translate(55.615234 0)"/>
       <use xlink:href="#LiberationSans-36" transform="translate(83.398438 0)"/>
      </g>
     </g>
    </g>
    <g id="xtick_5">
     <g id="line2d_14">
      <path d="M 323.446212 284.50688 
L 323.446212 29.48288 
" clip-path="url(#p5bc724d80d)" style="fill: none; stroke: #eeeeee; stroke-width: 0.8; stroke-linecap: square"/>
     </g>
     <g id="line2d_15">
      <g>
       <use xlink:href="#mee41e43be2" x="323.446212" y="284.50688" style="stroke: #000000; stroke-width: 0.8"/>
      </g>
     </g>
     <g id="text_5">
      <!-- 0.7 -->
      <g transform="translate(317.886212 297.30438) scale(0.08 -0.08)">
       <defs>
        <path id="LiberationSans-37" d="M 3238 3947 
Q 2563 2916 2284 2331 
Q 2006 1747 1867 1178 
Q 1728 609 1728 0 
L 1141 0 
Q 1141 844 1498 1776 
Q 1856 2709 2694 3925 
L 328 3925 
L 328 4403 
L 3238 4403 
L 3238 3947 
z
" transform="scale(0.015625)"/>
       </defs>
       <use xlink:href="#LiberationSans-30"/>
       <use xlink:href="#LiberationSans-2e" transform="translate(55.615234 0)"/>
       <use xlink:href="#LiberationSans-37" transform="translate(83.398438 0)"/>
      </g>
     </g>
    </g>
    <g id="xtick_6">
     <g id="line2d_16">
      <path d="M 392.961364 284.50688 
L 392.961364 29.48288 
" clip-path="url(#p5bc724d80d)" style="fill: none; stroke: #eeeeee; stroke-width: 0.8; stroke-linecap: square"/>
     </g>
     <g id="line2d_17">
      <g>
       <use xlink:href="#mee41e43be2" x="392.961364" y="284.50688" style="stroke: #000000; stroke-width: 0.8"/>
      </g>
     </g>
     <g id="text_6">
      <!-- 0.8 -->
      <g transform="translate(387.401364 297.30438) scale(0.08 -0.08)">
       <defs>
        <path id="LiberationSans-38" d="M 3281 1228 
Q 3281 619 2893 278 
Q 2506 -63 1781 -63 
Q 1075 -63 676 271 
Q 278 606 278 1222 
Q 278 1653 525 1947 
Q 772 2241 1156 2303 
L 1156 2316 
Q 797 2400 589 2681 
Q 381 2963 381 3341 
Q 381 3844 757 4156 
Q 1134 4469 1769 4469 
Q 2419 4469 2795 4162 
Q 3172 3856 3172 3334 
Q 3172 2956 2962 2675 
Q 2753 2394 2391 2322 
L 2391 2309 
Q 2813 2241 3047 1952 
Q 3281 1663 3281 1228 
z
M 2588 3303 
Q 2588 4050 1769 4050 
Q 1372 4050 1164 3862 
Q 956 3675 956 3303 
Q 956 2925 1170 2726 
Q 1384 2528 1775 2528 
Q 2172 2528 2380 2711 
Q 2588 2894 2588 3303 
z
M 2697 1281 
Q 2697 1691 2453 1898 
Q 2209 2106 1769 2106 
Q 1341 2106 1100 1882 
Q 859 1659 859 1269 
Q 859 359 1788 359 
Q 2247 359 2472 579 
Q 2697 800 2697 1281 
z
" transform="scale(0.015625)"/>
       </defs>
       <use xlink:href="#LiberationSans-30"/>
       <use xlink:href="#LiberationSans-2e" transform="translate(55.615234 0)"/>
       <use xlink:href="#LiberationSans-38" transform="translate(83.398438 0)"/>
      </g>
     </g>
    </g>
    <g id="text_7">
     <!-- Metadata-exposure proxy -->
     <g transform="translate(177.936641 309.124224) scale(0.085 -0.085)">
      <defs>
       <path id="LiberationSans-4d" d="M 4269 0 
L 4269 2938 
Q 4269 3425 4297 3875 
Q 4144 3316 4022 3000 
L 2884 0 
L 2466 0 
L 1313 3000 
L 1138 3531 
L 1034 3875 
L 1044 3528 
L 1056 2938 
L 1056 0 
L 525 0 
L 525 4403 
L 1309 4403 
L 2481 1350 
Q 2544 1166 2601 955 
Q 2659 744 2678 650 
Q 2703 775 2783 1029 
Q 2863 1284 2891 1350 
L 4041 4403 
L 4806 4403 
L 4806 0 
L 4269 0 
z
" transform="scale(0.015625)"/>
       <path id="LiberationSans-65" d="M 863 1572 
Q 863 991 1103 675 
Q 1344 359 1806 359 
Q 2172 359 2392 506 
Q 2613 653 2691 878 
L 3184 738 
Q 2881 -63 1806 -63 
Q 1056 -63 664 384 
Q 272 831 272 1713 
Q 272 2550 664 2997 
Q 1056 3444 1784 3444 
Q 3275 3444 3275 1647 
L 3275 1572 
L 863 1572 
z
M 2694 2003 
Q 2647 2538 2422 2783 
Q 2197 3028 1775 3028 
Q 1366 3028 1127 2754 
Q 888 2481 869 2003 
L 2694 2003 
z
" transform="scale(0.015625)"/>
       <path id="LiberationSans-74" d="M 1731 25 
Q 1453 -50 1163 -50 
Q 488 -50 488 716 
L 488 2972 
L 97 2972 
L 97 3381 
L 509 3381 
L 675 4138 
L 1050 4138 
L 1050 3381 
L 1675 3381 
L 1675 2972 
L 1050 2972 
L 1050 838 
Q 1050 594 1129 495 
Q 1209 397 1406 397 
Q 1519 397 1731 441 
L 1731 25 
z
" transform="scale(0.015625)"/>
       <path id="LiberationSans-61" d="M 1294 -63 
Q 784 -63 528 206 
Q 272 475 272 944 
Q 272 1469 617 1750 
Q 963 2031 1731 2050 
L 2491 2063 
L 2491 2247 
Q 2491 2659 2316 2837 
Q 2141 3016 1766 3016 
Q 1388 3016 1216 2887 
Q 1044 2759 1009 2478 
L 422 2531 
Q 566 3444 1778 3444 
Q 2416 3444 2737 3151 
Q 3059 2859 3059 2306 
L 3059 850 
Q 3059 600 3125 473 
Q 3191 347 3375 347 
Q 3456 347 3559 369 
L 3559 19 
Q 3347 -31 3125 -31 
Q 2813 -31 2670 133 
Q 2528 297 2509 647 
L 2491 647 
Q 2275 259 1989 98 
Q 1703 -63 1294 -63 
z
M 1422 359 
Q 1731 359 1972 500 
Q 2213 641 2352 886 
Q 2491 1131 2491 1391 
L 2491 1669 
L 1875 1656 
Q 1478 1650 1273 1575 
Q 1069 1500 959 1344 
Q 850 1188 850 934 
Q 850 659 998 509 
Q 1147 359 1422 359 
z
" transform="scale(0.015625)"/>
       <path id="LiberationSans-64" d="M 2566 544 
Q 2409 219 2151 78 
Q 1894 -63 1513 -63 
Q 872 -63 570 368 
Q 269 800 269 1675 
Q 269 3444 1513 3444 
Q 1897 3444 2153 3303 
Q 2409 3163 2566 2856 
L 2572 2856 
L 2566 3234 
L 2566 4638 
L 3128 4638 
L 3128 697 
Q 3128 169 3147 0 
L 2609 0 
Q 2600 50 2589 231 
Q 2578 413 2578 544 
L 2566 544 
z
M 859 1694 
Q 859 984 1046 678 
Q 1234 372 1656 372 
Q 2134 372 2350 703 
Q 2566 1034 2566 1731 
Q 2566 2403 2350 2715 
Q 2134 3028 1663 3028 
Q 1238 3028 1048 2714 
Q 859 2400 859 1694 
z
" transform="scale(0.015625)"/>
       <path id="LiberationSans-2d" d="M 284 1450 
L 284 1950 
L 1847 1950 
L 1847 1450 
L 284 1450 
z
" transform="scale(0.015625)"/>
       <path id="LiberationSans-78" d="M 2503 0 
L 1594 1388 
L 678 0 
L 72 0 
L 1275 1738 
L 128 3381 
L 750 3381 
L 1594 2066 
L 2431 3381 
L 3059 3381 
L 1913 1744 
L 3131 0 
L 2503 0 
z
" transform="scale(0.015625)"/>
       <path id="LiberationSans-70" d="M 3291 1706 
Q 3291 -63 2047 -63 
Q 1266 -63 997 525 
L 981 525 
Q 994 500 994 -6 
L 994 -1328 
L 431 -1328 
L 431 2691 
Q 431 3213 413 3381 
L 956 3381 
Q 959 3369 965 3292 
Q 972 3216 980 3056 
Q 988 2897 988 2838 
L 1000 2838 
Q 1150 3150 1397 3295 
Q 1644 3441 2047 3441 
Q 2672 3441 2981 3022 
Q 3291 2603 3291 1706 
z
M 2700 1694 
Q 2700 2400 2509 2703 
Q 2319 3006 1903 3006 
Q 1569 3006 1380 2865 
Q 1191 2725 1092 2426 
Q 994 2128 994 1650 
Q 994 984 1206 668 
Q 1419 353 1897 353 
Q 2316 353 2508 661 
Q 2700 969 2700 1694 
z
" transform="scale(0.015625)"/>
       <path id="LiberationSans-6f" d="M 3291 1694 
Q 3291 806 2900 371 
Q 2509 -63 1766 -63 
Q 1025 -63 647 389 
Q 269 841 269 1694 
Q 269 3444 1784 3444 
Q 2559 3444 2925 3017 
Q 3291 2591 3291 1694 
z
M 2700 1694 
Q 2700 2394 2492 2711 
Q 2284 3028 1794 3028 
Q 1300 3028 1079 2704 
Q 859 2381 859 1694 
Q 859 1025 1076 689 
Q 1294 353 1759 353 
Q 2266 353 2483 678 
Q 2700 1003 2700 1694 
z
" transform="scale(0.015625)"/>
       <path id="LiberationSans-73" d="M 2969 934 
Q 2969 456 2608 196 
Q 2247 -63 1597 -63 
Q 966 -63 623 145 
Q 281 353 178 794 
L 675 891 
Q 747 619 972 492 
Q 1197 366 1597 366 
Q 2025 366 2223 497 
Q 2422 628 2422 891 
Q 2422 1091 2284 1216 
Q 2147 1341 1841 1422 
L 1438 1528 
Q 953 1653 748 1773 
Q 544 1894 428 2066 
Q 313 2238 313 2488 
Q 313 2950 642 3192 
Q 972 3434 1603 3434 
Q 2163 3434 2492 3237 
Q 2822 3041 2909 2606 
L 2403 2544 
Q 2356 2769 2151 2889 
Q 1947 3009 1603 3009 
Q 1222 3009 1040 2893 
Q 859 2778 859 2544 
Q 859 2400 934 2306 
Q 1009 2213 1156 2147 
Q 1303 2081 1775 1966 
Q 2222 1853 2419 1758 
Q 2616 1663 2730 1547 
Q 2844 1431 2906 1279 
Q 2969 1128 2969 934 
z
" transform="scale(0.015625)"/>
       <path id="LiberationSans-75" d="M 981 3381 
L 981 1238 
Q 981 903 1047 718 
Q 1113 534 1256 453 
Q 1400 372 1678 372 
Q 2084 372 2318 650 
Q 2553 928 2553 1422 
L 2553 3381 
L 3116 3381 
L 3116 722 
Q 3116 131 3134 0 
L 2603 0 
Q 2600 16 2597 84 
Q 2594 153 2589 242 
Q 2584 331 2578 578 
L 2569 578 
Q 2375 228 2120 82 
Q 1866 -63 1488 -63 
Q 931 -63 673 214 
Q 416 491 416 1128 
L 416 3381 
L 981 3381 
z
" transform="scale(0.015625)"/>
       <path id="LiberationSans-72" d="M 444 0 
L 444 2594 
Q 444 2950 425 3381 
L 956 3381 
Q 981 2806 981 2691 
L 994 2691 
Q 1128 3125 1303 3284 
Q 1478 3444 1797 3444 
Q 1909 3444 2025 3413 
L 2025 2897 
Q 1913 2928 1725 2928 
Q 1375 2928 1190 2626 
Q 1006 2325 1006 1763 
L 1006 0 
L 444 0 
z
" transform="scale(0.015625)"/>
       <path id="LiberationSans-20" transform="scale(0.015625)"/>
       <path id="LiberationSans-79" d="M 597 -1328 
Q 366 -1328 209 -1294 
L 209 -872 
Q 328 -891 472 -891 
Q 997 -891 1303 -119 
L 1356 16 
L 16 3381 
L 616 3381 
L 1328 1513 
Q 1344 1469 1366 1408 
Q 1388 1347 1506 1000 
Q 1625 653 1634 613 
L 1853 1228 
L 2594 3381 
L 3188 3381 
L 1888 0 
Q 1678 -541 1497 -805 
Q 1316 -1069 1095 -1198 
Q 875 -1328 597 -1328 
z
" transform="scale(0.015625)"/>
      </defs>
      <use xlink:href="#LiberationSans-4d"/>
      <use xlink:href="#LiberationSans-65" transform="translate(83.300781 0)"/>
      <use xlink:href="#LiberationSans-74" transform="translate(138.916016 0)"/>
      <use xlink:href="#LiberationSans-61" transform="translate(166.699219 0)"/>
      <use xlink:href="#LiberationSans-64" transform="translate(222.314453 0)"/>
      <use xlink:href="#LiberationSans-61" transform="translate(277.929688 0)"/>
      <use xlink:href="#LiberationSans-74" transform="translate(333.544922 0)"/>
      <use xlink:href="#LiberationSans-61" transform="translate(361.328125 0)"/>
      <use xlink:href="#LiberationSans-2d" transform="translate(416.943359 0)"/>
      <use xlink:href="#LiberationSans-65" transform="translate(450.244141 0)"/>
      <use xlink:href="#LiberationSans-78" transform="translate(505.859375 0)"/>
      <use xlink:href="#LiberationSans-70" transform="translate(555.859375 0)"/>
      <use xlink:href="#LiberationSans-6f" transform="translate(611.474609 0)"/>
      <use xlink:href="#LiberationSans-73" transform="translate(667.089844 0)"/>
      <use xlink:href="#LiberationSans-75" transform="translate(717.089844 0)"/>
      <use xlink:href="#LiberationSans-72" transform="translate(772.705078 0)"/>
      <use xlink:href="#LiberationSans-65" transform="translate(806.005859 0)"/>
      <use xlink:href="#LiberationSans-20" transform="translate(861.621094 0)"/>
      <use xlink:href="#LiberationSans-70" transform="translate(889.404297 0)"/>
      <use xlink:href="#LiberationSans-72" transform="translate(945.019531 0)"/>
      <use xlink:href="#LiberationSans-6f" transform="translate(978.320312 0)"/>
      <use xlink:href="#LiberationSans-78" transform="translate(1033.935547 0)"/>
      <use xlink:href="#LiberationSans-79" transform="translate(1083.935547 0)"/>
     </g>
    </g>
   </g>
   <g id="matplotlib.axis_2">
    <g id="ytick_1">
     <g id="line2d_18">
      <defs>
       <path id="m24c2fd8269" d="M 0 0 
L -3.5 0 
" style="stroke: #000000; stroke-width: 0.8"/>
      </defs>
      <g>
       <use xlink:href="#m24c2fd8269" x="19.665" y="41.07488" style="stroke: #000000; stroke-width: 0.8"/>
      </g>
     </g>
     <g id="text_8">
      <!-- S1 -->
      <g transform="translate(2.88 43.97363) scale(0.08 -0.08)">
       <defs>
        <path id="LiberationSans-53" d="M 3975 1216 
Q 3975 606 3498 271 
Q 3022 -63 2156 -63 
Q 547 -63 291 1056 
L 869 1172 
Q 969 775 1294 589 
Q 1619 403 2178 403 
Q 2756 403 3070 601 
Q 3384 800 3384 1184 
Q 3384 1400 3286 1534 
Q 3188 1669 3009 1756 
Q 2831 1844 2584 1903 
Q 2338 1963 2038 2031 
Q 1516 2147 1245 2262 
Q 975 2378 819 2520 
Q 663 2663 580 2853 
Q 497 3044 497 3291 
Q 497 3856 930 4162 
Q 1363 4469 2169 4469 
Q 2919 4469 3316 4239 
Q 3713 4009 3872 3456 
L 3284 3353 
Q 3188 3703 2916 3861 
Q 2644 4019 2163 4019 
Q 1634 4019 1356 3844 
Q 1078 3669 1078 3322 
Q 1078 3119 1186 2986 
Q 1294 2853 1497 2761 
Q 1700 2669 2306 2534 
Q 2509 2488 2711 2439 
Q 2913 2391 3097 2323 
Q 3281 2256 3442 2165 
Q 3603 2075 3722 1944 
Q 3841 1813 3908 1634 
Q 3975 1456 3975 1216 
z
" transform="scale(0.015625)"/>
        <path id="LiberationSans-31" d="M 488 0 
L 488 478 
L 1609 478 
L 1609 3866 
L 616 3156 
L 616 3688 
L 1656 4403 
L 2175 4403 
L 2175 478 
L 3247 478 
L 3247 0 
L 488 0 
z
" transform="scale(0.015625)"/>
       </defs>
       <use xlink:href="#LiberationSans-53"/>
       <use xlink:href="#LiberationSans-31" transform="translate(66.699219 0)"/>
      </g>
     </g>
    </g>
    <g id="ytick_2">
     <g id="line2d_19">
      <g>
       <use xlink:href="#m24c2fd8269" x="19.665" y="99.03488" style="stroke: #000000; stroke-width: 0.8"/>
      </g>
     </g>
     <g id="text_9">
      <!-- S2 -->
      <g transform="translate(2.88 101.93363) scale(0.08 -0.08)">
       <defs>
        <path id="LiberationSans-32" d="M 322 0 
L 322 397 
Q 481 763 711 1042 
Q 941 1322 1194 1548 
Q 1447 1775 1695 1969 
Q 1944 2163 2144 2356 
Q 2344 2550 2467 2762 
Q 2591 2975 2591 3244 
Q 2591 3606 2378 3806 
Q 2166 4006 1788 4006 
Q 1428 4006 1195 3811 
Q 963 3616 922 3263 
L 347 3316 
Q 409 3844 795 4156 
Q 1181 4469 1788 4469 
Q 2453 4469 2811 4155 
Q 3169 3841 3169 3263 
Q 3169 3006 3051 2753 
Q 2934 2500 2703 2247 
Q 2472 1994 1819 1463 
Q 1459 1169 1246 933 
Q 1034 697 941 478 
L 3238 478 
L 3238 0 
L 322 0 
z
" transform="scale(0.015625)"/>
       </defs>
       <use xlink:href="#LiberationSans-53"/>
       <use xlink:href="#LiberationSans-32" transform="translate(66.699219 0)"/>
      </g>
     </g>
    </g>
    <g id="ytick_3">
     <g id="line2d_20">
      <g>
       <use xlink:href="#m24c2fd8269" x="19.665" y="156.99488" style="stroke: #000000; stroke-width: 0.8"/>
      </g>
     </g>
     <g id="text_10">
      <!-- S3 -->
      <g transform="translate(2.88 159.89363) scale(0.08 -0.08)">
       <use xlink:href="#LiberationSans-53"/>
       <use xlink:href="#LiberationSans-33" transform="translate(66.699219 0)"/>
      </g>
     </g>
    </g>
    <g id="ytick_4">
     <g id="line2d_21">
      <g>
       <use xlink:href="#m24c2fd8269" x="19.665" y="214.95488" style="stroke: #000000; stroke-width: 0.8"/>
      </g>
     </g>
     <g id="text_11">
      <!-- S4 -->
      <g transform="translate(2.88 217.85363) scale(0.08 -0.08)">
       <use xlink:href="#LiberationSans-53"/>
       <use xlink:href="#LiberationSans-34" transform="translate(66.699219 0)"/>
      </g>
     </g>
    </g>
    <g id="ytick_5">
     <g id="line2d_22">
      <g>
       <use xlink:href="#m24c2fd8269" x="19.665" y="272.91488" style="stroke: #000000; stroke-width: 0.8"/>
      </g>
     </g>
     <g id="text_12">
      <!-- S5 -->
      <g transform="translate(2.88 275.81363) scale(0.08 -0.08)">
       <use xlink:href="#LiberationSans-53"/>
       <use xlink:href="#LiberationSans-35" transform="translate(66.699219 0)"/>
      </g>
     </g>
    </g>
   </g>
   <g id="patch_3">
    <path d="M 19.665 284.50688 
L 19.665 29.48288 
" style="fill: none; stroke: #000000; stroke-width: 0.8; stroke-linejoin: miter; stroke-linecap: square"/>
   </g>
   <g id="patch_4">
    <path d="M 19.665 284.50688 
L 432.585 284.50688 
" style="fill: none; stroke: #000000; stroke-width: 0.8; stroke-linejoin: miter; stroke-linecap: square"/>
   </g>
   <g id="PathCollection_1">
    <defs>
     <path id="m8741390c4a" d="M 0 3 
C 0.795609 3 1.55874 2.683901 2.12132 2.12132 
C 2.683901 1.55874 3 0.795609 3 0 
C 3 -0.795609 2.683901 -1.55874 2.12132 -2.12132 
C 1.55874 -2.683901 0.795609 -3 0 -3 
C -0.795609 -3 -1.55874 -2.683901 -2.12132 -2.12132 
C -2.683901 -1.55874 -3 -0.795609 -3 0 
C -3 0.795609 -2.683901 1.55874 -2.12132 2.12132 
C -1.55874 2.683901 -0.795609 3 0 3 
z
" style="stroke: #222222; stroke-width: 0.35"/>
    </defs>
    <g clip-path="url(#p5bc724d80d)">
     <use xlink:href="#m8741390c4a" x="38.434091" y="41.07488" style="fill: #1b1b1b; stroke: #222222; stroke-width: 0.35"/>
    </g>
   </g>
   <g id="PathCollection_2">
    <defs>
     <path id="md5763c94b0" d="M -3 3 
L 3 3 
L 3 -3 
L -3 -3 
z
" style="stroke: #222222; stroke-width: 0.35"/>
    </defs>
    <g clip-path="url(#p5bc724d80d)">
     <use xlink:href="#md5763c94b0" x="142.706818" y="41.07488" style="fill: #666666; stroke: #222222; stroke-width: 0.35"/>
    </g>
   </g>
   <g id="PathCollection_3">
    <defs>
     <path id="m774374c0da" d="M 0 -3 
L -3 3 
L 3 3 
z
" style="stroke: #222222; stroke-width: 0.35"/>
    </defs>
    <g clip-path="url(#p5bc724d80d)">
     <use xlink:href="#m774374c0da" x="281.737121" y="41.07488" style="fill: #aaaaaa; stroke: #222222; stroke-width: 0.35"/>
    </g>
   </g>
   <g id="PathCollection_4">
    <g clip-path="url(#p5bc724d80d)">
     <use xlink:href="#m8741390c4a" x="114.900758" y="99.03488" style="fill: #1b1b1b; stroke: #222222; stroke-width: 0.35"/>
    </g>
   </g>
   <g id="PathCollection_5">
    <g clip-path="url(#p5bc724d80d)">
     <use xlink:href="#md5763c94b0" x="219.173485" y="99.03488" style="fill: #666666; stroke: #222222; stroke-width: 0.35"/>
    </g>
   </g>
   <g id="PathCollection_6">
    <g clip-path="url(#p5bc724d80d)">
     <use xlink:href="#m774374c0da" x="358.203788" y="99.03488" style="fill: #aaaaaa; stroke: #222222; stroke-width: 0.35"/>
    </g>
   </g>
   <g id="PathCollection_7">
    <g clip-path="url(#p5bc724d80d)">
     <use xlink:href="#m8741390c4a" x="128.803788" y="156.99488" style="fill: #1b1b1b; stroke: #222222; stroke-width: 0.35"/>
    </g>
   </g>
   <g id="PathCollection_8">
    <g clip-path="url(#p5bc724d80d)">
     <use xlink:href="#md5763c94b0" x="233.076515" y="156.99488" style="fill: #666666; stroke: #222222; stroke-width: 0.35"/>
    </g>
   </g>
   <g id="PathCollection_9">
    <g clip-path="url(#p5bc724d80d)">
     <use xlink:href="#m774374c0da" x="372.106818" y="156.99488" style="fill: #aaaaaa; stroke: #222222; stroke-width: 0.35"/>
    </g>
   </g>
   <g id="PathCollection_10">
    <g clip-path="url(#p5bc724d80d)">
     <use xlink:href="#m8741390c4a" x="170.512879" y="214.95488" style="fill: #1b1b1b; stroke: #222222; stroke-width: 0.35"/>
    </g>
   </g>
   <g id="PathCollection_11">
    <g clip-path="url(#p5bc724d80d)">
     <use xlink:href="#md5763c94b0" x="274.785606" y="214.95488" style="fill: #666666; stroke: #222222; stroke-width: 0.35"/>
    </g>
   </g>
   <g id="PathCollection_12">
    <g clip-path="url(#p5bc724d80d)">
     <use xlink:href="#m774374c0da" x="413.815909" y="214.95488" style="fill: #aaaaaa; stroke: #222222; stroke-width: 0.35"/>
    </g>
   </g>
   <g id="PathCollection_13">
    <g clip-path="url(#p5bc724d80d)">
     <use xlink:href="#m8741390c4a" x="114.900758" y="272.91488" style="fill: #1b1b1b; stroke: #222222; stroke-width: 0.35"/>
    </g>
   </g>
   <g id="PathCollection_14">
    <g clip-path="url(#p5bc724d80d)">
     <use xlink:href="#md5763c94b0" x="219.173485" y="272.91488" style="fill: #666666; stroke: #222222; stroke-width: 0.35"/>
    </g>
   </g>
   <g id="PathCollection_15">
    <g clip-path="url(#p5bc724d80d)">
     <use xlink:href="#m774374c0da" x="358.203788" y="272.91488" style="fill: #aaaaaa; stroke: #222222; stroke-width: 0.35"/>
    </g>
   </g>
   <g id="legend_1">
    <g id="line2d_23">
     <path d="M 103.150625 9.0775 
L 111.150625 9.0775 
L 119.150625 9.0775 
" style="fill: none; stroke: #000000; stroke-opacity: 0; stroke-width: 1.5; stroke-linecap: square"/>
     <defs>
      <path id="m500db1f82c" d="M 0 3 
C 0.795609 3 1.55874 2.683901 2.12132 2.12132 
C 2.683901 1.55874 3 0.795609 3 0 
C 3 -0.795609 2.683901 -1.55874 2.12132 -2.12132 
C 1.55874 -2.683901 0.795609 -3 0 -3 
C -0.795609 -3 -1.55874 -2.683901 -2.12132 -2.12132 
C -2.683901 -1.55874 -3 -0.795609 -3 0 
C -3 0.795609 -2.683901 1.55874 -2.12132 2.12132 
C -1.55874 2.683901 -0.795609 3 0 3 
z
" style="stroke: #222222"/>
     </defs>
     <g>
      <use xlink:href="#m500db1f82c" x="111.150625" y="9.0775" style="fill: #1b1b1b; stroke: #222222"/>
     </g>
    </g>
    <g id="text_13">
     <!-- A1 central audit -->
     <g transform="translate(125.550625 11.8775) scale(0.08 -0.08)">
      <defs>
       <path id="LiberationSans-41" d="M 3647 0 
L 3144 1288 
L 1138 1288 
L 631 0 
L 13 0 
L 1809 4403 
L 2488 4403 
L 4256 0 
L 3647 0 
z
M 2141 3953 
L 2113 3866 
Q 2034 3606 1881 3200 
L 1319 1753 
L 2966 1753 
L 2400 3206 
Q 2313 3422 2225 3694 
L 2141 3953 
z
" transform="scale(0.015625)"/>
       <path id="LiberationSans-63" d="M 859 1706 
Q 859 1031 1071 706 
Q 1284 381 1713 381 
Q 2013 381 2214 543 
Q 2416 706 2463 1044 
L 3031 1006 
Q 2966 519 2616 228 
Q 2266 -63 1728 -63 
Q 1019 -63 645 385 
Q 272 834 272 1694 
Q 272 2547 647 2995 
Q 1022 3444 1722 3444 
Q 2241 3444 2583 3175 
Q 2925 2906 3013 2434 
L 2434 2391 
Q 2391 2672 2212 2837 
Q 2034 3003 1706 3003 
Q 1259 3003 1059 2706 
Q 859 2409 859 1706 
z
" transform="scale(0.015625)"/>
       <path id="LiberationSans-6e" d="M 2578 0 
L 2578 2144 
Q 2578 2478 2512 2662 
Q 2447 2847 2303 2928 
Q 2159 3009 1881 3009 
Q 1475 3009 1240 2731 
Q 1006 2453 1006 1959 
L 1006 0 
L 444 0 
L 444 2659 
Q 444 3250 425 3381 
L 956 3381 
Q 959 3366 962 3297 
Q 966 3228 970 3139 
Q 975 3050 981 2803 
L 991 2803 
Q 1184 3153 1439 3298 
Q 1694 3444 2072 3444 
Q 2628 3444 2886 3167 
Q 3144 2891 3144 2253 
L 3144 0 
L 2578 0 
z
" transform="scale(0.015625)"/>
       <path id="LiberationSans-6c" d="M 431 0 
L 431 4638 
L 994 4638 
L 994 0 
L 431 0 
z
" transform="scale(0.015625)"/>
       <path id="LiberationSans-69" d="M 428 4100 
L 428 4638 
L 991 4638 
L 991 4100 
L 428 4100 
z
M 428 0 
L 428 3381 
L 991 3381 
L 991 0 
L 428 0 
z
" transform="scale(0.015625)"/>
      </defs>
      <use xlink:href="#LiberationSans-41"/>
      <use xlink:href="#LiberationSans-31" transform="translate(66.699219 0)"/>
      <use xlink:href="#LiberationSans-20" transform="translate(122.314453 0)"/>
      <use xlink:href="#LiberationSans-63" transform="translate(150.097656 0)"/>
      <use xlink:href="#LiberationSans-65" transform="translate(200.097656 0)"/>
      <use xlink:href="#LiberationSans-6e" transform="translate(255.712891 0)"/>
      <use xlink:href="#LiberationSans-74" transform="translate(311.328125 0)"/>
      <use xlink:href="#LiberationSans-72" transform="translate(339.111328 0)"/>
      <use xlink:href="#LiberationSans-61" transform="translate(372.412109 0)"/>
      <use xlink:href="#LiberationSans-6c" transform="translate(428.027344 0)"/>
      <use xlink:href="#LiberationSans-20" transform="translate(450.244141 0)"/>
      <use xlink:href="#LiberationSans-61" transform="translate(478.027344 0)"/>
      <use xlink:href="#LiberationSans-75" transform="translate(533.642578 0)"/>
      <use xlink:href="#LiberationSans-64" transform="translate(589.257812 0)"/>
      <use xlink:href="#LiberationSans-69" transform="translate(644.873047 0)"/>
      <use xlink:href="#LiberationSans-74" transform="translate(667.089844 0)"/>
     </g>
    </g>
    <g id="line2d_24">
     <path d="M 197.136875 9.0775 
L 205.136875 9.0775 
L 213.136875 9.0775 
" style="fill: none; stroke: #000000; stroke-opacity: 0; stroke-width: 1.5; stroke-linecap: square"/>
     <defs>
      <path id="me7dff0cd51" d="M -3 3 
L 3 3 
L 3 -3 
L -3 -3 
z
" style="stroke: #222222; stroke-linejoin: miter"/>
     </defs>
     <g>
      <use xlink:href="#me7dff0cd51" x="205.136875" y="9.0775" style="fill: #666666; stroke: #222222; stroke-linejoin: miter"/>
     </g>
    </g>
    <g id="text_14">
     <!-- A2 hash log -->
     <g transform="translate(219.536875 11.8775) scale(0.08 -0.08)">
      <defs>
       <path id="LiberationSans-68" d="M 991 2803 
Q 1172 3134 1426 3289 
Q 1681 3444 2072 3444 
Q 2622 3444 2883 3170 
Q 3144 2897 3144 2253 
L 3144 0 
L 2578 0 
L 2578 2144 
Q 2578 2500 2512 2673 
Q 2447 2847 2297 2928 
Q 2147 3009 1881 3009 
Q 1484 3009 1245 2734 
Q 1006 2459 1006 1994 
L 1006 0 
L 444 0 
L 444 4638 
L 1006 4638 
L 1006 3431 
Q 1006 3241 995 3037 
Q 984 2834 981 2803 
L 991 2803 
z
" transform="scale(0.015625)"/>
       <path id="LiberationSans-67" d="M 1713 -1328 
Q 1159 -1328 831 -1111 
Q 503 -894 409 -494 
L 975 -413 
Q 1031 -647 1223 -773 
Q 1416 -900 1728 -900 
Q 2569 -900 2569 84 
L 2569 628 
L 2563 628 
Q 2403 303 2125 139 
Q 1847 -25 1475 -25 
Q 853 -25 561 387 
Q 269 800 269 1684 
Q 269 2581 583 3007 
Q 897 3434 1538 3434 
Q 1897 3434 2161 3270 
Q 2425 3106 2569 2803 
L 2575 2803 
Q 2575 2897 2587 3128 
Q 2600 3359 2613 3381 
L 3147 3381 
Q 3128 3213 3128 2681 
L 3128 97 
Q 3128 -1328 1713 -1328 
z
M 2569 1691 
Q 2569 2103 2456 2401 
Q 2344 2700 2139 2858 
Q 1934 3016 1675 3016 
Q 1244 3016 1047 2703 
Q 850 2391 850 1691 
Q 850 997 1034 694 
Q 1219 391 1666 391 
Q 1931 391 2137 547 
Q 2344 703 2456 995 
Q 2569 1288 2569 1691 
z
" transform="scale(0.015625)"/>
      </defs>
      <use xlink:href="#LiberationSans-41"/>
      <use xlink:href="#LiberationSans-32" transform="translate(66.699219 0)"/>
      <use xlink:href="#LiberationSans-20" transform="translate(122.314453 0)"/>
      <use xlink:href="#LiberationSans-68" transform="translate(150.097656 0)"/>
      <use xlink:href="#LiberationSans-61" transform="translate(205.712891 0)"/>
      <use xlink:href="#LiberationSans-73" transform="translate(261.328125 0)"/>
      <use xlink:href="#LiberationSans-68" transform="translate(311.328125 0)"/>
      <use xlink:href="#LiberationSans-20" transform="translate(366.943359 0)"/>
      <use xlink:href="#LiberationSans-6c" transform="translate(394.726562 0)"/>
      <use xlink:href="#LiberationSans-6f" transform="translate(416.943359 0)"/>
      <use xlink:href="#LiberationSans-67" transform="translate(472.558594 0)"/>
     </g>
    </g>
    <g id="line2d_25">
     <path d="M 277.788125 9.0775 
L 285.788125 9.0775 
L 293.788125 9.0775 
" style="fill: none; stroke: #000000; stroke-opacity: 0; stroke-width: 1.5; stroke-linecap: square"/>
     <defs>
      <path id="mac10f1d79e" d="M 0 -3 
L -3 3 
L 3 3 
z
" style="stroke: #222222; stroke-linejoin: miter"/>
     </defs>
     <g>
      <use xlink:href="#mac10f1d79e" x="285.788125" y="9.0775" style="fill: #aaaaaa; stroke: #222222; stroke-linejoin: miter"/>
     </g>
    </g>
    <g id="text_15">
     <!-- A3 ledger-like -->
     <g transform="translate(300.188125 11.8775) scale(0.08 -0.08)">
      <defs>
       <path id="LiberationSans-6b" d="M 2550 0 
L 1406 1544 
L 994 1203 
L 994 0 
L 431 0 
L 431 4638 
L 994 4638 
L 994 1741 
L 2478 3381 
L 3138 3381 
L 1766 1928 
L 3209 0 
L 2550 0 
z
" transform="scale(0.015625)"/>
      </defs>
      <use xlink:href="#LiberationSans-41"/>
      <use xlink:href="#LiberationSans-33" transform="translate(66.699219 0)"/>
      <use xlink:href="#LiberationSans-20" transform="translate(122.314453 0)"/>
      <use xlink:href="#LiberationSans-6c" transform="translate(150.097656 0)"/>
      <use xlink:href="#LiberationSans-65" transform="translate(172.314453 0)"/>
      <use xlink:href="#LiberationSans-64" transform="translate(227.929688 0)"/>
      <use xlink:href="#LiberationSans-67" transform="translate(283.544922 0)"/>
      <use xlink:href="#LiberationSans-65" transform="translate(339.160156 0)"/>
      <use xlink:href="#LiberationSans-72" transform="translate(394.775391 0)"/>
      <use xlink:href="#LiberationSans-2d" transform="translate(428.076172 0)"/>
      <use xlink:href="#LiberationSans-6c" transform="translate(461.376953 0)"/>
      <use xlink:href="#LiberationSans-69" transform="translate(483.59375 0)"/>
      <use xlink:href="#LiberationSans-6b" transform="translate(505.810547 0)"/>
      <use xlink:href="#LiberationSans-65" transform="translate(555.810547 0)"/>
     </g>
    </g>
   </g>
  </g>
 </g>
 <defs>
  <clipPath id="p5bc724d80d">
   <rect x="19.665" y="29.48288" width="412.92" height="255.024"/>
  </clipPath>
 </defs>
</svg>
