<?xml version="1.0" encoding="utf-8" standalone="no"?>
<!DOCTYPE svg PUBLIC "-//W3C//DTD SVG 1.1//EN"
  "http://www.w3.org/Graphics/SVG/1.1/DTD/svg11.dtd">
<svg xmlns:xlink="http://www.w3.org/1999/xlink" width="563.76pt" height="227.52pt" viewBox="0 0 563.76 227.52" xmlns="http://www.w3.org/2000/svg" version="1.1">
 <metadata>
  <rdf:RDF xmlns:dc="http://purl.org/dc/elements/1.1/" xmlns:cc="http://creativecommons.org/ns#" xmlns:rdf="http://www.w3.org/1999/02/22-rdf-syntax-ns#">
   <cc:Work>
    <dc:type rdf:resource="http://purl.org/dc/dcmitype/StillImage"/>
    <dc:date>2026-07-02T14:39:55.929423</dc:date>
    <dc:format>image/svg+xml</dc:format>
    <dc:creator>
     <cc:Agent>
      <dc:title>TEA-Sim plotting scripts</dc:title>
     </cc:Agent>
    </dc:creator>
   </cc:Work>
  </rdf:RDF>
 </metadata>
 <defs>
  <style type="text/css">*{stroke-linejoin: round; stroke-linecap: butt}</style>
 </defs>
 <g id="figure_1">
  <g id="patch_1">
   <path d="M 0 227.52 
L 563.76 227.52 
L 563.76 0 
L 0 0 
z
" style="fill: #ffffff"/>
  </g>
  <g id="axes_1">
   <g id="patch_2">
    <path d="M 24.642 105.77664 
L 137.358 105.77664 
Q 147.402 105.77664 147.402 101.78496 
L 147.402 54.77184 
Q 147.402 50.78016 137.358 50.78016 
L 24.642 50.78016 
Q 14.598 50.78016 14.598 54.77184 
L 14.598 101.78496 
Q 14.598 105.77664 24.642 105.77664 
z
" clip-path="url(#pff97331283)" style="fill: #f7f7f7; stroke: #222222; stroke-linejoin: miter"/>
   </g>
   <g id="patch_3">
    <path d="M 164.142 105.77664 
L 276.858 105.77664 
Q 286.902 105.77664 286.902 101.78496 
L 286.902 54.77184 
Q 286.902 50.78016 276.858 50.78016 
L 164.142 50.78016 
Q 154.098 50.78016 154.098 54.77184 
L 154.098 101.78496 
Q 154.098 105.77664 164.142 105.77664 
z
" clip-path="url(#pff97331283)" style="fill: #f7f7f7; stroke: #222222; stroke-linejoin: miter"/>
   </g>
   <g id="patch_4">
    <path d="M 303.642 105.77664 
L 416.358 105.77664 
Q 426.402 105.77664 426.402 101.78496 
L 426.402 54.77184 
Q 426.402 50.78016 416.358 50.78016 
L 303.642 50.78016 
Q 293.598 50.78016 293.598 54.77184 
L 293.598 101.78496 
Q 293.598 105.77664 303.642 105.77664 
z
" clip-path="url(#pff97331283)" style="fill: #f7f7f7; stroke: #222222; stroke-linejoin: miter"/>
   </g>
   <g id="patch_5">
    <path d="M 443.142 105.77664 
L 539.118 105.77664 
Q 549.162 105.77664 549.162 101.78496 
L 549.162 54.77184 
Q 549.162 50.78016 539.118 50.78016 
L 443.142 50.78016 
Q 433.098 50.78016 433.098 54.77184 
L 433.098 101.78496 
Q 433.098 105.77664 443.142 105.77664 
z
" clip-path="url(#pff97331283)" style="fill: #f7f7f7; stroke: #222222; stroke-linejoin: miter"/>
   </g>
   <g id="text_1">
    <!-- Off-chain clinical -->
    <g style="fill: #222222" transform="translate(44.409375 75.659884) scale(0.1 -0.1)">
     <defs>
      <path id="LiberationSans-4f" d="M 4672 2222 
Q 4672 1531 4408 1012 
Q 4144 494 3650 215 
Q 3156 -63 2484 -63 
Q 1806 -63 1314 212 
Q 822 488 562 1008 
Q 303 1528 303 2222 
Q 303 3278 881 3873 
Q 1459 4469 2491 4469 
Q 3163 4469 3656 4201 
Q 4150 3934 4411 3425 
Q 4672 2916 4672 2222 
z
M 4063 2222 
Q 4063 3044 3652 3512 
Q 3241 3981 2491 3981 
Q 1734 3981 1321 3518 
Q 909 3056 909 2222 
Q 909 1394 1326 908 
Q 1744 422 2484 422 
Q 3247 422 3655 892 
Q 4063 1363 4063 2222 
z
" transform="scale(0.015625)"/>
      <path id="LiberationSans-66" d="M 1128 2972 
L 1128 0 
L 566 0 
L 566 2972 
L 91 2972 
L 91 3381 
L 566 3381 
L 566 3763 
Q 566 4225 769 4428 
Q 972 4631 1391 4631 
Q 1625 4631 1788 4594 
L 1788 4166 
Q 1647 4191 1538 4191 
Q 1322 4191 1225 4081 
Q 1128 3972 1128 3684 
L 1128 3381 
L 1788 3381 
L 1788 2972 
L 1128 2972 
z
" transform="scale(0.015625)"/>
      <path id="LiberationSans-2d" d="M 284 1450 
L 284 1950 
L 1847 1950 
L 1847 1450 
L 284 1450 
z
" transform="scale(0.015625)"/>
      <path id="LiberationSans-63" d="M 859 1706 
Q 859 1031 1071 706 
Q 1284 381 1713 381 
Q 2013 381 2214 543 
Q 2416 706 2463 1044 
L 3031 1006 
Q 2966 519 2616 228 
Q 2266 -63 1728 -63 
Q 1019 -63 645 385 
Q 272 834 272 1694 
Q 272 2547 647 2995 
Q 1022 3444 1722 3444 
Q 2241 3444 2583 3175 
Q 2925 2906 3013 2434 
L 2434 2391 
Q 2391 2672 2212 2837 
Q 2034 3003 1706 3003 
Q 1259 3003 1059 2706 
Q 859 2409 859 1706 
z
" transform="scale(0.015625)"/>
      <path id="LiberationSans-68" d="M 991 2803 
Q 1172 3134 1426 3289 
Q 1681 3444 2072 3444 
Q 2622 3444 2883 3170 
Q 3144 2897 3144 2253 
L 3144 0 
L 2578 0 
L 2578 2144 
Q 2578 2500 2512 2673 
Q 2447 2847 2297 2928 
Q 2147 3009 1881 3009 
Q 1484 3009 1245 2734 
Q 1006 2459 1006 1994 
L 1006 0 
L 444 0 
L 444 4638 
L 1006 4638 
L 1006 3431 
Q 1006 3241 995 3037 
Q 984 2834 981 2803 
L 991 2803 
z
" transform="scale(0.015625)"/>
      <path id="LiberationSans-61" d="M 1294 -63 
Q 784 -63 528 206 
Q 272 475 272 944 
Q 272 1469 617 1750 
Q 963 2031 1731 2050 
L 2491 2063 
L 2491 2247 
Q 2491 2659 2316 2837 
Q 2141 3016 1766 3016 
Q 1388 3016 1216 2887 
Q 1044 2759 1009 2478 
L 422 2531 
Q 566 3444 1778 3444 
Q 2416 3444 2737 3151 
Q 3059 2859 3059 2306 
L 3059 850 
Q 3059 600 3125 473 
Q 3191 347 3375 347 
Q 3456 347 3559 369 
L 3559 19 
Q 3347 -31 3125 -31 
Q 2813 -31 2670 133 
Q 2528 297 2509 647 
L 2491 647 
Q 2275 259 1989 98 
Q 1703 -63 1294 -63 
z
M 1422 359 
Q 1731 359 1972 500 
Q 2213 641 2352 886 
Q 2491 1131 2491 1391 
L 2491 1669 
L 1875 1656 
Q 1478 1650 1273 1575 
Q 1069 1500 959 1344 
Q 850 1188 850 934 
Q 850 659 998 509 
Q 1147 359 1422 359 
z
" transform="scale(0.015625)"/>
      <path id="LiberationSans-69" d="M 428 4100 
L 428 4638 
L 991 4638 
L 991 4100 
L 428 4100 
z
M 428 0 
L 428 3381 
L 991 3381 
L 991 0 
L 428 0 
z
" transform="scale(0.015625)"/>
      <path id="LiberationSans-6e" d="M 2578 0 
L 2578 2144 
Q 2578 2478 2512 2662 
Q 2447 2847 2303 2928 
Q 2159 3009 1881 3009 
Q 1475 3009 1240 2731 
Q 1006 2453 1006 1959 
L 1006 0 
L 444 0 
L 444 2659 
Q 444 3250 425 3381 
L 956 3381 
Q 959 3366 962 3297 
Q 966 3228 970 3139 
Q 975 3050 981 2803 
L 991 2803 
Q 1184 3153 1439 3298 
Q 1694 3444 2072 3444 
Q 2628 3444 2886 3167 
Q 3144 2891 3144 2253 
L 3144 0 
L 2578 0 
z
" transform="scale(0.015625)"/>
      <path id="LiberationSans-20" transform="scale(0.015625)"/>
      <path id="LiberationSans-6c" d="M 431 0 
L 431 4638 
L 994 4638 
L 994 0 
L 431 0 
z
" transform="scale(0.015625)"/>
     </defs>
     <use xlink:href="#LiberationSans-4f"/>
     <use xlink:href="#LiberationSans-66" transform="translate(77.783203 0)"/>
     <use xlink:href="#LiberationSans-66" transform="translate(103.816406 0)"/>
     <use xlink:href="#LiberationSans-2d" transform="translate(131.599609 0)"/>
     <use xlink:href="#LiberationSans-63" transform="translate(164.900391 0)"/>
     <use xlink:href="#LiberationSans-68" transform="translate(214.900391 0)"/>
     <use xlink:href="#LiberationSans-61" transform="translate(270.515625 0)"/>
     <use xlink:href="#LiberationSans-69" transform="translate(326.130859 0)"/>
     <use xlink:href="#LiberationSans-6e" transform="translate(348.347656 0)"/>
     <use xlink:href="#LiberationSans-20" transform="translate(403.962891 0)"/>
     <use xlink:href="#LiberationSans-63" transform="translate(431.746094 0)"/>
     <use xlink:href="#LiberationSans-6c" transform="translate(481.746094 0)"/>
     <use xlink:href="#LiberationSans-69" transform="translate(503.962891 0)"/>
     <use xlink:href="#LiberationSans-6e" transform="translate(526.179688 0)"/>
     <use xlink:href="#LiberationSans-69" transform="translate(581.794922 0)"/>
     <use xlink:href="#LiberationSans-63" transform="translate(604.011719 0)"/>
     <use xlink:href="#LiberationSans-61" transform="translate(654.011719 0)"/>
     <use xlink:href="#LiberationSans-6c" transform="translate(709.626953 0)"/>
    </g>
    <!-- payload custody -->
    <g style="fill: #222222" transform="translate(44.867188 86.068791) scale(0.1 -0.1)">
     <defs>
      <path id="LiberationSans-70" d="M 3291 1706 
Q 3291 -63 2047 -63 
Q 1266 -63 997 525 
L 981 525 
Q 994 500 994 -6 
L 994 -1328 
L 431 -1328 
L 431 2691 
Q 431 3213 413 3381 
L 956 3381 
Q 959 3369 965 3292 
Q 972 3216 980 3056 
Q 988 2897 988 2838 
L 1000 2838 
Q 1150 3150 1397 3295 
Q 1644 3441 2047 3441 
Q 2672 3441 2981 3022 
Q 3291 2603 3291 1706 
z
M 2700 1694 
Q 2700 2400 2509 2703 
Q 2319 3006 1903 3006 
Q 1569 3006 1380 2865 
Q 1191 2725 1092 2426 
Q 994 2128 994 1650 
Q 994 984 1206 668 
Q 1419 353 1897 353 
Q 2316 353 2508 661 
Q 2700 969 2700 1694 
z
" transform="scale(0.015625)"/>
      <path id="LiberationSans-79" d="M 597 -1328 
Q 366 -1328 209 -1294 
L 209 -872 
Q 328 -891 472 -891 
Q 997 -891 1303 -119 
L 1356 16 
L 16 3381 
L 616 3381 
L 1328 1513 
Q 1344 1469 1366 1408 
Q 1388 1347 1506 1000 
Q 1625 653 1634 613 
L 1853 1228 
L 2594 3381 
L 3188 3381 
L 1888 0 
Q 1678 -541 1497 -805 
Q 1316 -1069 1095 -1198 
Q 875 -1328 597 -1328 
z
" transform="scale(0.015625)"/>
      <path id="LiberationSans-6f" d="M 3291 1694 
Q 3291 806 2900 371 
Q 2509 -63 1766 -63 
Q 1025 -63 647 389 
Q 269 841 269 1694 
Q 269 3444 1784 3444 
Q 2559 3444 2925 3017 
Q 3291 2591 3291 1694 
z
M 2700 1694 
Q 2700 2394 2492 2711 
Q 2284 3028 1794 3028 
Q 1300 3028 1079 2704 
Q 859 2381 859 1694 
Q 859 1025 1076 689 
Q 1294 353 1759 353 
Q 2266 353 2483 678 
Q 2700 1003 2700 1694 
z
" transform="scale(0.015625)"/>
      <path id="LiberationSans-64" d="M 2566 544 
Q 2409 219 2151 78 
Q 1894 -63 1513 -63 
Q 872 -63 570 368 
Q 269 800 269 1675 
Q 269 3444 1513 3444 
Q 1897 3444 2153 3303 
Q 2409 3163 2566 2856 
L 2572 2856 
L 2566 3234 
L 2566 4638 
L 3128 4638 
L 3128 697 
Q 3128 169 3147 0 
L 2609 0 
Q 2600 50 2589 231 
Q 2578 413 2578 544 
L 2566 544 
z
M 859 1694 
Q 859 984 1046 678 
Q 1234 372 1656 372 
Q 2134 372 2350 703 
Q 2566 1034 2566 1731 
Q 2566 2403 2350 2715 
Q 2134 3028 1663 3028 
Q 1238 3028 1048 2714 
Q 859 2400 859 1694 
z
" transform="scale(0.015625)"/>
      <path id="LiberationSans-75" d="M 981 3381 
L 981 1238 
Q 981 903 1047 718 
Q 1113 534 1256 453 
Q 1400 372 1678 372 
Q 2084 372 2318 650 
Q 2553 928 2553 1422 
L 2553 3381 
L 3116 3381 
L 3116 722 
Q 3116 131 3134 0 
L 2603 0 
Q 2600 16 2597 84 
Q 2594 153 2589 242 
Q 2584 331 2578 578 
L 2569 578 
Q 2375 228 2120 82 
Q 1866 -63 1488 -63 
Q 931 -63 673 214 
Q 416 491 416 1128 
L 416 3381 
L 981 3381 
z
" transform="scale(0.015625)"/>
      <path id="LiberationSans-73" d="M 2969 934 
Q 2969 456 2608 196 
Q 2247 -63 1597 -63 
Q 966 -63 623 145 
Q 281 353 178 794 
L 675 891 
Q 747 619 972 492 
Q 1197 366 1597 366 
Q 2025 366 2223 497 
Q 2422 628 2422 891 
Q 2422 1091 2284 1216 
Q 2147 1341 1841 1422 
L 1438 1528 
Q 953 1653 748 1773 
Q 544 1894 428 2066 
Q 313 2238 313 2488 
Q 313 2950 642 3192 
Q 972 3434 1603 3434 
Q 2163 3434 2492 3237 
Q 2822 3041 2909 2606 
L 2403 2544 
Q 2356 2769 2151 2889 
Q 1947 3009 1603 3009 
Q 1222 3009 1040 2893 
Q 859 2778 859 2544 
Q 859 2400 934 2306 
Q 1009 2213 1156 2147 
Q 1303 2081 1775 1966 
Q 2222 1853 2419 1758 
Q 2616 1663 2730 1547 
Q 2844 1431 2906 1279 
Q 2969 1128 2969 934 
z
" transform="scale(0.015625)"/>
      <path id="LiberationSans-74" d="M 1731 25 
Q 1453 -50 1163 -50 
Q 488 -50 488 716 
L 488 2972 
L 97 2972 
L 97 3381 
L 509 3381 
L 675 4138 
L 1050 4138 
L 1050 3381 
L 1675 3381 
L 1675 2972 
L 1050 2972 
L 1050 838 
Q 1050 594 1129 495 
Q 1209 397 1406 397 
Q 1519 397 1731 441 
L 1731 25 
z
" transform="scale(0.015625)"/>
     </defs>
     <use xlink:href="#LiberationSans-70"/>
     <use xlink:href="#LiberationSans-61" transform="translate(55.615234 0)"/>
     <use xlink:href="#LiberationSans-79" transform="translate(111.230469 0)"/>
     <use xlink:href="#LiberationSans-6c" transform="translate(161.230469 0)"/>
     <use xlink:href="#LiberationSans-6f" transform="translate(183.447266 0)"/>
     <use xlink:href="#LiberationSans-61" transform="translate(239.0625 0)"/>
     <use xlink:href="#LiberationSans-64" transform="translate(294.677734 0)"/>
     <use xlink:href="#LiberationSans-20" transform="translate(350.292969 0)"/>
     <use xlink:href="#LiberationSans-63" transform="translate(378.076172 0)"/>
     <use xlink:href="#LiberationSans-75" transform="translate(428.076172 0)"/>
     <use xlink:href="#LiberationSans-73" transform="translate(483.691406 0)"/>
     <use xlink:href="#LiberationSans-74" transform="translate(533.691406 0)"/>
     <use xlink:href="#LiberationSans-6f" transform="translate(561.474609 0)"/>
     <use xlink:href="#LiberationSans-64" transform="translate(617.089844 0)"/>
     <use xlink:href="#LiberationSans-79" transform="translate(672.705078 0)"/>
    </g>
   </g>
   <g id="text_2">
    <!-- Compact TrustEvidence -->
    <g style="fill: #222222" transform="translate(167.423437 75.659884) scale(0.1 -0.1)">
     <defs>
      <path id="LiberationSans-43" d="M 2475 3981 
Q 1744 3981 1337 3511 
Q 931 3041 931 2222 
Q 931 1413 1354 920 
Q 1778 428 2500 428 
Q 3425 428 3891 1344 
L 4378 1100 
Q 4106 531 3614 234 
Q 3122 -63 2472 -63 
Q 1806 -63 1320 214 
Q 834 491 579 1005 
Q 325 1519 325 2222 
Q 325 3275 894 3872 
Q 1463 4469 2469 4469 
Q 3172 4469 3644 4194 
Q 4116 3919 4338 3378 
L 3772 3191 
Q 3619 3575 3280 3778 
Q 2941 3981 2475 3981 
z
" transform="scale(0.015625)"/>
      <path id="LiberationSans-6d" d="M 2400 0 
L 2400 2144 
Q 2400 2634 2265 2821 
Q 2131 3009 1781 3009 
Q 1422 3009 1212 2734 
Q 1003 2459 1003 1959 
L 1003 0 
L 444 0 
L 444 2659 
Q 444 3250 425 3381 
L 956 3381 
Q 959 3366 962 3297 
Q 966 3228 970 3139 
Q 975 3050 981 2803 
L 991 2803 
Q 1172 3163 1406 3303 
Q 1641 3444 1978 3444 
Q 2363 3444 2586 3291 
Q 2809 3138 2897 2803 
L 2906 2803 
Q 3081 3144 3329 3294 
Q 3578 3444 3931 3444 
Q 4444 3444 4676 3166 
Q 4909 2888 4909 2253 
L 4909 0 
L 4353 0 
L 4353 2144 
Q 4353 2634 4218 2821 
Q 4084 3009 3734 3009 
Q 3366 3009 3161 2736 
Q 2956 2463 2956 1959 
L 2956 0 
L 2400 0 
z
" transform="scale(0.015625)"/>
      <path id="LiberationSans-54" d="M 2250 3916 
L 2250 0 
L 1656 0 
L 1656 3916 
L 144 3916 
L 144 4403 
L 3763 4403 
L 3763 3916 
L 2250 3916 
z
" transform="scale(0.015625)"/>
      <path id="LiberationSans-72" d="M 444 0 
L 444 2594 
Q 444 2950 425 3381 
L 956 3381 
Q 981 2806 981 2691 
L 994 2691 
Q 1128 3125 1303 3284 
Q 1478 3444 1797 3444 
Q 1909 3444 2025 3413 
L 2025 2897 
Q 1913 2928 1725 2928 
Q 1375 2928 1190 2626 
Q 1006 2325 1006 1763 
L 1006 0 
L 444 0 
z
" transform="scale(0.015625)"/>
      <path id="LiberationSans-45" d="M 525 0 
L 525 4403 
L 3866 4403 
L 3866 3916 
L 1122 3916 
L 1122 2503 
L 3678 2503 
L 3678 2022 
L 1122 2022 
L 1122 488 
L 3994 488 
L 3994 0 
L 525 0 
z
" transform="scale(0.015625)"/>
      <path id="LiberationSans-76" d="M 1916 0 
L 1250 0 
L 22 3381 
L 622 3381 
L 1366 1181 
Q 1406 1056 1581 441 
L 1691 806 
L 1813 1175 
L 2581 3381 
L 3178 3381 
L 1916 0 
z
" transform="scale(0.015625)"/>
      <path id="LiberationSans-65" d="M 863 1572 
Q 863 991 1103 675 
Q 1344 359 1806 359 
Q 2172 359 2392 506 
Q 2613 653 2691 878 
L 3184 738 
Q 2881 -63 1806 -63 
Q 1056 -63 664 384 
Q 272 831 272 1713 
Q 272 2550 664 2997 
Q 1056 3444 1784 3444 
Q 3275 3444 3275 1647 
L 3275 1572 
L 863 1572 
z
M 2694 2003 
Q 2647 2538 2422 2783 
Q 2197 3028 1775 3028 
Q 1366 3028 1127 2754 
Q 888 2481 869 2003 
L 2694 2003 
z
" transform="scale(0.015625)"/>
     </defs>
     <use xlink:href="#LiberationSans-43"/>
     <use xlink:href="#LiberationSans-6f" transform="translate(72.216797 0)"/>
     <use xlink:href="#LiberationSans-6d" transform="translate(127.832031 0)"/>
     <use xlink:href="#LiberationSans-70" transform="translate(211.132812 0)"/>
     <use xlink:href="#LiberationSans-61" transform="translate(266.748047 0)"/>
     <use xlink:href="#LiberationSans-63" transform="translate(322.363281 0)"/>
     <use xlink:href="#LiberationSans-74" transform="translate(372.363281 0)"/>
     <use xlink:href="#LiberationSans-20" transform="translate(400.146484 0)"/>
     <use xlink:href="#LiberationSans-54" transform="translate(426.179688 0)"/>
     <use xlink:href="#LiberationSans-72" transform="translate(483.513672 0)"/>
     <use xlink:href="#LiberationSans-75" transform="translate(516.814453 0)"/>
     <use xlink:href="#LiberationSans-73" transform="translate(572.429688 0)"/>
     <use xlink:href="#LiberationSans-74" transform="translate(622.429688 0)"/>
     <use xlink:href="#LiberationSans-45" transform="translate(650.212891 0)"/>
     <use xlink:href="#LiberationSans-76" transform="translate(716.912109 0)"/>
     <use xlink:href="#LiberationSans-69" transform="translate(766.912109 0)"/>
     <use xlink:href="#LiberationSans-64" transform="translate(789.128906 0)"/>
     <use xlink:href="#LiberationSans-65" transform="translate(844.744141 0)"/>
     <use xlink:href="#LiberationSans-6e" transform="translate(900.359375 0)"/>
     <use xlink:href="#LiberationSans-63" transform="translate(955.974609 0)"/>
     <use xlink:href="#LiberationSans-65" transform="translate(1005.974609 0)"/>
    </g>
    <!-- artefacts -->
    <g style="fill: #222222" transform="translate(201.326562 86.068791) scale(0.1 -0.1)">
     <use xlink:href="#LiberationSans-61"/>
     <use xlink:href="#LiberationSans-72" transform="translate(55.615234 0)"/>
     <use xlink:href="#LiberationSans-74" transform="translate(88.916016 0)"/>
     <use xlink:href="#LiberationSans-65" transform="translate(116.699219 0)"/>
     <use xlink:href="#LiberationSans-66" transform="translate(172.314453 0)"/>
     <use xlink:href="#LiberationSans-61" transform="translate(200.097656 0)"/>
     <use xlink:href="#LiberationSans-63" transform="translate(255.712891 0)"/>
     <use xlink:href="#LiberationSans-74" transform="translate(305.712891 0)"/>
     <use xlink:href="#LiberationSans-73" transform="translate(333.496094 0)"/>
    </g>
   </g>
   <g id="text_3">
    <!-- Evidence-storage -->
    <g style="fill: #222222" transform="translate(321.091406 75.659884) scale(0.1 -0.1)">
     <defs>
      <path id="LiberationSans-67" d="M 1713 -1328 
Q 1159 -1328 831 -1111 
Q 503 -894 409 -494 
L 975 -413 
Q 1031 -647 1223 -773 
Q 1416 -900 1728 -900 
Q 2569 -900 2569 84 
L 2569 628 
L 2563 628 
Q 2403 303 2125 139 
Q 1847 -25 1475 -25 
Q 853 -25 561 387 
Q 269 800 269 1684 
Q 269 2581 583 3007 
Q 897 3434 1538 3434 
Q 1897 3434 2161 3270 
Q 2425 3106 2569 2803 
L 2575 2803 
Q 2575 2897 2587 3128 
Q 2600 3359 2613 3381 
L 3147 3381 
Q 3128 3213 3128 2681 
L 3128 97 
Q 3128 -1328 1713 -1328 
z
M 2569 1691 
Q 2569 2103 2456 2401 
Q 2344 2700 2139 2858 
Q 1934 3016 1675 3016 
Q 1244 3016 1047 2703 
Q 850 2391 850 1691 
Q 850 997 1034 694 
Q 1219 391 1666 391 
Q 1931 391 2137 547 
Q 2344 703 2456 995 
Q 2569 1288 2569 1691 
z
" transform="scale(0.015625)"/>
     </defs>
     <use xlink:href="#LiberationSans-45"/>
     <use xlink:href="#LiberationSans-76" transform="translate(66.699219 0)"/>
     <use xlink:href="#LiberationSans-69" transform="translate(116.699219 0)"/>
     <use xlink:href="#LiberationSans-64" transform="translate(138.916016 0)"/>
     <use xlink:href="#LiberationSans-65" transform="translate(194.53125 0)"/>
     <use xlink:href="#LiberationSans-6e" transform="translate(250.146484 0)"/>
     <use xlink:href="#LiberationSans-63" transform="translate(305.761719 0)"/>
     <use xlink:href="#LiberationSans-65" transform="translate(355.761719 0)"/>
     <use xlink:href="#LiberationSans-2d" transform="translate(411.376953 0)"/>
     <use xlink:href="#LiberationSans-73" transform="translate(444.677734 0)"/>
     <use xlink:href="#LiberationSans-74" transform="translate(494.677734 0)"/>
     <use xlink:href="#LiberationSans-6f" transform="translate(522.460938 0)"/>
     <use xlink:href="#LiberationSans-72" transform="translate(578.076172 0)"/>
     <use xlink:href="#LiberationSans-61" transform="translate(611.376953 0)"/>
     <use xlink:href="#LiberationSans-67" transform="translate(666.992188 0)"/>
     <use xlink:href="#LiberationSans-65" transform="translate(722.607422 0)"/>
    </g>
    <!-- alternatives -->
    <g style="fill: #222222" transform="translate(334.432813 86.068791) scale(0.1 -0.1)">
     <use xlink:href="#LiberationSans-61"/>
     <use xlink:href="#LiberationSans-6c" transform="translate(55.615234 0)"/>
     <use xlink:href="#LiberationSans-74" transform="translate(77.832031 0)"/>
     <use xlink:href="#LiberationSans-65" transform="translate(105.615234 0)"/>
     <use xlink:href="#LiberationSans-72" transform="translate(161.230469 0)"/>
     <use xlink:href="#LiberationSans-6e" transform="translate(194.53125 0)"/>
     <use xlink:href="#LiberationSans-61" transform="translate(250.146484 0)"/>
     <use xlink:href="#LiberationSans-74" transform="translate(305.761719 0)"/>
     <use xlink:href="#LiberationSans-69" transform="translate(333.544922 0)"/>
     <use xlink:href="#LiberationSans-76" transform="translate(355.761719 0)"/>
     <use xlink:href="#LiberationSans-65" transform="translate(405.761719 0)"/>
     <use xlink:href="#LiberationSans-73" transform="translate(461.376953 0)"/>
    </g>
   </g>
   <g id="text_4">
    <!-- Conditional ledger -->
    <g style="fill: #222222" transform="translate(450.827656 75.659884) scale(0.1 -0.1)">
     <use xlink:href="#LiberationSans-43"/>
     <use xlink:href="#LiberationSans-6f" transform="translate(72.216797 0)"/>
     <use xlink:href="#LiberationSans-6e" transform="translate(127.832031 0)"/>
     <use xlink:href="#LiberationSans-64" transform="translate(183.447266 0)"/>
     <use xlink:href="#LiberationSans-69" transform="translate(239.0625 0)"/>
     <use xlink:href="#LiberationSans-74" transform="translate(261.279297 0)"/>
     <use xlink:href="#LiberationSans-69" transform="translate(289.0625 0)"/>
     <use xlink:href="#LiberationSans-6f" transform="translate(311.279297 0)"/>
     <use xlink:href="#LiberationSans-6e" transform="translate(366.894531 0)"/>
     <use xlink:href="#LiberationSans-61" transform="translate(422.509766 0)"/>
     <use xlink:href="#LiberationSans-6c" transform="translate(478.125 0)"/>
     <use xlink:href="#LiberationSans-20" transform="translate(500.341797 0)"/>
     <use xlink:href="#LiberationSans-6c" transform="translate(528.125 0)"/>
     <use xlink:href="#LiberationSans-65" transform="translate(550.341797 0)"/>
     <use xlink:href="#LiberationSans-64" transform="translate(605.957031 0)"/>
     <use xlink:href="#LiberationSans-67" transform="translate(661.572266 0)"/>
     <use xlink:href="#LiberationSans-65" transform="translate(717.1875 0)"/>
     <use xlink:href="#LiberationSans-72" transform="translate(772.802734 0)"/>
    </g>
    <!-- justification -->
    <g style="fill: #222222" transform="translate(466.397187 86.068791) scale(0.1 -0.1)">
     <defs>
      <path id="LiberationSans-6a" d="M 428 4100 
L 428 4638 
L 991 4638 
L 991 4100 
L 428 4100 
z
M 991 -419 
Q 991 -897 803 -1112 
Q 616 -1328 241 -1328 
Q 0 -1328 -156 -1300 
L -156 -866 
L 38 -884 
Q 253 -884 340 -771 
Q 428 -659 428 -334 
L 428 3381 
L 991 3381 
L 991 -419 
z
" transform="scale(0.015625)"/>
     </defs>
     <use xlink:href="#LiberationSans-6a"/>
     <use xlink:href="#LiberationSans-75" transform="translate(22.216797 0)"/>
     <use xlink:href="#LiberationSans-73" transform="translate(77.832031 0)"/>
     <use xlink:href="#LiberationSans-74" transform="translate(127.832031 0)"/>
     <use xlink:href="#LiberationSans-69" transform="translate(155.615234 0)"/>
     <use xlink:href="#LiberationSans-66" transform="translate(177.832031 0)"/>
     <use xlink:href="#LiberationSans-69" transform="translate(205.615234 0)"/>
     <use xlink:href="#LiberationSans-63" transform="translate(227.832031 0)"/>
     <use xlink:href="#LiberationSans-61" transform="translate(277.832031 0)"/>
     <use xlink:href="#LiberationSans-74" transform="translate(333.447266 0)"/>
     <use xlink:href="#LiberationSans-69" transform="translate(361.230469 0)"/>
     <use xlink:href="#LiberationSans-6f" transform="translate(383.447266 0)"/>
     <use xlink:href="#LiberationSans-6e" transform="translate(439.0625 0)"/>
    </g>
   </g>
   <g id="patch_6">
    <path d="M 148.286953 78.2784 
Q 150.750993 78.2784 151.985195 78.2784 
" style="fill: none; stroke: #222222; stroke-width: 1.1; stroke-linecap: round"/>
    <path d="M 148.385195 76.4784 
L 151.985195 78.2784 
L 148.385195 80.0784 
z
" style="fill: #222222; stroke: #222222; stroke-width: 1.1; stroke-linecap: round"/>
   </g>
   <g id="patch_7">
    <path d="M 287.786953 78.2784 
Q 290.250993 78.2784 291.485195 78.2784 
" style="fill: none; stroke: #222222; stroke-width: 1.1; stroke-linecap: round"/>
    <path d="M 287.885195 76.4784 
L 291.485195 78.2784 
L 287.885195 80.0784 
z
" style="fill: #222222; stroke: #222222; stroke-width: 1.1; stroke-linecap: round"/>
   </g>
   <g id="patch_8">
    <path d="M 427.286953 78.2784 
Q 429.750993 78.2784 430.985195 78.2784 
" style="fill: none; stroke: #222222; stroke-width: 1.1; stroke-linecap: round"/>
    <path d="M 427.385195 76.4784 
L 430.985195 78.2784 
L 427.385195 80.0784 
z
" style="fill: #222222; stroke: #222222; stroke-width: 1.1; stroke-linecap: round"/>
   </g>
   <g id="text_5">
    <!-- Payload repositories remain authoritative; audit evidence is stored centrally, hash-linked or ledger-like according to governance need. -->
    <g style="fill: #222222" transform="translate(11.198031 164.926262) scale(0.092 -0.092)">
     <defs>
      <path id="LiberationSans-50" d="M 3931 3078 
Q 3931 2453 3523 2084 
Q 3116 1716 2416 1716 
L 1122 1716 
L 1122 0 
L 525 0 
L 525 4403 
L 2378 4403 
Q 3119 4403 3525 4056 
Q 3931 3709 3931 3078 
z
M 3331 3072 
Q 3331 3925 2306 3925 
L 1122 3925 
L 1122 2188 
L 2331 2188 
Q 3331 2188 3331 3072 
z
" transform="scale(0.015625)"/>
      <path id="LiberationSans-3b" d="M 1203 647 
L 1203 159 
Q 1203 -172 1143 -394 
Q 1084 -616 959 -819 
L 575 -819 
Q 869 -394 869 0 
L 594 0 
L 594 647 
L 1203 647 
z
M 594 2734 
L 594 3381 
L 1203 3381 
L 1203 2734 
L 594 2734 
z
" transform="scale(0.015625)"/>
      <path id="LiberationSans-2c" d="M 1203 684 
L 1203 159 
Q 1203 -172 1143 -394 
Q 1084 -616 959 -819 
L 575 -819 
Q 869 -394 869 0 
L 594 0 
L 594 684 
L 1203 684 
z
" transform="scale(0.015625)"/>
      <path id="LiberationSans-6b" d="M 2550 0 
L 1406 1544 
L 994 1203 
L 994 0 
L 431 0 
L 431 4638 
L 994 4638 
L 994 1741 
L 2478 3381 
L 3138 3381 
L 1766 1928 
L 3209 0 
L 2550 0 
z
" transform="scale(0.015625)"/>
      <path id="LiberationSans-2e" d="M 584 0 
L 584 684 
L 1194 684 
L 1194 0 
L 584 0 
z
" transform="scale(0.015625)"/>
     </defs>
     <use xlink:href="#LiberationSans-50"/>
     <use xlink:href="#LiberationSans-61" transform="translate(66.699219 0)"/>
     <use xlink:href="#LiberationSans-79" transform="translate(122.314453 0)"/>
     <use xlink:href="#LiberationSans-6c" transform="translate(172.314453 0)"/>
     <use xlink:href="#LiberationSans-6f" transform="translate(194.53125 0)"/>
     <use xlink:href="#LiberationSans-61" transform="translate(250.146484 0)"/>
     <use xlink:href="#LiberationSans-64" transform="translate(305.761719 0)"/>
     <use xlink:href="#LiberationSans-20" transform="translate(361.376953 0)"/>
     <use xlink:href="#LiberationSans-72" transform="translate(389.160156 0)"/>
     <use xlink:href="#LiberationSans-65" transform="translate(422.460938 0)"/>
     <use xlink:href="#LiberationSans-70" transform="translate(478.076172 0)"/>
     <use xlink:href="#LiberationSans-6f" transform="translate(533.691406 0)"/>
     <use xlink:href="#LiberationSans-73" transform="translate(589.306641 0)"/>
     <use xlink:href="#LiberationSans-69" transform="translate(639.306641 0)"/>
     <use xlink:href="#LiberationSans-74" transform="translate(661.523438 0)"/>
     <use xlink:href="#LiberationSans-6f" transform="translate(689.306641 0)"/>
     <use xlink:href="#LiberationSans-72" transform="translate(744.921875 0)"/>
     <use xlink:href="#LiberationSans-69" transform="translate(778.222656 0)"/>
     <use xlink:href="#LiberationSans-65" transform="translate(800.439453 0)"/>
     <use xlink:href="#LiberationSans-73" transform="translate(856.054688 0)"/>
     <use xlink:href="#LiberationSans-20" transform="translate(906.054688 0)"/>
     <use xlink:href="#LiberationSans-72" transform="translate(933.837891 0)"/>
     <use xlink:href="#LiberationSans-65" transform="translate(967.138672 0)"/>
     <use xlink:href="#LiberationSans-6d" transform="translate(1022.753906 0)"/>
     <use xlink:href="#LiberationSans-61" transform="translate(1106.054688 0)"/>
     <use xlink:href="#LiberationSans-69" transform="translate(1161.669922 0)"/>
     <use xlink:href="#LiberationSans-6e" transform="translate(1183.886719 0)"/>
     <use xlink:href="#LiberationSans-20" transform="translate(1239.501953 0)"/>
     <use xlink:href="#LiberationSans-61" transform="translate(1267.285156 0)"/>
     <use xlink:href="#LiberationSans-75" transform="translate(1322.900391 0)"/>
     <use xlink:href="#LiberationSans-74" transform="translate(1378.515625 0)"/>
     <use xlink:href="#LiberationSans-68" transform="translate(1406.298828 0)"/>
     <use xlink:href="#LiberationSans-6f" transform="translate(1461.914062 0)"/>
     <use xlink:href="#LiberationSans-72" transform="translate(1517.529297 0)"/>
     <use xlink:href="#LiberationSans-69" transform="translate(1550.830078 0)"/>
     <use xlink:href="#LiberationSans-74" transform="translate(1573.046875 0)"/>
     <use xlink:href="#LiberationSans-61" transform="translate(1600.830078 0)"/>
     <use xlink:href="#LiberationSans-74" transform="translate(1656.445312 0)"/>
     <use xlink:href="#LiberationSans-69" transform="translate(1684.228516 0)"/>
     <use xlink:href="#LiberationSans-76" transform="translate(1706.445312 0)"/>
     <use xlink:href="#LiberationSans-65" transform="translate(1756.445312 0)"/>
     <use xlink:href="#LiberationSans-3b" transform="translate(1812.060547 0)"/>
     <use xlink:href="#LiberationSans-20" transform="translate(1839.84375 0)"/>
     <use xlink:href="#LiberationSans-61" transform="translate(1867.626953 0)"/>
     <use xlink:href="#LiberationSans-75" transform="translate(1923.242188 0)"/>
     <use xlink:href="#LiberationSans-64" transform="translate(1978.857422 0)"/>
     <use xlink:href="#LiberationSans-69" transform="translate(2034.472656 0)"/>
     <use xlink:href="#LiberationSans-74" transform="translate(2056.689453 0)"/>
     <use xlink:href="#LiberationSans-20" transform="translate(2084.472656 0)"/>
     <use xlink:href="#LiberationSans-65" transform="translate(2112.255859 0)"/>
     <use xlink:href="#LiberationSans-76" transform="translate(2167.871094 0)"/>
     <use xlink:href="#LiberationSans-69" transform="translate(2217.871094 0)"/>
     <use xlink:href="#LiberationSans-64" transform="translate(2240.087891 0)"/>
     <use xlink:href="#LiberationSans-65" transform="translate(2295.703125 0)"/>
     <use xlink:href="#LiberationSans-6e" transform="translate(2351.318359 0)"/>
     <use xlink:href="#LiberationSans-63" transform="translate(2406.933594 0)"/>
     <use xlink:href="#LiberationSans-65" transform="translate(2456.933594 0)"/>
     <use xlink:href="#LiberationSans-20" transform="translate(2512.548828 0)"/>
     <use xlink:href="#LiberationSans-69" transform="translate(2540.332031 0)"/>
     <use xlink:href="#LiberationSans-73" transform="translate(2562.548828 0)"/>
     <use xlink:href="#LiberationSans-20" transform="translate(2612.548828 0)"/>
     <use xlink:href="#LiberationSans-73" transform="translate(2640.332031 0)"/>
     <use xlink:href="#LiberationSans-74" transform="translate(2690.332031 0)"/>
     <use xlink:href="#LiberationSans-6f" transform="translate(2718.115234 0)"/>
     <use xlink:href="#LiberationSans-72" transform="translate(2773.730469 0)"/>
     <use xlink:href="#LiberationSans-65" transform="translate(2807.03125 0)"/>
     <use xlink:href="#LiberationSans-64" transform="translate(2862.646484 0)"/>
     <use xlink:href="#LiberationSans-20" transform="translate(2918.261719 0)"/>
     <use xlink:href="#LiberationSans-63" transform="translate(2946.044922 0)"/>
     <use xlink:href="#LiberationSans-65" transform="translate(2996.044922 0)"/>
     <use xlink:href="#LiberationSans-6e" transform="translate(3051.660156 0)"/>
     <use xlink:href="#LiberationSans-74" transform="translate(3107.275391 0)"/>
     <use xlink:href="#LiberationSans-72" transform="translate(3135.058594 0)"/>
     <use xlink:href="#LiberationSans-61" transform="translate(3168.359375 0)"/>
     <use xlink:href="#LiberationSans-6c" transform="translate(3223.974609 0)"/>
     <use xlink:href="#LiberationSans-6c" transform="translate(3246.191406 0)"/>
     <use xlink:href="#LiberationSans-79" transform="translate(3268.408203 0)"/>
     <use xlink:href="#LiberationSans-2c" transform="translate(3311.033203 0)"/>
     <use xlink:href="#LiberationSans-20" transform="translate(3338.816406 0)"/>
     <use xlink:href="#LiberationSans-68" transform="translate(3366.599609 0)"/>
     <use xlink:href="#LiberationSans-61" transform="translate(3422.214844 0)"/>
     <use xlink:href="#LiberationSans-73" transform="translate(3477.830078 0)"/>
     <use xlink:href="#LiberationSans-68" transform="translate(3527.830078 0)"/>
     <use xlink:href="#LiberationSans-2d" transform="translate(3583.445312 0)"/>
     <use xlink:href="#LiberationSans-6c" transform="translate(3616.746094 0)"/>
     <use xlink:href="#LiberationSans-69" transform="translate(3638.962891 0)"/>
     <use xlink:href="#LiberationSans-6e" transform="translate(3661.179688 0)"/>
     <use xlink:href="#LiberationSans-6b" transform="translate(3716.794922 0)"/>
     <use xlink:href="#LiberationSans-65" transform="translate(3766.794922 0)"/>
     <use xlink:href="#LiberationSans-64" transform="translate(3822.410156 0)"/>
     <use xlink:href="#LiberationSans-20" transform="translate(3878.025391 0)"/>
     <use xlink:href="#LiberationSans-6f" transform="translate(3905.808594 0)"/>
     <use xlink:href="#LiberationSans-72" transform="translate(3961.423828 0)"/>
     <use xlink:href="#LiberationSans-20" transform="translate(3994.724609 0)"/>
     <use xlink:href="#LiberationSans-6c" transform="translate(4022.507812 0)"/>
     <use xlink:href="#LiberationSans-65" transform="translate(4044.724609 0)"/>
     <use xlink:href="#LiberationSans-64" transform="translate(4100.339844 0)"/>
     <use xlink:href="#LiberationSans-67" transform="translate(4155.955078 0)"/>
     <use xlink:href="#LiberationSans-65" transform="translate(4211.570312 0)"/>
     <use xlink:href="#LiberationSans-72" transform="translate(4267.185547 0)"/>
     <use xlink:href="#LiberationSans-2d" transform="translate(4300.486328 0)"/>
     <use xlink:href="#LiberationSans-6c" transform="translate(4333.787109 0)"/>
     <use xlink:href="#LiberationSans-69" transform="translate(4356.003906 0)"/>
     <use xlink:href="#LiberationSans-6b" transform="translate(4378.220703 0)"/>
     <use xlink:href="#LiberationSans-65" transform="translate(4428.220703 0)"/>
     <use xlink:href="#LiberationSans-20" transform="translate(4483.835938 0)"/>
     <use xlink:href="#LiberationSans-61" transform="translate(4511.619141 0)"/>
     <use xlink:href="#LiberationSans-63" transform="translate(4567.234375 0)"/>
     <use xlink:href="#LiberationSans-63" transform="translate(4617.234375 0)"/>
     <use xlink:href="#LiberationSans-6f" transform="translate(4667.234375 0)"/>
     <use xlink:href="#LiberationSans-72" transform="translate(4722.849609 0)"/>
     <use xlink:href="#LiberationSans-64" transform="translate(4756.150391 0)"/>
     <use xlink:href="#LiberationSans-69" transform="translate(4811.765625 0)"/>
     <use xlink:href="#LiberationSans-6e" transform="translate(4833.982422 0)"/>
     <use xlink:href="#LiberationSans-67" transform="translate(4889.597656 0)"/>
     <use xlink:href="#LiberationSans-20" transform="translate(4945.212891 0)"/>
     <use xlink:href="#LiberationSans-74" transform="translate(4972.996094 0)"/>
     <use xlink:href="#LiberationSans-6f" transform="translate(5000.779297 0)"/>
     <use xlink:href="#LiberationSans-20" transform="translate(5056.394531 0)"/>
     <use xlink:href="#LiberationSans-67" transform="translate(5084.177734 0)"/>
     <use xlink:href="#LiberationSans-6f" transform="translate(5139.792969 0)"/>
     <use xlink:href="#LiberationSans-76" transform="translate(5195.408203 0)"/>
     <use xlink:href="#LiberationSans-65" transform="translate(5245.408203 0)"/>
     <use xlink:href="#LiberationSans-72" transform="translate(5301.023438 0)"/>
     <use xlink:href="#LiberationSans-6e" transform="translate(5334.324219 0)"/>
     <use xlink:href="#LiberationSans-61" transform="translate(5389.939453 0)"/>
     <use xlink:href="#LiberationSans-6e" transform="translate(5445.554688 0)"/>
     <use xlink:href="#LiberationSans-63" transform="translate(5501.169922 0)"/>
     <use xlink:href="#LiberationSans-65" transform="translate(5551.169922 0)"/>
     <use xlink:href="#LiberationSans-20" transform="translate(5606.785156 0)"/>
     <use xlink:href="#LiberationSans-6e" transform="translate(5634.568359 0)"/>
     <use xlink:href="#LiberationSans-65" transform="translate(5690.183594 0)"/>
     <use xlink:href="#LiberationSans-65" transform="translate(5745.798828 0)"/>
     <use xlink:href="#LiberationSans-64" transform="translate(5801.414062 0)"/>
     <use xlink:href="#LiberationSans-2e" transform="translate(5857.029297 0)"/>
    </g>
   </g>
  </g>
 </g>
 <defs>
  <clipPath id="pff97331283">
   <rect x="2.88" y="2.88" width="558" height="221.76"/>
  </clipPath>
 </defs>
</svg>
