<?xml version="1.0" encoding="utf-8" standalone="no"?>
<!DOCTYPE svg PUBLIC "-//W3C//DTD SVG 1.1//EN"
  "http://www.w3.org/Graphics/SVG/1.1/DTD/svg11.dtd">
<svg xmlns:xlink="http://www.w3.org/1999/xlink" width="518.4pt" height="309.6pt" viewBox="0 0 518.4 309.6" xmlns="http://www.w3.org/2000/svg" version="1.1">
 <title>Schema-first curation boundary</title>
 <metadata>
  <rdf:RDF xmlns:dc="http://purl.org/dc/elements/1.1/" xmlns:cc="http://creativecommons.org/ns#" xmlns:rdf="http://www.w3.org/1999/02/22-rdf-syntax-ns#">
   <cc:Work>
    <dc:type rdf:resource="http://purl.org/dc/dcmitype/StillImage"/>
    <dc:title>Schema-first curation boundary</dc:title>
    <dc:date>1970-01-01T00:00:00Z</dc:date>
    <dc:description>Separation of governed monitoring payloads from the curated audit-evidence pathway.</dc:description>
    <dc:format>image/svg+xml</dc:format>
    <dc:creator>
     <cc:Agent>
      <dc:title>Matplotlib 3.10.8; TEA-Sim deterministic figure generator</dc:title>
     </cc:Agent>
    </dc:creator>
    <dc:subject>
     <rdf:Bag>
      <rdf:li>personal health monitoring</rdf:li>
      <rdf:li>audit evidence</rdf:li>
      <rdf:li>reproducibility</rdf:li>
     </rdf:Bag>
    </dc:subject>
   </cc:Work>
  </rdf:RDF>
 </metadata>
 <defs>
  <style type="text/css">*{stroke-linejoin: round; stroke-linecap: butt}</style>
 </defs>
 <g id="figure_1">
  <g id="patch_1">
   <path d="M 0 309.6
L 518.4 309.6
L 518.4 0
L 0 0
z
" style="fill: #ffffff"/>
  </g>
  <g id="axes_1">
   <g id="patch_2">
    <path d="M 30.27456 85.914
L 137.27232 85.914
L 137.27232 46.44
L 30.27456 46.44
L 30.27456 85.914
z
" clip-path="url(#p002b00659d)" style="fill: none; stroke: #000000; stroke-width: 1.15; stroke-linejoin: miter"/>
   </g>
   <g id="patch_3">
    <path d="M 381.12768 85.914
L 488.12544 85.914
L 488.12544 46.44
L 381.12768 46.44
L 381.12768 85.914
z
" clip-path="url(#p002b00659d)" style="fill: none; stroke: #000000; stroke-width: 1.15; stroke-linejoin: miter"/>
   </g>
   <g id="patch_4">
    <path d="M 27.78624 192.726
L 89.99424 192.726
L 89.99424 148.608
L 27.78624 148.608
L 27.78624 192.726
z
" clip-path="url(#p002b00659d)" style="fill: none; stroke: #000000; stroke-width: 1.15; stroke-linejoin: miter"/>
   </g>
   <g id="patch_5">
    <path d="M 102.43584 192.726
L 164.64384 192.726
L 164.64384 148.608
L 102.43584 148.608
L 102.43584 192.726
z
" clip-path="url(#p002b00659d)" style="fill: none; stroke: #000000; stroke-width: 1.15; stroke-linejoin: miter"/>
   </g>
   <g id="patch_6">
    <path d="M 177.08544 192.726
L 249.24672 192.726
L 249.24672 148.608
L 177.08544 148.608
L 177.08544 192.726
z
" clip-path="url(#p002b00659d)" style="fill: none; stroke: #000000; stroke-width: 1.15; stroke-linejoin: miter"/>
   </g>
   <g id="patch_7">
    <path d="M 261.68832 192.726
L 333.8496 192.726
L 333.8496 148.608
L 261.68832 148.608
L 261.68832 192.726
z
" clip-path="url(#p002b00659d)" style="fill: none; stroke: #000000; stroke-width: 1.15; stroke-linejoin: miter"/>
   </g>
   <g id="patch_8">
    <path d="M 346.2912 192.726
L 415.96416 192.726
L 415.96416 148.608
L 346.2912 148.608
L 346.2912 192.726
z
" clip-path="url(#p002b00659d)" style="fill: none; stroke: #000000; stroke-width: 1.15; stroke-linejoin: miter"/>
   </g>
   <g id="patch_9">
    <path d="M 428.40576 192.726
L 495.5904 192.726
L 495.5904 148.608
L 428.40576 148.608
L 428.40576 192.726
z
" clip-path="url(#p002b00659d)" style="fill: none; stroke: #000000; stroke-width: 1.15; stroke-linejoin: miter"/>
   </g>
   <g id="patch_10">
    <path d="M 418.45248 276.318
L 505.54368 276.318
L 505.54368 232.2
L 418.45248 232.2
L 418.45248 276.318
z
" clip-path="url(#p002b00659d)" style="fill: none; stroke: #000000; stroke-width: 1.15; stroke-linejoin: miter"/>
   </g>
   <g id="patch_11">
    <path d="M 139.270463 66.177
Q 259.200805 66.177 378.013114 66.177
" clip-path="url(#p002b00659d)" style="fill: none; stroke: #000000; stroke-linecap: round"/>
    <path d="M 373.613114 63.977
L 378.013114 66.177
L 373.613114 68.377
z
" clip-path="url(#p002b00659d)" style="fill: #1f77b4; stroke: #000000; stroke-linecap: round"/>
   </g>
   <g id="patch_12">
    <path d="M 83.036846 87.769871
Q 71.332728 117.258763 60.041058 145.708478
" clip-path="url(#p002b00659d)" style="fill: none; stroke-dasharray: 3.7,1.6; stroke-dashoffset: 0; stroke: #000000; stroke-linecap: round"/>
    <path d="M 63.709067 142.430413
L 60.041058 145.708478
L 59.619411 140.807232
z
" clip-path="url(#p002b00659d)" style="fill: #1f77b4; stroke-dasharray: 3.7,1.6; stroke-dashoffset: 0; stroke: #000000; stroke-linecap: round"/>
   </g>
   <g id="patch_13">
    <path d="M 91.995953 170.667
Q 96.215492 170.667 99.316997 170.667
" clip-path="url(#p002b00659d)" style="fill: none; stroke: #000000; stroke-linecap: round"/>
    <path d="M 94.916997 168.467
L 99.316997 170.667
L 94.916997 172.867
z
" clip-path="url(#p002b00659d)" style="fill: #1f77b4; stroke: #000000; stroke-linecap: round"/>
   </g>
   <g id="patch_14">
    <path d="M 166.645553 170.667
Q 170.865092 170.667 173.966597 170.667
" clip-path="url(#p002b00659d)" style="fill: none; stroke: #000000; stroke-linecap: round"/>
    <path d="M 169.566597 168.467
L 173.966597 170.667
L 169.566597 172.867
z
" clip-path="url(#p002b00659d)" style="fill: #1f77b4; stroke: #000000; stroke-linecap: round"/>
   </g>
   <g id="patch_15">
    <path d="M 251.248432 170.667
Q 255.467972 170.667 258.569477 170.667
" clip-path="url(#p002b00659d)" style="fill: none; stroke: #000000; stroke-linecap: round"/>
    <path d="M 254.169477 168.467
L 258.569477 170.667
L 254.169477 172.867
z
" clip-path="url(#p002b00659d)" style="fill: #1f77b4; stroke: #000000; stroke-linecap: round"/>
   </g>
   <g id="patch_16">
    <path d="M 335.851313 170.667
Q 340.070852 170.667 343.172357 170.667
" clip-path="url(#p002b00659d)" style="fill: none; stroke: #000000; stroke-linecap: round"/>
    <path d="M 338.772357 168.467
L 343.172357 170.667
L 338.772357 172.867
z
" clip-path="url(#p002b00659d)" style="fill: #1f77b4; stroke: #000000; stroke-linecap: round"/>
   </g>
   <g id="patch_17">
    <path d="M 417.965872 170.667
Q 422.185412 170.667 425.286917 170.667
" clip-path="url(#p002b00659d)" style="fill: none; stroke: #000000; stroke-linecap: round"/>
    <path d="M 420.886917 168.467
L 425.286917 170.667
L 420.886917 172.867
z
" clip-path="url(#p002b00659d)" style="fill: #1f77b4; stroke: #000000; stroke-linecap: round"/>
   </g>
   <g id="patch_18">
    <path d="M 461.99808 194.72572
Q 461.99808 212.463333 461.99808 229.082911
" clip-path="url(#p002b00659d)" style="fill: none; stroke: #000000; stroke-linecap: round"/>
    <path d="M 464.19808 224.682911
L 461.99808 229.082911
L 459.79808 224.682911
z
" clip-path="url(#p002b00659d)" style="fill: #1f77b4; stroke: #000000; stroke-linecap: round"/>
   </g>
   <g id="line2d_1">
    <path d="M 22.8096 127.71
L 500.56704 127.71
" clip-path="url(#p002b00659d)" style="fill: none; stroke-dasharray: 3.33,1.44; stroke-dashoffset: 0; stroke: #1f77b4; stroke-width: 0.9"/>
   </g>
   <g id="text_1">
    <!-- Governed payload path -->
    <g transform="translate(24.302592 37.024594) scale(0.09 -0.09)">
     <defs>
      <path id="DejaVuSans-Bold-47" d="M 4781 347
Q 4331 128 3847 18
Q 3363 -91 2847 -91
Q 1681 -91 1000 561
Q 319 1213 319 2328
Q 319 3456 1012 4103
Q 1706 4750 2913 4750
Q 3378 4750 3804 4662
Q 4231 4575 4609 4403
L 4609 3438
Q 4219 3659 3833 3768
Q 3447 3878 3059 3878
Q 2341 3878 1952 3476
Q 1563 3075 1563 2328
Q 1563 1588 1938 1184
Q 2313 781 3003 781
Q 3191 781 3352 804
Q 3513 828 3641 878
L 3641 1784
L 2906 1784
L 2906 2591
L 4781 2591
L 4781 347
z
" transform="scale(0.015625)"/>
      <path id="DejaVuSans-Bold-6f" d="M 2203 2784
Q 1831 2784 1636 2517
Q 1441 2250 1441 1747
Q 1441 1244 1636 976
Q 1831 709 2203 709
Q 2569 709 2762 976
Q 2956 1244 2956 1747
Q 2956 2250 2762 2517
Q 2569 2784 2203 2784
z
M 2203 3584
Q 3106 3584 3614 3096
Q 4122 2609 4122 1747
Q 4122 884 3614 396
Q 3106 -91 2203 -91
Q 1297 -91 786 396
Q 275 884 275 1747
Q 275 2609 786 3096
Q 1297 3584 2203 3584
z
" transform="scale(0.015625)"/>
      <path id="DejaVuSans-Bold-76" d="M 97 3500
L 1216 3500
L 2088 1081
L 2956 3500
L 4078 3500
L 2700 0
L 1472 0
L 97 3500
z
" transform="scale(0.015625)"/>
      <path id="DejaVuSans-Bold-65" d="M 4031 1759
L 4031 1441
L 1416 1441
Q 1456 1047 1700 850
Q 1944 653 2381 653
Q 2734 653 3104 758
Q 3475 863 3866 1075
L 3866 213
Q 3469 63 3072 -14
Q 2675 -91 2278 -91
Q 1328 -91 801 392
Q 275 875 275 1747
Q 275 2603 792 3093
Q 1309 3584 2216 3584
Q 3041 3584 3536 3087
Q 4031 2591 4031 1759
z
M 2881 2131
Q 2881 2450 2695 2645
Q 2509 2841 2209 2841
Q 1884 2841 1681 2658
Q 1478 2475 1428 2131
L 2881 2131
z
" transform="scale(0.015625)"/>
      <path id="DejaVuSans-Bold-72" d="M 3138 2547
Q 2991 2616 2845 2648
Q 2700 2681 2553 2681
Q 2122 2681 1889 2404
Q 1656 2128 1656 1613
L 1656 0
L 538 0
L 538 3500
L 1656 3500
L 1656 2925
Q 1872 3269 2151 3426
Q 2431 3584 2822 3584
Q 2878 3584 2943 3579
Q 3009 3575 3134 3559
L 3138 2547
z
" transform="scale(0.015625)"/>
      <path id="DejaVuSans-Bold-6e" d="M 4056 2131
L 4056 0
L 2931 0
L 2931 347
L 2931 1631
Q 2931 2084 2911 2256
Q 2891 2428 2841 2509
Q 2775 2619 2662 2680
Q 2550 2741 2406 2741
Q 2056 2741 1856 2470
Q 1656 2200 1656 1722
L 1656 0
L 538 0
L 538 3500
L 1656 3500
L 1656 2988
Q 1909 3294 2193 3439
Q 2478 3584 2822 3584
Q 3428 3584 3742 3212
Q 4056 2841 4056 2131
z
" transform="scale(0.015625)"/>
      <path id="DejaVuSans-Bold-64" d="M 2919 2988
L 2919 4863
L 4044 4863
L 4044 0
L 2919 0
L 2919 506
Q 2688 197 2409 53
Q 2131 -91 1766 -91
Q 1119 -91 703 423
Q 288 938 288 1747
Q 288 2556 703 3070
Q 1119 3584 1766 3584
Q 2128 3584 2408 3439
Q 2688 3294 2919 2988
z
M 2181 722
Q 2541 722 2730 984
Q 2919 1247 2919 1747
Q 2919 2247 2730 2509
Q 2541 2772 2181 2772
Q 1825 2772 1636 2509
Q 1447 2247 1447 1747
Q 1447 1247 1636 984
Q 1825 722 2181 722
z
" transform="scale(0.015625)"/>
      <path id="DejaVuSans-Bold-20" transform="scale(0.015625)"/>
      <path id="DejaVuSans-Bold-70" d="M 1656 506
L 1656 -1331
L 538 -1331
L 538 3500
L 1656 3500
L 1656 2988
Q 1888 3294 2169 3439
Q 2450 3584 2816 3584
Q 3463 3584 3878 3070
Q 4294 2556 4294 1747
Q 4294 938 3878 423
Q 3463 -91 2816 -91
Q 2450 -91 2169 54
Q 1888 200 1656 506
z
M 2400 2772
Q 2041 2772 1848 2508
Q 1656 2244 1656 1747
Q 1656 1250 1848 986
Q 2041 722 2400 722
Q 2759 722 2948 984
Q 3138 1247 3138 1747
Q 3138 2247 2948 2509
Q 2759 2772 2400 2772
z
" transform="scale(0.015625)"/>
      <path id="DejaVuSans-Bold-61" d="M 2106 1575
Q 1756 1575 1579 1456
Q 1403 1338 1403 1106
Q 1403 894 1545 773
Q 1688 653 1941 653
Q 2256 653 2472 879
Q 2688 1106 2688 1447
L 2688 1575
L 2106 1575
z
M 3816 1997
L 3816 0
L 2688 0
L 2688 519
Q 2463 200 2181 54
Q 1900 -91 1497 -91
Q 953 -91 614 226
Q 275 544 275 1050
Q 275 1666 698 1953
Q 1122 2241 2028 2241
L 2688 2241
L 2688 2328
Q 2688 2594 2478 2717
Q 2269 2841 1825 2841
Q 1466 2841 1156 2769
Q 847 2697 581 2553
L 581 3406
Q 941 3494 1303 3539
Q 1666 3584 2028 3584
Q 2975 3584 3395 3211
Q 3816 2838 3816 1997
z
" transform="scale(0.015625)"/>
      <path id="DejaVuSans-Bold-79" d="M 78 3500
L 1197 3500
L 2138 1125
L 2938 3500
L 4056 3500
L 2584 -331
Q 2363 -916 2067 -1148
Q 1772 -1381 1288 -1381
L 641 -1381
L 641 -647
L 991 -647
Q 1275 -647 1404 -556
Q 1534 -466 1606 -231
L 1638 -134
L 78 3500
z
" transform="scale(0.015625)"/>
      <path id="DejaVuSans-Bold-6c" d="M 538 4863
L 1656 4863
L 1656 0
L 538 0
L 538 4863
z
" transform="scale(0.015625)"/>
      <path id="DejaVuSans-Bold-74" d="M 1759 4494
L 1759 3500
L 2913 3500
L 2913 2700
L 1759 2700
L 1759 1216
Q 1759 972 1856 886
Q 1953 800 2241 800
L 2816 800
L 2816 0
L 1856 0
Q 1194 0 917 276
Q 641 553 641 1216
L 641 2700
L 84 2700
L 84 3500
L 641 3500
L 641 4494
L 1759 4494
z
" transform="scale(0.015625)"/>
      <path id="DejaVuSans-Bold-68" d="M 4056 2131
L 4056 0
L 2931 0
L 2931 347
L 2931 1625
Q 2931 2084 2911 2256
Q 2891 2428 2841 2509
Q 2775 2619 2662 2680
Q 2550 2741 2406 2741
Q 2056 2741 1856 2470
Q 1656 2200 1656 1722
L 1656 0
L 538 0
L 538 4863
L 1656 4863
L 1656 2988
Q 1909 3294 2193 3439
Q 2478 3584 2822 3584
Q 3428 3584 3742 3212
Q 4056 2841 4056 2131
z
" transform="scale(0.015625)"/>
     </defs>
     <use xlink:href="#DejaVuSans-Bold-47"/>
     <use xlink:href="#DejaVuSans-Bold-6f" transform="translate(82.080078 0)"/>
     <use xlink:href="#DejaVuSans-Bold-76" transform="translate(150.78125 0)"/>
     <use xlink:href="#DejaVuSans-Bold-65" transform="translate(215.966797 0)"/>
     <use xlink:href="#DejaVuSans-Bold-72" transform="translate(283.789062 0)"/>
     <use xlink:href="#DejaVuSans-Bold-6e" transform="translate(333.105469 0)"/>
     <use xlink:href="#DejaVuSans-Bold-65" transform="translate(404.296875 0)"/>
     <use xlink:href="#DejaVuSans-Bold-64" transform="translate(472.119141 0)"/>
     <use xlink:href="#DejaVuSans-Bold-20" transform="translate(543.701172 0)"/>
     <use xlink:href="#DejaVuSans-Bold-70" transform="translate(578.515625 0)"/>
     <use xlink:href="#DejaVuSans-Bold-61" transform="translate(650.097656 0)"/>
     <use xlink:href="#DejaVuSans-Bold-79" transform="translate(714.453125 0)"/>
     <use xlink:href="#DejaVuSans-Bold-6c" transform="translate(779.638672 0)"/>
     <use xlink:href="#DejaVuSans-Bold-6f" transform="translate(813.916016 0)"/>
     <use xlink:href="#DejaVuSans-Bold-61" transform="translate(882.617188 0)"/>
     <use xlink:href="#DejaVuSans-Bold-64" transform="translate(950.097656 0)"/>
     <use xlink:href="#DejaVuSans-Bold-20" transform="translate(1021.679688 0)"/>
     <use xlink:href="#DejaVuSans-Bold-70" transform="translate(1056.494141 0)"/>
     <use xlink:href="#DejaVuSans-Bold-61" transform="translate(1128.076172 0)"/>
     <use xlink:href="#DejaVuSans-Bold-74" transform="translate(1195.556641 0)"/>
     <use xlink:href="#DejaVuSans-Bold-68" transform="translate(1243.359375 0)"/>
    </g>
   </g>
   <g id="text_2">
    <!-- Curated audit-evidence path -->
    <g transform="translate(24.302592 142.443394) scale(0.09 -0.09)">
     <defs>
      <path id="DejaVuSans-Bold-43" d="M 4288 256
Q 3956 84 3597 -3
Q 3238 -91 2847 -91
Q 1681 -91 1000 561
Q 319 1213 319 2328
Q 319 3447 1000 4098
Q 1681 4750 2847 4750
Q 3238 4750 3597 4662
Q 3956 4575 4288 4403
L 4288 3438
Q 3953 3666 3628 3772
Q 3303 3878 2944 3878
Q 2300 3878 1931 3465
Q 1563 3053 1563 2328
Q 1563 1606 1931 1193
Q 2300 781 2944 781
Q 3303 781 3628 887
Q 3953 994 4288 1222
L 4288 256
z
" transform="scale(0.015625)"/>
      <path id="DejaVuSans-Bold-75" d="M 500 1363
L 500 3500
L 1625 3500
L 1625 3150
Q 1625 2866 1622 2436
Q 1619 2006 1619 1863
Q 1619 1441 1641 1255
Q 1663 1069 1716 984
Q 1784 875 1895 815
Q 2006 756 2150 756
Q 2500 756 2700 1025
Q 2900 1294 2900 1772
L 2900 3500
L 4019 3500
L 4019 0
L 2900 0
L 2900 506
Q 2647 200 2364 54
Q 2081 -91 1741 -91
Q 1134 -91 817 281
Q 500 653 500 1363
z
" transform="scale(0.015625)"/>
      <path id="DejaVuSans-Bold-69" d="M 538 3500
L 1656 3500
L 1656 0
L 538 0
L 538 3500
z
M 538 4863
L 1656 4863
L 1656 3950
L 538 3950
L 538 4863
z
" transform="scale(0.015625)"/>
      <path id="DejaVuSans-Bold-2d" d="M 347 2297
L 2309 2297
L 2309 1388
L 347 1388
L 347 2297
z
" transform="scale(0.015625)"/>
      <path id="DejaVuSans-Bold-63" d="M 3366 3391
L 3366 2478
Q 3138 2634 2908 2709
Q 2678 2784 2431 2784
Q 1963 2784 1702 2511
Q 1441 2238 1441 1747
Q 1441 1256 1702 982
Q 1963 709 2431 709
Q 2694 709 2930 787
Q 3166 866 3366 1019
L 3366 103
Q 3103 6 2833 -42
Q 2563 -91 2291 -91
Q 1344 -91 809 395
Q 275 881 275 1747
Q 275 2613 809 3098
Q 1344 3584 2291 3584
Q 2566 3584 2833 3536
Q 3100 3488 3366 3391
z
" transform="scale(0.015625)"/>
     </defs>
     <use xlink:href="#DejaVuSans-Bold-43"/>
     <use xlink:href="#DejaVuSans-Bold-75" transform="translate(73.388672 0)"/>
     <use xlink:href="#DejaVuSans-Bold-72" transform="translate(144.580078 0)"/>
     <use xlink:href="#DejaVuSans-Bold-61" transform="translate(193.896484 0)"/>
     <use xlink:href="#DejaVuSans-Bold-74" transform="translate(261.376953 0)"/>
     <use xlink:href="#DejaVuSans-Bold-65" transform="translate(309.179688 0)"/>
     <use xlink:href="#DejaVuSans-Bold-64" transform="translate(377.001953 0)"/>
     <use xlink:href="#DejaVuSans-Bold-20" transform="translate(448.583984 0)"/>
     <use xlink:href="#DejaVuSans-Bold-61" transform="translate(483.398438 0)"/>
     <use xlink:href="#DejaVuSans-Bold-75" transform="translate(550.878906 0)"/>
     <use xlink:href="#DejaVuSans-Bold-64" transform="translate(622.070312 0)"/>
     <use xlink:href="#DejaVuSans-Bold-69" transform="translate(693.652344 0)"/>
     <use xlink:href="#DejaVuSans-Bold-74" transform="translate(727.929688 0)"/>
     <use xlink:href="#DejaVuSans-Bold-2d" transform="translate(775.732422 0)"/>
     <use xlink:href="#DejaVuSans-Bold-65" transform="translate(817.236328 0)"/>
     <use xlink:href="#DejaVuSans-Bold-76" transform="translate(885.058594 0)"/>
     <use xlink:href="#DejaVuSans-Bold-69" transform="translate(950.244141 0)"/>
     <use xlink:href="#DejaVuSans-Bold-64" transform="translate(984.521484 0)"/>
     <use xlink:href="#DejaVuSans-Bold-65" transform="translate(1056.103516 0)"/>
     <use xlink:href="#DejaVuSans-Bold-6e" transform="translate(1123.925781 0)"/>
     <use xlink:href="#DejaVuSans-Bold-63" transform="translate(1195.117188 0)"/>
     <use xlink:href="#DejaVuSans-Bold-65" transform="translate(1254.394531 0)"/>
     <use xlink:href="#DejaVuSans-Bold-20" transform="translate(1322.216797 0)"/>
     <use xlink:href="#DejaVuSans-Bold-70" transform="translate(1357.03125 0)"/>
     <use xlink:href="#DejaVuSans-Bold-61" transform="translate(1428.613281 0)"/>
     <use xlink:href="#DejaVuSans-Bold-74" transform="translate(1496.09375 0)"/>
     <use xlink:href="#DejaVuSans-Bold-68" transform="translate(1543.896484 0)"/>
    </g>
   </g>
   <g id="text_3">
    <!-- Personal monitoring -->
    <g transform="translate(33.850393 58.543869) scale(0.087 -0.087)">
     <defs>
      <path id="DejaVuSans-Bold-50" d="M 588 4666
L 2584 4666
Q 3475 4666 3951 4270
Q 4428 3875 4428 3144
Q 4428 2409 3951 2014
Q 3475 1619 2584 1619
L 1791 1619
L 1791 0
L 588 0
L 588 4666
z
M 1791 3794
L 1791 2491
L 2456 2491
Q 2806 2491 2997 2661
Q 3188 2831 3188 3144
Q 3188 3456 2997 3625
Q 2806 3794 2456 3794
L 1791 3794
z
" transform="scale(0.015625)"/>
      <path id="DejaVuSans-Bold-73" d="M 3272 3391
L 3272 2541
Q 2913 2691 2578 2766
Q 2244 2841 1947 2841
Q 1628 2841 1473 2761
Q 1319 2681 1319 2516
Q 1319 2381 1436 2309
Q 1553 2238 1856 2203
L 2053 2175
Q 2913 2066 3209 1816
Q 3506 1566 3506 1031
Q 3506 472 3093 190
Q 2681 -91 1863 -91
Q 1516 -91 1145 -36
Q 775 19 384 128
L 384 978
Q 719 816 1070 734
Q 1422 653 1784 653
Q 2113 653 2278 743
Q 2444 834 2444 1013
Q 2444 1163 2330 1236
Q 2216 1309 1875 1350
L 1678 1375
Q 931 1469 631 1722
Q 331 1975 331 2491
Q 331 3047 712 3315
Q 1094 3584 1881 3584
Q 2191 3584 2531 3537
Q 2872 3491 3272 3391
z
" transform="scale(0.015625)"/>
      <path id="DejaVuSans-Bold-6d" d="M 3781 2919
Q 3994 3244 4286 3414
Q 4578 3584 4928 3584
Q 5531 3584 5847 3212
Q 6163 2841 6163 2131
L 6163 0
L 5038 0
L 5038 1825
Q 5041 1866 5042 1909
Q 5044 1953 5044 2034
Q 5044 2406 4934 2573
Q 4825 2741 4581 2741
Q 4263 2741 4089 2478
Q 3916 2216 3909 1719
L 3909 0
L 2784 0
L 2784 1825
Q 2784 2406 2684 2573
Q 2584 2741 2328 2741
Q 2006 2741 1831 2477
Q 1656 2213 1656 1722
L 1656 0
L 531 0
L 531 3500
L 1656 3500
L 1656 2988
Q 1863 3284 2130 3434
Q 2397 3584 2719 3584
Q 3081 3584 3359 3409
Q 3638 3234 3781 2919
z
" transform="scale(0.015625)"/>
      <path id="DejaVuSans-Bold-67" d="M 2919 594
Q 2688 288 2409 144
Q 2131 0 1766 0
Q 1125 0 706 504
Q 288 1009 288 1791
Q 288 2575 706 3076
Q 1125 3578 1766 3578
Q 2131 3578 2409 3434
Q 2688 3291 2919 2981
L 2919 3500
L 4044 3500
L 4044 353
Q 4044 -491 3511 -936
Q 2978 -1381 1966 -1381
Q 1638 -1381 1331 -1331
Q 1025 -1281 716 -1178
L 716 -306
Q 1009 -475 1290 -558
Q 1572 -641 1856 -641
Q 2406 -641 2662 -400
Q 2919 -159 2919 353
L 2919 594
z
M 2181 2772
Q 1834 2772 1640 2515
Q 1447 2259 1447 1791
Q 1447 1309 1634 1061
Q 1822 813 2181 813
Q 2531 813 2725 1069
Q 2919 1325 2919 1791
Q 2919 2259 2725 2515
Q 2531 2772 2181 2772
z
" transform="scale(0.015625)"/>
     </defs>
     <use xlink:href="#DejaVuSans-Bold-50"/>
     <use xlink:href="#DejaVuSans-Bold-65" transform="translate(73.291016 0)"/>
     <use xlink:href="#DejaVuSans-Bold-72" transform="translate(141.113281 0)"/>
     <use xlink:href="#DejaVuSans-Bold-73" transform="translate(190.429688 0)"/>
     <use xlink:href="#DejaVuSans-Bold-6f" transform="translate(249.951172 0)"/>
     <use xlink:href="#DejaVuSans-Bold-6e" transform="translate(318.652344 0)"/>
     <use xlink:href="#DejaVuSans-Bold-61" transform="translate(389.84375 0)"/>
     <use xlink:href="#DejaVuSans-Bold-6c" transform="translate(457.324219 0)"/>
     <use xlink:href="#DejaVuSans-Bold-20" transform="translate(491.601562 0)"/>
     <use xlink:href="#DejaVuSans-Bold-6d" transform="translate(526.416016 0)"/>
     <use xlink:href="#DejaVuSans-Bold-6f" transform="translate(630.615234 0)"/>
     <use xlink:href="#DejaVuSans-Bold-6e" transform="translate(699.316406 0)"/>
     <use xlink:href="#DejaVuSans-Bold-69" transform="translate(770.507812 0)"/>
     <use xlink:href="#DejaVuSans-Bold-74" transform="translate(804.785156 0)"/>
     <use xlink:href="#DejaVuSans-Bold-6f" transform="translate(852.587891 0)"/>
     <use xlink:href="#DejaVuSans-Bold-72" transform="translate(921.289062 0)"/>
     <use xlink:href="#DejaVuSans-Bold-69" transform="translate(970.605469 0)"/>
     <use xlink:href="#DejaVuSans-Bold-6e" transform="translate(1004.882812 0)"/>
     <use xlink:href="#DejaVuSans-Bold-67" transform="translate(1076.074219 0)"/>
    </g>
    <!-- payload -->
    <g transform="translate(64.495463 66.701275) scale(0.087 -0.087)">
     <use xlink:href="#DejaVuSans-Bold-70"/>
     <use xlink:href="#DejaVuSans-Bold-61" transform="translate(71.582031 0)"/>
     <use xlink:href="#DejaVuSans-Bold-79" transform="translate(135.9375 0)"/>
     <use xlink:href="#DejaVuSans-Bold-6c" transform="translate(201.123047 0)"/>
     <use xlink:href="#DejaVuSans-Bold-6f" transform="translate(235.400391 0)"/>
     <use xlink:href="#DejaVuSans-Bold-61" transform="translate(304.101562 0)"/>
     <use xlink:href="#DejaVuSans-Bold-64" transform="translate(371.582031 0)"/>
    </g>
   </g>
   <g id="text_4">
    <!-- observations, summaries, -->
    <g transform="translate(44.338846 76.471727) scale(0.061 -0.061)">
     <defs>
      <path id="DejaVuSans-6f" d="M 1959 3097
Q 1497 3097 1228 2736
Q 959 2375 959 1747
Q 959 1119 1226 758
Q 1494 397 1959 397
Q 2419 397 2687 759
Q 2956 1122 2956 1747
Q 2956 2369 2687 2733
Q 2419 3097 1959 3097
z
M 1959 3584
Q 2709 3584 3137 3096
Q 3566 2609 3566 1747
Q 3566 888 3137 398
Q 2709 -91 1959 -91
Q 1206 -91 779 398
Q 353 888 353 1747
Q 353 2609 779 3096
Q 1206 3584 1959 3584
z
" transform="scale(0.015625)"/>
      <path id="DejaVuSans-62" d="M 3116 1747
Q 3116 2381 2855 2742
Q 2594 3103 2138 3103
Q 1681 3103 1420 2742
Q 1159 2381 1159 1747
Q 1159 1113 1420 752
Q 1681 391 2138 391
Q 2594 391 2855 752
Q 3116 1113 3116 1747
z
M 1159 2969
Q 1341 3281 1617 3432
Q 1894 3584 2278 3584
Q 2916 3584 3314 3078
Q 3713 2572 3713 1747
Q 3713 922 3314 415
Q 2916 -91 2278 -91
Q 1894 -91 1617 61
Q 1341 213 1159 525
L 1159 0
L 581 0
L 581 4863
L 1159 4863
L 1159 2969
z
" transform="scale(0.015625)"/>
      <path id="DejaVuSans-73" d="M 2834 3397
L 2834 2853
Q 2591 2978 2328 3040
Q 2066 3103 1784 3103
Q 1356 3103 1142 2972
Q 928 2841 928 2578
Q 928 2378 1081 2264
Q 1234 2150 1697 2047
L 1894 2003
Q 2506 1872 2764 1633
Q 3022 1394 3022 966
Q 3022 478 2636 193
Q 2250 -91 1575 -91
Q 1294 -91 989 -36
Q 684 19 347 128
L 347 722
Q 666 556 975 473
Q 1284 391 1588 391
Q 1994 391 2212 530
Q 2431 669 2431 922
Q 2431 1156 2273 1281
Q 2116 1406 1581 1522
L 1381 1569
Q 847 1681 609 1914
Q 372 2147 372 2553
Q 372 3047 722 3315
Q 1072 3584 1716 3584
Q 2034 3584 2315 3537
Q 2597 3491 2834 3397
z
" transform="scale(0.015625)"/>
      <path id="DejaVuSans-65" d="M 3597 1894
L 3597 1613
L 953 1613
Q 991 1019 1311 708
Q 1631 397 2203 397
Q 2534 397 2845 478
Q 3156 559 3463 722
L 3463 178
Q 3153 47 2828 -22
Q 2503 -91 2169 -91
Q 1331 -91 842 396
Q 353 884 353 1716
Q 353 2575 817 3079
Q 1281 3584 2069 3584
Q 2775 3584 3186 3129
Q 3597 2675 3597 1894
z
M 3022 2063
Q 3016 2534 2758 2815
Q 2500 3097 2075 3097
Q 1594 3097 1305 2825
Q 1016 2553 972 2059
L 3022 2063
z
" transform="scale(0.015625)"/>
      <path id="DejaVuSans-72" d="M 2631 2963
Q 2534 3019 2420 3045
Q 2306 3072 2169 3072
Q 1681 3072 1420 2755
Q 1159 2438 1159 1844
L 1159 0
L 581 0
L 581 3500
L 1159 3500
L 1159 2956
Q 1341 3275 1631 3429
Q 1922 3584 2338 3584
Q 2397 3584 2469 3576
Q 2541 3569 2628 3553
L 2631 2963
z
" transform="scale(0.015625)"/>
      <path id="DejaVuSans-76" d="M 191 3500
L 800 3500
L 1894 563
L 2988 3500
L 3597 3500
L 2284 0
L 1503 0
L 191 3500
z
" transform="scale(0.015625)"/>
      <path id="DejaVuSans-61" d="M 2194 1759
Q 1497 1759 1228 1600
Q 959 1441 959 1056
Q 959 750 1161 570
Q 1363 391 1709 391
Q 2188 391 2477 730
Q 2766 1069 2766 1631
L 2766 1759
L 2194 1759
z
M 3341 1997
L 3341 0
L 2766 0
L 2766 531
Q 2569 213 2275 61
Q 1981 -91 1556 -91
Q 1019 -91 701 211
Q 384 513 384 1019
Q 384 1609 779 1909
Q 1175 2209 1959 2209
L 2766 2209
L 2766 2266
Q 2766 2663 2505 2880
Q 2244 3097 1772 3097
Q 1472 3097 1187 3025
Q 903 2953 641 2809
L 641 3341
Q 956 3463 1253 3523
Q 1550 3584 1831 3584
Q 2591 3584 2966 3190
Q 3341 2797 3341 1997
z
" transform="scale(0.015625)"/>
      <path id="DejaVuSans-74" d="M 1172 4494
L 1172 3500
L 2356 3500
L 2356 3053
L 1172 3053
L 1172 1153
Q 1172 725 1289 603
Q 1406 481 1766 481
L 2356 481
L 2356 0
L 1766 0
Q 1100 0 847 248
Q 594 497 594 1153
L 594 3053
L 172 3053
L 172 3500
L 594 3500
L 594 4494
L 1172 4494
z
" transform="scale(0.015625)"/>
      <path id="DejaVuSans-69" d="M 603 3500
L 1178 3500
L 1178 0
L 603 0
L 603 3500
z
M 603 4863
L 1178 4863
L 1178 4134
L 603 4134
L 603 4863
z
" transform="scale(0.015625)"/>
      <path id="DejaVuSans-6e" d="M 3513 2113
L 3513 0
L 2938 0
L 2938 2094
Q 2938 2591 2744 2837
Q 2550 3084 2163 3084
Q 1697 3084 1428 2787
Q 1159 2491 1159 1978
L 1159 0
L 581 0
L 581 3500
L 1159 3500
L 1159 2956
Q 1366 3272 1645 3428
Q 1925 3584 2291 3584
Q 2894 3584 3203 3211
Q 3513 2838 3513 2113
z
" transform="scale(0.015625)"/>
      <path id="DejaVuSans-2c" d="M 750 794
L 1409 794
L 1409 256
L 897 -744
L 494 -744
L 750 256
L 750 794
z
" transform="scale(0.015625)"/>
      <path id="DejaVuSans-20" transform="scale(0.015625)"/>
      <path id="DejaVuSans-75" d="M 544 1381
L 544 3500
L 1119 3500
L 1119 1403
Q 1119 906 1312 657
Q 1506 409 1894 409
Q 2359 409 2629 706
Q 2900 1003 2900 1516
L 2900 3500
L 3475 3500
L 3475 0
L 2900 0
L 2900 538
Q 2691 219 2414 64
Q 2138 -91 1772 -91
Q 1169 -91 856 284
Q 544 659 544 1381
z
M 1991 3584
L 1991 3584
z
" transform="scale(0.015625)"/>
      <path id="DejaVuSans-6d" d="M 3328 2828
Q 3544 3216 3844 3400
Q 4144 3584 4550 3584
Q 5097 3584 5394 3201
Q 5691 2819 5691 2113
L 5691 0
L 5113 0
L 5113 2094
Q 5113 2597 4934 2840
Q 4756 3084 4391 3084
Q 3944 3084 3684 2787
Q 3425 2491 3425 1978
L 3425 0
L 2847 0
L 2847 2094
Q 2847 2600 2669 2842
Q 2491 3084 2119 3084
Q 1678 3084 1418 2786
Q 1159 2488 1159 1978
L 1159 0
L 581 0
L 581 3500
L 1159 3500
L 1159 2956
Q 1356 3278 1631 3431
Q 1906 3584 2284 3584
Q 2666 3584 2933 3390
Q 3200 3197 3328 2828
z
" transform="scale(0.015625)"/>
     </defs>
     <use xlink:href="#DejaVuSans-6f"/>
     <use xlink:href="#DejaVuSans-62" transform="translate(61.181641 0)"/>
     <use xlink:href="#DejaVuSans-73" transform="translate(124.658203 0)"/>
     <use xlink:href="#DejaVuSans-65" transform="translate(176.757812 0)"/>
     <use xlink:href="#DejaVuSans-72" transform="translate(238.28125 0)"/>
     <use xlink:href="#DejaVuSans-76" transform="translate(279.394531 0)"/>
     <use xlink:href="#DejaVuSans-61" transform="translate(338.574219 0)"/>
     <use xlink:href="#DejaVuSans-74" transform="translate(399.853516 0)"/>
     <use xlink:href="#DejaVuSans-69" transform="translate(439.0625 0)"/>
     <use xlink:href="#DejaVuSans-6f" transform="translate(466.845703 0)"/>
     <use xlink:href="#DejaVuSans-6e" transform="translate(528.027344 0)"/>
     <use xlink:href="#DejaVuSans-73" transform="translate(591.40625 0)"/>
     <use xlink:href="#DejaVuSans-2c" transform="translate(643.505859 0)"/>
     <use xlink:href="#DejaVuSans-20" transform="translate(675.292969 0)"/>
     <use xlink:href="#DejaVuSans-73" transform="translate(707.080078 0)"/>
     <use xlink:href="#DejaVuSans-75" transform="translate(759.179688 0)"/>
     <use xlink:href="#DejaVuSans-6d" transform="translate(822.558594 0)"/>
     <use xlink:href="#DejaVuSans-6d" transform="translate(919.970703 0)"/>
     <use xlink:href="#DejaVuSans-61" transform="translate(1017.382812 0)"/>
     <use xlink:href="#DejaVuSans-72" transform="translate(1078.662109 0)"/>
     <use xlink:href="#DejaVuSans-69" transform="translate(1119.775391 0)"/>
     <use xlink:href="#DejaVuSans-65" transform="translate(1147.558594 0)"/>
     <use xlink:href="#DejaVuSans-73" transform="translate(1209.082031 0)"/>
     <use xlink:href="#DejaVuSans-2c" transform="translate(1261.181641 0)"/>
    </g>
    <!-- signals -->
    <g transform="translate(73.162776 82.143631) scale(0.061 -0.061)">
     <defs>
      <path id="DejaVuSans-67" d="M 2906 1791
Q 2906 2416 2648 2759
Q 2391 3103 1925 3103
Q 1463 3103 1205 2759
Q 947 2416 947 1791
Q 947 1169 1205 825
Q 1463 481 1925 481
Q 2391 481 2648 825
Q 2906 1169 2906 1791
z
M 3481 434
Q 3481 -459 3084 -895
Q 2688 -1331 1869 -1331
Q 1566 -1331 1297 -1286
Q 1028 -1241 775 -1147
L 775 -588
Q 1028 -725 1275 -790
Q 1522 -856 1778 -856
Q 2344 -856 2625 -561
Q 2906 -266 2906 331
L 2906 616
Q 2728 306 2450 153
Q 2172 0 1784 0
Q 1141 0 747 490
Q 353 981 353 1791
Q 353 2603 747 3093
Q 1141 3584 1784 3584
Q 2172 3584 2450 3431
Q 2728 3278 2906 2969
L 2906 3500
L 3481 3500
L 3481 434
z
" transform="scale(0.015625)"/>
      <path id="DejaVuSans-6c" d="M 603 4863
L 1178 4863
L 1178 0
L 603 0
L 603 4863
z
" transform="scale(0.015625)"/>
     </defs>
     <use xlink:href="#DejaVuSans-73"/>
     <use xlink:href="#DejaVuSans-69" transform="translate(52.099609 0)"/>
     <use xlink:href="#DejaVuSans-67" transform="translate(79.882812 0)"/>
     <use xlink:href="#DejaVuSans-6e" transform="translate(143.359375 0)"/>
     <use xlink:href="#DejaVuSans-61" transform="translate(206.738281 0)"/>
     <use xlink:href="#DejaVuSans-6c" transform="translate(268.017578 0)"/>
     <use xlink:href="#DejaVuSans-73" transform="translate(295.800781 0)"/>
    </g>
   </g>
   <g id="text_5">
    <!-- Clinical / analytics -->
    <g transform="translate(390.207623 58.577854) scale(0.087 -0.087)">
     <defs>
      <path id="DejaVuSans-Bold-2f" d="M 1644 4666
L 2338 4666
L 691 -594
L 0 -594
L 1644 4666
z
" transform="scale(0.015625)"/>
     </defs>
     <use xlink:href="#DejaVuSans-Bold-43"/>
     <use xlink:href="#DejaVuSans-Bold-6c" transform="translate(73.388672 0)"/>
     <use xlink:href="#DejaVuSans-Bold-69" transform="translate(107.666016 0)"/>
     <use xlink:href="#DejaVuSans-Bold-6e" transform="translate(141.943359 0)"/>
     <use xlink:href="#DejaVuSans-Bold-69" transform="translate(213.134766 0)"/>
     <use xlink:href="#DejaVuSans-Bold-63" transform="translate(247.412109 0)"/>
     <use xlink:href="#DejaVuSans-Bold-61" transform="translate(306.689453 0)"/>
     <use xlink:href="#DejaVuSans-Bold-6c" transform="translate(374.169922 0)"/>
     <use xlink:href="#DejaVuSans-Bold-20" transform="translate(408.447266 0)"/>
     <use xlink:href="#DejaVuSans-Bold-2f" transform="translate(443.261719 0)"/>
     <use xlink:href="#DejaVuSans-Bold-20" transform="translate(479.785156 0)"/>
     <use xlink:href="#DejaVuSans-Bold-61" transform="translate(514.599609 0)"/>
     <use xlink:href="#DejaVuSans-Bold-6e" transform="translate(582.080078 0)"/>
     <use xlink:href="#DejaVuSans-Bold-61" transform="translate(653.271484 0)"/>
     <use xlink:href="#DejaVuSans-Bold-6c" transform="translate(720.751953 0)"/>
     <use xlink:href="#DejaVuSans-Bold-79" transform="translate(755.029297 0)"/>
     <use xlink:href="#DejaVuSans-Bold-74" transform="translate(820.214844 0)"/>
     <use xlink:href="#DejaVuSans-Bold-69" transform="translate(868.017578 0)"/>
     <use xlink:href="#DejaVuSans-Bold-63" transform="translate(902.294922 0)"/>
     <use xlink:href="#DejaVuSans-Bold-73" transform="translate(961.572266 0)"/>
    </g>
    <!-- data store -->
    <g transform="translate(409.295966 66.735259) scale(0.087 -0.087)">
     <use xlink:href="#DejaVuSans-Bold-64"/>
     <use xlink:href="#DejaVuSans-Bold-61" transform="translate(71.582031 0)"/>
     <use xlink:href="#DejaVuSans-Bold-74" transform="translate(139.0625 0)"/>
     <use xlink:href="#DejaVuSans-Bold-61" transform="translate(186.865234 0)"/>
     <use xlink:href="#DejaVuSans-Bold-20" transform="translate(254.345703 0)"/>
     <use xlink:href="#DejaVuSans-Bold-73" transform="translate(289.160156 0)"/>
     <use xlink:href="#DejaVuSans-Bold-74" transform="translate(348.681641 0)"/>
     <use xlink:href="#DejaVuSans-Bold-6f" transform="translate(396.484375 0)"/>
     <use xlink:href="#DejaVuSans-Bold-72" transform="translate(465.185547 0)"/>
     <use xlink:href="#DejaVuSans-Bold-65" transform="translate(514.501953 0)"/>
    </g>
   </g>
   <g id="text_6">
    <!-- payload remains in -->
    <g transform="translate(405.507162 76.471727) scale(0.061 -0.061)">
     <defs>
      <path id="DejaVuSans-70" d="M 1159 525
L 1159 -1331
L 581 -1331
L 581 3500
L 1159 3500
L 1159 2969
Q 1341 3281 1617 3432
Q 1894 3584 2278 3584
Q 2916 3584 3314 3078
Q 3713 2572 3713 1747
Q 3713 922 3314 415
Q 2916 -91 2278 -91
Q 1894 -91 1617 61
Q 1341 213 1159 525
z
M 3116 1747
Q 3116 2381 2855 2742
Q 2594 3103 2138 3103
Q 1681 3103 1420 2742
Q 1159 2381 1159 1747
Q 1159 1113 1420 752
Q 1681 391 2138 391
Q 2594 391 2855 752
Q 3116 1113 3116 1747
z
" transform="scale(0.015625)"/>
      <path id="DejaVuSans-79" d="M 2059 -325
Q 1816 -950 1584 -1140
Q 1353 -1331 966 -1331
L 506 -1331
L 506 -850
L 844 -850
Q 1081 -850 1212 -737
Q 1344 -625 1503 -206
L 1606 56
L 191 3500
L 800 3500
L 1894 763
L 2988 3500
L 3597 3500
L 2059 -325
z
" transform="scale(0.015625)"/>
      <path id="DejaVuSans-64" d="M 2906 2969
L 2906 4863
L 3481 4863
L 3481 0
L 2906 0
L 2906 525
Q 2725 213 2448 61
Q 2172 -91 1784 -91
Q 1150 -91 751 415
Q 353 922 353 1747
Q 353 2572 751 3078
Q 1150 3584 1784 3584
Q 2172 3584 2448 3432
Q 2725 3281 2906 2969
z
M 947 1747
Q 947 1113 1208 752
Q 1469 391 1925 391
Q 2381 391 2643 752
Q 2906 1113 2906 1747
Q 2906 2381 2643 2742
Q 2381 3103 1925 3103
Q 1469 3103 1208 2742
Q 947 2381 947 1747
z
" transform="scale(0.015625)"/>
     </defs>
     <use xlink:href="#DejaVuSans-70"/>
     <use xlink:href="#DejaVuSans-61" transform="translate(63.476562 0)"/>
     <use xlink:href="#DejaVuSans-79" transform="translate(124.755859 0)"/>
     <use xlink:href="#DejaVuSans-6c" transform="translate(183.935547 0)"/>
     <use xlink:href="#DejaVuSans-6f" transform="translate(211.71875 0)"/>
     <use xlink:href="#DejaVuSans-61" transform="translate(272.900391 0)"/>
     <use xlink:href="#DejaVuSans-64" transform="translate(334.179688 0)"/>
     <use xlink:href="#DejaVuSans-20" transform="translate(397.65625 0)"/>
     <use xlink:href="#DejaVuSans-72" transform="translate(429.443359 0)"/>
     <use xlink:href="#DejaVuSans-65" transform="translate(468.306641 0)"/>
     <use xlink:href="#DejaVuSans-6d" transform="translate(529.830078 0)"/>
     <use xlink:href="#DejaVuSans-61" transform="translate(627.242188 0)"/>
     <use xlink:href="#DejaVuSans-69" transform="translate(688.521484 0)"/>
     <use xlink:href="#DejaVuSans-6e" transform="translate(716.304688 0)"/>
     <use xlink:href="#DejaVuSans-73" transform="translate(779.683594 0)"/>
     <use xlink:href="#DejaVuSans-20" transform="translate(831.783203 0)"/>
     <use xlink:href="#DejaVuSans-69" transform="translate(863.570312 0)"/>
     <use xlink:href="#DejaVuSans-6e" transform="translate(891.353516 0)"/>
    </g>
    <!-- governed system -->
    <g transform="translate(408.200216 82.143631) scale(0.061 -0.061)">
     <use xlink:href="#DejaVuSans-67"/>
     <use xlink:href="#DejaVuSans-6f" transform="translate(63.476562 0)"/>
     <use xlink:href="#DejaVuSans-76" transform="translate(124.658203 0)"/>
     <use xlink:href="#DejaVuSans-65" transform="translate(183.837891 0)"/>
     <use xlink:href="#DejaVuSans-72" transform="translate(245.361328 0)"/>
     <use xlink:href="#DejaVuSans-6e" transform="translate(284.724609 0)"/>
     <use xlink:href="#DejaVuSans-65" transform="translate(348.103516 0)"/>
     <use xlink:href="#DejaVuSans-64" transform="translate(409.626953 0)"/>
     <use xlink:href="#DejaVuSans-20" transform="translate(473.103516 0)"/>
     <use xlink:href="#DejaVuSans-73" transform="translate(504.890625 0)"/>
     <use xlink:href="#DejaVuSans-79" transform="translate(556.990234 0)"/>
     <use xlink:href="#DejaVuSans-73" transform="translate(616.169922 0)"/>
     <use xlink:href="#DejaVuSans-74" transform="translate(668.269531 0)"/>
     <use xlink:href="#DejaVuSans-65" transform="translate(707.478516 0)"/>
     <use xlink:href="#DejaVuSans-6d" transform="translate(769.001953 0)"/>
    </g>
   </g>
   <g id="text_7">
    <!-- Detect -->
    <g transform="translate(42.640951 166.449956) scale(0.087 -0.087)">
     <defs>
      <path id="DejaVuSans-Bold-44" d="M 1791 3756
L 1791 909
L 2222 909
Q 2959 909 3348 1275
Q 3738 1641 3738 2338
Q 3738 3031 3350 3393
Q 2963 3756 2222 3756
L 1791 3756
z
M 588 4666
L 1856 4666
Q 2919 4666 3439 4514
Q 3959 4363 4331 4000
Q 4659 3684 4818 3271
Q 4978 2859 4978 2338
Q 4978 1809 4818 1395
Q 4659 981 4331 666
Q 3956 303 3431 151
Q 2906 0 1856 0
L 588 0
L 588 4666
z
" transform="scale(0.015625)"/>
     </defs>
     <use xlink:href="#DejaVuSans-Bold-44"/>
     <use xlink:href="#DejaVuSans-Bold-65" transform="translate(83.007812 0)"/>
     <use xlink:href="#DejaVuSans-Bold-74" transform="translate(150.830078 0)"/>
     <use xlink:href="#DejaVuSans-Bold-65" transform="translate(198.632812 0)"/>
     <use xlink:href="#DejaVuSans-Bold-63" transform="translate(266.455078 0)"/>
     <use xlink:href="#DejaVuSans-Bold-74" transform="translate(325.732422 0)"/>
    </g>
   </g>
   <g id="text_8">
    <!-- accountability -->
    <g transform="translate(37.391076 182.308487) scale(0.061 -0.061)">
     <defs>
      <path id="DejaVuSans-63" d="M 3122 3366
L 3122 2828
Q 2878 2963 2633 3030
Q 2388 3097 2138 3097
Q 1578 3097 1268 2742
Q 959 2388 959 1747
Q 959 1106 1268 751
Q 1578 397 2138 397
Q 2388 397 2633 464
Q 2878 531 3122 666
L 3122 134
Q 2881 22 2623 -34
Q 2366 -91 2075 -91
Q 1284 -91 818 406
Q 353 903 353 1747
Q 353 2603 823 3093
Q 1294 3584 2113 3584
Q 2378 3584 2631 3529
Q 2884 3475 3122 3366
z
" transform="scale(0.015625)"/>
     </defs>
     <use xlink:href="#DejaVuSans-61"/>
     <use xlink:href="#DejaVuSans-63" transform="translate(61.279297 0)"/>
     <use xlink:href="#DejaVuSans-63" transform="translate(116.259766 0)"/>
     <use xlink:href="#DejaVuSans-6f" transform="translate(171.240234 0)"/>
     <use xlink:href="#DejaVuSans-75" transform="translate(232.421875 0)"/>
     <use xlink:href="#DejaVuSans-6e" transform="translate(295.800781 0)"/>
     <use xlink:href="#DejaVuSans-74" transform="translate(359.179688 0)"/>
     <use xlink:href="#DejaVuSans-61" transform="translate(398.388672 0)"/>
     <use xlink:href="#DejaVuSans-62" transform="translate(459.667969 0)"/>
     <use xlink:href="#DejaVuSans-69" transform="translate(523.144531 0)"/>
     <use xlink:href="#DejaVuSans-6c" transform="translate(550.927734 0)"/>
     <use xlink:href="#DejaVuSans-69" transform="translate(578.710938 0)"/>
     <use xlink:href="#DejaVuSans-74" transform="translate(606.494141 0)"/>
     <use xlink:href="#DejaVuSans-79" transform="translate(645.703125 0)"/>
    </g>
    <!-- event -->
    <g transform="translate(50.202982 187.980391) scale(0.061 -0.061)">
     <use xlink:href="#DejaVuSans-65"/>
     <use xlink:href="#DejaVuSans-76" transform="translate(61.523438 0)"/>
     <use xlink:href="#DejaVuSans-65" transform="translate(120.703125 0)"/>
     <use xlink:href="#DejaVuSans-6e" transform="translate(182.226562 0)"/>
     <use xlink:href="#DejaVuSans-74" transform="translate(245.605469 0)"/>
    </g>
   </g>
   <g id="text_9">
    <!-- Select -->
    <g transform="translate(118.356981 166.449956) scale(0.087 -0.087)">
     <defs>
      <path id="DejaVuSans-Bold-53" d="M 3834 4519
L 3834 3531
Q 3450 3703 3084 3790
Q 2719 3878 2394 3878
Q 1963 3878 1756 3759
Q 1550 3641 1550 3391
Q 1550 3203 1689 3098
Q 1828 2994 2194 2919
L 2706 2816
Q 3484 2659 3812 2340
Q 4141 2022 4141 1434
Q 4141 663 3683 286
Q 3225 -91 2284 -91
Q 1841 -91 1394 -6
Q 947 78 500 244
L 500 1259
Q 947 1022 1364 901
Q 1781 781 2169 781
Q 2563 781 2772 912
Q 2981 1044 2981 1288
Q 2981 1506 2839 1625
Q 2697 1744 2272 1838
L 1806 1941
Q 1106 2091 782 2419
Q 459 2747 459 3303
Q 459 4000 909 4375
Q 1359 4750 2203 4750
Q 2588 4750 2994 4692
Q 3400 4634 3834 4519
z
" transform="scale(0.015625)"/>
     </defs>
     <use xlink:href="#DejaVuSans-Bold-53"/>
     <use xlink:href="#DejaVuSans-Bold-65" transform="translate(72.021484 0)"/>
     <use xlink:href="#DejaVuSans-Bold-6c" transform="translate(139.84375 0)"/>
     <use xlink:href="#DejaVuSans-Bold-65" transform="translate(174.121094 0)"/>
     <use xlink:href="#DejaVuSans-Bold-63" transform="translate(241.943359 0)"/>
     <use xlink:href="#DejaVuSans-Bold-74" transform="translate(301.220703 0)"/>
    </g>
   </g>
   <g id="text_10">
    <!-- declared -->
    <g transform="translate(120.335246 182.308487) scale(0.061 -0.061)">
     <use xlink:href="#DejaVuSans-64"/>
     <use xlink:href="#DejaVuSans-65" transform="translate(63.476562 0)"/>
     <use xlink:href="#DejaVuSans-63" transform="translate(125 0)"/>
     <use xlink:href="#DejaVuSans-6c" transform="translate(179.980469 0)"/>
     <use xlink:href="#DejaVuSans-61" transform="translate(207.763672 0)"/>
     <use xlink:href="#DejaVuSans-72" transform="translate(269.042969 0)"/>
     <use xlink:href="#DejaVuSans-65" transform="translate(307.90625 0)"/>
     <use xlink:href="#DejaVuSans-64" transform="translate(369.429688 0)"/>
    </g>
    <!-- evidence facts -->
    <g transform="translate(111.33727 187.980391) scale(0.061 -0.061)">
     <defs>
      <path id="DejaVuSans-66" d="M 2375 4863
L 2375 4384
L 1825 4384
Q 1516 4384 1395 4259
Q 1275 4134 1275 3809
L 1275 3500
L 2222 3500
L 2222 3053
L 1275 3053
L 1275 0
L 697 0
L 697 3053
L 147 3053
L 147 3500
L 697 3500
L 697 3744
Q 697 4328 969 4595
Q 1241 4863 1831 4863
L 2375 4863
z
" transform="scale(0.015625)"/>
     </defs>
     <use xlink:href="#DejaVuSans-65"/>
     <use xlink:href="#DejaVuSans-76" transform="translate(61.523438 0)"/>
     <use xlink:href="#DejaVuSans-69" transform="translate(120.703125 0)"/>
     <use xlink:href="#DejaVuSans-64" transform="translate(148.486328 0)"/>
     <use xlink:href="#DejaVuSans-65" transform="translate(211.962891 0)"/>
     <use xlink:href="#DejaVuSans-6e" transform="translate(273.486328 0)"/>
     <use xlink:href="#DejaVuSans-63" transform="translate(336.865234 0)"/>
     <use xlink:href="#DejaVuSans-65" transform="translate(391.845703 0)"/>
     <use xlink:href="#DejaVuSans-20" transform="translate(453.369141 0)"/>
     <use xlink:href="#DejaVuSans-66" transform="translate(485.15625 0)"/>
     <use xlink:href="#DejaVuSans-61" transform="translate(520.361328 0)"/>
     <use xlink:href="#DejaVuSans-63" transform="translate(581.640625 0)"/>
     <use xlink:href="#DejaVuSans-74" transform="translate(636.621094 0)"/>
     <use xlink:href="#DejaVuSans-73" transform="translate(675.830078 0)"/>
    </g>
   </g>
   <g id="text_11">
    <!-- Normalise and -->
    <g transform="translate(177.741447 162.405238) scale(0.087 -0.087)">
     <defs>
      <path id="DejaVuSans-Bold-4e" d="M 588 4666
L 1931 4666
L 3628 1466
L 3628 4666
L 4769 4666
L 4769 0
L 3425 0
L 1728 3200
L 1728 0
L 588 0
L 588 4666
z
" transform="scale(0.015625)"/>
     </defs>
     <use xlink:href="#DejaVuSans-Bold-4e"/>
     <use xlink:href="#DejaVuSans-Bold-6f" transform="translate(83.691406 0)"/>
     <use xlink:href="#DejaVuSans-Bold-72" transform="translate(152.392578 0)"/>
     <use xlink:href="#DejaVuSans-Bold-6d" transform="translate(201.708984 0)"/>
     <use xlink:href="#DejaVuSans-Bold-61" transform="translate(305.908203 0)"/>
     <use xlink:href="#DejaVuSans-Bold-6c" transform="translate(373.388672 0)"/>
     <use xlink:href="#DejaVuSans-Bold-69" transform="translate(407.666016 0)"/>
     <use xlink:href="#DejaVuSans-Bold-73" transform="translate(441.943359 0)"/>
     <use xlink:href="#DejaVuSans-Bold-65" transform="translate(501.464844 0)"/>
     <use xlink:href="#DejaVuSans-Bold-20" transform="translate(569.287109 0)"/>
     <use xlink:href="#DejaVuSans-Bold-61" transform="translate(604.101562 0)"/>
     <use xlink:href="#DejaVuSans-Bold-6e" transform="translate(671.582031 0)"/>
     <use xlink:href="#DejaVuSans-Bold-64" transform="translate(742.773438 0)"/>
    </g>
    <!-- minimise -->
    <g transform="translate(190.990596 170.494675) scale(0.087 -0.087)">
     <use xlink:href="#DejaVuSans-Bold-6d"/>
     <use xlink:href="#DejaVuSans-Bold-69" transform="translate(104.199219 0)"/>
     <use xlink:href="#DejaVuSans-Bold-6e" transform="translate(138.476562 0)"/>
     <use xlink:href="#DejaVuSans-Bold-69" transform="translate(209.667969 0)"/>
     <use xlink:href="#DejaVuSans-Bold-6d" transform="translate(243.945312 0)"/>
     <use xlink:href="#DejaVuSans-Bold-69" transform="translate(348.144531 0)"/>
     <use xlink:href="#DejaVuSans-Bold-73" transform="translate(382.421875 0)"/>
     <use xlink:href="#DejaVuSans-Bold-65" transform="translate(441.943359 0)"/>
    </g>
   </g>
   <g id="text_12">
    <!-- metadata only -->
    <g transform="translate(190.962557 185.144439) scale(0.061 -0.061)">
     <use xlink:href="#DejaVuSans-6d"/>
     <use xlink:href="#DejaVuSans-65" transform="translate(97.412109 0)"/>
     <use xlink:href="#DejaVuSans-74" transform="translate(158.935547 0)"/>
     <use xlink:href="#DejaVuSans-61" transform="translate(198.144531 0)"/>
     <use xlink:href="#DejaVuSans-64" transform="translate(259.423828 0)"/>
     <use xlink:href="#DejaVuSans-61" transform="translate(322.900391 0)"/>
     <use xlink:href="#DejaVuSans-74" transform="translate(384.179688 0)"/>
     <use xlink:href="#DejaVuSans-61" transform="translate(423.388672 0)"/>
     <use xlink:href="#DejaVuSans-20" transform="translate(484.667969 0)"/>
     <use xlink:href="#DejaVuSans-6f" transform="translate(516.455078 0)"/>
     <use xlink:href="#DejaVuSans-6e" transform="translate(577.636719 0)"/>
     <use xlink:href="#DejaVuSans-6c" transform="translate(641.015625 0)"/>
     <use xlink:href="#DejaVuSans-79" transform="translate(668.798828 0)"/>
    </g>
   </g>
   <g id="text_13">
    <!-- Validate -->
    <g transform="translate(277.644772 166.449956) scale(0.087 -0.087)">
     <defs>
      <path id="DejaVuSans-Bold-56" d="M 31 4666
L 1241 4666
L 2478 1222
L 3713 4666
L 4922 4666
L 3194 0
L 1759 0
L 31 4666
z
" transform="scale(0.015625)"/>
     </defs>
     <use xlink:href="#DejaVuSans-Bold-56"/>
     <use xlink:href="#DejaVuSans-Bold-61" transform="translate(71.892578 0)"/>
     <use xlink:href="#DejaVuSans-Bold-6c" transform="translate(139.373047 0)"/>
     <use xlink:href="#DejaVuSans-Bold-69" transform="translate(173.650391 0)"/>
     <use xlink:href="#DejaVuSans-Bold-64" transform="translate(207.927734 0)"/>
     <use xlink:href="#DejaVuSans-Bold-61" transform="translate(279.509766 0)"/>
     <use xlink:href="#DejaVuSans-Bold-74" transform="translate(346.990234 0)"/>
     <use xlink:href="#DejaVuSans-Bold-65" transform="translate(394.792969 0)"/>
    </g>
   </g>
   <g id="text_14">
    <!-- closed schema + -->
    <g transform="translate(271.566601 182.308487) scale(0.061 -0.061)">
     <defs>
      <path id="DejaVuSans-68" d="M 3513 2113
L 3513 0
L 2938 0
L 2938 2094
Q 2938 2591 2744 2837
Q 2550 3084 2163 3084
Q 1697 3084 1428 2787
Q 1159 2491 1159 1978
L 1159 0
L 581 0
L 581 4863
L 1159 4863
L 1159 2956
Q 1366 3272 1645 3428
Q 1925 3584 2291 3584
Q 2894 3584 3203 3211
Q 3513 2838 3513 2113
z
" transform="scale(0.015625)"/>
      <path id="DejaVuSans-2b" d="M 2944 4013
L 2944 2272
L 4684 2272
L 4684 1741
L 2944 1741
L 2944 0
L 2419 0
L 2419 1741
L 678 1741
L 678 2272
L 2419 2272
L 2419 4013
L 2944 4013
z
" transform="scale(0.015625)"/>
     </defs>
     <use xlink:href="#DejaVuSans-63"/>
     <use xlink:href="#DejaVuSans-6c" transform="translate(54.980469 0)"/>
     <use xlink:href="#DejaVuSans-6f" transform="translate(82.763672 0)"/>
     <use xlink:href="#DejaVuSans-73" transform="translate(143.945312 0)"/>
     <use xlink:href="#DejaVuSans-65" transform="translate(196.044922 0)"/>
     <use xlink:href="#DejaVuSans-64" transform="translate(257.568359 0)"/>
     <use xlink:href="#DejaVuSans-20" transform="translate(321.044922 0)"/>
     <use xlink:href="#DejaVuSans-73" transform="translate(352.832031 0)"/>
     <use xlink:href="#DejaVuSans-63" transform="translate(404.931641 0)"/>
     <use xlink:href="#DejaVuSans-68" transform="translate(459.912109 0)"/>
     <use xlink:href="#DejaVuSans-65" transform="translate(523.291016 0)"/>
     <use xlink:href="#DejaVuSans-6d" transform="translate(584.814453 0)"/>
     <use xlink:href="#DejaVuSans-61" transform="translate(682.226562 0)"/>
     <use xlink:href="#DejaVuSans-20" transform="translate(743.505859 0)"/>
     <use xlink:href="#DejaVuSans-2b" transform="translate(775.292969 0)"/>
    </g>
    <!-- semantics -->
    <g transform="translate(282.221585 187.980391) scale(0.061 -0.061)">
     <use xlink:href="#DejaVuSans-73"/>
     <use xlink:href="#DejaVuSans-65" transform="translate(52.099609 0)"/>
     <use xlink:href="#DejaVuSans-6d" transform="translate(113.623047 0)"/>
     <use xlink:href="#DejaVuSans-61" transform="translate(211.035156 0)"/>
     <use xlink:href="#DejaVuSans-6e" transform="translate(272.314453 0)"/>
     <use xlink:href="#DejaVuSans-74" transform="translate(335.693359 0)"/>
     <use xlink:href="#DejaVuSans-69" transform="translate(374.902344 0)"/>
     <use xlink:href="#DejaVuSans-63" transform="translate(402.685547 0)"/>
     <use xlink:href="#DejaVuSans-73" transform="translate(457.666016 0)"/>
    </g>
   </g>
   <g id="text_15">
    <!-- Canonicalise -->
    <g transform="translate(350.290258 162.371254) scale(0.087 -0.087)">
     <use xlink:href="#DejaVuSans-Bold-43"/>
     <use xlink:href="#DejaVuSans-Bold-61" transform="translate(73.388672 0)"/>
     <use xlink:href="#DejaVuSans-Bold-6e" transform="translate(140.869141 0)"/>
     <use xlink:href="#DejaVuSans-Bold-6f" transform="translate(212.060547 0)"/>
     <use xlink:href="#DejaVuSans-Bold-6e" transform="translate(280.761719 0)"/>
     <use xlink:href="#DejaVuSans-Bold-69" transform="translate(351.953125 0)"/>
     <use xlink:href="#DejaVuSans-Bold-63" transform="translate(386.230469 0)"/>
     <use xlink:href="#DejaVuSans-Bold-61" transform="translate(445.507812 0)"/>
     <use xlink:href="#DejaVuSans-Bold-6c" transform="translate(512.988281 0)"/>
     <use xlink:href="#DejaVuSans-Bold-69" transform="translate(547.265625 0)"/>
     <use xlink:href="#DejaVuSans-Bold-73" transform="translate(581.542969 0)"/>
     <use xlink:href="#DejaVuSans-Bold-65" transform="translate(641.064453 0)"/>
    </g>
    <!-- and sign -->
    <g transform="translate(360.176993 170.46069) scale(0.087 -0.087)">
     <use xlink:href="#DejaVuSans-Bold-61"/>
     <use xlink:href="#DejaVuSans-Bold-6e" transform="translate(67.480469 0)"/>
     <use xlink:href="#DejaVuSans-Bold-64" transform="translate(138.671875 0)"/>
     <use xlink:href="#DejaVuSans-Bold-20" transform="translate(210.253906 0)"/>
     <use xlink:href="#DejaVuSans-Bold-73" transform="translate(245.068359 0)"/>
     <use xlink:href="#DejaVuSans-Bold-69" transform="translate(304.589844 0)"/>
     <use xlink:href="#DejaVuSans-Bold-67" transform="translate(338.867188 0)"/>
     <use xlink:href="#DejaVuSans-Bold-6e" transform="translate(410.449219 0)"/>
    </g>
   </g>
   <g id="text_16">
    <!-- TE-JCS-1 + -->
    <g transform="translate(364.533774 182.308487) scale(0.061 -0.061)">
     <defs>
      <path id="DejaVuSans-54" d="M -19 4666
L 3928 4666
L 3928 4134
L 2272 4134
L 2272 0
L 1638 0
L 1638 4134
L -19 4134
L -19 4666
z
" transform="scale(0.015625)"/>
      <path id="DejaVuSans-45" d="M 628 4666
L 3578 4666
L 3578 4134
L 1259 4134
L 1259 2753
L 3481 2753
L 3481 2222
L 1259 2222
L 1259 531
L 3634 531
L 3634 0
L 628 0
L 628 4666
z
" transform="scale(0.015625)"/>
      <path id="DejaVuSans-2d" d="M 313 2009
L 1997 2009
L 1997 1497
L 313 1497
L 313 2009
z
" transform="scale(0.015625)"/>
      <path id="DejaVuSans-4a" d="M 628 4666
L 1259 4666
L 1259 325
Q 1259 -519 939 -900
Q 619 -1281 -91 -1281
L -331 -1281
L -331 -750
L -134 -750
Q 284 -750 456 -515
Q 628 -281 628 325
L 628 4666
z
" transform="scale(0.015625)"/>
      <path id="DejaVuSans-43" d="M 4122 4306
L 4122 3641
Q 3803 3938 3442 4084
Q 3081 4231 2675 4231
Q 1875 4231 1450 3742
Q 1025 3253 1025 2328
Q 1025 1406 1450 917
Q 1875 428 2675 428
Q 3081 428 3442 575
Q 3803 722 4122 1019
L 4122 359
Q 3791 134 3420 21
Q 3050 -91 2638 -91
Q 1578 -91 968 557
Q 359 1206 359 2328
Q 359 3453 968 4101
Q 1578 4750 2638 4750
Q 3056 4750 3426 4639
Q 3797 4528 4122 4306
z
" transform="scale(0.015625)"/>
      <path id="DejaVuSans-53" d="M 3425 4513
L 3425 3897
Q 3066 4069 2747 4153
Q 2428 4238 2131 4238
Q 1616 4238 1336 4038
Q 1056 3838 1056 3469
Q 1056 3159 1242 3001
Q 1428 2844 1947 2747
L 2328 2669
Q 3034 2534 3370 2195
Q 3706 1856 3706 1288
Q 3706 609 3251 259
Q 2797 -91 1919 -91
Q 1588 -91 1214 -16
Q 841 59 441 206
L 441 856
Q 825 641 1194 531
Q 1563 422 1919 422
Q 2459 422 2753 634
Q 3047 847 3047 1241
Q 3047 1584 2836 1778
Q 2625 1972 2144 2069
L 1759 2144
Q 1053 2284 737 2584
Q 422 2884 422 3419
Q 422 4038 858 4394
Q 1294 4750 2059 4750
Q 2388 4750 2728 4690
Q 3069 4631 3425 4513
z
" transform="scale(0.015625)"/>
      <path id="DejaVuSans-31" d="M 794 531
L 1825 531
L 1825 4091
L 703 3866
L 703 4441
L 1819 4666
L 2450 4666
L 2450 531
L 3481 531
L 3481 0
L 794 0
L 794 531
z
" transform="scale(0.015625)"/>
     </defs>
     <use xlink:href="#DejaVuSans-54"/>
     <use xlink:href="#DejaVuSans-45" transform="translate(61.083984 0)"/>
     <use xlink:href="#DejaVuSans-2d" transform="translate(124.267578 0)"/>
     <use xlink:href="#DejaVuSans-4a" transform="translate(165.976562 0)"/>
     <use xlink:href="#DejaVuSans-43" transform="translate(195.46875 0)"/>
     <use xlink:href="#DejaVuSans-53" transform="translate(265.292969 0)"/>
     <use xlink:href="#DejaVuSans-2d" transform="translate(328.769531 0)"/>
     <use xlink:href="#DejaVuSans-31" transform="translate(364.853516 0)"/>
     <use xlink:href="#DejaVuSans-20" transform="translate(428.476562 0)"/>
     <use xlink:href="#DejaVuSans-2b" transform="translate(460.263672 0)"/>
    </g>
    <!-- Ed25519 -->
    <g transform="translate(367.561375 187.980391) scale(0.061 -0.061)">
     <defs>
      <path id="DejaVuSans-32" d="M 1228 531
L 3431 531
L 3431 0
L 469 0
L 469 531
Q 828 903 1448 1529
Q 2069 2156 2228 2338
Q 2531 2678 2651 2914
Q 2772 3150 2772 3378
Q 2772 3750 2511 3984
Q 2250 4219 1831 4219
Q 1534 4219 1204 4116
Q 875 4013 500 3803
L 500 4441
Q 881 4594 1212 4672
Q 1544 4750 1819 4750
Q 2544 4750 2975 4387
Q 3406 4025 3406 3419
Q 3406 3131 3298 2873
Q 3191 2616 2906 2266
Q 2828 2175 2409 1742
Q 1991 1309 1228 531
z
" transform="scale(0.015625)"/>
      <path id="DejaVuSans-35" d="M 691 4666
L 3169 4666
L 3169 4134
L 1269 4134
L 1269 2991
Q 1406 3038 1543 3061
Q 1681 3084 1819 3084
Q 2600 3084 3056 2656
Q 3513 2228 3513 1497
Q 3513 744 3044 326
Q 2575 -91 1722 -91
Q 1428 -91 1123 -41
Q 819 9 494 109
L 494 744
Q 775 591 1075 516
Q 1375 441 1709 441
Q 2250 441 2565 725
Q 2881 1009 2881 1497
Q 2881 1984 2565 2268
Q 2250 2553 1709 2553
Q 1456 2553 1204 2497
Q 953 2441 691 2322
L 691 4666
z
" transform="scale(0.015625)"/>
      <path id="DejaVuSans-39" d="M 703 97
L 703 672
Q 941 559 1184 500
Q 1428 441 1663 441
Q 2288 441 2617 861
Q 2947 1281 2994 2138
Q 2813 1869 2534 1725
Q 2256 1581 1919 1581
Q 1219 1581 811 2004
Q 403 2428 403 3163
Q 403 3881 828 4315
Q 1253 4750 1959 4750
Q 2769 4750 3195 4129
Q 3622 3509 3622 2328
Q 3622 1225 3098 567
Q 2575 -91 1691 -91
Q 1453 -91 1209 -44
Q 966 3 703 97
z
M 1959 2075
Q 2384 2075 2632 2365
Q 2881 2656 2881 3163
Q 2881 3666 2632 3958
Q 2384 4250 1959 4250
Q 1534 4250 1286 3958
Q 1038 3666 1038 3163
Q 1038 2656 1286 2365
Q 1534 2075 1959 2075
z
" transform="scale(0.015625)"/>
     </defs>
     <use xlink:href="#DejaVuSans-45"/>
     <use xlink:href="#DejaVuSans-64" transform="translate(63.183594 0)"/>
     <use xlink:href="#DejaVuSans-32" transform="translate(126.660156 0)"/>
     <use xlink:href="#DejaVuSans-35" transform="translate(190.283203 0)"/>
     <use xlink:href="#DejaVuSans-35" transform="translate(253.90625 0)"/>
     <use xlink:href="#DejaVuSans-31" transform="translate(317.529297 0)"/>
     <use xlink:href="#DejaVuSans-39" transform="translate(381.152344 0)"/>
    </g>
   </g>
   <g id="text_17">
    <!-- Append and -->
    <g transform="translate(432.583244 162.405238) scale(0.087 -0.087)">
     <defs>
      <path id="DejaVuSans-Bold-41" d="M 3419 850
L 1538 850
L 1241 0
L 31 0
L 1759 4666
L 3194 4666
L 4922 0
L 3713 0
L 3419 850
z
M 1838 1716
L 3116 1716
L 2478 3572
L 1838 1716
z
" transform="scale(0.015625)"/>
     </defs>
     <use xlink:href="#DejaVuSans-Bold-41"/>
     <use xlink:href="#DejaVuSans-Bold-70" transform="translate(77.392578 0)"/>
     <use xlink:href="#DejaVuSans-Bold-70" transform="translate(148.974609 0)"/>
     <use xlink:href="#DejaVuSans-Bold-65" transform="translate(220.556641 0)"/>
     <use xlink:href="#DejaVuSans-Bold-6e" transform="translate(288.378906 0)"/>
     <use xlink:href="#DejaVuSans-Bold-64" transform="translate(359.570312 0)"/>
     <use xlink:href="#DejaVuSans-Bold-20" transform="translate(431.152344 0)"/>
     <use xlink:href="#DejaVuSans-Bold-61" transform="translate(465.966797 0)"/>
     <use xlink:href="#DejaVuSans-Bold-6e" transform="translate(533.447266 0)"/>
     <use xlink:href="#DejaVuSans-Bold-64" transform="translate(604.638672 0)"/>
    </g>
    <!-- receipt -->
    <g transform="translate(444.689158 170.494675) scale(0.087 -0.087)">
     <use xlink:href="#DejaVuSans-Bold-72"/>
     <use xlink:href="#DejaVuSans-Bold-65" transform="translate(49.316406 0)"/>
     <use xlink:href="#DejaVuSans-Bold-63" transform="translate(117.138672 0)"/>
     <use xlink:href="#DejaVuSans-Bold-65" transform="translate(176.416016 0)"/>
     <use xlink:href="#DejaVuSans-Bold-69" transform="translate(244.238281 0)"/>
     <use xlink:href="#DejaVuSans-Bold-70" transform="translate(278.515625 0)"/>
     <use xlink:href="#DejaVuSans-Bold-74" transform="translate(350.097656 0)"/>
    </g>
   </g>
   <g id="text_18">
    <!-- local A2 Merkle -->
    <g transform="translate(438.673205 185.144439) scale(0.061 -0.061)">
     <defs>
      <path id="DejaVuSans-41" d="M 2188 4044
L 1331 1722
L 3047 1722
L 2188 4044
z
M 1831 4666
L 2547 4666
L 4325 0
L 3669 0
L 3244 1197
L 1141 1197
L 716 0
L 50 0
L 1831 4666
z
" transform="scale(0.015625)"/>
      <path id="DejaVuSans-4d" d="M 628 4666
L 1569 4666
L 2759 1491
L 3956 4666
L 4897 4666
L 4897 0
L 4281 0
L 4281 4097
L 3078 897
L 2444 897
L 1241 4097
L 1241 0
L 628 0
L 628 4666
z
" transform="scale(0.015625)"/>
      <path id="DejaVuSans-6b" d="M 581 4863
L 1159 4863
L 1159 1991
L 2875 3500
L 3609 3500
L 1753 1863
L 3688 0
L 2938 0
L 1159 1709
L 1159 0
L 581 0
L 581 4863
z
" transform="scale(0.015625)"/>
     </defs>
     <use xlink:href="#DejaVuSans-6c"/>
     <use xlink:href="#DejaVuSans-6f" transform="translate(27.783203 0)"/>
     <use xlink:href="#DejaVuSans-63" transform="translate(88.964844 0)"/>
     <use xlink:href="#DejaVuSans-61" transform="translate(143.945312 0)"/>
     <use xlink:href="#DejaVuSans-6c" transform="translate(205.224609 0)"/>
     <use xlink:href="#DejaVuSans-20" transform="translate(233.007812 0)"/>
     <use xlink:href="#DejaVuSans-41" transform="translate(264.794922 0)"/>
     <use xlink:href="#DejaVuSans-32" transform="translate(333.203125 0)"/>
     <use xlink:href="#DejaVuSans-20" transform="translate(396.826172 0)"/>
     <use xlink:href="#DejaVuSans-4d" transform="translate(428.613281 0)"/>
     <use xlink:href="#DejaVuSans-65" transform="translate(514.892578 0)"/>
     <use xlink:href="#DejaVuSans-72" transform="translate(576.416016 0)"/>
     <use xlink:href="#DejaVuSans-6b" transform="translate(617.529297 0)"/>
     <use xlink:href="#DejaVuSans-6c" transform="translate(675.439453 0)"/>
     <use xlink:href="#DejaVuSans-65" transform="translate(703.222656 0)"/>
    </g>
   </g>
   <g id="text_19">
    <!-- Preserve evidence -->
    <g transform="translate(416.761478 245.997238) scale(0.087 -0.087)">
     <use xlink:href="#DejaVuSans-Bold-50"/>
     <use xlink:href="#DejaVuSans-Bold-72" transform="translate(73.291016 0)"/>
     <use xlink:href="#DejaVuSans-Bold-65" transform="translate(122.607422 0)"/>
     <use xlink:href="#DejaVuSans-Bold-73" transform="translate(190.429688 0)"/>
     <use xlink:href="#DejaVuSans-Bold-65" transform="translate(249.951172 0)"/>
     <use xlink:href="#DejaVuSans-Bold-72" transform="translate(317.773438 0)"/>
     <use xlink:href="#DejaVuSans-Bold-76" transform="translate(367.089844 0)"/>
     <use xlink:href="#DejaVuSans-Bold-65" transform="translate(432.275391 0)"/>
     <use xlink:href="#DejaVuSans-Bold-20" transform="translate(500.097656 0)"/>
     <use xlink:href="#DejaVuSans-Bold-65" transform="translate(534.912109 0)"/>
     <use xlink:href="#DejaVuSans-Bold-76" transform="translate(602.734375 0)"/>
     <use xlink:href="#DejaVuSans-Bold-69" transform="translate(667.919922 0)"/>
     <use xlink:href="#DejaVuSans-Bold-64" transform="translate(702.197266 0)"/>
     <use xlink:href="#DejaVuSans-Bold-65" transform="translate(773.779297 0)"/>
     <use xlink:href="#DejaVuSans-Bold-6e" transform="translate(841.601562 0)"/>
     <use xlink:href="#DejaVuSans-Bold-63" transform="translate(912.792969 0)"/>
     <use xlink:href="#DejaVuSans-Bold-65" transform="translate(972.070312 0)"/>
    </g>
    <!-- and checkpoint -->
    <g transform="translate(424.471174 254.086675) scale(0.087 -0.087)">
     <defs>
      <path id="DejaVuSans-Bold-6b" d="M 538 4863
L 1656 4863
L 1656 2216
L 2944 3500
L 4244 3500
L 2534 1894
L 4378 0
L 3022 0
L 1656 1459
L 1656 0
L 538 0
L 538 4863
z
" transform="scale(0.015625)"/>
     </defs>
     <use xlink:href="#DejaVuSans-Bold-61"/>
     <use xlink:href="#DejaVuSans-Bold-6e" transform="translate(67.480469 0)"/>
     <use xlink:href="#DejaVuSans-Bold-64" transform="translate(138.671875 0)"/>
     <use xlink:href="#DejaVuSans-Bold-20" transform="translate(210.253906 0)"/>
     <use xlink:href="#DejaVuSans-Bold-63" transform="translate(245.068359 0)"/>
     <use xlink:href="#DejaVuSans-Bold-68" transform="translate(304.345703 0)"/>
     <use xlink:href="#DejaVuSans-Bold-65" transform="translate(375.537109 0)"/>
     <use xlink:href="#DejaVuSans-Bold-63" transform="translate(443.359375 0)"/>
     <use xlink:href="#DejaVuSans-Bold-6b" transform="translate(502.636719 0)"/>
     <use xlink:href="#DejaVuSans-Bold-70" transform="translate(569.140625 0)"/>
     <use xlink:href="#DejaVuSans-Bold-6f" transform="translate(640.722656 0)"/>
     <use xlink:href="#DejaVuSans-Bold-69" transform="translate(709.423828 0)"/>
     <use xlink:href="#DejaVuSans-Bold-6e" transform="translate(743.701172 0)"/>
     <use xlink:href="#DejaVuSans-Bold-74" transform="translate(814.892578 0)"/>
    </g>
   </g>
   <g id="text_20">
    <!-- payload excluded -->
    <g transform="translate(435.117572 268.736439) scale(0.061 -0.061)">
     <defs>
      <path id="DejaVuSans-78" d="M 3513 3500
L 2247 1797
L 3578 0
L 2900 0
L 1881 1375
L 863 0
L 184 0
L 1544 1831
L 300 3500
L 978 3500
L 1906 2253
L 2834 3500
L 3513 3500
z
" transform="scale(0.015625)"/>
     </defs>
     <use xlink:href="#DejaVuSans-70"/>
     <use xlink:href="#DejaVuSans-61" transform="translate(63.476562 0)"/>
     <use xlink:href="#DejaVuSans-79" transform="translate(124.755859 0)"/>
     <use xlink:href="#DejaVuSans-6c" transform="translate(183.935547 0)"/>
     <use xlink:href="#DejaVuSans-6f" transform="translate(211.71875 0)"/>
     <use xlink:href="#DejaVuSans-61" transform="translate(272.900391 0)"/>
     <use xlink:href="#DejaVuSans-64" transform="translate(334.179688 0)"/>
     <use xlink:href="#DejaVuSans-20" transform="translate(397.65625 0)"/>
     <use xlink:href="#DejaVuSans-65" transform="translate(429.443359 0)"/>
     <use xlink:href="#DejaVuSans-78" transform="translate(489.216797 0)"/>
     <use xlink:href="#DejaVuSans-63" transform="translate(546.646484 0)"/>
     <use xlink:href="#DejaVuSans-6c" transform="translate(601.626953 0)"/>
     <use xlink:href="#DejaVuSans-75" transform="translate(629.410156 0)"/>
     <use xlink:href="#DejaVuSans-64" transform="translate(692.789062 0)"/>
     <use xlink:href="#DejaVuSans-65" transform="translate(756.265625 0)"/>
     <use xlink:href="#DejaVuSans-64" transform="translate(817.789062 0)"/>
    </g>
   </g>
   <g id="text_21">
    <!-- governed payload path -->
    <g transform="translate(217.377563 59.80455) scale(0.072 -0.072)">
     <use xlink:href="#DejaVuSans-67"/>
     <use xlink:href="#DejaVuSans-6f" transform="translate(63.476562 0)"/>
     <use xlink:href="#DejaVuSans-76" transform="translate(124.658203 0)"/>
     <use xlink:href="#DejaVuSans-65" transform="translate(183.837891 0)"/>
     <use xlink:href="#DejaVuSans-72" transform="translate(245.361328 0)"/>
     <use xlink:href="#DejaVuSans-6e" transform="translate(284.724609 0)"/>
     <use xlink:href="#DejaVuSans-65" transform="translate(348.103516 0)"/>
     <use xlink:href="#DejaVuSans-64" transform="translate(409.626953 0)"/>
     <use xlink:href="#DejaVuSans-20" transform="translate(473.103516 0)"/>
     <use xlink:href="#DejaVuSans-70" transform="translate(504.890625 0)"/>
     <use xlink:href="#DejaVuSans-61" transform="translate(568.367188 0)"/>
     <use xlink:href="#DejaVuSans-79" transform="translate(629.646484 0)"/>
     <use xlink:href="#DejaVuSans-6c" transform="translate(688.826172 0)"/>
     <use xlink:href="#DejaVuSans-6f" transform="translate(716.609375 0)"/>
     <use xlink:href="#DejaVuSans-61" transform="translate(777.791016 0)"/>
     <use xlink:href="#DejaVuSans-64" transform="translate(839.070312 0)"/>
     <use xlink:href="#DejaVuSans-20" transform="translate(902.546875 0)"/>
     <use xlink:href="#DejaVuSans-70" transform="translate(934.333984 0)"/>
     <use xlink:href="#DejaVuSans-61" transform="translate(997.810547 0)"/>
     <use xlink:href="#DejaVuSans-74" transform="translate(1059.089844 0)"/>
     <use xlink:href="#DejaVuSans-68" transform="translate(1098.298828 0)"/>
    </g>
   </g>
   <g id="text_22">
    <!-- event metadata only -->
    <g transform="translate(65.576961 119.24775) scale(0.072 -0.072)">
     <use xlink:href="#DejaVuSans-65"/>
     <use xlink:href="#DejaVuSans-76" transform="translate(61.523438 0)"/>
     <use xlink:href="#DejaVuSans-65" transform="translate(120.703125 0)"/>
     <use xlink:href="#DejaVuSans-6e" transform="translate(182.226562 0)"/>
     <use xlink:href="#DejaVuSans-74" transform="translate(245.605469 0)"/>
     <use xlink:href="#DejaVuSans-20" transform="translate(284.814453 0)"/>
     <use xlink:href="#DejaVuSans-6d" transform="translate(316.601562 0)"/>
     <use xlink:href="#DejaVuSans-65" transform="translate(414.013672 0)"/>
     <use xlink:href="#DejaVuSans-74" transform="translate(475.537109 0)"/>
     <use xlink:href="#DejaVuSans-61" transform="translate(514.746094 0)"/>
     <use xlink:href="#DejaVuSans-64" transform="translate(576.025391 0)"/>
     <use xlink:href="#DejaVuSans-61" transform="translate(639.501953 0)"/>
     <use xlink:href="#DejaVuSans-74" transform="translate(700.78125 0)"/>
     <use xlink:href="#DejaVuSans-61" transform="translate(739.990234 0)"/>
     <use xlink:href="#DejaVuSans-20" transform="translate(801.269531 0)"/>
     <use xlink:href="#DejaVuSans-6f" transform="translate(833.056641 0)"/>
     <use xlink:href="#DejaVuSans-6e" transform="translate(894.238281 0)"/>
     <use xlink:href="#DejaVuSans-6c" transform="translate(957.617188 0)"/>
     <use xlink:href="#DejaVuSans-79" transform="translate(985.400391 0)"/>
    </g>
   </g>
   <g id="text_23">
    <!-- Boundary rule: raw physiological values and samples do not enter the public evidence envelope. -->
    <g transform="translate(30.27456 283.284) scale(0.078 -0.078)">
     <defs>
      <path id="DejaVuSans-42" d="M 1259 2228
L 1259 519
L 2272 519
Q 2781 519 3026 730
Q 3272 941 3272 1375
Q 3272 1813 3026 2020
Q 2781 2228 2272 2228
L 1259 2228
z
M 1259 4147
L 1259 2741
L 2194 2741
Q 2656 2741 2882 2914
Q 3109 3088 3109 3444
Q 3109 3797 2882 3972
Q 2656 4147 2194 4147
L 1259 4147
z
M 628 4666
L 2241 4666
Q 2963 4666 3353 4366
Q 3744 4066 3744 3513
Q 3744 3084 3544 2831
Q 3344 2578 2956 2516
Q 3422 2416 3680 2098
Q 3938 1781 3938 1306
Q 3938 681 3513 340
Q 3088 0 2303 0
L 628 0
L 628 4666
z
" transform="scale(0.015625)"/>
      <path id="DejaVuSans-3a" d="M 750 794
L 1409 794
L 1409 0
L 750 0
L 750 794
z
M 750 3309
L 1409 3309
L 1409 2516
L 750 2516
L 750 3309
z
" transform="scale(0.015625)"/>
      <path id="DejaVuSans-77" d="M 269 3500
L 844 3500
L 1563 769
L 2278 3500
L 2956 3500
L 3675 769
L 4391 3500
L 4966 3500
L 4050 0
L 3372 0
L 2619 2869
L 1863 0
L 1184 0
L 269 3500
z
" transform="scale(0.015625)"/>
      <path id="DejaVuSans-2e" d="M 684 794
L 1344 794
L 1344 0
L 684 0
L 684 794
z
" transform="scale(0.015625)"/>
     </defs>
     <use xlink:href="#DejaVuSans-42"/>
     <use xlink:href="#DejaVuSans-6f" transform="translate(68.603516 0)"/>
     <use xlink:href="#DejaVuSans-75" transform="translate(129.785156 0)"/>
     <use xlink:href="#DejaVuSans-6e" transform="translate(193.164062 0)"/>
     <use xlink:href="#DejaVuSans-64" transform="translate(256.542969 0)"/>
     <use xlink:href="#DejaVuSans-61" transform="translate(320.019531 0)"/>
     <use xlink:href="#DejaVuSans-72" transform="translate(381.298828 0)"/>
     <use xlink:href="#DejaVuSans-79" transform="translate(422.412109 0)"/>
     <use xlink:href="#DejaVuSans-20" transform="translate(481.591797 0)"/>
     <use xlink:href="#DejaVuSans-72" transform="translate(513.378906 0)"/>
     <use xlink:href="#DejaVuSans-75" transform="translate(554.492188 0)"/>
     <use xlink:href="#DejaVuSans-6c" transform="translate(617.871094 0)"/>
     <use xlink:href="#DejaVuSans-65" transform="translate(645.654297 0)"/>
     <use xlink:href="#DejaVuSans-3a" transform="translate(707.177734 0)"/>
     <use xlink:href="#DejaVuSans-20" transform="translate(740.869141 0)"/>
     <use xlink:href="#DejaVuSans-72" transform="translate(772.65625 0)"/>
     <use xlink:href="#DejaVuSans-61" transform="translate(813.769531 0)"/>
     <use xlink:href="#DejaVuSans-77" transform="translate(875.048828 0)"/>
     <use xlink:href="#DejaVuSans-20" transform="translate(956.835938 0)"/>
     <use xlink:href="#DejaVuSans-70" transform="translate(988.623047 0)"/>
     <use xlink:href="#DejaVuSans-68" transform="translate(1052.099609 0)"/>
     <use xlink:href="#DejaVuSans-79" transform="translate(1115.478516 0)"/>
     <use xlink:href="#DejaVuSans-73" transform="translate(1174.658203 0)"/>
     <use xlink:href="#DejaVuSans-69" transform="translate(1226.757812 0)"/>
     <use xlink:href="#DejaVuSans-6f" transform="translate(1254.541016 0)"/>
     <use xlink:href="#DejaVuSans-6c" transform="translate(1315.722656 0)"/>
     <use xlink:href="#DejaVuSans-6f" transform="translate(1343.505859 0)"/>
     <use xlink:href="#DejaVuSans-67" transform="translate(1404.6875 0)"/>
     <use xlink:href="#DejaVuSans-69" transform="translate(1468.164062 0)"/>
     <use xlink:href="#DejaVuSans-63" transform="translate(1495.947266 0)"/>
     <use xlink:href="#DejaVuSans-61" transform="translate(1550.927734 0)"/>
     <use xlink:href="#DejaVuSans-6c" transform="translate(1612.207031 0)"/>
     <use xlink:href="#DejaVuSans-20" transform="translate(1639.990234 0)"/>
     <use xlink:href="#DejaVuSans-76" transform="translate(1671.777344 0)"/>
     <use xlink:href="#DejaVuSans-61" transform="translate(1730.957031 0)"/>
     <use xlink:href="#DejaVuSans-6c" transform="translate(1792.236328 0)"/>
     <use xlink:href="#DejaVuSans-75" transform="translate(1820.019531 0)"/>
     <use xlink:href="#DejaVuSans-65" transform="translate(1883.398438 0)"/>
     <use xlink:href="#DejaVuSans-73" transform="translate(1944.921875 0)"/>
     <use xlink:href="#DejaVuSans-20" transform="translate(1997.021484 0)"/>
     <use xlink:href="#DejaVuSans-61" transform="translate(2028.808594 0)"/>
     <use xlink:href="#DejaVuSans-6e" transform="translate(2090.087891 0)"/>
     <use xlink:href="#DejaVuSans-64" transform="translate(2153.466797 0)"/>
     <use xlink:href="#DejaVuSans-20" transform="translate(2216.943359 0)"/>
     <use xlink:href="#DejaVuSans-73" transform="translate(2248.730469 0)"/>
     <use xlink:href="#DejaVuSans-61" transform="translate(2300.830078 0)"/>
     <use xlink:href="#DejaVuSans-6d" transform="translate(2362.109375 0)"/>
     <use xlink:href="#DejaVuSans-70" transform="translate(2459.521484 0)"/>
     <use xlink:href="#DejaVuSans-6c" transform="translate(2522.998047 0)"/>
     <use xlink:href="#DejaVuSans-65" transform="translate(2550.78125 0)"/>
     <use xlink:href="#DejaVuSans-73" transform="translate(2612.304688 0)"/>
     <use xlink:href="#DejaVuSans-20" transform="translate(2664.404297 0)"/>
     <use xlink:href="#DejaVuSans-64" transform="translate(2696.191406 0)"/>
     <use xlink:href="#DejaVuSans-6f" transform="translate(2759.667969 0)"/>
     <use xlink:href="#DejaVuSans-20" transform="translate(2820.849609 0)"/>
     <use xlink:href="#DejaVuSans-6e" transform="translate(2852.636719 0)"/>
     <use xlink:href="#DejaVuSans-6f" transform="translate(2916.015625 0)"/>
     <use xlink:href="#DejaVuSans-74" transform="translate(2977.197266 0)"/>
     <use xlink:href="#DejaVuSans-20" transform="translate(3016.40625 0)"/>
     <use xlink:href="#DejaVuSans-65" transform="translate(3048.193359 0)"/>
     <use xlink:href="#DejaVuSans-6e" transform="translate(3109.716797 0)"/>
     <use xlink:href="#DejaVuSans-74" transform="translate(3173.095703 0)"/>
     <use xlink:href="#DejaVuSans-65" transform="translate(3212.304688 0)"/>
     <use xlink:href="#DejaVuSans-72" transform="translate(3273.828125 0)"/>
     <use xlink:href="#DejaVuSans-20" transform="translate(3314.941406 0)"/>
     <use xlink:href="#DejaVuSans-74" transform="translate(3346.728516 0)"/>
     <use xlink:href="#DejaVuSans-68" transform="translate(3385.9375 0)"/>
     <use xlink:href="#DejaVuSans-65" transform="translate(3449.316406 0)"/>
     <use xlink:href="#DejaVuSans-20" transform="translate(3510.839844 0)"/>
     <use xlink:href="#DejaVuSans-70" transform="translate(3542.626953 0)"/>
     <use xlink:href="#DejaVuSans-75" transform="translate(3606.103516 0)"/>
     <use xlink:href="#DejaVuSans-62" transform="translate(3669.482422 0)"/>
     <use xlink:href="#DejaVuSans-6c" transform="translate(3732.958984 0)"/>
     <use xlink:href="#DejaVuSans-69" transform="translate(3760.742188 0)"/>
     <use xlink:href="#DejaVuSans-63" transform="translate(3788.525391 0)"/>
     <use xlink:href="#DejaVuSans-20" transform="translate(3843.505859 0)"/>
     <use xlink:href="#DejaVuSans-65" transform="translate(3875.292969 0)"/>
     <use xlink:href="#DejaVuSans-76" transform="translate(3936.816406 0)"/>
     <use xlink:href="#DejaVuSans-69" transform="translate(3995.996094 0)"/>
     <use xlink:href="#DejaVuSans-64" transform="translate(4023.779297 0)"/>
     <use xlink:href="#DejaVuSans-65" transform="translate(4087.255859 0)"/>
     <use xlink:href="#DejaVuSans-6e" transform="translate(4148.779297 0)"/>
     <use xlink:href="#DejaVuSans-63" transform="translate(4212.158203 0)"/>
     <use xlink:href="#DejaVuSans-65" transform="translate(4267.138672 0)"/>
     <use xlink:href="#DejaVuSans-20" transform="translate(4328.662109 0)"/>
     <use xlink:href="#DejaVuSans-65" transform="translate(4360.449219 0)"/>
     <use xlink:href="#DejaVuSans-6e" transform="translate(4421.972656 0)"/>
     <use xlink:href="#DejaVuSans-76" transform="translate(4485.351562 0)"/>
     <use xlink:href="#DejaVuSans-65" transform="translate(4544.53125 0)"/>
     <use xlink:href="#DejaVuSans-6c" transform="translate(4606.054688 0)"/>
     <use xlink:href="#DejaVuSans-6f" transform="translate(4633.837891 0)"/>
     <use xlink:href="#DejaVuSans-70" transform="translate(4695.019531 0)"/>
     <use xlink:href="#DejaVuSans-65" transform="translate(4758.496094 0)"/>
     <use xlink:href="#DejaVuSans-2e" transform="translate(4820.019531 0)"/>
    </g>
   </g>
   <g id="text_24">
    <!-- Schema-first curation boundary -->
    <g transform="translate(142.656016 10.576) scale(0.13 -0.13)">
     <defs>
      <path id="DejaVuSans-Bold-66" d="M 2841 4863
L 2841 4128
L 2222 4128
Q 1984 4128 1890 4042
Q 1797 3956 1797 3744
L 1797 3500
L 2753 3500
L 2753 2700
L 1797 2700
L 1797 0
L 678 0
L 678 2700
L 122 2700
L 122 3500
L 678 3500
L 678 3744
Q 678 4316 997 4589
Q 1316 4863 1984 4863
L 2841 4863
z
" transform="scale(0.015625)"/>
      <path id="DejaVuSans-Bold-62" d="M 2400 722
Q 2759 722 2948 984
Q 3138 1247 3138 1747
Q 3138 2247 2948 2509
Q 2759 2772 2400 2772
Q 2041 2772 1848 2508
Q 1656 2244 1656 1747
Q 1656 1250 1848 986
Q 2041 722 2400 722
z
M 1656 2988
Q 1888 3294 2169 3439
Q 2450 3584 2816 3584
Q 3463 3584 3878 3070
Q 4294 2556 4294 1747
Q 4294 938 3878 423
Q 3463 -91 2816 -91
Q 2450 -91 2169 54
Q 1888 200 1656 506
L 1656 0
L 538 0
L 538 4863
L 1656 4863
L 1656 2988
z
" transform="scale(0.015625)"/>
     </defs>
     <use xlink:href="#DejaVuSans-Bold-53"/>
     <use xlink:href="#DejaVuSans-Bold-63" transform="translate(72.021484 0)"/>
     <use xlink:href="#DejaVuSans-Bold-68" transform="translate(131.298828 0)"/>
     <use xlink:href="#DejaVuSans-Bold-65" transform="translate(202.490234 0)"/>
     <use xlink:href="#DejaVuSans-Bold-6d" transform="translate(270.3125 0)"/>
     <use xlink:href="#DejaVuSans-Bold-61" transform="translate(374.511719 0)"/>
     <use xlink:href="#DejaVuSans-Bold-2d" transform="translate(441.992188 0)"/>
     <use xlink:href="#DejaVuSans-Bold-66" transform="translate(483.496094 0)"/>
     <use xlink:href="#DejaVuSans-Bold-69" transform="translate(527.001953 0)"/>
     <use xlink:href="#DejaVuSans-Bold-72" transform="translate(561.279297 0)"/>
     <use xlink:href="#DejaVuSans-Bold-73" transform="translate(610.595703 0)"/>
     <use xlink:href="#DejaVuSans-Bold-74" transform="translate(670.117188 0)"/>
     <use xlink:href="#DejaVuSans-Bold-20" transform="translate(717.919922 0)"/>
     <use xlink:href="#DejaVuSans-Bold-63" transform="translate(752.734375 0)"/>
     <use xlink:href="#DejaVuSans-Bold-75" transform="translate(812.011719 0)"/>
     <use xlink:href="#DejaVuSans-Bold-72" transform="translate(883.203125 0)"/>
     <use xlink:href="#DejaVuSans-Bold-61" transform="translate(932.519531 0)"/>
     <use xlink:href="#DejaVuSans-Bold-74" transform="translate(1000 0)"/>
     <use xlink:href="#DejaVuSans-Bold-69" transform="translate(1047.802734 0)"/>
     <use xlink:href="#DejaVuSans-Bold-6f" transform="translate(1082.080078 0)"/>
     <use xlink:href="#DejaVuSans-Bold-6e" transform="translate(1150.78125 0)"/>
     <use xlink:href="#DejaVuSans-Bold-20" transform="translate(1221.972656 0)"/>
     <use xlink:href="#DejaVuSans-Bold-62" transform="translate(1256.787109 0)"/>
     <use xlink:href="#DejaVuSans-Bold-6f" transform="translate(1328.369141 0)"/>
     <use xlink:href="#DejaVuSans-Bold-75" transform="translate(1397.070312 0)"/>
     <use xlink:href="#DejaVuSans-Bold-6e" transform="translate(1468.261719 0)"/>
     <use xlink:href="#DejaVuSans-Bold-64" transform="translate(1539.453125 0)"/>
     <use xlink:href="#DejaVuSans-Bold-61" transform="translate(1611.035156 0)"/>
     <use xlink:href="#DejaVuSans-Bold-72" transform="translate(1678.515625 0)"/>
     <use xlink:href="#DejaVuSans-Bold-79" transform="translate(1727.832031 0)"/>
    </g>
   </g>
  </g>
 </g>
 <defs>
  <clipPath id="p002b00659d">
   <rect x="10.368" y="18.576" width="497.664" height="278.64"/>
  </clipPath>
 </defs>
</svg>
