<?xml version="1.0" encoding="utf-8" standalone="no"?>
<!DOCTYPE svg PUBLIC "-//W3C//DTD SVG 1.1//EN"
  "http://www.w3.org/Graphics/SVG/1.1/DTD/svg11.dtd">
<svg xmlns:xlink="http://www.w3.org/1999/xlink" width="519.471656pt" height="223.558125pt" viewBox="0 0 519.471656 223.558125" xmlns="http://www.w3.org/2000/svg" version="1.1">
 <metadata>
  <rdf:RDF xmlns:dc="http://purl.org/dc/elements/1.1/" xmlns:cc="http://creativecommons.org/ns#" xmlns:rdf="http://www.w3.org/1999/02/22-rdf-syntax-ns#">
   <cc:Work>
    <dc:type rdf:resource="http://purl.org/dc/dcmitype/StillImage"/>
    <dc:date>2026-07-04T04:09:57.156898</dc:date>
    <dc:format>image/svg+xml</dc:format>
    <dc:creator>
     <cc:Agent>
      <dc:title>Matplotlib v3.10.8, https://matplotlib.org/</dc:title>
     </cc:Agent>
    </dc:creator>
   </cc:Work>
  </rdf:RDF>
 </metadata>
 <defs>
  <style type="text/css">*{stroke-linejoin: round; stroke-linecap: butt}</style>
 </defs>
 <g id="figure_1">
  <g id="patch_1">
   <path d="M 0 223.558125 
L 519.471656 223.558125 
L 519.471656 0 
L 0 0 
z
" style="fill: #ffffff"/>
  </g>
  <g id="axes_1">
   <g id="text_1">
    <g id="patch_2">
     <path d="M 7.2 123.574094 
L 93.295312 123.574094 
Q 96.795312 123.574094 96.795312 120.074094 
L 96.795312 99.198156 
Q 96.795312 95.698156 93.295312 95.698156 
L 7.2 95.698156 
Q 3.7 95.698156 3.7 99.198156 
L 3.7 120.074094 
Q 3.7 123.574094 7.2 123.574094 
L 7.2 123.574094 
z
" style="fill: none; stroke: #000000; stroke-linejoin: miter"/>
    </g>
    <!-- Legal / standards -->
    <g transform="translate(7.2 106.796594) scale(0.1 -0.1)">
     <defs>
      <path id="DejaVuSans-4c" d="M 628 4666 
L 1259 4666 
L 1259 531 
L 3531 531 
L 3531 0 
L 628 0 
L 628 4666 
z
" transform="scale(0.015625)"/>
      <path id="DejaVuSans-65" d="M 3597 1894 
L 3597 1613 
L 953 1613 
Q 991 1019 1311 708 
Q 1631 397 2203 397 
Q 2534 397 2845 478 
Q 3156 559 3463 722 
L 3463 178 
Q 3153 47 2828 -22 
Q 2503 -91 2169 -91 
Q 1331 -91 842 396 
Q 353 884 353 1716 
Q 353 2575 817 3079 
Q 1281 3584 2069 3584 
Q 2775 3584 3186 3129 
Q 3597 2675 3597 1894 
z
M 3022 2063 
Q 3016 2534 2758 2815 
Q 2500 3097 2075 3097 
Q 1594 3097 1305 2825 
Q 1016 2553 972 2059 
L 3022 2063 
z
" transform="scale(0.015625)"/>
      <path id="DejaVuSans-67" d="M 2906 1791 
Q 2906 2416 2648 2759 
Q 2391 3103 1925 3103 
Q 1463 3103 1205 2759 
Q 947 2416 947 1791 
Q 947 1169 1205 825 
Q 1463 481 1925 481 
Q 2391 481 2648 825 
Q 2906 1169 2906 1791 
z
M 3481 434 
Q 3481 -459 3084 -895 
Q 2688 -1331 1869 -1331 
Q 1566 -1331 1297 -1286 
Q 1028 -1241 775 -1147 
L 775 -588 
Q 1028 -725 1275 -790 
Q 1522 -856 1778 -856 
Q 2344 -856 2625 -561 
Q 2906 -266 2906 331 
L 2906 616 
Q 2728 306 2450 153 
Q 2172 0 1784 0 
Q 1141 0 747 490 
Q 353 981 353 1791 
Q 353 2603 747 3093 
Q 1141 3584 1784 3584 
Q 2172 3584 2450 3431 
Q 2728 3278 2906 2969 
L 2906 3500 
L 3481 3500 
L 3481 434 
z
" transform="scale(0.015625)"/>
      <path id="DejaVuSans-61" d="M 2194 1759 
Q 1497 1759 1228 1600 
Q 959 1441 959 1056 
Q 959 750 1161 570 
Q 1363 391 1709 391 
Q 2188 391 2477 730 
Q 2766 1069 2766 1631 
L 2766 1759 
L 2194 1759 
z
M 3341 1997 
L 3341 0 
L 2766 0 
L 2766 531 
Q 2569 213 2275 61 
Q 1981 -91 1556 -91 
Q 1019 -91 701 211 
Q 384 513 384 1019 
Q 384 1609 779 1909 
Q 1175 2209 1959 2209 
L 2766 2209 
L 2766 2266 
Q 2766 2663 2505 2880 
Q 2244 3097 1772 3097 
Q 1472 3097 1187 3025 
Q 903 2953 641 2809 
L 641 3341 
Q 956 3463 1253 3523 
Q 1550 3584 1831 3584 
Q 2591 3584 2966 3190 
Q 3341 2797 3341 1997 
z
" transform="scale(0.015625)"/>
      <path id="DejaVuSans-6c" d="M 603 4863 
L 1178 4863 
L 1178 0 
L 603 0 
L 603 4863 
z
" transform="scale(0.015625)"/>
      <path id="DejaVuSans-20" transform="scale(0.015625)"/>
      <path id="DejaVuSans-2f" d="M 1625 4666 
L 2156 4666 
L 531 -594 
L 0 -594 
L 1625 4666 
z
" transform="scale(0.015625)"/>
      <path id="DejaVuSans-73" d="M 2834 3397 
L 2834 2853 
Q 2591 2978 2328 3040 
Q 2066 3103 1784 3103 
Q 1356 3103 1142 2972 
Q 928 2841 928 2578 
Q 928 2378 1081 2264 
Q 1234 2150 1697 2047 
L 1894 2003 
Q 2506 1872 2764 1633 
Q 3022 1394 3022 966 
Q 3022 478 2636 193 
Q 2250 -91 1575 -91 
Q 1294 -91 989 -36 
Q 684 19 347 128 
L 347 722 
Q 666 556 975 473 
Q 1284 391 1588 391 
Q 1994 391 2212 530 
Q 2431 669 2431 922 
Q 2431 1156 2273 1281 
Q 2116 1406 1581 1522 
L 1381 1569 
Q 847 1681 609 1914 
Q 372 2147 372 2553 
Q 372 3047 722 3315 
Q 1072 3584 1716 3584 
Q 2034 3584 2315 3537 
Q 2597 3491 2834 3397 
z
" transform="scale(0.015625)"/>
      <path id="DejaVuSans-74" d="M 1172 4494 
L 1172 3500 
L 2356 3500 
L 2356 3053 
L 1172 3053 
L 1172 1153 
Q 1172 725 1289 603 
Q 1406 481 1766 481 
L 2356 481 
L 2356 0 
L 1766 0 
Q 1100 0 847 248 
Q 594 497 594 1153 
L 594 3053 
L 172 3053 
L 172 3500 
L 594 3500 
L 594 4494 
L 1172 4494 
z
" transform="scale(0.015625)"/>
      <path id="DejaVuSans-6e" d="M 3513 2113 
L 3513 0 
L 2938 0 
L 2938 2094 
Q 2938 2591 2744 2837 
Q 2550 3084 2163 3084 
Q 1697 3084 1428 2787 
Q 1159 2491 1159 1978 
L 1159 0 
L 581 0 
L 581 3500 
L 1159 3500 
L 1159 2956 
Q 1366 3272 1645 3428 
Q 1925 3584 2291 3584 
Q 2894 3584 3203 3211 
Q 3513 2838 3513 2113 
z
" transform="scale(0.015625)"/>
      <path id="DejaVuSans-64" d="M 2906 2969 
L 2906 4863 
L 3481 4863 
L 3481 0 
L 2906 0 
L 2906 525 
Q 2725 213 2448 61 
Q 2172 -91 1784 -91 
Q 1150 -91 751 415 
Q 353 922 353 1747 
Q 353 2572 751 3078 
Q 1150 3584 1784 3584 
Q 2172 3584 2448 3432 
Q 2725 3281 2906 2969 
z
M 947 1747 
Q 947 1113 1208 752 
Q 1469 391 1925 391 
Q 2381 391 2643 752 
Q 2906 1113 2906 1747 
Q 2906 2381 2643 2742 
Q 2381 3103 1925 3103 
Q 1469 3103 1208 2742 
Q 947 2381 947 1747 
z
" transform="scale(0.015625)"/>
      <path id="DejaVuSans-72" d="M 2631 2963 
Q 2534 3019 2420 3045 
Q 2306 3072 2169 3072 
Q 1681 3072 1420 2755 
Q 1159 2438 1159 1844 
L 1159 0 
L 581 0 
L 581 3500 
L 1159 3500 
L 1159 2956 
Q 1341 3275 1631 3429 
Q 1922 3584 2338 3584 
Q 2397 3584 2469 3576 
Q 2541 3569 2628 3553 
L 2631 2963 
z
" transform="scale(0.015625)"/>
     </defs>
     <use xlink:href="#DejaVuSans-4c"/>
     <use xlink:href="#DejaVuSans-65" transform="translate(53.962891 0)"/>
     <use xlink:href="#DejaVuSans-67" transform="translate(115.486328 0)"/>
     <use xlink:href="#DejaVuSans-61" transform="translate(178.962891 0)"/>
     <use xlink:href="#DejaVuSans-6c" transform="translate(240.242188 0)"/>
     <use xlink:href="#DejaVuSans-20" transform="translate(268.025391 0)"/>
     <use xlink:href="#DejaVuSans-2f" transform="translate(299.8125 0)"/>
     <use xlink:href="#DejaVuSans-20" transform="translate(333.503906 0)"/>
     <use xlink:href="#DejaVuSans-73" transform="translate(365.291016 0)"/>
     <use xlink:href="#DejaVuSans-74" transform="translate(417.390625 0)"/>
     <use xlink:href="#DejaVuSans-61" transform="translate(456.599609 0)"/>
     <use xlink:href="#DejaVuSans-6e" transform="translate(517.878906 0)"/>
     <use xlink:href="#DejaVuSans-64" transform="translate(581.257812 0)"/>
     <use xlink:href="#DejaVuSans-61" transform="translate(644.734375 0)"/>
     <use xlink:href="#DejaVuSans-72" transform="translate(706.013672 0)"/>
     <use xlink:href="#DejaVuSans-64" transform="translate(745.376953 0)"/>
     <use xlink:href="#DejaVuSans-73" transform="translate(808.853516 0)"/>
    </g>
    <!-- obligation -->
    <g transform="translate(25.420312 117.994406) scale(0.1 -0.1)">
     <defs>
      <path id="DejaVuSans-6f" d="M 1959 3097 
Q 1497 3097 1228 2736 
Q 959 2375 959 1747 
Q 959 1119 1226 758 
Q 1494 397 1959 397 
Q 2419 397 2687 759 
Q 2956 1122 2956 1747 
Q 2956 2369 2687 2733 
Q 2419 3097 1959 3097 
z
M 1959 3584 
Q 2709 3584 3137 3096 
Q 3566 2609 3566 1747 
Q 3566 888 3137 398 
Q 2709 -91 1959 -91 
Q 1206 -91 779 398 
Q 353 888 353 1747 
Q 353 2609 779 3096 
Q 1206 3584 1959 3584 
z
" transform="scale(0.015625)"/>
      <path id="DejaVuSans-62" d="M 3116 1747 
Q 3116 2381 2855 2742 
Q 2594 3103 2138 3103 
Q 1681 3103 1420 2742 
Q 1159 2381 1159 1747 
Q 1159 1113 1420 752 
Q 1681 391 2138 391 
Q 2594 391 2855 752 
Q 3116 1113 3116 1747 
z
M 1159 2969 
Q 1341 3281 1617 3432 
Q 1894 3584 2278 3584 
Q 2916 3584 3314 3078 
Q 3713 2572 3713 1747 
Q 3713 922 3314 415 
Q 2916 -91 2278 -91 
Q 1894 -91 1617 61 
Q 1341 213 1159 525 
L 1159 0 
L 581 0 
L 581 4863 
L 1159 4863 
L 1159 2969 
z
" transform="scale(0.015625)"/>
      <path id="DejaVuSans-69" d="M 603 3500 
L 1178 3500 
L 1178 0 
L 603 0 
L 603 3500 
z
M 603 4863 
L 1178 4863 
L 1178 4134 
L 603 4134 
L 603 4863 
z
" transform="scale(0.015625)"/>
     </defs>
     <use xlink:href="#DejaVuSans-6f"/>
     <use xlink:href="#DejaVuSans-62" transform="translate(61.181641 0)"/>
     <use xlink:href="#DejaVuSans-6c" transform="translate(124.658203 0)"/>
     <use xlink:href="#DejaVuSans-69" transform="translate(152.441406 0)"/>
     <use xlink:href="#DejaVuSans-67" transform="translate(180.224609 0)"/>
     <use xlink:href="#DejaVuSans-61" transform="translate(243.701172 0)"/>
     <use xlink:href="#DejaVuSans-74" transform="translate(304.980469 0)"/>
     <use xlink:href="#DejaVuSans-69" transform="translate(344.189453 0)"/>
     <use xlink:href="#DejaVuSans-6f" transform="translate(371.972656 0)"/>
     <use xlink:href="#DejaVuSans-6e" transform="translate(433.154297 0)"/>
    </g>
   </g>
   <g id="text_2">
    <g id="patch_3">
     <path d="M 124.862781 123.574094 
L 186.556531 123.574094 
Q 190.056531 123.574094 190.056531 120.074094 
L 190.056531 99.198156 
Q 190.056531 95.698156 186.556531 95.698156 
L 124.862781 95.698156 
Q 121.362781 95.698156 121.362781 99.198156 
L 121.362781 120.074094 
Q 121.362781 123.574094 124.862781 123.574094 
L 124.862781 123.574094 
z
" style="fill: none; stroke: #000000; stroke-linejoin: miter"/>
    </g>
    <!-- Technical -->
    <g transform="translate(132.751062 106.796594) scale(0.1 -0.1)">
     <defs>
      <path id="DejaVuSans-54" d="M -19 4666 
L 3928 4666 
L 3928 4134 
L 2272 4134 
L 2272 0 
L 1638 0 
L 1638 4134 
L -19 4134 
L -19 4666 
z
" transform="scale(0.015625)"/>
      <path id="DejaVuSans-63" d="M 3122 3366 
L 3122 2828 
Q 2878 2963 2633 3030 
Q 2388 3097 2138 3097 
Q 1578 3097 1268 2742 
Q 959 2388 959 1747 
Q 959 1106 1268 751 
Q 1578 397 2138 397 
Q 2388 397 2633 464 
Q 2878 531 3122 666 
L 3122 134 
Q 2881 22 2623 -34 
Q 2366 -91 2075 -91 
Q 1284 -91 818 406 
Q 353 903 353 1747 
Q 353 2603 823 3093 
Q 1294 3584 2113 3584 
Q 2378 3584 2631 3529 
Q 2884 3475 3122 3366 
z
" transform="scale(0.015625)"/>
      <path id="DejaVuSans-68" d="M 3513 2113 
L 3513 0 
L 2938 0 
L 2938 2094 
Q 2938 2591 2744 2837 
Q 2550 3084 2163 3084 
Q 1697 3084 1428 2787 
Q 1159 2491 1159 1978 
L 1159 0 
L 581 0 
L 581 4863 
L 1159 4863 
L 1159 2956 
Q 1366 3272 1645 3428 
Q 1925 3584 2291 3584 
Q 2894 3584 3203 3211 
Q 3513 2838 3513 2113 
z
" transform="scale(0.015625)"/>
     </defs>
     <use xlink:href="#DejaVuSans-54"/>
     <use xlink:href="#DejaVuSans-65" transform="translate(44.083984 0)"/>
     <use xlink:href="#DejaVuSans-63" transform="translate(105.607422 0)"/>
     <use xlink:href="#DejaVuSans-68" transform="translate(160.587891 0)"/>
     <use xlink:href="#DejaVuSans-6e" transform="translate(223.966797 0)"/>
     <use xlink:href="#DejaVuSans-69" transform="translate(287.345703 0)"/>
     <use xlink:href="#DejaVuSans-63" transform="translate(315.128906 0)"/>
     <use xlink:href="#DejaVuSans-61" transform="translate(370.109375 0)"/>
     <use xlink:href="#DejaVuSans-6c" transform="translate(431.388672 0)"/>
    </g>
    <!-- requirement -->
    <g transform="translate(124.862781 117.994406) scale(0.1 -0.1)">
     <defs>
      <path id="DejaVuSans-71" d="M 947 1747 
Q 947 1113 1208 752 
Q 1469 391 1925 391 
Q 2381 391 2643 752 
Q 2906 1113 2906 1747 
Q 2906 2381 2643 2742 
Q 2381 3103 1925 3103 
Q 1469 3103 1208 2742 
Q 947 2381 947 1747 
z
M 2906 525 
Q 2725 213 2448 61 
Q 2172 -91 1784 -91 
Q 1150 -91 751 415 
Q 353 922 353 1747 
Q 353 2572 751 3078 
Q 1150 3584 1784 3584 
Q 2172 3584 2448 3432 
Q 2725 3281 2906 2969 
L 2906 3500 
L 3481 3500 
L 3481 -1331 
L 2906 -1331 
L 2906 525 
z
" transform="scale(0.015625)"/>
      <path id="DejaVuSans-75" d="M 544 1381 
L 544 3500 
L 1119 3500 
L 1119 1403 
Q 1119 906 1312 657 
Q 1506 409 1894 409 
Q 2359 409 2629 706 
Q 2900 1003 2900 1516 
L 2900 3500 
L 3475 3500 
L 3475 0 
L 2900 0 
L 2900 538 
Q 2691 219 2414 64 
Q 2138 -91 1772 -91 
Q 1169 -91 856 284 
Q 544 659 544 1381 
z
M 1991 3584 
L 1991 3584 
z
" transform="scale(0.015625)"/>
      <path id="DejaVuSans-6d" d="M 3328 2828 
Q 3544 3216 3844 3400 
Q 4144 3584 4550 3584 
Q 5097 3584 5394 3201 
Q 5691 2819 5691 2113 
L 5691 0 
L 5113 0 
L 5113 2094 
Q 5113 2597 4934 2840 
Q 4756 3084 4391 3084 
Q 3944 3084 3684 2787 
Q 3425 2491 3425 1978 
L 3425 0 
L 2847 0 
L 2847 2094 
Q 2847 2600 2669 2842 
Q 2491 3084 2119 3084 
Q 1678 3084 1418 2786 
Q 1159 2488 1159 1978 
L 1159 0 
L 581 0 
L 581 3500 
L 1159 3500 
L 1159 2956 
Q 1356 3278 1631 3431 
Q 1906 3584 2284 3584 
Q 2666 3584 2933 3390 
Q 3200 3197 3328 2828 
z
" transform="scale(0.015625)"/>
     </defs>
     <use xlink:href="#DejaVuSans-72"/>
     <use xlink:href="#DejaVuSans-65" transform="translate(38.863281 0)"/>
     <use xlink:href="#DejaVuSans-71" transform="translate(100.386719 0)"/>
     <use xlink:href="#DejaVuSans-75" transform="translate(163.863281 0)"/>
     <use xlink:href="#DejaVuSans-69" transform="translate(227.242188 0)"/>
     <use xlink:href="#DejaVuSans-72" transform="translate(255.025391 0)"/>
     <use xlink:href="#DejaVuSans-65" transform="translate(293.888672 0)"/>
     <use xlink:href="#DejaVuSans-6d" transform="translate(355.412109 0)"/>
     <use xlink:href="#DejaVuSans-65" transform="translate(452.824219 0)"/>
     <use xlink:href="#DejaVuSans-6e" transform="translate(514.347656 0)"/>
     <use xlink:href="#DejaVuSans-74" transform="translate(577.726562 0)"/>
    </g>
   </g>
   <g id="text_3">
    <g id="patch_4">
     <path d="M 226.313062 123.574094 
L 296.03025 123.574094 
Q 299.53025 123.574094 299.53025 120.074094 
L 299.53025 99.198156 
Q 299.53025 95.698156 296.03025 95.698156 
L 226.313062 95.698156 
Q 222.813062 95.698156 222.813062 99.198156 
L 222.813062 120.074094 
Q 222.813062 123.574094 226.313062 123.574094 
L 226.313062 123.574094 
z
" style="fill: none; stroke: #000000; stroke-linejoin: miter"/>
    </g>
    <!-- TrustEvidence -->
    <g transform="translate(226.313062 106.796594) scale(0.1 -0.1)">
     <defs>
      <path id="DejaVuSans-45" d="M 628 4666 
L 3578 4666 
L 3578 4134 
L 1259 4134 
L 1259 2753 
L 3481 2753 
L 3481 2222 
L 1259 2222 
L 1259 531 
L 3634 531 
L 3634 0 
L 628 0 
L 628 4666 
z
" transform="scale(0.015625)"/>
      <path id="DejaVuSans-76" d="M 191 3500 
L 800 3500 
L 1894 563 
L 2988 3500 
L 3597 3500 
L 2284 0 
L 1503 0 
L 191 3500 
z
" transform="scale(0.015625)"/>
     </defs>
     <use xlink:href="#DejaVuSans-54"/>
     <use xlink:href="#DejaVuSans-72" transform="translate(46.333984 0)"/>
     <use xlink:href="#DejaVuSans-75" transform="translate(87.447266 0)"/>
     <use xlink:href="#DejaVuSans-73" transform="translate(150.826172 0)"/>
     <use xlink:href="#DejaVuSans-74" transform="translate(202.925781 0)"/>
     <use xlink:href="#DejaVuSans-45" transform="translate(242.134766 0)"/>
     <use xlink:href="#DejaVuSans-76" transform="translate(305.318359 0)"/>
     <use xlink:href="#DejaVuSans-69" transform="translate(364.498047 0)"/>
     <use xlink:href="#DejaVuSans-64" transform="translate(392.28125 0)"/>
     <use xlink:href="#DejaVuSans-65" transform="translate(455.757812 0)"/>
     <use xlink:href="#DejaVuSans-6e" transform="translate(517.28125 0)"/>
     <use xlink:href="#DejaVuSans-63" transform="translate(580.660156 0)"/>
     <use xlink:href="#DejaVuSans-65" transform="translate(635.640625 0)"/>
    </g>
    <!-- mechanism -->
    <g transform="translate(232.209937 117.994406) scale(0.1 -0.1)">
     <use xlink:href="#DejaVuSans-6d"/>
     <use xlink:href="#DejaVuSans-65" transform="translate(97.412109 0)"/>
     <use xlink:href="#DejaVuSans-63" transform="translate(158.935547 0)"/>
     <use xlink:href="#DejaVuSans-68" transform="translate(213.916016 0)"/>
     <use xlink:href="#DejaVuSans-61" transform="translate(277.294922 0)"/>
     <use xlink:href="#DejaVuSans-6e" transform="translate(338.574219 0)"/>
     <use xlink:href="#DejaVuSans-69" transform="translate(401.953125 0)"/>
     <use xlink:href="#DejaVuSans-73" transform="translate(429.736328 0)"/>
     <use xlink:href="#DejaVuSans-6d" transform="translate(481.835938 0)"/>
    </g>
   </g>
   <g id="text_4">
    <g id="patch_5">
     <path d="M 338.539906 123.574094 
L 394.727406 123.574094 
Q 398.227406 123.574094 398.227406 120.074094 
L 398.227406 99.198156 
Q 398.227406 95.698156 394.727406 95.698156 
L 338.539906 95.698156 
Q 335.039906 95.698156 335.039906 99.198156 
L 335.039906 120.074094 
Q 335.039906 123.574094 338.539906 123.574094 
L 338.539906 123.574094 
z
" style="fill: none; stroke: #000000; stroke-linejoin: miter"/>
    </g>
    <!-- Verification -->
    <g transform="translate(338.539906 106.796594) scale(0.1 -0.1)">
     <defs>
      <path id="DejaVuSans-56" d="M 1831 0 
L 50 4666 
L 709 4666 
L 2188 738 
L 3669 4666 
L 4325 4666 
L 2547 0 
L 1831 0 
z
" transform="scale(0.015625)"/>
      <path id="DejaVuSans-66" d="M 2375 4863 
L 2375 4384 
L 1825 4384 
Q 1516 4384 1395 4259 
Q 1275 4134 1275 3809 
L 1275 3500 
L 2222 3500 
L 2222 3053 
L 1275 3053 
L 1275 0 
L 697 0 
L 697 3053 
L 147 3053 
L 147 3500 
L 697 3500 
L 697 3744 
Q 697 4328 969 4595 
Q 1241 4863 1831 4863 
L 2375 4863 
z
" transform="scale(0.015625)"/>
     </defs>
     <use xlink:href="#DejaVuSans-56"/>
     <use xlink:href="#DejaVuSans-65" transform="translate(60.658203 0)"/>
     <use xlink:href="#DejaVuSans-72" transform="translate(122.181641 0)"/>
     <use xlink:href="#DejaVuSans-69" transform="translate(163.294922 0)"/>
     <use xlink:href="#DejaVuSans-66" transform="translate(191.078125 0)"/>
     <use xlink:href="#DejaVuSans-69" transform="translate(226.283203 0)"/>
     <use xlink:href="#DejaVuSans-63" transform="translate(254.066406 0)"/>
     <use xlink:href="#DejaVuSans-61" transform="translate(309.046875 0)"/>
     <use xlink:href="#DejaVuSans-74" transform="translate(370.326172 0)"/>
     <use xlink:href="#DejaVuSans-69" transform="translate(409.535156 0)"/>
     <use xlink:href="#DejaVuSans-6f" transform="translate(437.318359 0)"/>
     <use xlink:href="#DejaVuSans-6e" transform="translate(498.5 0)"/>
    </g>
    <!-- test -->
    <g transform="translate(357.032094 117.994406) scale(0.1 -0.1)">
     <use xlink:href="#DejaVuSans-74"/>
     <use xlink:href="#DejaVuSans-65" transform="translate(39.208984 0)"/>
     <use xlink:href="#DejaVuSans-73" transform="translate(100.732422 0)"/>
     <use xlink:href="#DejaVuSans-74" transform="translate(152.832031 0)"/>
    </g>
   </g>
   <g id="text_5">
    <g id="patch_6">
     <path d="M 451.797094 123.574094 
L 482.350219 123.574094 
Q 485.850219 123.574094 485.850219 120.074094 
L 485.850219 99.198156 
Q 485.850219 95.698156 482.350219 95.698156 
L 451.797094 95.698156 
Q 448.297094 95.698156 448.297094 99.198156 
L 448.297094 120.074094 
Q 448.297094 123.574094 451.797094 123.574094 
L 451.797094 123.574094 
z
" style="fill: none; stroke: #000000; stroke-linejoin: miter"/>
    </g>
    <!-- LJI 2.0 -->
    <g transform="translate(451.797094 106.796594) scale(0.1 -0.1)">
     <defs>
      <path id="DejaVuSans-4a" d="M 628 4666 
L 1259 4666 
L 1259 325 
Q 1259 -519 939 -900 
Q 619 -1281 -91 -1281 
L -331 -1281 
L -331 -750 
L -134 -750 
Q 284 -750 456 -515 
Q 628 -281 628 325 
L 628 4666 
z
" transform="scale(0.015625)"/>
      <path id="DejaVuSans-49" d="M 628 4666 
L 1259 4666 
L 1259 0 
L 628 0 
L 628 4666 
z
" transform="scale(0.015625)"/>
      <path id="DejaVuSans-32" d="M 1228 531 
L 3431 531 
L 3431 0 
L 469 0 
L 469 531 
Q 828 903 1448 1529 
Q 2069 2156 2228 2338 
Q 2531 2678 2651 2914 
Q 2772 3150 2772 3378 
Q 2772 3750 2511 3984 
Q 2250 4219 1831 4219 
Q 1534 4219 1204 4116 
Q 875 4013 500 3803 
L 500 4441 
Q 881 4594 1212 4672 
Q 1544 4750 1819 4750 
Q 2544 4750 2975 4387 
Q 3406 4025 3406 3419 
Q 3406 3131 3298 2873 
Q 3191 2616 2906 2266 
Q 2828 2175 2409 1742 
Q 1991 1309 1228 531 
z
" transform="scale(0.015625)"/>
      <path id="DejaVuSans-2e" d="M 684 794 
L 1344 794 
L 1344 0 
L 684 0 
L 684 794 
z
" transform="scale(0.015625)"/>
      <path id="DejaVuSans-30" d="M 2034 4250 
Q 1547 4250 1301 3770 
Q 1056 3291 1056 2328 
Q 1056 1369 1301 889 
Q 1547 409 2034 409 
Q 2525 409 2770 889 
Q 3016 1369 3016 2328 
Q 3016 3291 2770 3770 
Q 2525 4250 2034 4250 
z
M 2034 4750 
Q 2819 4750 3233 4129 
Q 3647 3509 3647 2328 
Q 3647 1150 3233 529 
Q 2819 -91 2034 -91 
Q 1250 -91 836 529 
Q 422 1150 422 2328 
Q 422 3509 836 4129 
Q 1250 4750 2034 4750 
z
" transform="scale(0.015625)"/>
     </defs>
     <use xlink:href="#DejaVuSans-4c"/>
     <use xlink:href="#DejaVuSans-4a" transform="translate(55.712891 0)"/>
     <use xlink:href="#DejaVuSans-49" transform="translate(85.205078 0)"/>
     <use xlink:href="#DejaVuSans-20" transform="translate(114.697266 0)"/>
     <use xlink:href="#DejaVuSans-32" transform="translate(146.484375 0)"/>
     <use xlink:href="#DejaVuSans-2e" transform="translate(210.107422 0)"/>
     <use xlink:href="#DejaVuSans-30" transform="translate(241.894531 0)"/>
    </g>
    <!-- gate -->
    <g transform="translate(455.798656 117.994406) scale(0.1 -0.1)">
     <use xlink:href="#DejaVuSans-67"/>
     <use xlink:href="#DejaVuSans-61" transform="translate(63.476562 0)"/>
     <use xlink:href="#DejaVuSans-74" transform="translate(124.755859 0)"/>
     <use xlink:href="#DejaVuSans-65" transform="translate(163.964844 0)"/>
    </g>
   </g>
   <g id="patch_7">
    <path d="M 89.909931 109.636125 
Q 102.976162 109.636125 114.924359 109.636125 
" style="fill: none; stroke: #000000; stroke-linecap: round"/>
    <path d="M 110.924359 107.636125 
L 114.924359 109.636125 
L 110.924359 111.636125 
" style="fill: none; stroke: #000000; stroke-linecap: round"/>
   </g>
   <g id="patch_8">
    <path d="M 195.371931 109.636125 
Q 208.438162 109.636125 220.386359 109.636125 
" style="fill: none; stroke: #000000; stroke-linecap: round"/>
    <path d="M 216.386359 107.636125 
L 220.386359 109.636125 
L 216.386359 111.636125 
" style="fill: none; stroke: #000000; stroke-linecap: round"/>
   </g>
   <g id="patch_9">
    <path d="M 300.833931 109.636125 
Q 313.900162 109.636125 325.848359 109.636125 
" style="fill: none; stroke: #000000; stroke-linecap: round"/>
    <path d="M 321.848359 107.636125 
L 325.848359 109.636125 
L 321.848359 111.636125 
" style="fill: none; stroke: #000000; stroke-linecap: round"/>
   </g>
   <g id="patch_10">
    <path d="M 406.300222 109.636125 
Q 416.854447 109.636125 426.290637 109.636125 
" style="fill: none; stroke: #000000; stroke-linecap: round"/>
    <path d="M 422.290637 107.636125 
L 426.290637 109.636125 
L 422.290637 111.636125 
" style="fill: none; stroke: #000000; stroke-linecap: round"/>
   </g>
   <g id="text_6">
    <!-- Interpretive traceability only; no legal-compliance conclusion -->
    <g transform="translate(108.099 187.252125) scale(0.1 -0.1)">
     <defs>
      <path id="DejaVuSans-70" d="M 1159 525 
L 1159 -1331 
L 581 -1331 
L 581 3500 
L 1159 3500 
L 1159 2969 
Q 1341 3281 1617 3432 
Q 1894 3584 2278 3584 
Q 2916 3584 3314 3078 
Q 3713 2572 3713 1747 
Q 3713 922 3314 415 
Q 2916 -91 2278 -91 
Q 1894 -91 1617 61 
Q 1341 213 1159 525 
z
M 3116 1747 
Q 3116 2381 2855 2742 
Q 2594 3103 2138 3103 
Q 1681 3103 1420 2742 
Q 1159 2381 1159 1747 
Q 1159 1113 1420 752 
Q 1681 391 2138 391 
Q 2594 391 2855 752 
Q 3116 1113 3116 1747 
z
" transform="scale(0.015625)"/>
      <path id="DejaVuSans-79" d="M 2059 -325 
Q 1816 -950 1584 -1140 
Q 1353 -1331 966 -1331 
L 506 -1331 
L 506 -850 
L 844 -850 
Q 1081 -850 1212 -737 
Q 1344 -625 1503 -206 
L 1606 56 
L 191 3500 
L 800 3500 
L 1894 763 
L 2988 3500 
L 3597 3500 
L 2059 -325 
z
" transform="scale(0.015625)"/>
      <path id="DejaVuSans-3b" d="M 750 3309 
L 1409 3309 
L 1409 2516 
L 750 2516 
L 750 3309 
z
M 750 794 
L 1409 794 
L 1409 256 
L 897 -744 
L 494 -744 
L 750 256 
L 750 794 
z
" transform="scale(0.015625)"/>
      <path id="DejaVuSans-2d" d="M 313 2009 
L 1997 2009 
L 1997 1497 
L 313 1497 
L 313 2009 
z
" transform="scale(0.015625)"/>
     </defs>
     <use xlink:href="#DejaVuSans-49"/>
     <use xlink:href="#DejaVuSans-6e" transform="translate(29.492188 0)"/>
     <use xlink:href="#DejaVuSans-74" transform="translate(92.871094 0)"/>
     <use xlink:href="#DejaVuSans-65" transform="translate(132.080078 0)"/>
     <use xlink:href="#DejaVuSans-72" transform="translate(193.603516 0)"/>
     <use xlink:href="#DejaVuSans-70" transform="translate(234.716797 0)"/>
     <use xlink:href="#DejaVuSans-72" transform="translate(298.193359 0)"/>
     <use xlink:href="#DejaVuSans-65" transform="translate(337.056641 0)"/>
     <use xlink:href="#DejaVuSans-74" transform="translate(398.580078 0)"/>
     <use xlink:href="#DejaVuSans-69" transform="translate(437.789062 0)"/>
     <use xlink:href="#DejaVuSans-76" transform="translate(465.572266 0)"/>
     <use xlink:href="#DejaVuSans-65" transform="translate(524.751953 0)"/>
     <use xlink:href="#DejaVuSans-20" transform="translate(586.275391 0)"/>
     <use xlink:href="#DejaVuSans-74" transform="translate(618.0625 0)"/>
     <use xlink:href="#DejaVuSans-72" transform="translate(657.271484 0)"/>
     <use xlink:href="#DejaVuSans-61" transform="translate(698.384766 0)"/>
     <use xlink:href="#DejaVuSans-63" transform="translate(759.664062 0)"/>
     <use xlink:href="#DejaVuSans-65" transform="translate(814.644531 0)"/>
     <use xlink:href="#DejaVuSans-61" transform="translate(876.167969 0)"/>
     <use xlink:href="#DejaVuSans-62" transform="translate(937.447266 0)"/>
     <use xlink:href="#DejaVuSans-69" transform="translate(1000.923828 0)"/>
     <use xlink:href="#DejaVuSans-6c" transform="translate(1028.707031 0)"/>
     <use xlink:href="#DejaVuSans-69" transform="translate(1056.490234 0)"/>
     <use xlink:href="#DejaVuSans-74" transform="translate(1084.273438 0)"/>
     <use xlink:href="#DejaVuSans-79" transform="translate(1123.482422 0)"/>
     <use xlink:href="#DejaVuSans-20" transform="translate(1182.662109 0)"/>
     <use xlink:href="#DejaVuSans-6f" transform="translate(1214.449219 0)"/>
     <use xlink:href="#DejaVuSans-6e" transform="translate(1275.630859 0)"/>
     <use xlink:href="#DejaVuSans-6c" transform="translate(1339.009766 0)"/>
     <use xlink:href="#DejaVuSans-79" transform="translate(1366.792969 0)"/>
     <use xlink:href="#DejaVuSans-3b" transform="translate(1425.972656 0)"/>
     <use xlink:href="#DejaVuSans-20" transform="translate(1459.664062 0)"/>
     <use xlink:href="#DejaVuSans-6e" transform="translate(1491.451172 0)"/>
     <use xlink:href="#DejaVuSans-6f" transform="translate(1554.830078 0)"/>
     <use xlink:href="#DejaVuSans-20" transform="translate(1616.011719 0)"/>
     <use xlink:href="#DejaVuSans-6c" transform="translate(1647.798828 0)"/>
     <use xlink:href="#DejaVuSans-65" transform="translate(1675.582031 0)"/>
     <use xlink:href="#DejaVuSans-67" transform="translate(1737.105469 0)"/>
     <use xlink:href="#DejaVuSans-61" transform="translate(1800.582031 0)"/>
     <use xlink:href="#DejaVuSans-6c" transform="translate(1861.861328 0)"/>
     <use xlink:href="#DejaVuSans-2d" transform="translate(1889.644531 0)"/>
     <use xlink:href="#DejaVuSans-63" transform="translate(1925.728516 0)"/>
     <use xlink:href="#DejaVuSans-6f" transform="translate(1980.708984 0)"/>
     <use xlink:href="#DejaVuSans-6d" transform="translate(2041.890625 0)"/>
     <use xlink:href="#DejaVuSans-70" transform="translate(2139.302734 0)"/>
     <use xlink:href="#DejaVuSans-6c" transform="translate(2202.779297 0)"/>
     <use xlink:href="#DejaVuSans-69" transform="translate(2230.5625 0)"/>
     <use xlink:href="#DejaVuSans-61" transform="translate(2258.345703 0)"/>
     <use xlink:href="#DejaVuSans-6e" transform="translate(2319.625 0)"/>
     <use xlink:href="#DejaVuSans-63" transform="translate(2383.003906 0)"/>
     <use xlink:href="#DejaVuSans-65" transform="translate(2437.984375 0)"/>
     <use xlink:href="#DejaVuSans-20" transform="translate(2499.507812 0)"/>
     <use xlink:href="#DejaVuSans-63" transform="translate(2531.294922 0)"/>
     <use xlink:href="#DejaVuSans-6f" transform="translate(2586.275391 0)"/>
     <use xlink:href="#DejaVuSans-6e" transform="translate(2647.457031 0)"/>
     <use xlink:href="#DejaVuSans-63" transform="translate(2710.835938 0)"/>
     <use xlink:href="#DejaVuSans-6c" transform="translate(2765.816406 0)"/>
     <use xlink:href="#DejaVuSans-75" transform="translate(2793.599609 0)"/>
     <use xlink:href="#DejaVuSans-73" transform="translate(2856.978516 0)"/>
     <use xlink:href="#DejaVuSans-69" transform="translate(2909.078125 0)"/>
     <use xlink:href="#DejaVuSans-6f" transform="translate(2936.861328 0)"/>
     <use xlink:href="#DejaVuSans-6e" transform="translate(2998.042969 0)"/>
    </g>
   </g>
   <g id="text_7">
    <!-- Legal traceability and proportionality gate -->
    <g transform="translate(134.600719 16.318125) scale(0.12 -0.12)">
     <use xlink:href="#DejaVuSans-4c"/>
     <use xlink:href="#DejaVuSans-65" transform="translate(53.962891 0)"/>
     <use xlink:href="#DejaVuSans-67" transform="translate(115.486328 0)"/>
     <use xlink:href="#DejaVuSans-61" transform="translate(178.962891 0)"/>
     <use xlink:href="#DejaVuSans-6c" transform="translate(240.242188 0)"/>
     <use xlink:href="#DejaVuSans-20" transform="translate(268.025391 0)"/>
     <use xlink:href="#DejaVuSans-74" transform="translate(299.8125 0)"/>
     <use xlink:href="#DejaVuSans-72" transform="translate(339.021484 0)"/>
     <use xlink:href="#DejaVuSans-61" transform="translate(380.134766 0)"/>
     <use xlink:href="#DejaVuSans-63" transform="translate(441.414062 0)"/>
     <use xlink:href="#DejaVuSans-65" transform="translate(496.394531 0)"/>
     <use xlink:href="#DejaVuSans-61" transform="translate(557.917969 0)"/>
     <use xlink:href="#DejaVuSans-62" transform="translate(619.197266 0)"/>
     <use xlink:href="#DejaVuSans-69" transform="translate(682.673828 0)"/>
     <use xlink:href="#DejaVuSans-6c" transform="translate(710.457031 0)"/>
     <use xlink:href="#DejaVuSans-69" transform="translate(738.240234 0)"/>
     <use xlink:href="#DejaVuSans-74" transform="translate(766.023438 0)"/>
     <use xlink:href="#DejaVuSans-79" transform="translate(805.232422 0)"/>
     <use xlink:href="#DejaVuSans-20" transform="translate(864.412109 0)"/>
     <use xlink:href="#DejaVuSans-61" transform="translate(896.199219 0)"/>
     <use xlink:href="#DejaVuSans-6e" transform="translate(957.478516 0)"/>
     <use xlink:href="#DejaVuSans-64" transform="translate(1020.857422 0)"/>
     <use xlink:href="#DejaVuSans-20" transform="translate(1084.333984 0)"/>
     <use xlink:href="#DejaVuSans-70" transform="translate(1116.121094 0)"/>
     <use xlink:href="#DejaVuSans-72" transform="translate(1179.597656 0)"/>
     <use xlink:href="#DejaVuSans-6f" transform="translate(1218.460938 0)"/>
     <use xlink:href="#DejaVuSans-70" transform="translate(1279.642578 0)"/>
     <use xlink:href="#DejaVuSans-6f" transform="translate(1343.119141 0)"/>
     <use xlink:href="#DejaVuSans-72" transform="translate(1404.300781 0)"/>
     <use xlink:href="#DejaVuSans-74" transform="translate(1445.414062 0)"/>
     <use xlink:href="#DejaVuSans-69" transform="translate(1484.623047 0)"/>
     <use xlink:href="#DejaVuSans-6f" transform="translate(1512.40625 0)"/>
     <use xlink:href="#DejaVuSans-6e" transform="translate(1573.587891 0)"/>
     <use xlink:href="#DejaVuSans-61" transform="translate(1636.966797 0)"/>
     <use xlink:href="#DejaVuSans-6c" transform="translate(1698.246094 0)"/>
     <use xlink:href="#DejaVuSans-69" transform="translate(1726.029297 0)"/>
     <use xlink:href="#DejaVuSans-74" transform="translate(1753.8125 0)"/>
     <use xlink:href="#DejaVuSans-79" transform="translate(1793.021484 0)"/>
     <use xlink:href="#DejaVuSans-20" transform="translate(1852.201172 0)"/>
     <use xlink:href="#DejaVuSans-67" transform="translate(1883.988281 0)"/>
     <use xlink:href="#DejaVuSans-61" transform="translate(1947.464844 0)"/>
     <use xlink:href="#DejaVuSans-74" transform="translate(2008.744141 0)"/>
     <use xlink:href="#DejaVuSans-65" transform="translate(2047.953125 0)"/>
    </g>
   </g>
  </g>
 </g>
</svg>
