<?xml version="1.0" encoding="utf-8" standalone="no"?>
<!DOCTYPE svg PUBLIC "-//W3C//DTD SVG 1.1//EN"
  "http://www.w3.org/Graphics/SVG/1.1/DTD/svg11.dtd">
<svg xmlns:xlink="http://www.w3.org/1999/xlink" width="705.914219pt" height="463.866219pt" viewBox="0 0 705.914219 463.866219" xmlns="http://www.w3.org/2000/svg" version="1.1">
 <metadata>
  <rdf:RDF xmlns:dc="http://purl.org/dc/elements/1.1/" xmlns:cc="http://creativecommons.org/ns#" xmlns:rdf="http://www.w3.org/1999/02/22-rdf-syntax-ns#">
   <cc:Work>
    <dc:type rdf:resource="http://purl.org/dc/dcmitype/StillImage"/>
    <dc:date>2026-07-06T11:03:55.420277</dc:date>
    <dc:format>image/svg+xml</dc:format>
    <dc:creator>
     <cc:Agent>
      <dc:title>Matplotlib v3.10.8, https://matplotlib.org/</dc:title>
     </cc:Agent>
    </dc:creator>
   </cc:Work>
  </rdf:RDF>
 </metadata>
 <defs>
  <style type="text/css">*{stroke-linejoin: round; stroke-linecap: butt}</style>
 </defs>
 <g id="figure_1">
  <g id="patch_1">
   <path d="M 0 463.866219 
L 705.914219 463.866219 
L 705.914219 0 
L 0 0 
z
" style="fill: #ffffff"/>
  </g>
  <g id="axes_1">
   <g id="patch_2">
    <path d="M 28.394219 437.472 
L 698.714219 437.472 
L 698.714219 7.2 
L 28.394219 7.2 
z
" style="fill: #ffffff"/>
   </g>
   <g id="line2d_1">
    <path d="M 85.850219 363.711086 
L 628.490219 64.5696 
" clip-path="url(#p021db13477)" style="fill: none; stroke-dasharray: 4.07,1.76; stroke-dashoffset: 0; stroke: #b0bec5; stroke-width: 1.1"/>
   </g>
   <g id="matplotlib.axis_1">
    <g id="text_1">
     <!-- Governance and dispute intensity -->
     <g transform="translate(283.219102 454.690516) scale(0.095 -0.095)">
      <defs>
       <path id="DejaVuSans-47" d="M 3809 666 
L 3809 1919 
L 2778 1919 
L 2778 2438 
L 4434 2438 
L 4434 434 
Q 4069 175 3628 42 
Q 3188 -91 2688 -91 
Q 1594 -91 976 548 
Q 359 1188 359 2328 
Q 359 3472 976 4111 
Q 1594 4750 2688 4750 
Q 3144 4750 3555 4637 
Q 3966 4525 4313 4306 
L 4313 3634 
Q 3963 3931 3569 4081 
Q 3175 4231 2741 4231 
Q 1884 4231 1454 3753 
Q 1025 3275 1025 2328 
Q 1025 1384 1454 906 
Q 1884 428 2741 428 
Q 3075 428 3337 486 
Q 3600 544 3809 666 
z
" transform="scale(0.015625)"/>
       <path id="DejaVuSans-6f" d="M 1959 3097 
Q 1497 3097 1228 2736 
Q 959 2375 959 1747 
Q 959 1119 1226 758 
Q 1494 397 1959 397 
Q 2419 397 2687 759 
Q 2956 1122 2956 1747 
Q 2956 2369 2687 2733 
Q 2419 3097 1959 3097 
z
M 1959 3584 
Q 2709 3584 3137 3096 
Q 3566 2609 3566 1747 
Q 3566 888 3137 398 
Q 2709 -91 1959 -91 
Q 1206 -91 779 398 
Q 353 888 353 1747 
Q 353 2609 779 3096 
Q 1206 3584 1959 3584 
z
" transform="scale(0.015625)"/>
       <path id="DejaVuSans-76" d="M 191 3500 
L 800 3500 
L 1894 563 
L 2988 3500 
L 3597 3500 
L 2284 0 
L 1503 0 
L 191 3500 
z
" transform="scale(0.015625)"/>
       <path id="DejaVuSans-65" d="M 3597 1894 
L 3597 1613 
L 953 1613 
Q 991 1019 1311 708 
Q 1631 397 2203 397 
Q 2534 397 2845 478 
Q 3156 559 3463 722 
L 3463 178 
Q 3153 47 2828 -22 
Q 2503 -91 2169 -91 
Q 1331 -91 842 396 
Q 353 884 353 1716 
Q 353 2575 817 3079 
Q 1281 3584 2069 3584 
Q 2775 3584 3186 3129 
Q 3597 2675 3597 1894 
z
M 3022 2063 
Q 3016 2534 2758 2815 
Q 2500 3097 2075 3097 
Q 1594 3097 1305 2825 
Q 1016 2553 972 2059 
L 3022 2063 
z
" transform="scale(0.015625)"/>
       <path id="DejaVuSans-72" d="M 2631 2963 
Q 2534 3019 2420 3045 
Q 2306 3072 2169 3072 
Q 1681 3072 1420 2755 
Q 1159 2438 1159 1844 
L 1159 0 
L 581 0 
L 581 3500 
L 1159 3500 
L 1159 2956 
Q 1341 3275 1631 3429 
Q 1922 3584 2338 3584 
Q 2397 3584 2469 3576 
Q 2541 3569 2628 3553 
L 2631 2963 
z
" transform="scale(0.015625)"/>
       <path id="DejaVuSans-6e" d="M 3513 2113 
L 3513 0 
L 2938 0 
L 2938 2094 
Q 2938 2591 2744 2837 
Q 2550 3084 2163 3084 
Q 1697 3084 1428 2787 
Q 1159 2491 1159 1978 
L 1159 0 
L 581 0 
L 581 3500 
L 1159 3500 
L 1159 2956 
Q 1366 3272 1645 3428 
Q 1925 3584 2291 3584 
Q 2894 3584 3203 3211 
Q 3513 2838 3513 2113 
z
" transform="scale(0.015625)"/>
       <path id="DejaVuSans-61" d="M 2194 1759 
Q 1497 1759 1228 1600 
Q 959 1441 959 1056 
Q 959 750 1161 570 
Q 1363 391 1709 391 
Q 2188 391 2477 730 
Q 2766 1069 2766 1631 
L 2766 1759 
L 2194 1759 
z
M 3341 1997 
L 3341 0 
L 2766 0 
L 2766 531 
Q 2569 213 2275 61 
Q 1981 -91 1556 -91 
Q 1019 -91 701 211 
Q 384 513 384 1019 
Q 384 1609 779 1909 
Q 1175 2209 1959 2209 
L 2766 2209 
L 2766 2266 
Q 2766 2663 2505 2880 
Q 2244 3097 1772 3097 
Q 1472 3097 1187 3025 
Q 903 2953 641 2809 
L 641 3341 
Q 956 3463 1253 3523 
Q 1550 3584 1831 3584 
Q 2591 3584 2966 3190 
Q 3341 2797 3341 1997 
z
" transform="scale(0.015625)"/>
       <path id="DejaVuSans-63" d="M 3122 3366 
L 3122 2828 
Q 2878 2963 2633 3030 
Q 2388 3097 2138 3097 
Q 1578 3097 1268 2742 
Q 959 2388 959 1747 
Q 959 1106 1268 751 
Q 1578 397 2138 397 
Q 2388 397 2633 464 
Q 2878 531 3122 666 
L 3122 134 
Q 2881 22 2623 -34 
Q 2366 -91 2075 -91 
Q 1284 -91 818 406 
Q 353 903 353 1747 
Q 353 2603 823 3093 
Q 1294 3584 2113 3584 
Q 2378 3584 2631 3529 
Q 2884 3475 3122 3366 
z
" transform="scale(0.015625)"/>
       <path id="DejaVuSans-20" transform="scale(0.015625)"/>
       <path id="DejaVuSans-64" d="M 2906 2969 
L 2906 4863 
L 3481 4863 
L 3481 0 
L 2906 0 
L 2906 525 
Q 2725 213 2448 61 
Q 2172 -91 1784 -91 
Q 1150 -91 751 415 
Q 353 922 353 1747 
Q 353 2572 751 3078 
Q 1150 3584 1784 3584 
Q 2172 3584 2448 3432 
Q 2725 3281 2906 2969 
z
M 947 1747 
Q 947 1113 1208 752 
Q 1469 391 1925 391 
Q 2381 391 2643 752 
Q 2906 1113 2906 1747 
Q 2906 2381 2643 2742 
Q 2381 3103 1925 3103 
Q 1469 3103 1208 2742 
Q 947 2381 947 1747 
z
" transform="scale(0.015625)"/>
       <path id="DejaVuSans-69" d="M 603 3500 
L 1178 3500 
L 1178 0 
L 603 0 
L 603 3500 
z
M 603 4863 
L 1178 4863 
L 1178 4134 
L 603 4134 
L 603 4863 
z
" transform="scale(0.015625)"/>
       <path id="DejaVuSans-73" d="M 2834 3397 
L 2834 2853 
Q 2591 2978 2328 3040 
Q 2066 3103 1784 3103 
Q 1356 3103 1142 2972 
Q 928 2841 928 2578 
Q 928 2378 1081 2264 
Q 1234 2150 1697 2047 
L 1894 2003 
Q 2506 1872 2764 1633 
Q 3022 1394 3022 966 
Q 3022 478 2636 193 
Q 2250 -91 1575 -91 
Q 1294 -91 989 -36 
Q 684 19 347 128 
L 347 722 
Q 666 556 975 473 
Q 1284 391 1588 391 
Q 1994 391 2212 530 
Q 2431 669 2431 922 
Q 2431 1156 2273 1281 
Q 2116 1406 1581 1522 
L 1381 1569 
Q 847 1681 609 1914 
Q 372 2147 372 2553 
Q 372 3047 722 3315 
Q 1072 3584 1716 3584 
Q 2034 3584 2315 3537 
Q 2597 3491 2834 3397 
z
" transform="scale(0.015625)"/>
       <path id="DejaVuSans-70" d="M 1159 525 
L 1159 -1331 
L 581 -1331 
L 581 3500 
L 1159 3500 
L 1159 2969 
Q 1341 3281 1617 3432 
Q 1894 3584 2278 3584 
Q 2916 3584 3314 3078 
Q 3713 2572 3713 1747 
Q 3713 922 3314 415 
Q 2916 -91 2278 -91 
Q 1894 -91 1617 61 
Q 1341 213 1159 525 
z
M 3116 1747 
Q 3116 2381 2855 2742 
Q 2594 3103 2138 3103 
Q 1681 3103 1420 2742 
Q 1159 2381 1159 1747 
Q 1159 1113 1420 752 
Q 1681 391 2138 391 
Q 2594 391 2855 752 
Q 3116 1113 3116 1747 
z
" transform="scale(0.015625)"/>
       <path id="DejaVuSans-75" d="M 544 1381 
L 544 3500 
L 1119 3500 
L 1119 1403 
Q 1119 906 1312 657 
Q 1506 409 1894 409 
Q 2359 409 2629 706 
Q 2900 1003 2900 1516 
L 2900 3500 
L 3475 3500 
L 3475 0 
L 2900 0 
L 2900 538 
Q 2691 219 2414 64 
Q 2138 -91 1772 -91 
Q 1169 -91 856 284 
Q 544 659 544 1381 
z
M 1991 3584 
L 1991 3584 
z
" transform="scale(0.015625)"/>
       <path id="DejaVuSans-74" d="M 1172 4494 
L 1172 3500 
L 2356 3500 
L 2356 3053 
L 1172 3053 
L 1172 1153 
Q 1172 725 1289 603 
Q 1406 481 1766 481 
L 2356 481 
L 2356 0 
L 1766 0 
Q 1100 0 847 248 
Q 594 497 594 1153 
L 594 3053 
L 172 3053 
L 172 3500 
L 594 3500 
L 594 4494 
L 1172 4494 
z
" transform="scale(0.015625)"/>
       <path id="DejaVuSans-79" d="M 2059 -325 
Q 1816 -950 1584 -1140 
Q 1353 -1331 966 -1331 
L 506 -1331 
L 506 -850 
L 844 -850 
Q 1081 -850 1212 -737 
Q 1344 -625 1503 -206 
L 1606 56 
L 191 3500 
L 800 3500 
L 1894 763 
L 2988 3500 
L 3597 3500 
L 2059 -325 
z
" transform="scale(0.015625)"/>
      </defs>
      <use xlink:href="#DejaVuSans-47"/>
      <use xlink:href="#DejaVuSans-6f" transform="translate(77.490234 0)"/>
      <use xlink:href="#DejaVuSans-76" transform="translate(138.671875 0)"/>
      <use xlink:href="#DejaVuSans-65" transform="translate(197.851562 0)"/>
      <use xlink:href="#DejaVuSans-72" transform="translate(259.375 0)"/>
      <use xlink:href="#DejaVuSans-6e" transform="translate(298.738281 0)"/>
      <use xlink:href="#DejaVuSans-61" transform="translate(362.117188 0)"/>
      <use xlink:href="#DejaVuSans-6e" transform="translate(423.396484 0)"/>
      <use xlink:href="#DejaVuSans-63" transform="translate(486.775391 0)"/>
      <use xlink:href="#DejaVuSans-65" transform="translate(541.755859 0)"/>
      <use xlink:href="#DejaVuSans-20" transform="translate(603.279297 0)"/>
      <use xlink:href="#DejaVuSans-61" transform="translate(635.066406 0)"/>
      <use xlink:href="#DejaVuSans-6e" transform="translate(696.345703 0)"/>
      <use xlink:href="#DejaVuSans-64" transform="translate(759.724609 0)"/>
      <use xlink:href="#DejaVuSans-20" transform="translate(823.201172 0)"/>
      <use xlink:href="#DejaVuSans-64" transform="translate(854.988281 0)"/>
      <use xlink:href="#DejaVuSans-69" transform="translate(918.464844 0)"/>
      <use xlink:href="#DejaVuSans-73" transform="translate(946.248047 0)"/>
      <use xlink:href="#DejaVuSans-70" transform="translate(998.347656 0)"/>
      <use xlink:href="#DejaVuSans-75" transform="translate(1061.824219 0)"/>
      <use xlink:href="#DejaVuSans-74" transform="translate(1125.203125 0)"/>
      <use xlink:href="#DejaVuSans-65" transform="translate(1164.412109 0)"/>
      <use xlink:href="#DejaVuSans-20" transform="translate(1225.935547 0)"/>
      <use xlink:href="#DejaVuSans-69" transform="translate(1257.722656 0)"/>
      <use xlink:href="#DejaVuSans-6e" transform="translate(1285.505859 0)"/>
      <use xlink:href="#DejaVuSans-74" transform="translate(1348.884766 0)"/>
      <use xlink:href="#DejaVuSans-65" transform="translate(1388.09375 0)"/>
      <use xlink:href="#DejaVuSans-6e" transform="translate(1449.617188 0)"/>
      <use xlink:href="#DejaVuSans-73" transform="translate(1512.996094 0)"/>
      <use xlink:href="#DejaVuSans-69" transform="translate(1565.095703 0)"/>
      <use xlink:href="#DejaVuSans-74" transform="translate(1592.878906 0)"/>
      <use xlink:href="#DejaVuSans-79" transform="translate(1632.087891 0)"/>
     </g>
    </g>
   </g>
   <g id="matplotlib.axis_2">
    <g id="text_2">
     <!-- Verification burden and external scrutiny -->
     <g transform="translate(14.418516 319.44307) rotate(-90) scale(0.095 -0.095)">
      <defs>
       <path id="DejaVuSans-56" d="M 1831 0 
L 50 4666 
L 709 4666 
L 2188 738 
L 3669 4666 
L 4325 4666 
L 2547 0 
L 1831 0 
z
" transform="scale(0.015625)"/>
       <path id="DejaVuSans-66" d="M 2375 4863 
L 2375 4384 
L 1825 4384 
Q 1516 4384 1395 4259 
Q 1275 4134 1275 3809 
L 1275 3500 
L 2222 3500 
L 2222 3053 
L 1275 3053 
L 1275 0 
L 697 0 
L 697 3053 
L 147 3053 
L 147 3500 
L 697 3500 
L 697 3744 
Q 697 4328 969 4595 
Q 1241 4863 1831 4863 
L 2375 4863 
z
" transform="scale(0.015625)"/>
       <path id="DejaVuSans-62" d="M 3116 1747 
Q 3116 2381 2855 2742 
Q 2594 3103 2138 3103 
Q 1681 3103 1420 2742 
Q 1159 2381 1159 1747 
Q 1159 1113 1420 752 
Q 1681 391 2138 391 
Q 2594 391 2855 752 
Q 3116 1113 3116 1747 
z
M 1159 2969 
Q 1341 3281 1617 3432 
Q 1894 3584 2278 3584 
Q 2916 3584 3314 3078 
Q 3713 2572 3713 1747 
Q 3713 922 3314 415 
Q 2916 -91 2278 -91 
Q 1894 -91 1617 61 
Q 1341 213 1159 525 
L 1159 0 
L 581 0 
L 581 4863 
L 1159 4863 
L 1159 2969 
z
" transform="scale(0.015625)"/>
       <path id="DejaVuSans-78" d="M 3513 3500 
L 2247 1797 
L 3578 0 
L 2900 0 
L 1881 1375 
L 863 0 
L 184 0 
L 1544 1831 
L 300 3500 
L 978 3500 
L 1906 2253 
L 2834 3500 
L 3513 3500 
z
" transform="scale(0.015625)"/>
       <path id="DejaVuSans-6c" d="M 603 4863 
L 1178 4863 
L 1178 0 
L 603 0 
L 603 4863 
z
" transform="scale(0.015625)"/>
      </defs>
      <use xlink:href="#DejaVuSans-56"/>
      <use xlink:href="#DejaVuSans-65" transform="translate(60.658203 0)"/>
      <use xlink:href="#DejaVuSans-72" transform="translate(122.181641 0)"/>
      <use xlink:href="#DejaVuSans-69" transform="translate(163.294922 0)"/>
      <use xlink:href="#DejaVuSans-66" transform="translate(191.078125 0)"/>
      <use xlink:href="#DejaVuSans-69" transform="translate(226.283203 0)"/>
      <use xlink:href="#DejaVuSans-63" transform="translate(254.066406 0)"/>
      <use xlink:href="#DejaVuSans-61" transform="translate(309.046875 0)"/>
      <use xlink:href="#DejaVuSans-74" transform="translate(370.326172 0)"/>
      <use xlink:href="#DejaVuSans-69" transform="translate(409.535156 0)"/>
      <use xlink:href="#DejaVuSans-6f" transform="translate(437.318359 0)"/>
      <use xlink:href="#DejaVuSans-6e" transform="translate(498.5 0)"/>
      <use xlink:href="#DejaVuSans-20" transform="translate(561.878906 0)"/>
      <use xlink:href="#DejaVuSans-62" transform="translate(593.666016 0)"/>
      <use xlink:href="#DejaVuSans-75" transform="translate(657.142578 0)"/>
      <use xlink:href="#DejaVuSans-72" transform="translate(720.521484 0)"/>
      <use xlink:href="#DejaVuSans-64" transform="translate(759.884766 0)"/>
      <use xlink:href="#DejaVuSans-65" transform="translate(823.361328 0)"/>
      <use xlink:href="#DejaVuSans-6e" transform="translate(884.884766 0)"/>
      <use xlink:href="#DejaVuSans-20" transform="translate(948.263672 0)"/>
      <use xlink:href="#DejaVuSans-61" transform="translate(980.050781 0)"/>
      <use xlink:href="#DejaVuSans-6e" transform="translate(1041.330078 0)"/>
      <use xlink:href="#DejaVuSans-64" transform="translate(1104.708984 0)"/>
      <use xlink:href="#DejaVuSans-20" transform="translate(1168.185547 0)"/>
      <use xlink:href="#DejaVuSans-65" transform="translate(1199.972656 0)"/>
      <use xlink:href="#DejaVuSans-78" transform="translate(1259.746094 0)"/>
      <use xlink:href="#DejaVuSans-74" transform="translate(1318.925781 0)"/>
      <use xlink:href="#DejaVuSans-65" transform="translate(1358.134766 0)"/>
      <use xlink:href="#DejaVuSans-72" transform="translate(1419.658203 0)"/>
      <use xlink:href="#DejaVuSans-6e" transform="translate(1459.021484 0)"/>
      <use xlink:href="#DejaVuSans-61" transform="translate(1522.400391 0)"/>
      <use xlink:href="#DejaVuSans-6c" transform="translate(1583.679688 0)"/>
      <use xlink:href="#DejaVuSans-20" transform="translate(1611.462891 0)"/>
      <use xlink:href="#DejaVuSans-73" transform="translate(1643.25 0)"/>
      <use xlink:href="#DejaVuSans-63" transform="translate(1695.349609 0)"/>
      <use xlink:href="#DejaVuSans-72" transform="translate(1750.330078 0)"/>
      <use xlink:href="#DejaVuSans-75" transform="translate(1791.443359 0)"/>
      <use xlink:href="#DejaVuSans-74" transform="translate(1854.822266 0)"/>
      <use xlink:href="#DejaVuSans-69" transform="translate(1894.03125 0)"/>
      <use xlink:href="#DejaVuSans-6e" transform="translate(1921.814453 0)"/>
      <use xlink:href="#DejaVuSans-79" transform="translate(1985.193359 0)"/>
     </g>
    </g>
   </g>
   <g id="patch_3">
    <path d="M 64.706411 363.76026 
L 247.442027 363.76026 
Q 255.102827 363.76026 255.102827 358.842865 
L 255.102827 286.622735 
Q 255.102827 281.70534 247.442027 281.70534 
L 64.706411 281.70534 
Q 57.045611 281.70534 57.045611 286.622735 
L 57.045611 358.842865 
Q 57.045611 363.76026 64.706411 363.76026 
z
" clip-path="url(#p021db13477)" style="fill: #f7f7f7; stroke: #263238; stroke-width: 1.1; stroke-linejoin: miter"/>
   </g>
   <g id="patch_4">
    <path d="M 265.802411 257.216717 
L 454.922027 257.216717 
Q 462.582827 257.216717 462.582827 252.299323 
L 462.582827 180.079192 
Q 462.582827 175.161797 454.922027 175.161797 
L 265.802411 175.161797 
Q 258.141611 175.161797 258.141611 180.079192 
L 258.141611 252.299323 
Q 258.141611 257.216717 265.802411 257.216717 
z
" clip-path="url(#p021db13477)" style="fill: #eaf5ea; stroke: #263238; stroke-width: 1.4; stroke-linejoin: miter"/>
   </g>
   <g id="patch_5">
    <path d="M 460.514411 158.868831 
L 643.250027 158.868831 
Q 650.910827 158.868831 650.910827 153.951437 
L 650.910827 81.731306 
Q 650.910827 76.813912 643.250027 76.813912 
L 460.514411 76.813912 
Q 452.853611 76.813912 452.853611 81.731306 
L 452.853611 153.951437 
Q 452.853611 158.868831 460.514411 158.868831 
z
" clip-path="url(#p021db13477)" style="fill: #f7f7f7; stroke: #263238; stroke-width: 1.1; stroke-linejoin: miter"/>
   </g>
   <g id="patch_6">
    <path d="M 28.394219 437.472 
L 28.394219 7.2 
" style="fill: none; stroke: #000000; stroke-width: 1.1; stroke-linejoin: miter; stroke-linecap: square"/>
   </g>
   <g id="patch_7">
    <path d="M 28.394219 437.472 
L 698.714219 437.472 
" style="fill: none; stroke: #000000; stroke-width: 1.1; stroke-linejoin: miter; stroke-linecap: square"/>
   </g>
   <g id="patch_8">
    <path d="M 30.393383 437.472 
Q 357.170757 437.472 682.60649 437.472 
" style="fill: none; stroke: #263238; stroke-width: 1.2; stroke-linecap: round"/>
    <path d="M 678.80649 435.572 
L 682.60649 437.472 
L 678.80649 439.372 
z
" style="fill: #263238; stroke: #263238; stroke-width: 1.2; stroke-linecap: round"/>
   </g>
   <g id="patch_9">
    <path d="M 28.394219 435.472264 
Q 28.394219 226.435501 28.394219 18.740379 
" style="fill: none; stroke: #263238; stroke-width: 1.2; stroke-linecap: round"/>
    <path d="M 26.494219 22.540379 
L 28.394219 18.740379 
L 30.294219 22.540379 
z
" style="fill: #263238; stroke: #263238; stroke-width: 1.2; stroke-linecap: round"/>
   </g>
   <g id="text_3">
    <!-- Stronger evidence replication only when governance/dispute conditions justify it -->
    <g transform="translate(289.345891 62.781069) scale(0.086 -0.086)">
     <defs>
      <path id="DejaVuSans-53" d="M 3425 4513 
L 3425 3897 
Q 3066 4069 2747 4153 
Q 2428 4238 2131 4238 
Q 1616 4238 1336 4038 
Q 1056 3838 1056 3469 
Q 1056 3159 1242 3001 
Q 1428 2844 1947 2747 
L 2328 2669 
Q 3034 2534 3370 2195 
Q 3706 1856 3706 1288 
Q 3706 609 3251 259 
Q 2797 -91 1919 -91 
Q 1588 -91 1214 -16 
Q 841 59 441 206 
L 441 856 
Q 825 641 1194 531 
Q 1563 422 1919 422 
Q 2459 422 2753 634 
Q 3047 847 3047 1241 
Q 3047 1584 2836 1778 
Q 2625 1972 2144 2069 
L 1759 2144 
Q 1053 2284 737 2584 
Q 422 2884 422 3419 
Q 422 4038 858 4394 
Q 1294 4750 2059 4750 
Q 2388 4750 2728 4690 
Q 3069 4631 3425 4513 
z
" transform="scale(0.015625)"/>
      <path id="DejaVuSans-67" d="M 2906 1791 
Q 2906 2416 2648 2759 
Q 2391 3103 1925 3103 
Q 1463 3103 1205 2759 
Q 947 2416 947 1791 
Q 947 1169 1205 825 
Q 1463 481 1925 481 
Q 2391 481 2648 825 
Q 2906 1169 2906 1791 
z
M 3481 434 
Q 3481 -459 3084 -895 
Q 2688 -1331 1869 -1331 
Q 1566 -1331 1297 -1286 
Q 1028 -1241 775 -1147 
L 775 -588 
Q 1028 -725 1275 -790 
Q 1522 -856 1778 -856 
Q 2344 -856 2625 -561 
Q 2906 -266 2906 331 
L 2906 616 
Q 2728 306 2450 153 
Q 2172 0 1784 0 
Q 1141 0 747 490 
Q 353 981 353 1791 
Q 353 2603 747 3093 
Q 1141 3584 1784 3584 
Q 2172 3584 2450 3431 
Q 2728 3278 2906 2969 
L 2906 3500 
L 3481 3500 
L 3481 434 
z
" transform="scale(0.015625)"/>
      <path id="DejaVuSans-77" d="M 269 3500 
L 844 3500 
L 1563 769 
L 2278 3500 
L 2956 3500 
L 3675 769 
L 4391 3500 
L 4966 3500 
L 4050 0 
L 3372 0 
L 2619 2869 
L 1863 0 
L 1184 0 
L 269 3500 
z
" transform="scale(0.015625)"/>
      <path id="DejaVuSans-68" d="M 3513 2113 
L 3513 0 
L 2938 0 
L 2938 2094 
Q 2938 2591 2744 2837 
Q 2550 3084 2163 3084 
Q 1697 3084 1428 2787 
Q 1159 2491 1159 1978 
L 1159 0 
L 581 0 
L 581 4863 
L 1159 4863 
L 1159 2956 
Q 1366 3272 1645 3428 
Q 1925 3584 2291 3584 
Q 2894 3584 3203 3211 
Q 3513 2838 3513 2113 
z
" transform="scale(0.015625)"/>
      <path id="DejaVuSans-2f" d="M 1625 4666 
L 2156 4666 
L 531 -594 
L 0 -594 
L 1625 4666 
z
" transform="scale(0.015625)"/>
      <path id="DejaVuSans-6a" d="M 603 3500 
L 1178 3500 
L 1178 -63 
Q 1178 -731 923 -1031 
Q 669 -1331 103 -1331 
L -116 -1331 
L -116 -844 
L 38 -844 
Q 366 -844 484 -692 
Q 603 -541 603 -63 
L 603 3500 
z
M 603 4863 
L 1178 4863 
L 1178 4134 
L 603 4134 
L 603 4863 
z
" transform="scale(0.015625)"/>
     </defs>
     <use xlink:href="#DejaVuSans-53"/>
     <use xlink:href="#DejaVuSans-74" transform="translate(63.476562 0)"/>
     <use xlink:href="#DejaVuSans-72" transform="translate(102.685547 0)"/>
     <use xlink:href="#DejaVuSans-6f" transform="translate(141.548828 0)"/>
     <use xlink:href="#DejaVuSans-6e" transform="translate(202.730469 0)"/>
     <use xlink:href="#DejaVuSans-67" transform="translate(266.109375 0)"/>
     <use xlink:href="#DejaVuSans-65" transform="translate(329.585938 0)"/>
     <use xlink:href="#DejaVuSans-72" transform="translate(391.109375 0)"/>
     <use xlink:href="#DejaVuSans-20" transform="translate(432.222656 0)"/>
     <use xlink:href="#DejaVuSans-65" transform="translate(464.009766 0)"/>
     <use xlink:href="#DejaVuSans-76" transform="translate(525.533203 0)"/>
     <use xlink:href="#DejaVuSans-69" transform="translate(584.712891 0)"/>
     <use xlink:href="#DejaVuSans-64" transform="translate(612.496094 0)"/>
     <use xlink:href="#DejaVuSans-65" transform="translate(675.972656 0)"/>
     <use xlink:href="#DejaVuSans-6e" transform="translate(737.496094 0)"/>
     <use xlink:href="#DejaVuSans-63" transform="translate(800.875 0)"/>
     <use xlink:href="#DejaVuSans-65" transform="translate(855.855469 0)"/>
     <use xlink:href="#DejaVuSans-20" transform="translate(917.378906 0)"/>
     <use xlink:href="#DejaVuSans-72" transform="translate(949.166016 0)"/>
     <use xlink:href="#DejaVuSans-65" transform="translate(988.029297 0)"/>
     <use xlink:href="#DejaVuSans-70" transform="translate(1049.552734 0)"/>
     <use xlink:href="#DejaVuSans-6c" transform="translate(1113.029297 0)"/>
     <use xlink:href="#DejaVuSans-69" transform="translate(1140.8125 0)"/>
     <use xlink:href="#DejaVuSans-63" transform="translate(1168.595703 0)"/>
     <use xlink:href="#DejaVuSans-61" transform="translate(1223.576172 0)"/>
     <use xlink:href="#DejaVuSans-74" transform="translate(1284.855469 0)"/>
     <use xlink:href="#DejaVuSans-69" transform="translate(1324.064453 0)"/>
     <use xlink:href="#DejaVuSans-6f" transform="translate(1351.847656 0)"/>
     <use xlink:href="#DejaVuSans-6e" transform="translate(1413.029297 0)"/>
     <use xlink:href="#DejaVuSans-20" transform="translate(1476.408203 0)"/>
     <use xlink:href="#DejaVuSans-6f" transform="translate(1508.195312 0)"/>
     <use xlink:href="#DejaVuSans-6e" transform="translate(1569.376953 0)"/>
     <use xlink:href="#DejaVuSans-6c" transform="translate(1632.755859 0)"/>
     <use xlink:href="#DejaVuSans-79" transform="translate(1660.539062 0)"/>
     <use xlink:href="#DejaVuSans-20" transform="translate(1719.71875 0)"/>
     <use xlink:href="#DejaVuSans-77" transform="translate(1751.505859 0)"/>
     <use xlink:href="#DejaVuSans-68" transform="translate(1833.292969 0)"/>
     <use xlink:href="#DejaVuSans-65" transform="translate(1896.671875 0)"/>
     <use xlink:href="#DejaVuSans-6e" transform="translate(1958.195312 0)"/>
     <use xlink:href="#DejaVuSans-20" transform="translate(2021.574219 0)"/>
     <use xlink:href="#DejaVuSans-67" transform="translate(2053.361328 0)"/>
     <use xlink:href="#DejaVuSans-6f" transform="translate(2116.837891 0)"/>
     <use xlink:href="#DejaVuSans-76" transform="translate(2178.019531 0)"/>
     <use xlink:href="#DejaVuSans-65" transform="translate(2237.199219 0)"/>
     <use xlink:href="#DejaVuSans-72" transform="translate(2298.722656 0)"/>
     <use xlink:href="#DejaVuSans-6e" transform="translate(2338.085938 0)"/>
     <use xlink:href="#DejaVuSans-61" transform="translate(2401.464844 0)"/>
     <use xlink:href="#DejaVuSans-6e" transform="translate(2462.744141 0)"/>
     <use xlink:href="#DejaVuSans-63" transform="translate(2526.123047 0)"/>
     <use xlink:href="#DejaVuSans-65" transform="translate(2581.103516 0)"/>
     <use xlink:href="#DejaVuSans-2f" transform="translate(2642.626953 0)"/>
     <use xlink:href="#DejaVuSans-64" transform="translate(2676.318359 0)"/>
     <use xlink:href="#DejaVuSans-69" transform="translate(2739.794922 0)"/>
     <use xlink:href="#DejaVuSans-73" transform="translate(2767.578125 0)"/>
     <use xlink:href="#DejaVuSans-70" transform="translate(2819.677734 0)"/>
     <use xlink:href="#DejaVuSans-75" transform="translate(2883.154297 0)"/>
     <use xlink:href="#DejaVuSans-74" transform="translate(2946.533203 0)"/>
     <use xlink:href="#DejaVuSans-65" transform="translate(2985.742188 0)"/>
     <use xlink:href="#DejaVuSans-20" transform="translate(3047.265625 0)"/>
     <use xlink:href="#DejaVuSans-63" transform="translate(3079.052734 0)"/>
     <use xlink:href="#DejaVuSans-6f" transform="translate(3134.033203 0)"/>
     <use xlink:href="#DejaVuSans-6e" transform="translate(3195.214844 0)"/>
     <use xlink:href="#DejaVuSans-64" transform="translate(3258.59375 0)"/>
     <use xlink:href="#DejaVuSans-69" transform="translate(3322.070312 0)"/>
     <use xlink:href="#DejaVuSans-74" transform="translate(3349.853516 0)"/>
     <use xlink:href="#DejaVuSans-69" transform="translate(3389.0625 0)"/>
     <use xlink:href="#DejaVuSans-6f" transform="translate(3416.845703 0)"/>
     <use xlink:href="#DejaVuSans-6e" transform="translate(3478.027344 0)"/>
     <use xlink:href="#DejaVuSans-73" transform="translate(3541.40625 0)"/>
     <use xlink:href="#DejaVuSans-20" transform="translate(3593.505859 0)"/>
     <use xlink:href="#DejaVuSans-6a" transform="translate(3625.292969 0)"/>
     <use xlink:href="#DejaVuSans-75" transform="translate(3653.076172 0)"/>
     <use xlink:href="#DejaVuSans-73" transform="translate(3716.455078 0)"/>
     <use xlink:href="#DejaVuSans-74" transform="translate(3768.554688 0)"/>
     <use xlink:href="#DejaVuSans-69" transform="translate(3807.763672 0)"/>
     <use xlink:href="#DejaVuSans-66" transform="translate(3835.546875 0)"/>
     <use xlink:href="#DejaVuSans-79" transform="translate(3869.001953 0)"/>
     <use xlink:href="#DejaVuSans-20" transform="translate(3928.181641 0)"/>
     <use xlink:href="#DejaVuSans-69" transform="translate(3959.96875 0)"/>
     <use xlink:href="#DejaVuSans-74" transform="translate(3987.751953 0)"/>
    </g>
   </g>
   <g id="text_4">
    <!-- A1 central audit -->
    <g style="fill: #111111" transform="translate(122.874867 300.999282) scale(0.083 -0.083)">
     <defs>
      <path id="DejaVuSans-41" d="M 2188 4044 
L 1331 1722 
L 3047 1722 
L 2188 4044 
z
M 1831 4666 
L 2547 4666 
L 4325 0 
L 3669 0 
L 3244 1197 
L 1141 1197 
L 716 0 
L 50 0 
L 1831 4666 
z
" transform="scale(0.015625)"/>
      <path id="DejaVuSans-31" d="M 794 531 
L 1825 531 
L 1825 4091 
L 703 3866 
L 703 4441 
L 1819 4666 
L 2450 4666 
L 2450 531 
L 3481 531 
L 3481 0 
L 794 0 
L 794 531 
z
" transform="scale(0.015625)"/>
     </defs>
     <use xlink:href="#DejaVuSans-41"/>
     <use xlink:href="#DejaVuSans-31" transform="translate(68.408203 0)"/>
     <use xlink:href="#DejaVuSans-20" transform="translate(132.03125 0)"/>
     <use xlink:href="#DejaVuSans-63" transform="translate(163.818359 0)"/>
     <use xlink:href="#DejaVuSans-65" transform="translate(218.798828 0)"/>
     <use xlink:href="#DejaVuSans-6e" transform="translate(280.322266 0)"/>
     <use xlink:href="#DejaVuSans-74" transform="translate(343.701172 0)"/>
     <use xlink:href="#DejaVuSans-72" transform="translate(382.910156 0)"/>
     <use xlink:href="#DejaVuSans-61" transform="translate(424.023438 0)"/>
     <use xlink:href="#DejaVuSans-6c" transform="translate(485.302734 0)"/>
     <use xlink:href="#DejaVuSans-20" transform="translate(513.085938 0)"/>
     <use xlink:href="#DejaVuSans-61" transform="translate(544.873047 0)"/>
     <use xlink:href="#DejaVuSans-75" transform="translate(606.152344 0)"/>
     <use xlink:href="#DejaVuSans-64" transform="translate(669.53125 0)"/>
     <use xlink:href="#DejaVuSans-69" transform="translate(733.007812 0)"/>
     <use xlink:href="#DejaVuSans-74" transform="translate(760.791016 0)"/>
    </g>
    <!-- specified, not executed -->
    <g style="fill: #111111" transform="translate(107.646312 310.608802) scale(0.083 -0.083)">
     <defs>
      <path id="DejaVuSans-2c" d="M 750 794 
L 1409 794 
L 1409 256 
L 897 -744 
L 494 -744 
L 750 256 
L 750 794 
z
" transform="scale(0.015625)"/>
     </defs>
     <use xlink:href="#DejaVuSans-73"/>
     <use xlink:href="#DejaVuSans-70" transform="translate(52.099609 0)"/>
     <use xlink:href="#DejaVuSans-65" transform="translate(115.576172 0)"/>
     <use xlink:href="#DejaVuSans-63" transform="translate(177.099609 0)"/>
     <use xlink:href="#DejaVuSans-69" transform="translate(232.080078 0)"/>
     <use xlink:href="#DejaVuSans-66" transform="translate(259.863281 0)"/>
     <use xlink:href="#DejaVuSans-69" transform="translate(295.068359 0)"/>
     <use xlink:href="#DejaVuSans-65" transform="translate(322.851562 0)"/>
     <use xlink:href="#DejaVuSans-64" transform="translate(384.375 0)"/>
     <use xlink:href="#DejaVuSans-2c" transform="translate(447.851562 0)"/>
     <use xlink:href="#DejaVuSans-20" transform="translate(479.638672 0)"/>
     <use xlink:href="#DejaVuSans-6e" transform="translate(511.425781 0)"/>
     <use xlink:href="#DejaVuSans-6f" transform="translate(574.804688 0)"/>
     <use xlink:href="#DejaVuSans-74" transform="translate(635.986328 0)"/>
     <use xlink:href="#DejaVuSans-20" transform="translate(675.195312 0)"/>
     <use xlink:href="#DejaVuSans-65" transform="translate(706.982422 0)"/>
     <use xlink:href="#DejaVuSans-78" transform="translate(766.755859 0)"/>
     <use xlink:href="#DejaVuSans-65" transform="translate(822.810547 0)"/>
     <use xlink:href="#DejaVuSans-63" transform="translate(884.333984 0)"/>
     <use xlink:href="#DejaVuSans-75" transform="translate(939.314453 0)"/>
     <use xlink:href="#DejaVuSans-74" transform="translate(1002.693359 0)"/>
     <use xlink:href="#DejaVuSans-65" transform="translate(1041.902344 0)"/>
     <use xlink:href="#DejaVuSans-64" transform="translate(1103.425781 0)"/>
    </g>
    <!-- low external dispute; ordinary -->
    <g style="fill: #111111" transform="translate(93.865719 320.218321) scale(0.083 -0.083)">
     <defs>
      <path id="DejaVuSans-3b" d="M 750 3309 
L 1409 3309 
L 1409 2516 
L 750 2516 
L 750 3309 
z
M 750 794 
L 1409 794 
L 1409 256 
L 897 -744 
L 494 -744 
L 750 256 
L 750 794 
z
" transform="scale(0.015625)"/>
     </defs>
     <use xlink:href="#DejaVuSans-6c"/>
     <use xlink:href="#DejaVuSans-6f" transform="translate(27.783203 0)"/>
     <use xlink:href="#DejaVuSans-77" transform="translate(88.964844 0)"/>
     <use xlink:href="#DejaVuSans-20" transform="translate(170.751953 0)"/>
     <use xlink:href="#DejaVuSans-65" transform="translate(202.539062 0)"/>
     <use xlink:href="#DejaVuSans-78" transform="translate(262.3125 0)"/>
     <use xlink:href="#DejaVuSans-74" transform="translate(321.492188 0)"/>
     <use xlink:href="#DejaVuSans-65" transform="translate(360.701172 0)"/>
     <use xlink:href="#DejaVuSans-72" transform="translate(422.224609 0)"/>
     <use xlink:href="#DejaVuSans-6e" transform="translate(461.587891 0)"/>
     <use xlink:href="#DejaVuSans-61" transform="translate(524.966797 0)"/>
     <use xlink:href="#DejaVuSans-6c" transform="translate(586.246094 0)"/>
     <use xlink:href="#DejaVuSans-20" transform="translate(614.029297 0)"/>
     <use xlink:href="#DejaVuSans-64" transform="translate(645.816406 0)"/>
     <use xlink:href="#DejaVuSans-69" transform="translate(709.292969 0)"/>
     <use xlink:href="#DejaVuSans-73" transform="translate(737.076172 0)"/>
     <use xlink:href="#DejaVuSans-70" transform="translate(789.175781 0)"/>
     <use xlink:href="#DejaVuSans-75" transform="translate(852.652344 0)"/>
     <use xlink:href="#DejaVuSans-74" transform="translate(916.03125 0)"/>
     <use xlink:href="#DejaVuSans-65" transform="translate(955.240234 0)"/>
     <use xlink:href="#DejaVuSans-3b" transform="translate(1016.763672 0)"/>
     <use xlink:href="#DejaVuSans-20" transform="translate(1050.455078 0)"/>
     <use xlink:href="#DejaVuSans-6f" transform="translate(1082.242188 0)"/>
     <use xlink:href="#DejaVuSans-72" transform="translate(1143.423828 0)"/>
     <use xlink:href="#DejaVuSans-64" transform="translate(1182.787109 0)"/>
     <use xlink:href="#DejaVuSans-69" transform="translate(1246.263672 0)"/>
     <use xlink:href="#DejaVuSans-6e" transform="translate(1274.046875 0)"/>
     <use xlink:href="#DejaVuSans-61" transform="translate(1337.425781 0)"/>
     <use xlink:href="#DejaVuSans-72" transform="translate(1398.705078 0)"/>
     <use xlink:href="#DejaVuSans-79" transform="translate(1439.818359 0)"/>
    </g>
    <!-- organisational audit -->
    <g style="fill: #111111" transform="translate(114.683805 329.827841) scale(0.083 -0.083)">
     <use xlink:href="#DejaVuSans-6f"/>
     <use xlink:href="#DejaVuSans-72" transform="translate(61.181641 0)"/>
     <use xlink:href="#DejaVuSans-67" transform="translate(100.544922 0)"/>
     <use xlink:href="#DejaVuSans-61" transform="translate(164.021484 0)"/>
     <use xlink:href="#DejaVuSans-6e" transform="translate(225.300781 0)"/>
     <use xlink:href="#DejaVuSans-69" transform="translate(288.679688 0)"/>
     <use xlink:href="#DejaVuSans-73" transform="translate(316.462891 0)"/>
     <use xlink:href="#DejaVuSans-61" transform="translate(368.5625 0)"/>
     <use xlink:href="#DejaVuSans-74" transform="translate(429.841797 0)"/>
     <use xlink:href="#DejaVuSans-69" transform="translate(469.050781 0)"/>
     <use xlink:href="#DejaVuSans-6f" transform="translate(496.833984 0)"/>
     <use xlink:href="#DejaVuSans-6e" transform="translate(558.015625 0)"/>
     <use xlink:href="#DejaVuSans-61" transform="translate(621.394531 0)"/>
     <use xlink:href="#DejaVuSans-6c" transform="translate(682.673828 0)"/>
     <use xlink:href="#DejaVuSans-20" transform="translate(710.457031 0)"/>
     <use xlink:href="#DejaVuSans-61" transform="translate(742.244141 0)"/>
     <use xlink:href="#DejaVuSans-75" transform="translate(803.523438 0)"/>
     <use xlink:href="#DejaVuSans-64" transform="translate(866.902344 0)"/>
     <use xlink:href="#DejaVuSans-69" transform="translate(930.378906 0)"/>
     <use xlink:href="#DejaVuSans-74" transform="translate(958.162109 0)"/>
    </g>
    <!-- Claim boundary: no measured PostgreSQL -->
    <g style="fill: #111111" transform="translate(68.542289 339.437361) scale(0.083 -0.083)">
     <defs>
      <path id="DejaVuSans-43" d="M 4122 4306 
L 4122 3641 
Q 3803 3938 3442 4084 
Q 3081 4231 2675 4231 
Q 1875 4231 1450 3742 
Q 1025 3253 1025 2328 
Q 1025 1406 1450 917 
Q 1875 428 2675 428 
Q 3081 428 3442 575 
Q 3803 722 4122 1019 
L 4122 359 
Q 3791 134 3420 21 
Q 3050 -91 2638 -91 
Q 1578 -91 968 557 
Q 359 1206 359 2328 
Q 359 3453 968 4101 
Q 1578 4750 2638 4750 
Q 3056 4750 3426 4639 
Q 3797 4528 4122 4306 
z
" transform="scale(0.015625)"/>
      <path id="DejaVuSans-6d" d="M 3328 2828 
Q 3544 3216 3844 3400 
Q 4144 3584 4550 3584 
Q 5097 3584 5394 3201 
Q 5691 2819 5691 2113 
L 5691 0 
L 5113 0 
L 5113 2094 
Q 5113 2597 4934 2840 
Q 4756 3084 4391 3084 
Q 3944 3084 3684 2787 
Q 3425 2491 3425 1978 
L 3425 0 
L 2847 0 
L 2847 2094 
Q 2847 2600 2669 2842 
Q 2491 3084 2119 3084 
Q 1678 3084 1418 2786 
Q 1159 2488 1159 1978 
L 1159 0 
L 581 0 
L 581 3500 
L 1159 3500 
L 1159 2956 
Q 1356 3278 1631 3431 
Q 1906 3584 2284 3584 
Q 2666 3584 2933 3390 
Q 3200 3197 3328 2828 
z
" transform="scale(0.015625)"/>
      <path id="DejaVuSans-3a" d="M 750 794 
L 1409 794 
L 1409 0 
L 750 0 
L 750 794 
z
M 750 3309 
L 1409 3309 
L 1409 2516 
L 750 2516 
L 750 3309 
z
" transform="scale(0.015625)"/>
      <path id="DejaVuSans-50" d="M 1259 4147 
L 1259 2394 
L 2053 2394 
Q 2494 2394 2734 2622 
Q 2975 2850 2975 3272 
Q 2975 3691 2734 3919 
Q 2494 4147 2053 4147 
L 1259 4147 
z
M 628 4666 
L 2053 4666 
Q 2838 4666 3239 4311 
Q 3641 3956 3641 3272 
Q 3641 2581 3239 2228 
Q 2838 1875 2053 1875 
L 1259 1875 
L 1259 0 
L 628 0 
L 628 4666 
z
" transform="scale(0.015625)"/>
      <path id="DejaVuSans-51" d="M 2522 4238 
Q 1834 4238 1429 3725 
Q 1025 3213 1025 2328 
Q 1025 1447 1429 934 
Q 1834 422 2522 422 
Q 3209 422 3611 934 
Q 4013 1447 4013 2328 
Q 4013 3213 3611 3725 
Q 3209 4238 2522 4238 
z
M 3406 84 
L 4238 -825 
L 3475 -825 
L 2784 -78 
Q 2681 -84 2626 -87 
Q 2572 -91 2522 -91 
Q 1538 -91 948 567 
Q 359 1225 359 2328 
Q 359 3434 948 4092 
Q 1538 4750 2522 4750 
Q 3503 4750 4090 4092 
Q 4678 3434 4678 2328 
Q 4678 1516 4351 937 
Q 4025 359 3406 84 
z
" transform="scale(0.015625)"/>
      <path id="DejaVuSans-4c" d="M 628 4666 
L 1259 4666 
L 1259 531 
L 3531 531 
L 3531 0 
L 628 0 
L 628 4666 
z
" transform="scale(0.015625)"/>
     </defs>
     <use xlink:href="#DejaVuSans-43"/>
     <use xlink:href="#DejaVuSans-6c" transform="translate(69.824219 0)"/>
     <use xlink:href="#DejaVuSans-61" transform="translate(97.607422 0)"/>
     <use xlink:href="#DejaVuSans-69" transform="translate(158.886719 0)"/>
     <use xlink:href="#DejaVuSans-6d" transform="translate(186.669922 0)"/>
     <use xlink:href="#DejaVuSans-20" transform="translate(284.082031 0)"/>
     <use xlink:href="#DejaVuSans-62" transform="translate(315.869141 0)"/>
     <use xlink:href="#DejaVuSans-6f" transform="translate(379.345703 0)"/>
     <use xlink:href="#DejaVuSans-75" transform="translate(440.527344 0)"/>
     <use xlink:href="#DejaVuSans-6e" transform="translate(503.90625 0)"/>
     <use xlink:href="#DejaVuSans-64" transform="translate(567.285156 0)"/>
     <use xlink:href="#DejaVuSans-61" transform="translate(630.761719 0)"/>
     <use xlink:href="#DejaVuSans-72" transform="translate(692.041016 0)"/>
     <use xlink:href="#DejaVuSans-79" transform="translate(733.154297 0)"/>
     <use xlink:href="#DejaVuSans-3a" transform="translate(785.083984 0)"/>
     <use xlink:href="#DejaVuSans-20" transform="translate(818.775391 0)"/>
     <use xlink:href="#DejaVuSans-6e" transform="translate(850.5625 0)"/>
     <use xlink:href="#DejaVuSans-6f" transform="translate(913.941406 0)"/>
     <use xlink:href="#DejaVuSans-20" transform="translate(975.123047 0)"/>
     <use xlink:href="#DejaVuSans-6d" transform="translate(1006.910156 0)"/>
     <use xlink:href="#DejaVuSans-65" transform="translate(1104.322266 0)"/>
     <use xlink:href="#DejaVuSans-61" transform="translate(1165.845703 0)"/>
     <use xlink:href="#DejaVuSans-73" transform="translate(1227.125 0)"/>
     <use xlink:href="#DejaVuSans-75" transform="translate(1279.224609 0)"/>
     <use xlink:href="#DejaVuSans-72" transform="translate(1342.603516 0)"/>
     <use xlink:href="#DejaVuSans-65" transform="translate(1381.466797 0)"/>
     <use xlink:href="#DejaVuSans-64" transform="translate(1442.990234 0)"/>
     <use xlink:href="#DejaVuSans-20" transform="translate(1506.466797 0)"/>
     <use xlink:href="#DejaVuSans-50" transform="translate(1538.253906 0)"/>
     <use xlink:href="#DejaVuSans-6f" transform="translate(1594.931641 0)"/>
     <use xlink:href="#DejaVuSans-73" transform="translate(1656.113281 0)"/>
     <use xlink:href="#DejaVuSans-74" transform="translate(1708.212891 0)"/>
     <use xlink:href="#DejaVuSans-67" transform="translate(1747.421875 0)"/>
     <use xlink:href="#DejaVuSans-72" transform="translate(1810.898438 0)"/>
     <use xlink:href="#DejaVuSans-65" transform="translate(1849.761719 0)"/>
     <use xlink:href="#DejaVuSans-53" transform="translate(1911.285156 0)"/>
     <use xlink:href="#DejaVuSans-51" transform="translate(1974.761719 0)"/>
     <use xlink:href="#DejaVuSans-4c" transform="translate(2053.472656 0)"/>
    </g>
    <!-- result -->
    <g style="fill: #111111" transform="translate(144.336203 349.04688) scale(0.083 -0.083)">
     <use xlink:href="#DejaVuSans-72"/>
     <use xlink:href="#DejaVuSans-65" transform="translate(38.863281 0)"/>
     <use xlink:href="#DejaVuSans-73" transform="translate(100.386719 0)"/>
     <use xlink:href="#DejaVuSans-75" transform="translate(152.486328 0)"/>
     <use xlink:href="#DejaVuSans-6c" transform="translate(215.865234 0)"/>
     <use xlink:href="#DejaVuSans-74" transform="translate(243.648438 0)"/>
    </g>
   </g>
   <g id="text_5">
    <!-- A2 Merkle log -->
    <g style="fill: #111111" transform="translate(331.968437 199.260499) scale(0.083 -0.083)">
     <defs>
      <path id="DejaVuSans-32" d="M 1228 531 
L 3431 531 
L 3431 0 
L 469 0 
L 469 531 
Q 828 903 1448 1529 
Q 2069 2156 2228 2338 
Q 2531 2678 2651 2914 
Q 2772 3150 2772 3378 
Q 2772 3750 2511 3984 
Q 2250 4219 1831 4219 
Q 1534 4219 1204 4116 
Q 875 4013 500 3803 
L 500 4441 
Q 881 4594 1212 4672 
Q 1544 4750 1819 4750 
Q 2544 4750 2975 4387 
Q 3406 4025 3406 3419 
Q 3406 3131 3298 2873 
Q 3191 2616 2906 2266 
Q 2828 2175 2409 1742 
Q 1991 1309 1228 531 
z
" transform="scale(0.015625)"/>
      <path id="DejaVuSans-4d" d="M 628 4666 
L 1569 4666 
L 2759 1491 
L 3956 4666 
L 4897 4666 
L 4897 0 
L 4281 0 
L 4281 4097 
L 3078 897 
L 2444 897 
L 1241 4097 
L 1241 0 
L 628 0 
L 628 4666 
z
" transform="scale(0.015625)"/>
      <path id="DejaVuSans-6b" d="M 581 4863 
L 1159 4863 
L 1159 1991 
L 2875 3500 
L 3609 3500 
L 1753 1863 
L 3688 0 
L 2938 0 
L 1159 1709 
L 1159 0 
L 581 0 
L 581 4863 
z
" transform="scale(0.015625)"/>
     </defs>
     <use xlink:href="#DejaVuSans-41"/>
     <use xlink:href="#DejaVuSans-32" transform="translate(68.408203 0)"/>
     <use xlink:href="#DejaVuSans-20" transform="translate(132.03125 0)"/>
     <use xlink:href="#DejaVuSans-4d" transform="translate(163.818359 0)"/>
     <use xlink:href="#DejaVuSans-65" transform="translate(250.097656 0)"/>
     <use xlink:href="#DejaVuSans-72" transform="translate(311.621094 0)"/>
     <use xlink:href="#DejaVuSans-6b" transform="translate(352.734375 0)"/>
     <use xlink:href="#DejaVuSans-6c" transform="translate(410.644531 0)"/>
     <use xlink:href="#DejaVuSans-65" transform="translate(438.427734 0)"/>
     <use xlink:href="#DejaVuSans-20" transform="translate(499.951172 0)"/>
     <use xlink:href="#DejaVuSans-6c" transform="translate(531.738281 0)"/>
     <use xlink:href="#DejaVuSans-6f" transform="translate(559.521484 0)"/>
     <use xlink:href="#DejaVuSans-67" transform="translate(620.703125 0)"/>
    </g>
    <!-- executed locally -->
    <g style="fill: #111111" transform="translate(326.675891 208.870019) scale(0.083 -0.083)">
     <use xlink:href="#DejaVuSans-65"/>
     <use xlink:href="#DejaVuSans-78" transform="translate(59.773438 0)"/>
     <use xlink:href="#DejaVuSans-65" transform="translate(115.828125 0)"/>
     <use xlink:href="#DejaVuSans-63" transform="translate(177.351562 0)"/>
     <use xlink:href="#DejaVuSans-75" transform="translate(232.332031 0)"/>
     <use xlink:href="#DejaVuSans-74" transform="translate(295.710938 0)"/>
     <use xlink:href="#DejaVuSans-65" transform="translate(334.919922 0)"/>
     <use xlink:href="#DejaVuSans-64" transform="translate(396.443359 0)"/>
     <use xlink:href="#DejaVuSans-20" transform="translate(459.919922 0)"/>
     <use xlink:href="#DejaVuSans-6c" transform="translate(491.707031 0)"/>
     <use xlink:href="#DejaVuSans-6f" transform="translate(519.490234 0)"/>
     <use xlink:href="#DejaVuSans-63" transform="translate(580.671875 0)"/>
     <use xlink:href="#DejaVuSans-61" transform="translate(635.652344 0)"/>
     <use xlink:href="#DejaVuSans-6c" transform="translate(696.931641 0)"/>
     <use xlink:href="#DejaVuSans-6c" transform="translate(724.714844 0)"/>
     <use xlink:href="#DejaVuSans-79" transform="translate(752.498047 0)"/>
    </g>
    <!-- moderate dispute; portable verification -->
    <g style="fill: #111111" transform="translate(278.765438 218.479538) scale(0.083 -0.083)">
     <use xlink:href="#DejaVuSans-6d"/>
     <use xlink:href="#DejaVuSans-6f" transform="translate(97.412109 0)"/>
     <use xlink:href="#DejaVuSans-64" transform="translate(158.59375 0)"/>
     <use xlink:href="#DejaVuSans-65" transform="translate(222.070312 0)"/>
     <use xlink:href="#DejaVuSans-72" transform="translate(283.59375 0)"/>
     <use xlink:href="#DejaVuSans-61" transform="translate(324.707031 0)"/>
     <use xlink:href="#DejaVuSans-74" transform="translate(385.986328 0)"/>
     <use xlink:href="#DejaVuSans-65" transform="translate(425.195312 0)"/>
     <use xlink:href="#DejaVuSans-20" transform="translate(486.71875 0)"/>
     <use xlink:href="#DejaVuSans-64" transform="translate(518.505859 0)"/>
     <use xlink:href="#DejaVuSans-69" transform="translate(581.982422 0)"/>
     <use xlink:href="#DejaVuSans-73" transform="translate(609.765625 0)"/>
     <use xlink:href="#DejaVuSans-70" transform="translate(661.865234 0)"/>
     <use xlink:href="#DejaVuSans-75" transform="translate(725.341797 0)"/>
     <use xlink:href="#DejaVuSans-74" transform="translate(788.720703 0)"/>
     <use xlink:href="#DejaVuSans-65" transform="translate(827.929688 0)"/>
     <use xlink:href="#DejaVuSans-3b" transform="translate(889.453125 0)"/>
     <use xlink:href="#DejaVuSans-20" transform="translate(923.144531 0)"/>
     <use xlink:href="#DejaVuSans-70" transform="translate(954.931641 0)"/>
     <use xlink:href="#DejaVuSans-6f" transform="translate(1018.408203 0)"/>
     <use xlink:href="#DejaVuSans-72" transform="translate(1079.589844 0)"/>
     <use xlink:href="#DejaVuSans-74" transform="translate(1120.703125 0)"/>
     <use xlink:href="#DejaVuSans-61" transform="translate(1159.912109 0)"/>
     <use xlink:href="#DejaVuSans-62" transform="translate(1221.191406 0)"/>
     <use xlink:href="#DejaVuSans-6c" transform="translate(1284.667969 0)"/>
     <use xlink:href="#DejaVuSans-65" transform="translate(1312.451172 0)"/>
     <use xlink:href="#DejaVuSans-20" transform="translate(1373.974609 0)"/>
     <use xlink:href="#DejaVuSans-76" transform="translate(1405.761719 0)"/>
     <use xlink:href="#DejaVuSans-65" transform="translate(1464.941406 0)"/>
     <use xlink:href="#DejaVuSans-72" transform="translate(1526.464844 0)"/>
     <use xlink:href="#DejaVuSans-69" transform="translate(1567.578125 0)"/>
     <use xlink:href="#DejaVuSans-66" transform="translate(1595.361328 0)"/>
     <use xlink:href="#DejaVuSans-69" transform="translate(1630.566406 0)"/>
     <use xlink:href="#DejaVuSans-63" transform="translate(1658.349609 0)"/>
     <use xlink:href="#DejaVuSans-61" transform="translate(1713.330078 0)"/>
     <use xlink:href="#DejaVuSans-74" transform="translate(1774.609375 0)"/>
     <use xlink:href="#DejaVuSans-69" transform="translate(1813.818359 0)"/>
     <use xlink:href="#DejaVuSans-6f" transform="translate(1841.601562 0)"/>
     <use xlink:href="#DejaVuSans-6e" transform="translate(1902.783203 0)"/>
    </g>
    <!-- needed -->
    <g style="fill: #111111" transform="translate(344.802313 228.089058) scale(0.083 -0.083)">
     <use xlink:href="#DejaVuSans-6e"/>
     <use xlink:href="#DejaVuSans-65" transform="translate(63.378906 0)"/>
     <use xlink:href="#DejaVuSans-65" transform="translate(124.902344 0)"/>
     <use xlink:href="#DejaVuSans-64" transform="translate(186.425781 0)"/>
     <use xlink:href="#DejaVuSans-65" transform="translate(249.902344 0)"/>
     <use xlink:href="#DejaVuSans-64" transform="translate(311.425781 0)"/>
    </g>
    <!-- Claim boundary: local reference result only -->
    <g style="fill: #111111" transform="translate(271.108039 237.698577) scale(0.083 -0.083)">
     <use xlink:href="#DejaVuSans-43"/>
     <use xlink:href="#DejaVuSans-6c" transform="translate(69.824219 0)"/>
     <use xlink:href="#DejaVuSans-61" transform="translate(97.607422 0)"/>
     <use xlink:href="#DejaVuSans-69" transform="translate(158.886719 0)"/>
     <use xlink:href="#DejaVuSans-6d" transform="translate(186.669922 0)"/>
     <use xlink:href="#DejaVuSans-20" transform="translate(284.082031 0)"/>
     <use xlink:href="#DejaVuSans-62" transform="translate(315.869141 0)"/>
     <use xlink:href="#DejaVuSans-6f" transform="translate(379.345703 0)"/>
     <use xlink:href="#DejaVuSans-75" transform="translate(440.527344 0)"/>
     <use xlink:href="#DejaVuSans-6e" transform="translate(503.90625 0)"/>
     <use xlink:href="#DejaVuSans-64" transform="translate(567.285156 0)"/>
     <use xlink:href="#DejaVuSans-61" transform="translate(630.761719 0)"/>
     <use xlink:href="#DejaVuSans-72" transform="translate(692.041016 0)"/>
     <use xlink:href="#DejaVuSans-79" transform="translate(733.154297 0)"/>
     <use xlink:href="#DejaVuSans-3a" transform="translate(785.083984 0)"/>
     <use xlink:href="#DejaVuSans-20" transform="translate(818.775391 0)"/>
     <use xlink:href="#DejaVuSans-6c" transform="translate(850.5625 0)"/>
     <use xlink:href="#DejaVuSans-6f" transform="translate(878.345703 0)"/>
     <use xlink:href="#DejaVuSans-63" transform="translate(939.527344 0)"/>
     <use xlink:href="#DejaVuSans-61" transform="translate(994.507812 0)"/>
     <use xlink:href="#DejaVuSans-6c" transform="translate(1055.787109 0)"/>
     <use xlink:href="#DejaVuSans-20" transform="translate(1083.570312 0)"/>
     <use xlink:href="#DejaVuSans-72" transform="translate(1115.357422 0)"/>
     <use xlink:href="#DejaVuSans-65" transform="translate(1154.220703 0)"/>
     <use xlink:href="#DejaVuSans-66" transform="translate(1215.744141 0)"/>
     <use xlink:href="#DejaVuSans-65" transform="translate(1250.949219 0)"/>
     <use xlink:href="#DejaVuSans-72" transform="translate(1312.472656 0)"/>
     <use xlink:href="#DejaVuSans-65" transform="translate(1351.335938 0)"/>
     <use xlink:href="#DejaVuSans-6e" transform="translate(1412.859375 0)"/>
     <use xlink:href="#DejaVuSans-63" transform="translate(1476.238281 0)"/>
     <use xlink:href="#DejaVuSans-65" transform="translate(1531.21875 0)"/>
     <use xlink:href="#DejaVuSans-20" transform="translate(1592.742188 0)"/>
     <use xlink:href="#DejaVuSans-72" transform="translate(1624.529297 0)"/>
     <use xlink:href="#DejaVuSans-65" transform="translate(1663.392578 0)"/>
     <use xlink:href="#DejaVuSans-73" transform="translate(1724.916016 0)"/>
     <use xlink:href="#DejaVuSans-75" transform="translate(1777.015625 0)"/>
     <use xlink:href="#DejaVuSans-6c" transform="translate(1840.394531 0)"/>
     <use xlink:href="#DejaVuSans-74" transform="translate(1868.177734 0)"/>
     <use xlink:href="#DejaVuSans-20" transform="translate(1907.386719 0)"/>
     <use xlink:href="#DejaVuSans-6f" transform="translate(1939.173828 0)"/>
     <use xlink:href="#DejaVuSans-6e" transform="translate(2000.355469 0)"/>
     <use xlink:href="#DejaVuSans-6c" transform="translate(2063.734375 0)"/>
     <use xlink:href="#DejaVuSans-79" transform="translate(2091.517578 0)"/>
    </g>
   </g>
   <g id="text_6">
    <!-- A3 transparency / ledger-like -->
    <g style="fill: #111111" transform="translate(492.087852 96.107854) scale(0.083 -0.083)">
     <defs>
      <path id="DejaVuSans-33" d="M 2597 2516 
Q 3050 2419 3304 2112 
Q 3559 1806 3559 1356 
Q 3559 666 3084 287 
Q 2609 -91 1734 -91 
Q 1441 -91 1130 -33 
Q 819 25 488 141 
L 488 750 
Q 750 597 1062 519 
Q 1375 441 1716 441 
Q 2309 441 2620 675 
Q 2931 909 2931 1356 
Q 2931 1769 2642 2001 
Q 2353 2234 1838 2234 
L 1294 2234 
L 1294 2753 
L 1863 2753 
Q 2328 2753 2575 2939 
Q 2822 3125 2822 3475 
Q 2822 3834 2567 4026 
Q 2313 4219 1838 4219 
Q 1578 4219 1281 4162 
Q 984 4106 628 3988 
L 628 4550 
Q 988 4650 1302 4700 
Q 1616 4750 1894 4750 
Q 2613 4750 3031 4423 
Q 3450 4097 3450 3541 
Q 3450 3153 3228 2886 
Q 3006 2619 2597 2516 
z
" transform="scale(0.015625)"/>
      <path id="DejaVuSans-2d" d="M 313 2009 
L 1997 2009 
L 1997 1497 
L 313 1497 
L 313 2009 
z
" transform="scale(0.015625)"/>
     </defs>
     <use xlink:href="#DejaVuSans-41"/>
     <use xlink:href="#DejaVuSans-33" transform="translate(68.408203 0)"/>
     <use xlink:href="#DejaVuSans-20" transform="translate(132.03125 0)"/>
     <use xlink:href="#DejaVuSans-74" transform="translate(163.818359 0)"/>
     <use xlink:href="#DejaVuSans-72" transform="translate(203.027344 0)"/>
     <use xlink:href="#DejaVuSans-61" transform="translate(244.140625 0)"/>
     <use xlink:href="#DejaVuSans-6e" transform="translate(305.419922 0)"/>
     <use xlink:href="#DejaVuSans-73" transform="translate(368.798828 0)"/>
     <use xlink:href="#DejaVuSans-70" transform="translate(420.898438 0)"/>
     <use xlink:href="#DejaVuSans-61" transform="translate(484.375 0)"/>
     <use xlink:href="#DejaVuSans-72" transform="translate(545.654297 0)"/>
     <use xlink:href="#DejaVuSans-65" transform="translate(584.517578 0)"/>
     <use xlink:href="#DejaVuSans-6e" transform="translate(646.041016 0)"/>
     <use xlink:href="#DejaVuSans-63" transform="translate(709.419922 0)"/>
     <use xlink:href="#DejaVuSans-79" transform="translate(764.400391 0)"/>
     <use xlink:href="#DejaVuSans-20" transform="translate(823.580078 0)"/>
     <use xlink:href="#DejaVuSans-2f" transform="translate(855.367188 0)"/>
     <use xlink:href="#DejaVuSans-20" transform="translate(889.058594 0)"/>
     <use xlink:href="#DejaVuSans-6c" transform="translate(920.845703 0)"/>
     <use xlink:href="#DejaVuSans-65" transform="translate(948.628906 0)"/>
     <use xlink:href="#DejaVuSans-64" transform="translate(1010.152344 0)"/>
     <use xlink:href="#DejaVuSans-67" transform="translate(1073.628906 0)"/>
     <use xlink:href="#DejaVuSans-65" transform="translate(1137.105469 0)"/>
     <use xlink:href="#DejaVuSans-72" transform="translate(1198.628906 0)"/>
     <use xlink:href="#DejaVuSans-2d" transform="translate(1233.367188 0)"/>
     <use xlink:href="#DejaVuSans-6c" transform="translate(1269.451172 0)"/>
     <use xlink:href="#DejaVuSans-69" transform="translate(1297.234375 0)"/>
     <use xlink:href="#DejaVuSans-6b" transform="translate(1325.017578 0)"/>
     <use xlink:href="#DejaVuSans-65" transform="translate(1379.302734 0)"/>
    </g>
    <!-- adapter-level only -->
    <g style="fill: #111111" transform="translate(514.440789 105.717373) scale(0.083 -0.083)">
     <use xlink:href="#DejaVuSans-61"/>
     <use xlink:href="#DejaVuSans-64" transform="translate(61.279297 0)"/>
     <use xlink:href="#DejaVuSans-61" transform="translate(124.755859 0)"/>
     <use xlink:href="#DejaVuSans-70" transform="translate(186.035156 0)"/>
     <use xlink:href="#DejaVuSans-74" transform="translate(249.511719 0)"/>
     <use xlink:href="#DejaVuSans-65" transform="translate(288.720703 0)"/>
     <use xlink:href="#DejaVuSans-72" transform="translate(350.244141 0)"/>
     <use xlink:href="#DejaVuSans-2d" transform="translate(384.982422 0)"/>
     <use xlink:href="#DejaVuSans-6c" transform="translate(421.066406 0)"/>
     <use xlink:href="#DejaVuSans-65" transform="translate(448.849609 0)"/>
     <use xlink:href="#DejaVuSans-76" transform="translate(510.373047 0)"/>
     <use xlink:href="#DejaVuSans-65" transform="translate(569.552734 0)"/>
     <use xlink:href="#DejaVuSans-6c" transform="translate(631.076172 0)"/>
     <use xlink:href="#DejaVuSans-20" transform="translate(658.859375 0)"/>
     <use xlink:href="#DejaVuSans-6f" transform="translate(690.646484 0)"/>
     <use xlink:href="#DejaVuSans-6e" transform="translate(751.828125 0)"/>
     <use xlink:href="#DejaVuSans-6c" transform="translate(815.207031 0)"/>
     <use xlink:href="#DejaVuSans-79" transform="translate(842.990234 0)"/>
    </g>
    <!-- high cross-organisational scrutiny; -->
    <g style="fill: #111111" transform="translate(480.336219 115.326893) scale(0.083 -0.083)">
     <use xlink:href="#DejaVuSans-68"/>
     <use xlink:href="#DejaVuSans-69" transform="translate(63.378906 0)"/>
     <use xlink:href="#DejaVuSans-67" transform="translate(91.162109 0)"/>
     <use xlink:href="#DejaVuSans-68" transform="translate(154.638672 0)"/>
     <use xlink:href="#DejaVuSans-20" transform="translate(218.017578 0)"/>
     <use xlink:href="#DejaVuSans-63" transform="translate(249.804688 0)"/>
     <use xlink:href="#DejaVuSans-72" transform="translate(304.785156 0)"/>
     <use xlink:href="#DejaVuSans-6f" transform="translate(343.648438 0)"/>
     <use xlink:href="#DejaVuSans-73" transform="translate(404.830078 0)"/>
     <use xlink:href="#DejaVuSans-73" transform="translate(456.929688 0)"/>
     <use xlink:href="#DejaVuSans-2d" transform="translate(509.029297 0)"/>
     <use xlink:href="#DejaVuSans-6f" transform="translate(546.988281 0)"/>
     <use xlink:href="#DejaVuSans-72" transform="translate(608.169922 0)"/>
     <use xlink:href="#DejaVuSans-67" transform="translate(647.533203 0)"/>
     <use xlink:href="#DejaVuSans-61" transform="translate(711.009766 0)"/>
     <use xlink:href="#DejaVuSans-6e" transform="translate(772.289062 0)"/>
     <use xlink:href="#DejaVuSans-69" transform="translate(835.667969 0)"/>
     <use xlink:href="#DejaVuSans-73" transform="translate(863.451172 0)"/>
     <use xlink:href="#DejaVuSans-61" transform="translate(915.550781 0)"/>
     <use xlink:href="#DejaVuSans-74" transform="translate(976.830078 0)"/>
     <use xlink:href="#DejaVuSans-69" transform="translate(1016.039062 0)"/>
     <use xlink:href="#DejaVuSans-6f" transform="translate(1043.822266 0)"/>
     <use xlink:href="#DejaVuSans-6e" transform="translate(1105.003906 0)"/>
     <use xlink:href="#DejaVuSans-61" transform="translate(1168.382812 0)"/>
     <use xlink:href="#DejaVuSans-6c" transform="translate(1229.662109 0)"/>
     <use xlink:href="#DejaVuSans-20" transform="translate(1257.445312 0)"/>
     <use xlink:href="#DejaVuSans-73" transform="translate(1289.232422 0)"/>
     <use xlink:href="#DejaVuSans-63" transform="translate(1341.332031 0)"/>
     <use xlink:href="#DejaVuSans-72" transform="translate(1396.3125 0)"/>
     <use xlink:href="#DejaVuSans-75" transform="translate(1437.425781 0)"/>
     <use xlink:href="#DejaVuSans-74" transform="translate(1500.804688 0)"/>
     <use xlink:href="#DejaVuSans-69" transform="translate(1540.013672 0)"/>
     <use xlink:href="#DejaVuSans-6e" transform="translate(1567.796875 0)"/>
     <use xlink:href="#DejaVuSans-79" transform="translate(1631.175781 0)"/>
     <use xlink:href="#DejaVuSans-3b" transform="translate(1690.355469 0)"/>
    </g>
    <!-- external witness needed -->
    <g style="fill: #111111" transform="translate(500.926055 124.936412) scale(0.083 -0.083)">
     <use xlink:href="#DejaVuSans-65"/>
     <use xlink:href="#DejaVuSans-78" transform="translate(59.773438 0)"/>
     <use xlink:href="#DejaVuSans-74" transform="translate(118.953125 0)"/>
     <use xlink:href="#DejaVuSans-65" transform="translate(158.162109 0)"/>
     <use xlink:href="#DejaVuSans-72" transform="translate(219.685547 0)"/>
     <use xlink:href="#DejaVuSans-6e" transform="translate(259.048828 0)"/>
     <use xlink:href="#DejaVuSans-61" transform="translate(322.427734 0)"/>
     <use xlink:href="#DejaVuSans-6c" transform="translate(383.707031 0)"/>
     <use xlink:href="#DejaVuSans-20" transform="translate(411.490234 0)"/>
     <use xlink:href="#DejaVuSans-77" transform="translate(443.277344 0)"/>
     <use xlink:href="#DejaVuSans-69" transform="translate(525.064453 0)"/>
     <use xlink:href="#DejaVuSans-74" transform="translate(552.847656 0)"/>
     <use xlink:href="#DejaVuSans-6e" transform="translate(592.056641 0)"/>
     <use xlink:href="#DejaVuSans-65" transform="translate(655.435547 0)"/>
     <use xlink:href="#DejaVuSans-73" transform="translate(716.958984 0)"/>
     <use xlink:href="#DejaVuSans-73" transform="translate(769.058594 0)"/>
     <use xlink:href="#DejaVuSans-20" transform="translate(821.158203 0)"/>
     <use xlink:href="#DejaVuSans-6e" transform="translate(852.945312 0)"/>
     <use xlink:href="#DejaVuSans-65" transform="translate(916.324219 0)"/>
     <use xlink:href="#DejaVuSans-65" transform="translate(977.847656 0)"/>
     <use xlink:href="#DejaVuSans-64" transform="translate(1039.371094 0)"/>
     <use xlink:href="#DejaVuSans-65" transform="translate(1102.847656 0)"/>
     <use xlink:href="#DejaVuSans-64" transform="translate(1164.371094 0)"/>
    </g>
    <!-- Claim boundary: no executed -->
    <g style="fill: #111111" transform="translate(491.007555 134.545932) scale(0.083 -0.083)">
     <use xlink:href="#DejaVuSans-43"/>
     <use xlink:href="#DejaVuSans-6c" transform="translate(69.824219 0)"/>
     <use xlink:href="#DejaVuSans-61" transform="translate(97.607422 0)"/>
     <use xlink:href="#DejaVuSans-69" transform="translate(158.886719 0)"/>
     <use xlink:href="#DejaVuSans-6d" transform="translate(186.669922 0)"/>
     <use xlink:href="#DejaVuSans-20" transform="translate(284.082031 0)"/>
     <use xlink:href="#DejaVuSans-62" transform="translate(315.869141 0)"/>
     <use xlink:href="#DejaVuSans-6f" transform="translate(379.345703 0)"/>
     <use xlink:href="#DejaVuSans-75" transform="translate(440.527344 0)"/>
     <use xlink:href="#DejaVuSans-6e" transform="translate(503.90625 0)"/>
     <use xlink:href="#DejaVuSans-64" transform="translate(567.285156 0)"/>
     <use xlink:href="#DejaVuSans-61" transform="translate(630.761719 0)"/>
     <use xlink:href="#DejaVuSans-72" transform="translate(692.041016 0)"/>
     <use xlink:href="#DejaVuSans-79" transform="translate(733.154297 0)"/>
     <use xlink:href="#DejaVuSans-3a" transform="translate(785.083984 0)"/>
     <use xlink:href="#DejaVuSans-20" transform="translate(818.775391 0)"/>
     <use xlink:href="#DejaVuSans-6e" transform="translate(850.5625 0)"/>
     <use xlink:href="#DejaVuSans-6f" transform="translate(913.941406 0)"/>
     <use xlink:href="#DejaVuSans-20" transform="translate(975.123047 0)"/>
     <use xlink:href="#DejaVuSans-65" transform="translate(1006.910156 0)"/>
     <use xlink:href="#DejaVuSans-78" transform="translate(1066.683594 0)"/>
     <use xlink:href="#DejaVuSans-65" transform="translate(1122.738281 0)"/>
     <use xlink:href="#DejaVuSans-63" transform="translate(1184.261719 0)"/>
     <use xlink:href="#DejaVuSans-75" transform="translate(1239.242188 0)"/>
     <use xlink:href="#DejaVuSans-74" transform="translate(1302.621094 0)"/>
     <use xlink:href="#DejaVuSans-65" transform="translate(1341.830078 0)"/>
     <use xlink:href="#DejaVuSans-64" transform="translate(1403.353516 0)"/>
    </g>
    <!-- transparency/ledger result -->
    <g style="fill: #111111" transform="translate(496.811719 144.155452) scale(0.083 -0.083)">
     <use xlink:href="#DejaVuSans-74"/>
     <use xlink:href="#DejaVuSans-72" transform="translate(39.208984 0)"/>
     <use xlink:href="#DejaVuSans-61" transform="translate(80.322266 0)"/>
     <use xlink:href="#DejaVuSans-6e" transform="translate(141.601562 0)"/>
     <use xlink:href="#DejaVuSans-73" transform="translate(204.980469 0)"/>
     <use xlink:href="#DejaVuSans-70" transform="translate(257.080078 0)"/>
     <use xlink:href="#DejaVuSans-61" transform="translate(320.556641 0)"/>
     <use xlink:href="#DejaVuSans-72" transform="translate(381.835938 0)"/>
     <use xlink:href="#DejaVuSans-65" transform="translate(420.699219 0)"/>
     <use xlink:href="#DejaVuSans-6e" transform="translate(482.222656 0)"/>
     <use xlink:href="#DejaVuSans-63" transform="translate(545.601562 0)"/>
     <use xlink:href="#DejaVuSans-79" transform="translate(600.582031 0)"/>
     <use xlink:href="#DejaVuSans-2f" transform="translate(659.761719 0)"/>
     <use xlink:href="#DejaVuSans-6c" transform="translate(693.453125 0)"/>
     <use xlink:href="#DejaVuSans-65" transform="translate(721.236328 0)"/>
     <use xlink:href="#DejaVuSans-64" transform="translate(782.759766 0)"/>
     <use xlink:href="#DejaVuSans-67" transform="translate(846.236328 0)"/>
     <use xlink:href="#DejaVuSans-65" transform="translate(909.712891 0)"/>
     <use xlink:href="#DejaVuSans-72" transform="translate(971.236328 0)"/>
     <use xlink:href="#DejaVuSans-20" transform="translate(1012.349609 0)"/>
     <use xlink:href="#DejaVuSans-72" transform="translate(1044.136719 0)"/>
     <use xlink:href="#DejaVuSans-65" transform="translate(1083 0)"/>
     <use xlink:href="#DejaVuSans-73" transform="translate(1144.523438 0)"/>
     <use xlink:href="#DejaVuSans-75" transform="translate(1196.623047 0)"/>
     <use xlink:href="#DejaVuSans-6c" transform="translate(1260.001953 0)"/>
     <use xlink:href="#DejaVuSans-74" transform="translate(1287.785156 0)"/>
    </g>
   </g>
   <g id="text_7">
    <!-- internal audit suffices -->
    <g transform="translate(98.835953 396.493714) scale(0.082 -0.082)">
     <use xlink:href="#DejaVuSans-69"/>
     <use xlink:href="#DejaVuSans-6e" transform="translate(27.783203 0)"/>
     <use xlink:href="#DejaVuSans-74" transform="translate(91.162109 0)"/>
     <use xlink:href="#DejaVuSans-65" transform="translate(130.371094 0)"/>
     <use xlink:href="#DejaVuSans-72" transform="translate(191.894531 0)"/>
     <use xlink:href="#DejaVuSans-6e" transform="translate(231.257812 0)"/>
     <use xlink:href="#DejaVuSans-61" transform="translate(294.636719 0)"/>
     <use xlink:href="#DejaVuSans-6c" transform="translate(355.916016 0)"/>
     <use xlink:href="#DejaVuSans-20" transform="translate(383.699219 0)"/>
     <use xlink:href="#DejaVuSans-61" transform="translate(415.486328 0)"/>
     <use xlink:href="#DejaVuSans-75" transform="translate(476.765625 0)"/>
     <use xlink:href="#DejaVuSans-64" transform="translate(540.144531 0)"/>
     <use xlink:href="#DejaVuSans-69" transform="translate(603.621094 0)"/>
     <use xlink:href="#DejaVuSans-74" transform="translate(631.404297 0)"/>
     <use xlink:href="#DejaVuSans-20" transform="translate(670.613281 0)"/>
     <use xlink:href="#DejaVuSans-73" transform="translate(702.400391 0)"/>
     <use xlink:href="#DejaVuSans-75" transform="translate(754.5 0)"/>
     <use xlink:href="#DejaVuSans-66" transform="translate(817.878906 0)"/>
     <use xlink:href="#DejaVuSans-66" transform="translate(853.083984 0)"/>
     <use xlink:href="#DejaVuSans-69" transform="translate(888.289062 0)"/>
     <use xlink:href="#DejaVuSans-63" transform="translate(916.072266 0)"/>
     <use xlink:href="#DejaVuSans-65" transform="translate(971.052734 0)"/>
     <use xlink:href="#DejaVuSans-73" transform="translate(1032.576172 0)"/>
    </g>
   </g>
   <g id="text_8">
    <!-- portable verification -->
    <g transform="translate(306.132969 285.852343) scale(0.082 -0.082)">
     <use xlink:href="#DejaVuSans-70"/>
     <use xlink:href="#DejaVuSans-6f" transform="translate(63.476562 0)"/>
     <use xlink:href="#DejaVuSans-72" transform="translate(124.658203 0)"/>
     <use xlink:href="#DejaVuSans-74" transform="translate(165.771484 0)"/>
     <use xlink:href="#DejaVuSans-61" transform="translate(204.980469 0)"/>
     <use xlink:href="#DejaVuSans-62" transform="translate(266.259766 0)"/>
     <use xlink:href="#DejaVuSans-6c" transform="translate(329.736328 0)"/>
     <use xlink:href="#DejaVuSans-65" transform="translate(357.519531 0)"/>
     <use xlink:href="#DejaVuSans-20" transform="translate(419.042969 0)"/>
     <use xlink:href="#DejaVuSans-76" transform="translate(450.830078 0)"/>
     <use xlink:href="#DejaVuSans-65" transform="translate(510.009766 0)"/>
     <use xlink:href="#DejaVuSans-72" transform="translate(571.533203 0)"/>
     <use xlink:href="#DejaVuSans-69" transform="translate(612.646484 0)"/>
     <use xlink:href="#DejaVuSans-66" transform="translate(640.429688 0)"/>
     <use xlink:href="#DejaVuSans-69" transform="translate(675.634766 0)"/>
     <use xlink:href="#DejaVuSans-63" transform="translate(703.417969 0)"/>
     <use xlink:href="#DejaVuSans-61" transform="translate(758.398438 0)"/>
     <use xlink:href="#DejaVuSans-74" transform="translate(819.677734 0)"/>
     <use xlink:href="#DejaVuSans-69" transform="translate(858.886719 0)"/>
     <use xlink:href="#DejaVuSans-6f" transform="translate(886.669922 0)"/>
     <use xlink:href="#DejaVuSans-6e" transform="translate(947.851562 0)"/>
    </g>
   </g>
   <g id="text_9">
    <!-- external witness desired -->
    <g transform="translate(501.793031 187.504457) scale(0.082 -0.082)">
     <use xlink:href="#DejaVuSans-65"/>
     <use xlink:href="#DejaVuSans-78" transform="translate(59.773438 0)"/>
     <use xlink:href="#DejaVuSans-74" transform="translate(118.953125 0)"/>
     <use xlink:href="#DejaVuSans-65" transform="translate(158.162109 0)"/>
     <use xlink:href="#DejaVuSans-72" transform="translate(219.685547 0)"/>
     <use xlink:href="#DejaVuSans-6e" transform="translate(259.048828 0)"/>
     <use xlink:href="#DejaVuSans-61" transform="translate(322.427734 0)"/>
     <use xlink:href="#DejaVuSans-6c" transform="translate(383.707031 0)"/>
     <use xlink:href="#DejaVuSans-20" transform="translate(411.490234 0)"/>
     <use xlink:href="#DejaVuSans-77" transform="translate(443.277344 0)"/>
     <use xlink:href="#DejaVuSans-69" transform="translate(525.064453 0)"/>
     <use xlink:href="#DejaVuSans-74" transform="translate(552.847656 0)"/>
     <use xlink:href="#DejaVuSans-6e" transform="translate(592.056641 0)"/>
     <use xlink:href="#DejaVuSans-65" transform="translate(655.435547 0)"/>
     <use xlink:href="#DejaVuSans-73" transform="translate(716.958984 0)"/>
     <use xlink:href="#DejaVuSans-73" transform="translate(769.058594 0)"/>
     <use xlink:href="#DejaVuSans-20" transform="translate(821.158203 0)"/>
     <use xlink:href="#DejaVuSans-64" transform="translate(852.945312 0)"/>
     <use xlink:href="#DejaVuSans-65" transform="translate(916.421875 0)"/>
     <use xlink:href="#DejaVuSans-73" transform="translate(977.945312 0)"/>
     <use xlink:href="#DejaVuSans-69" transform="translate(1030.044922 0)"/>
     <use xlink:href="#DejaVuSans-72" transform="translate(1057.828125 0)"/>
     <use xlink:href="#DejaVuSans-65" transform="translate(1096.691406 0)"/>
     <use xlink:href="#DejaVuSans-64" transform="translate(1158.214844 0)"/>
    </g>
   </g>
   <g id="text_10">
    <!-- Decision map is conceptual and evidence-limited: only A2 was executed locally. -->
    <g style="fill: #111111" transform="translate(192.813719 38.169659) scale(0.084 -0.084)">
     <defs>
      <path id="DejaVuSans-44" d="M 1259 4147 
L 1259 519 
L 2022 519 
Q 2988 519 3436 956 
Q 3884 1394 3884 2338 
Q 3884 3275 3436 3711 
Q 2988 4147 2022 4147 
L 1259 4147 
z
M 628 4666 
L 1925 4666 
Q 3281 4666 3915 4102 
Q 4550 3538 4550 2338 
Q 4550 1131 3912 565 
Q 3275 0 1925 0 
L 628 0 
L 628 4666 
z
" transform="scale(0.015625)"/>
      <path id="DejaVuSans-2e" d="M 684 794 
L 1344 794 
L 1344 0 
L 684 0 
L 684 794 
z
" transform="scale(0.015625)"/>
     </defs>
     <use xlink:href="#DejaVuSans-44"/>
     <use xlink:href="#DejaVuSans-65" transform="translate(77.001953 0)"/>
     <use xlink:href="#DejaVuSans-63" transform="translate(138.525391 0)"/>
     <use xlink:href="#DejaVuSans-69" transform="translate(193.505859 0)"/>
     <use xlink:href="#DejaVuSans-73" transform="translate(221.289062 0)"/>
     <use xlink:href="#DejaVuSans-69" transform="translate(273.388672 0)"/>
     <use xlink:href="#DejaVuSans-6f" transform="translate(301.171875 0)"/>
     <use xlink:href="#DejaVuSans-6e" transform="translate(362.353516 0)"/>
     <use xlink:href="#DejaVuSans-20" transform="translate(425.732422 0)"/>
     <use xlink:href="#DejaVuSans-6d" transform="translate(457.519531 0)"/>
     <use xlink:href="#DejaVuSans-61" transform="translate(554.931641 0)"/>
     <use xlink:href="#DejaVuSans-70" transform="translate(616.210938 0)"/>
     <use xlink:href="#DejaVuSans-20" transform="translate(679.6875 0)"/>
     <use xlink:href="#DejaVuSans-69" transform="translate(711.474609 0)"/>
     <use xlink:href="#DejaVuSans-73" transform="translate(739.257812 0)"/>
     <use xlink:href="#DejaVuSans-20" transform="translate(791.357422 0)"/>
     <use xlink:href="#DejaVuSans-63" transform="translate(823.144531 0)"/>
     <use xlink:href="#DejaVuSans-6f" transform="translate(878.125 0)"/>
     <use xlink:href="#DejaVuSans-6e" transform="translate(939.306641 0)"/>
     <use xlink:href="#DejaVuSans-63" transform="translate(1002.685547 0)"/>
     <use xlink:href="#DejaVuSans-65" transform="translate(1057.666016 0)"/>
     <use xlink:href="#DejaVuSans-70" transform="translate(1119.189453 0)"/>
     <use xlink:href="#DejaVuSans-74" transform="translate(1182.666016 0)"/>
     <use xlink:href="#DejaVuSans-75" transform="translate(1221.875 0)"/>
     <use xlink:href="#DejaVuSans-61" transform="translate(1285.253906 0)"/>
     <use xlink:href="#DejaVuSans-6c" transform="translate(1346.533203 0)"/>
     <use xlink:href="#DejaVuSans-20" transform="translate(1374.316406 0)"/>
     <use xlink:href="#DejaVuSans-61" transform="translate(1406.103516 0)"/>
     <use xlink:href="#DejaVuSans-6e" transform="translate(1467.382812 0)"/>
     <use xlink:href="#DejaVuSans-64" transform="translate(1530.761719 0)"/>
     <use xlink:href="#DejaVuSans-20" transform="translate(1594.238281 0)"/>
     <use xlink:href="#DejaVuSans-65" transform="translate(1626.025391 0)"/>
     <use xlink:href="#DejaVuSans-76" transform="translate(1687.548828 0)"/>
     <use xlink:href="#DejaVuSans-69" transform="translate(1746.728516 0)"/>
     <use xlink:href="#DejaVuSans-64" transform="translate(1774.511719 0)"/>
     <use xlink:href="#DejaVuSans-65" transform="translate(1837.988281 0)"/>
     <use xlink:href="#DejaVuSans-6e" transform="translate(1899.511719 0)"/>
     <use xlink:href="#DejaVuSans-63" transform="translate(1962.890625 0)"/>
     <use xlink:href="#DejaVuSans-65" transform="translate(2017.871094 0)"/>
     <use xlink:href="#DejaVuSans-2d" transform="translate(2079.394531 0)"/>
     <use xlink:href="#DejaVuSans-6c" transform="translate(2115.478516 0)"/>
     <use xlink:href="#DejaVuSans-69" transform="translate(2143.261719 0)"/>
     <use xlink:href="#DejaVuSans-6d" transform="translate(2171.044922 0)"/>
     <use xlink:href="#DejaVuSans-69" transform="translate(2268.457031 0)"/>
     <use xlink:href="#DejaVuSans-74" transform="translate(2296.240234 0)"/>
     <use xlink:href="#DejaVuSans-65" transform="translate(2335.449219 0)"/>
     <use xlink:href="#DejaVuSans-64" transform="translate(2396.972656 0)"/>
     <use xlink:href="#DejaVuSans-3a" transform="translate(2460.449219 0)"/>
     <use xlink:href="#DejaVuSans-20" transform="translate(2494.140625 0)"/>
     <use xlink:href="#DejaVuSans-6f" transform="translate(2525.927734 0)"/>
     <use xlink:href="#DejaVuSans-6e" transform="translate(2587.109375 0)"/>
     <use xlink:href="#DejaVuSans-6c" transform="translate(2650.488281 0)"/>
     <use xlink:href="#DejaVuSans-79" transform="translate(2678.271484 0)"/>
     <use xlink:href="#DejaVuSans-20" transform="translate(2737.451172 0)"/>
     <use xlink:href="#DejaVuSans-41" transform="translate(2769.238281 0)"/>
     <use xlink:href="#DejaVuSans-32" transform="translate(2837.646484 0)"/>
     <use xlink:href="#DejaVuSans-20" transform="translate(2901.269531 0)"/>
     <use xlink:href="#DejaVuSans-77" transform="translate(2933.056641 0)"/>
     <use xlink:href="#DejaVuSans-61" transform="translate(3014.84375 0)"/>
     <use xlink:href="#DejaVuSans-73" transform="translate(3076.123047 0)"/>
     <use xlink:href="#DejaVuSans-20" transform="translate(3128.222656 0)"/>
     <use xlink:href="#DejaVuSans-65" transform="translate(3160.009766 0)"/>
     <use xlink:href="#DejaVuSans-78" transform="translate(3219.783203 0)"/>
     <use xlink:href="#DejaVuSans-65" transform="translate(3275.837891 0)"/>
     <use xlink:href="#DejaVuSans-63" transform="translate(3337.361328 0)"/>
     <use xlink:href="#DejaVuSans-75" transform="translate(3392.341797 0)"/>
     <use xlink:href="#DejaVuSans-74" transform="translate(3455.720703 0)"/>
     <use xlink:href="#DejaVuSans-65" transform="translate(3494.929688 0)"/>
     <use xlink:href="#DejaVuSans-64" transform="translate(3556.453125 0)"/>
     <use xlink:href="#DejaVuSans-20" transform="translate(3619.929688 0)"/>
     <use xlink:href="#DejaVuSans-6c" transform="translate(3651.716797 0)"/>
     <use xlink:href="#DejaVuSans-6f" transform="translate(3679.5 0)"/>
     <use xlink:href="#DejaVuSans-63" transform="translate(3740.681641 0)"/>
     <use xlink:href="#DejaVuSans-61" transform="translate(3795.662109 0)"/>
     <use xlink:href="#DejaVuSans-6c" transform="translate(3856.941406 0)"/>
     <use xlink:href="#DejaVuSans-6c" transform="translate(3884.724609 0)"/>
     <use xlink:href="#DejaVuSans-79" transform="translate(3912.507812 0)"/>
     <use xlink:href="#DejaVuSans-2e" transform="translate(3957.4375 0)"/>
    </g>
   </g>
  </g>
 </g>
 <defs>
  <clipPath id="p021db13477">
   <rect x="28.394219" y="7.2" width="670.32" height="430.272"/>
  </clipPath>
 </defs>
</svg>
