<?xml version="1.0" encoding="utf-8" standalone="no"?>
<!DOCTYPE svg PUBLIC "-//W3C//DTD SVG 1.1//EN"
  "http://www.w3.org/Graphics/SVG/1.1/DTD/svg11.dtd">
<svg xmlns:xlink="http://www.w3.org/1999/xlink" width="800.8776pt" height="356.1624pt" viewBox="0 0 800.8776 356.1624" xmlns="http://www.w3.org/2000/svg" version="1.1">
 <metadata>
  <rdf:RDF xmlns:dc="http://purl.org/dc/elements/1.1/" xmlns:cc="http://creativecommons.org/ns#" xmlns:rdf="http://www.w3.org/1999/02/22-rdf-syntax-ns#">
   <cc:Work>
    <dc:type rdf:resource="http://purl.org/dc/dcmitype/StillImage"/>
    <dc:date>2026-07-06T11:03:54.356524</dc:date>
    <dc:format>image/svg+xml</dc:format>
    <dc:creator>
     <cc:Agent>
      <dc:title>Matplotlib v3.10.8, https://matplotlib.org/</dc:title>
     </cc:Agent>
    </dc:creator>
   </cc:Work>
  </rdf:RDF>
 </metadata>
 <defs>
  <style type="text/css">*{stroke-linejoin: round; stroke-linecap: butt}</style>
 </defs>
 <g id="figure_1">
  <g id="patch_1">
   <path d="M 0 356.1624 
L 800.8776 356.1624 
L 800.8776 0 
L 0 0 
z
" style="fill: #ffffff"/>
  </g>
  <g id="axes_1">
   <g id="patch_2">
    <path d="M 153.075147 116.621469 
Q 165.403471 116.621469 176.557859 116.621469 
" clip-path="url(#p24b039ec47)" style="fill: none; stroke: #263238; stroke-width: 1.05; stroke-linecap: round"/>
    <path d="M 172.557859 114.621469 
L 176.557859 116.621469 
L 172.557859 118.621469 
z
" clip-path="url(#p24b039ec47)" style="fill: #263238; stroke: #263238; stroke-width: 1.05; stroke-linecap: round"/>
   </g>
   <g id="patch_3">
    <path d="M 315.10455 116.621469 
Q 329.194064 116.621469 342.109641 116.621469 
" clip-path="url(#p24b039ec47)" style="fill: none; stroke: #263238; stroke-width: 1.05; stroke-linecap: round"/>
    <path d="M 338.109641 114.621469 
L 342.109641 116.621469 
L 338.109641 118.621469 
z
" clip-path="url(#p24b039ec47)" style="fill: #263238; stroke: #263238; stroke-width: 1.05; stroke-linecap: round"/>
   </g>
   <g id="patch_4">
    <path d="M 459.522062 116.621469 
Q 479.775737 116.621469 498.855477 116.621469 
" clip-path="url(#p24b039ec47)" style="fill: none; stroke: #263238; stroke-width: 1.05; stroke-linecap: round"/>
    <path d="M 494.855477 114.621469 
L 498.855477 116.621469 
L 494.855477 118.621469 
z
" clip-path="url(#p24b039ec47)" style="fill: #263238; stroke: #263238; stroke-width: 1.05; stroke-linecap: round"/>
   </g>
   <g id="patch_5">
    <path d="M 577.521736 133.332869 
Q 577.521736 158.839744 577.521736 183.172682 
" clip-path="url(#p24b039ec47)" style="fill: none; stroke: #263238; stroke-width: 1.05; stroke-linecap: round"/>
    <path d="M 579.521736 179.172682 
L 577.521736 183.172682 
L 575.521736 179.172682 
z
" clip-path="url(#p24b039ec47)" style="fill: #263238; stroke: #263238; stroke-width: 1.05; stroke-linecap: round"/>
   </g>
   <g id="patch_6">
    <path d="M 500.029413 201.058018 
Q 489.462278 201.058018 480.069078 201.058018 
" clip-path="url(#p24b039ec47)" style="fill: none; stroke: #263238; stroke-width: 1.05; stroke-linecap: round"/>
    <path d="M 484.069078 203.058018 
L 480.069078 201.058018 
L 484.069078 199.058018 
z
" clip-path="url(#p24b039ec47)" style="fill: #263238; stroke: #263238; stroke-width: 1.05; stroke-linecap: round"/>
   </g>
   <g id="patch_7">
    <path d="M 323.910496 201.058018 
Q 313.343361 201.058018 303.950162 201.058018 
" clip-path="url(#p24b039ec47)" style="fill: none; stroke: #263238; stroke-width: 1.05; stroke-linecap: round"/>
    <path d="M 307.950162 203.058018 
L 303.950162 201.058018 
L 307.950162 199.058018 
z
" clip-path="url(#p24b039ec47)" style="fill: #263238; stroke: #263238; stroke-width: 1.05; stroke-linecap: round"/>
   </g>
   <g id="patch_8">
    <path d="M 225.283903 217.769419 
Q 225.283903 231.138539 225.283903 243.333724 
" clip-path="url(#p24b039ec47)" style="fill: none; stroke: #263238; stroke-width: 1.05; stroke-linecap: round"/>
    <path d="M 227.283903 239.333724 
L 225.283903 243.333724 
L 223.283903 239.333724 
z
" clip-path="url(#p24b039ec47)" style="fill: #263238; stroke: #263238; stroke-width: 1.05; stroke-linecap: round"/>
   </g>
   <g id="patch_9">
    <path d="M 401.402819 217.769419 
Q 401.402819 231.138539 401.402819 243.333724 
" clip-path="url(#p24b039ec47)" style="fill: none; stroke: #263238; stroke-width: 1.05; stroke-linecap: round"/>
    <path d="M 403.402819 239.333724 
L 401.402819 243.333724 
L 399.402819 239.333724 
z
" clip-path="url(#p24b039ec47)" style="fill: #263238; stroke: #263238; stroke-width: 1.05; stroke-linecap: round"/>
   </g>
   <g id="patch_10">
    <path d="M 577.521736 217.769419 
Q 598.656006 231.138539 618.798175 243.880076 
" clip-path="url(#p24b039ec47)" style="fill: none; stroke: #263238; stroke-width: 1.05; stroke-linecap: round"/>
    <path d="M 616.486944 240.051472 
L 618.798175 243.880076 
L 614.348553 243.431898 
z
" clip-path="url(#p24b039ec47)" style="fill: #263238; stroke: #263238; stroke-width: 1.05; stroke-linecap: round"/>
   </g>
   <g id="patch_11">
    <path d="M 52.250589 133.375087 
L 144.705976 133.375087 
Q 153.159684 133.375087 153.159684 129.15326 
L 153.159684 104.089678 
Q 153.159684 99.86785 144.705976 99.86785 
L 52.250589 99.86785 
Q 43.796881 99.86785 43.796881 104.089678 
L 43.796881 129.15326 
Q 43.796881 133.375087 52.250589 133.375087 
z
" clip-path="url(#p24b039ec47)" style="fill: #f6f8fb; stroke: #263238; stroke-width: 1.25; stroke-linejoin: miter"/>
   </g>
   <g id="patch_12">
    <path d="M 186.100966 133.375087 
L 306.735379 133.375087 
Q 315.189087 133.375087 315.189087 129.15326 
L 315.189087 104.089678 
Q 315.189087 99.86785 306.735379 99.86785 
L 186.100966 99.86785 
Q 177.647258 99.86785 177.647258 104.089678 
L 177.647258 129.15326 
Q 177.647258 133.375087 186.100966 133.375087 
z
" clip-path="url(#p24b039ec47)" style="fill: #f6f8fb; stroke: #263238; stroke-width: 1.25; stroke-linejoin: miter"/>
   </g>
   <g id="patch_13">
    <path d="M 351.652748 133.375087 
L 451.152891 133.375087 
Q 459.606599 133.375087 459.606599 129.15326 
L 459.606599 104.089678 
Q 459.606599 99.86785 451.152891 99.86785 
L 351.652748 99.86785 
Q 343.19904 99.86785 343.19904 104.089678 
L 343.19904 129.15326 
Q 343.19904 133.375087 351.652748 133.375087 
z
" clip-path="url(#p24b039ec47)" style="fill: #f6f8fb; stroke: #263238; stroke-width: 1.25; stroke-linejoin: miter"/>
   </g>
   <g id="patch_14">
    <path d="M 508.398584 133.375087 
L 646.644888 133.375087 
Q 655.098596 133.375087 655.098596 129.15326 
L 655.098596 104.089678 
Q 655.098596 99.86785 646.644888 99.86785 
L 508.398584 99.86785 
Q 499.944876 99.86785 499.944876 104.089678 
L 499.944876 129.15326 
Q 499.944876 133.375087 508.398584 133.375087 
z
" clip-path="url(#p24b039ec47)" style="fill: #f6f8fb; stroke: #263238; stroke-width: 1.25; stroke-linejoin: miter"/>
   </g>
   <g id="patch_15">
    <path d="M 508.398584 217.811637 
L 646.644888 217.811637 
Q 655.098596 217.811637 655.098596 213.589809 
L 655.098596 188.526227 
Q 655.098596 184.3044 646.644888 184.3044 
L 508.398584 184.3044 
Q 499.944876 184.3044 499.944876 188.526227 
L 499.944876 213.589809 
Q 499.944876 217.811637 508.398584 217.811637 
z
" clip-path="url(#p24b039ec47)" style="fill: #f6f8fb; stroke: #263238; stroke-width: 1.25; stroke-linejoin: miter"/>
   </g>
   <g id="patch_16">
    <path d="M 332.279667 217.811637 
L 470.525972 217.811637 
Q 478.97968 217.811637 478.97968 213.589809 
L 478.97968 188.526227 
Q 478.97968 184.3044 470.525972 184.3044 
L 332.279667 184.3044 
Q 323.825959 184.3044 323.825959 188.526227 
L 323.825959 213.589809 
Q 323.825959 217.811637 332.279667 217.811637 
z
" clip-path="url(#p24b039ec47)" style="fill: #f6f8fb; stroke: #263238; stroke-width: 1.25; stroke-linejoin: miter"/>
   </g>
   <g id="patch_17">
    <path d="M 156.16075 217.811637 
L 294.407055 217.811637 
Q 302.860763 217.811637 302.860763 213.589809 
L 302.860763 188.526227 
Q 302.860763 184.3044 294.407055 184.3044 
L 156.16075 184.3044 
Q 147.707042 184.3044 147.707042 188.526227 
L 147.707042 213.589809 
Q 147.707042 217.811637 156.16075 217.811637 
z
" clip-path="url(#p24b039ec47)" style="fill: #ffffff; stroke: #263238; stroke-width: 1.25; stroke-linejoin: miter"/>
   </g>
   <g id="patch_18">
    <path d="M 156.16075 315.441397 
L 660.734402 315.441397 
Q 669.18811 315.441397 669.18811 311.21957 
L 669.18811 294.951461 
Q 669.18811 290.729634 660.734402 290.729634 
L 156.16075 290.729634 
Q 147.707042 290.729634 147.707042 294.951461 
L 147.707042 311.21957 
Q 147.707042 315.441397 156.16075 315.441397 
z
" clip-path="url(#p24b039ec47)" style="fill: #fff6e5; stroke: #263238; stroke-linejoin: miter"/>
   </g>
   <g id="patch_19">
    <path d="M 138.548859 273.750851 
L 312.018947 273.750851 
Q 320.472655 273.750851 320.472655 269.529023 
L 320.472655 248.687269 
Q 320.472655 244.465441 312.018947 244.465441 
L 138.548859 244.465441 
Q 130.095151 244.465441 130.095151 248.687269 
L 130.095151 269.529023 
Q 130.095151 273.750851 138.548859 273.750851 
z
" clip-path="url(#p24b039ec47)" style="fill: #eaf5ea; stroke: #263238; stroke-width: 0.95; stroke-linejoin: miter"/>
   </g>
   <g id="patch_20">
    <path d="M 356.936315 273.750851 
L 516.31689 273.750851 
Q 524.770598 273.750851 524.770598 269.529023 
L 524.770598 248.687269 
Q 524.770598 244.465441 516.31689 244.465441 
L 356.936315 244.465441 
Q 348.482607 244.465441 348.482607 248.687269 
L 348.482607 269.529023 
Q 348.482607 273.750851 356.936315 273.750851 
z
" clip-path="url(#p24b039ec47)" style="fill: #eaf5ea; stroke: #263238; stroke-width: 0.95; stroke-linejoin: miter"/>
   </g>
   <g id="patch_21">
    <path d="M 550.667124 273.750851 
L 688.913428 273.750851 
Q 697.367136 273.750851 697.367136 269.529023 
L 697.367136 248.687269 
Q 697.367136 244.465441 688.913428 244.465441 
L 550.667124 244.465441 
Q 542.213416 244.465441 542.213416 248.687269 
L 542.213416 269.529023 
Q 542.213416 273.750851 550.667124 273.750851 
z
" clip-path="url(#p24b039ec47)" style="fill: #fff6e5; stroke: #263238; stroke-width: 0.95; stroke-linejoin: miter"/>
   </g>
   <g id="text_1">
    <!-- append path -->
    <g style="fill: #2f6f9f" transform="translate(56.209743 81.915572) scale(0.081 -0.081)">
     <defs>
      <path id="DejaVuSans-Bold-61" d="M 2106 1575 
Q 1756 1575 1579 1456 
Q 1403 1338 1403 1106 
Q 1403 894 1545 773 
Q 1688 653 1941 653 
Q 2256 653 2472 879 
Q 2688 1106 2688 1447 
L 2688 1575 
L 2106 1575 
z
M 3816 1997 
L 3816 0 
L 2688 0 
L 2688 519 
Q 2463 200 2181 54 
Q 1900 -91 1497 -91 
Q 953 -91 614 226 
Q 275 544 275 1050 
Q 275 1666 698 1953 
Q 1122 2241 2028 2241 
L 2688 2241 
L 2688 2328 
Q 2688 2594 2478 2717 
Q 2269 2841 1825 2841 
Q 1466 2841 1156 2769 
Q 847 2697 581 2553 
L 581 3406 
Q 941 3494 1303 3539 
Q 1666 3584 2028 3584 
Q 2975 3584 3395 3211 
Q 3816 2838 3816 1997 
z
" transform="scale(0.015625)"/>
      <path id="DejaVuSans-Bold-70" d="M 1656 506 
L 1656 -1331 
L 538 -1331 
L 538 3500 
L 1656 3500 
L 1656 2988 
Q 1888 3294 2169 3439 
Q 2450 3584 2816 3584 
Q 3463 3584 3878 3070 
Q 4294 2556 4294 1747 
Q 4294 938 3878 423 
Q 3463 -91 2816 -91 
Q 2450 -91 2169 54 
Q 1888 200 1656 506 
z
M 2400 2772 
Q 2041 2772 1848 2508 
Q 1656 2244 1656 1747 
Q 1656 1250 1848 986 
Q 2041 722 2400 722 
Q 2759 722 2948 984 
Q 3138 1247 3138 1747 
Q 3138 2247 2948 2509 
Q 2759 2772 2400 2772 
z
" transform="scale(0.015625)"/>
      <path id="DejaVuSans-Bold-65" d="M 4031 1759 
L 4031 1441 
L 1416 1441 
Q 1456 1047 1700 850 
Q 1944 653 2381 653 
Q 2734 653 3104 758 
Q 3475 863 3866 1075 
L 3866 213 
Q 3469 63 3072 -14 
Q 2675 -91 2278 -91 
Q 1328 -91 801 392 
Q 275 875 275 1747 
Q 275 2603 792 3093 
Q 1309 3584 2216 3584 
Q 3041 3584 3536 3087 
Q 4031 2591 4031 1759 
z
M 2881 2131 
Q 2881 2450 2695 2645 
Q 2509 2841 2209 2841 
Q 1884 2841 1681 2658 
Q 1478 2475 1428 2131 
L 2881 2131 
z
" transform="scale(0.015625)"/>
      <path id="DejaVuSans-Bold-6e" d="M 4056 2131 
L 4056 0 
L 2931 0 
L 2931 347 
L 2931 1631 
Q 2931 2084 2911 2256 
Q 2891 2428 2841 2509 
Q 2775 2619 2662 2680 
Q 2550 2741 2406 2741 
Q 2056 2741 1856 2470 
Q 1656 2200 1656 1722 
L 1656 0 
L 538 0 
L 538 3500 
L 1656 3500 
L 1656 2988 
Q 1909 3294 2193 3439 
Q 2478 3584 2822 3584 
Q 3428 3584 3742 3212 
Q 4056 2841 4056 2131 
z
" transform="scale(0.015625)"/>
      <path id="DejaVuSans-Bold-64" d="M 2919 2988 
L 2919 4863 
L 4044 4863 
L 4044 0 
L 2919 0 
L 2919 506 
Q 2688 197 2409 53 
Q 2131 -91 1766 -91 
Q 1119 -91 703 423 
Q 288 938 288 1747 
Q 288 2556 703 3070 
Q 1119 3584 1766 3584 
Q 2128 3584 2408 3439 
Q 2688 3294 2919 2988 
z
M 2181 722 
Q 2541 722 2730 984 
Q 2919 1247 2919 1747 
Q 2919 2247 2730 2509 
Q 2541 2772 2181 2772 
Q 1825 2772 1636 2509 
Q 1447 2247 1447 1747 
Q 1447 1247 1636 984 
Q 1825 722 2181 722 
z
" transform="scale(0.015625)"/>
      <path id="DejaVuSans-Bold-20" transform="scale(0.015625)"/>
      <path id="DejaVuSans-Bold-74" d="M 1759 4494 
L 1759 3500 
L 2913 3500 
L 2913 2700 
L 1759 2700 
L 1759 1216 
Q 1759 972 1856 886 
Q 1953 800 2241 800 
L 2816 800 
L 2816 0 
L 1856 0 
Q 1194 0 917 276 
Q 641 553 641 1216 
L 641 2700 
L 84 2700 
L 84 3500 
L 641 3500 
L 641 4494 
L 1759 4494 
z
" transform="scale(0.015625)"/>
      <path id="DejaVuSans-Bold-68" d="M 4056 2131 
L 4056 0 
L 2931 0 
L 2931 347 
L 2931 1625 
Q 2931 2084 2911 2256 
Q 2891 2428 2841 2509 
Q 2775 2619 2662 2680 
Q 2550 2741 2406 2741 
Q 2056 2741 1856 2470 
Q 1656 2200 1656 1722 
L 1656 0 
L 538 0 
L 538 4863 
L 1656 4863 
L 1656 2988 
Q 1909 3294 2193 3439 
Q 2478 3584 2822 3584 
Q 3428 3584 3742 3212 
Q 4056 2841 4056 2131 
z
" transform="scale(0.015625)"/>
     </defs>
     <use xlink:href="#DejaVuSans-Bold-61"/>
     <use xlink:href="#DejaVuSans-Bold-70" transform="translate(67.480469 0)"/>
     <use xlink:href="#DejaVuSans-Bold-70" transform="translate(139.0625 0)"/>
     <use xlink:href="#DejaVuSans-Bold-65" transform="translate(210.644531 0)"/>
     <use xlink:href="#DejaVuSans-Bold-6e" transform="translate(278.466797 0)"/>
     <use xlink:href="#DejaVuSans-Bold-64" transform="translate(349.658203 0)"/>
     <use xlink:href="#DejaVuSans-Bold-20" transform="translate(421.240234 0)"/>
     <use xlink:href="#DejaVuSans-Bold-70" transform="translate(456.054688 0)"/>
     <use xlink:href="#DejaVuSans-Bold-61" transform="translate(527.636719 0)"/>
     <use xlink:href="#DejaVuSans-Bold-74" transform="translate(595.117188 0)"/>
     <use xlink:href="#DejaVuSans-Bold-68" transform="translate(642.919922 0)"/>
    </g>
   </g>
   <g id="text_2">
    <!-- verification path -->
    <g style="fill: #2f6f9f" transform="translate(56.209743 166.352122) scale(0.081 -0.081)">
     <defs>
      <path id="DejaVuSans-Bold-76" d="M 97 3500 
L 1216 3500 
L 2088 1081 
L 2956 3500 
L 4078 3500 
L 2700 0 
L 1472 0 
L 97 3500 
z
" transform="scale(0.015625)"/>
      <path id="DejaVuSans-Bold-72" d="M 3138 2547 
Q 2991 2616 2845 2648 
Q 2700 2681 2553 2681 
Q 2122 2681 1889 2404 
Q 1656 2128 1656 1613 
L 1656 0 
L 538 0 
L 538 3500 
L 1656 3500 
L 1656 2925 
Q 1872 3269 2151 3426 
Q 2431 3584 2822 3584 
Q 2878 3584 2943 3579 
Q 3009 3575 3134 3559 
L 3138 2547 
z
" transform="scale(0.015625)"/>
      <path id="DejaVuSans-Bold-69" d="M 538 3500 
L 1656 3500 
L 1656 0 
L 538 0 
L 538 3500 
z
M 538 4863 
L 1656 4863 
L 1656 3950 
L 538 3950 
L 538 4863 
z
" transform="scale(0.015625)"/>
      <path id="DejaVuSans-Bold-66" d="M 2841 4863 
L 2841 4128 
L 2222 4128 
Q 1984 4128 1890 4042 
Q 1797 3956 1797 3744 
L 1797 3500 
L 2753 3500 
L 2753 2700 
L 1797 2700 
L 1797 0 
L 678 0 
L 678 2700 
L 122 2700 
L 122 3500 
L 678 3500 
L 678 3744 
Q 678 4316 997 4589 
Q 1316 4863 1984 4863 
L 2841 4863 
z
" transform="scale(0.015625)"/>
      <path id="DejaVuSans-Bold-63" d="M 3366 3391 
L 3366 2478 
Q 3138 2634 2908 2709 
Q 2678 2784 2431 2784 
Q 1963 2784 1702 2511 
Q 1441 2238 1441 1747 
Q 1441 1256 1702 982 
Q 1963 709 2431 709 
Q 2694 709 2930 787 
Q 3166 866 3366 1019 
L 3366 103 
Q 3103 6 2833 -42 
Q 2563 -91 2291 -91 
Q 1344 -91 809 395 
Q 275 881 275 1747 
Q 275 2613 809 3098 
Q 1344 3584 2291 3584 
Q 2566 3584 2833 3536 
Q 3100 3488 3366 3391 
z
" transform="scale(0.015625)"/>
      <path id="DejaVuSans-Bold-6f" d="M 2203 2784 
Q 1831 2784 1636 2517 
Q 1441 2250 1441 1747 
Q 1441 1244 1636 976 
Q 1831 709 2203 709 
Q 2569 709 2762 976 
Q 2956 1244 2956 1747 
Q 2956 2250 2762 2517 
Q 2569 2784 2203 2784 
z
M 2203 3584 
Q 3106 3584 3614 3096 
Q 4122 2609 4122 1747 
Q 4122 884 3614 396 
Q 3106 -91 2203 -91 
Q 1297 -91 786 396 
Q 275 884 275 1747 
Q 275 2609 786 3096 
Q 1297 3584 2203 3584 
z
" transform="scale(0.015625)"/>
     </defs>
     <use xlink:href="#DejaVuSans-Bold-76"/>
     <use xlink:href="#DejaVuSans-Bold-65" transform="translate(65.185547 0)"/>
     <use xlink:href="#DejaVuSans-Bold-72" transform="translate(133.007812 0)"/>
     <use xlink:href="#DejaVuSans-Bold-69" transform="translate(182.324219 0)"/>
     <use xlink:href="#DejaVuSans-Bold-66" transform="translate(216.601562 0)"/>
     <use xlink:href="#DejaVuSans-Bold-69" transform="translate(260.107422 0)"/>
     <use xlink:href="#DejaVuSans-Bold-63" transform="translate(294.384766 0)"/>
     <use xlink:href="#DejaVuSans-Bold-61" transform="translate(353.662109 0)"/>
     <use xlink:href="#DejaVuSans-Bold-74" transform="translate(421.142578 0)"/>
     <use xlink:href="#DejaVuSans-Bold-69" transform="translate(468.945312 0)"/>
     <use xlink:href="#DejaVuSans-Bold-6f" transform="translate(503.222656 0)"/>
     <use xlink:href="#DejaVuSans-Bold-6e" transform="translate(571.923828 0)"/>
     <use xlink:href="#DejaVuSans-Bold-20" transform="translate(643.115234 0)"/>
     <use xlink:href="#DejaVuSans-Bold-70" transform="translate(677.929688 0)"/>
     <use xlink:href="#DejaVuSans-Bold-61" transform="translate(749.511719 0)"/>
     <use xlink:href="#DejaVuSans-Bold-74" transform="translate(816.992188 0)"/>
     <use xlink:href="#DejaVuSans-Bold-68" transform="translate(864.794922 0)"/>
    </g>
   </g>
   <g id="text_3">
    <!-- TrustEvidence -->
    <g style="fill: #111111" transform="translate(69.54565 114.10699) scale(0.083 -0.083)">
     <defs>
      <path id="DejaVuSans-54" d="M -19 4666 
L 3928 4666 
L 3928 4134 
L 2272 4134 
L 2272 0 
L 1638 0 
L 1638 4134 
L -19 4134 
L -19 4666 
z
" transform="scale(0.015625)"/>
      <path id="DejaVuSans-72" d="M 2631 2963 
Q 2534 3019 2420 3045 
Q 2306 3072 2169 3072 
Q 1681 3072 1420 2755 
Q 1159 2438 1159 1844 
L 1159 0 
L 581 0 
L 581 3500 
L 1159 3500 
L 1159 2956 
Q 1341 3275 1631 3429 
Q 1922 3584 2338 3584 
Q 2397 3584 2469 3576 
Q 2541 3569 2628 3553 
L 2631 2963 
z
" transform="scale(0.015625)"/>
      <path id="DejaVuSans-75" d="M 544 1381 
L 544 3500 
L 1119 3500 
L 1119 1403 
Q 1119 906 1312 657 
Q 1506 409 1894 409 
Q 2359 409 2629 706 
Q 2900 1003 2900 1516 
L 2900 3500 
L 3475 3500 
L 3475 0 
L 2900 0 
L 2900 538 
Q 2691 219 2414 64 
Q 2138 -91 1772 -91 
Q 1169 -91 856 284 
Q 544 659 544 1381 
z
M 1991 3584 
L 1991 3584 
z
" transform="scale(0.015625)"/>
      <path id="DejaVuSans-73" d="M 2834 3397 
L 2834 2853 
Q 2591 2978 2328 3040 
Q 2066 3103 1784 3103 
Q 1356 3103 1142 2972 
Q 928 2841 928 2578 
Q 928 2378 1081 2264 
Q 1234 2150 1697 2047 
L 1894 2003 
Q 2506 1872 2764 1633 
Q 3022 1394 3022 966 
Q 3022 478 2636 193 
Q 2250 -91 1575 -91 
Q 1294 -91 989 -36 
Q 684 19 347 128 
L 347 722 
Q 666 556 975 473 
Q 1284 391 1588 391 
Q 1994 391 2212 530 
Q 2431 669 2431 922 
Q 2431 1156 2273 1281 
Q 2116 1406 1581 1522 
L 1381 1569 
Q 847 1681 609 1914 
Q 372 2147 372 2553 
Q 372 3047 722 3315 
Q 1072 3584 1716 3584 
Q 2034 3584 2315 3537 
Q 2597 3491 2834 3397 
z
" transform="scale(0.015625)"/>
      <path id="DejaVuSans-74" d="M 1172 4494 
L 1172 3500 
L 2356 3500 
L 2356 3053 
L 1172 3053 
L 1172 1153 
Q 1172 725 1289 603 
Q 1406 481 1766 481 
L 2356 481 
L 2356 0 
L 1766 0 
Q 1100 0 847 248 
Q 594 497 594 1153 
L 594 3053 
L 172 3053 
L 172 3500 
L 594 3500 
L 594 4494 
L 1172 4494 
z
" transform="scale(0.015625)"/>
      <path id="DejaVuSans-45" d="M 628 4666 
L 3578 4666 
L 3578 4134 
L 1259 4134 
L 1259 2753 
L 3481 2753 
L 3481 2222 
L 1259 2222 
L 1259 531 
L 3634 531 
L 3634 0 
L 628 0 
L 628 4666 
z
" transform="scale(0.015625)"/>
      <path id="DejaVuSans-76" d="M 191 3500 
L 800 3500 
L 1894 563 
L 2988 3500 
L 3597 3500 
L 2284 0 
L 1503 0 
L 191 3500 
z
" transform="scale(0.015625)"/>
      <path id="DejaVuSans-69" d="M 603 3500 
L 1178 3500 
L 1178 0 
L 603 0 
L 603 3500 
z
M 603 4863 
L 1178 4863 
L 1178 4134 
L 603 4134 
L 603 4863 
z
" transform="scale(0.015625)"/>
      <path id="DejaVuSans-64" d="M 2906 2969 
L 2906 4863 
L 3481 4863 
L 3481 0 
L 2906 0 
L 2906 525 
Q 2725 213 2448 61 
Q 2172 -91 1784 -91 
Q 1150 -91 751 415 
Q 353 922 353 1747 
Q 353 2572 751 3078 
Q 1150 3584 1784 3584 
Q 2172 3584 2448 3432 
Q 2725 3281 2906 2969 
z
M 947 1747 
Q 947 1113 1208 752 
Q 1469 391 1925 391 
Q 2381 391 2643 752 
Q 2906 1113 2906 1747 
Q 2906 2381 2643 2742 
Q 2381 3103 1925 3103 
Q 1469 3103 1208 2742 
Q 947 2381 947 1747 
z
" transform="scale(0.015625)"/>
      <path id="DejaVuSans-65" d="M 3597 1894 
L 3597 1613 
L 953 1613 
Q 991 1019 1311 708 
Q 1631 397 2203 397 
Q 2534 397 2845 478 
Q 3156 559 3463 722 
L 3463 178 
Q 3153 47 2828 -22 
Q 2503 -91 2169 -91 
Q 1331 -91 842 396 
Q 353 884 353 1716 
Q 353 2575 817 3079 
Q 1281 3584 2069 3584 
Q 2775 3584 3186 3129 
Q 3597 2675 3597 1894 
z
M 3022 2063 
Q 3016 2534 2758 2815 
Q 2500 3097 2075 3097 
Q 1594 3097 1305 2825 
Q 1016 2553 972 2059 
L 3022 2063 
z
" transform="scale(0.015625)"/>
      <path id="DejaVuSans-6e" d="M 3513 2113 
L 3513 0 
L 2938 0 
L 2938 2094 
Q 2938 2591 2744 2837 
Q 2550 3084 2163 3084 
Q 1697 3084 1428 2787 
Q 1159 2491 1159 1978 
L 1159 0 
L 581 0 
L 581 3500 
L 1159 3500 
L 1159 2956 
Q 1366 3272 1645 3428 
Q 1925 3584 2291 3584 
Q 2894 3584 3203 3211 
Q 3513 2838 3513 2113 
z
" transform="scale(0.015625)"/>
      <path id="DejaVuSans-63" d="M 3122 3366 
L 3122 2828 
Q 2878 2963 2633 3030 
Q 2388 3097 2138 3097 
Q 1578 3097 1268 2742 
Q 959 2388 959 1747 
Q 959 1106 1268 751 
Q 1578 397 2138 397 
Q 2388 397 2633 464 
Q 2878 531 3122 666 
L 3122 134 
Q 2881 22 2623 -34 
Q 2366 -91 2075 -91 
Q 1284 -91 818 406 
Q 353 903 353 1747 
Q 353 2603 823 3093 
Q 1294 3584 2113 3584 
Q 2378 3584 2631 3529 
Q 2884 3475 3122 3366 
z
" transform="scale(0.015625)"/>
     </defs>
     <use xlink:href="#DejaVuSans-54"/>
     <use xlink:href="#DejaVuSans-72" transform="translate(46.333984 0)"/>
     <use xlink:href="#DejaVuSans-75" transform="translate(87.447266 0)"/>
     <use xlink:href="#DejaVuSans-73" transform="translate(150.826172 0)"/>
     <use xlink:href="#DejaVuSans-74" transform="translate(202.925781 0)"/>
     <use xlink:href="#DejaVuSans-45" transform="translate(242.134766 0)"/>
     <use xlink:href="#DejaVuSans-76" transform="translate(305.318359 0)"/>
     <use xlink:href="#DejaVuSans-69" transform="translate(364.498047 0)"/>
     <use xlink:href="#DejaVuSans-64" transform="translate(392.28125 0)"/>
     <use xlink:href="#DejaVuSans-65" transform="translate(455.757812 0)"/>
     <use xlink:href="#DejaVuSans-6e" transform="translate(517.28125 0)"/>
     <use xlink:href="#DejaVuSans-63" transform="translate(580.660156 0)"/>
     <use xlink:href="#DejaVuSans-65" transform="translate(635.640625 0)"/>
    </g>
    <!-- object -->
    <g style="fill: #111111" transform="translate(85.68915 123.71651) scale(0.083 -0.083)">
     <defs>
      <path id="DejaVuSans-6f" d="M 1959 3097 
Q 1497 3097 1228 2736 
Q 959 2375 959 1747 
Q 959 1119 1226 758 
Q 1494 397 1959 397 
Q 2419 397 2687 759 
Q 2956 1122 2956 1747 
Q 2956 2369 2687 2733 
Q 2419 3097 1959 3097 
z
M 1959 3584 
Q 2709 3584 3137 3096 
Q 3566 2609 3566 1747 
Q 3566 888 3137 398 
Q 2709 -91 1959 -91 
Q 1206 -91 779 398 
Q 353 888 353 1747 
Q 353 2609 779 3096 
Q 1206 3584 1959 3584 
z
" transform="scale(0.015625)"/>
      <path id="DejaVuSans-62" d="M 3116 1747 
Q 3116 2381 2855 2742 
Q 2594 3103 2138 3103 
Q 1681 3103 1420 2742 
Q 1159 2381 1159 1747 
Q 1159 1113 1420 752 
Q 1681 391 2138 391 
Q 2594 391 2855 752 
Q 3116 1113 3116 1747 
z
M 1159 2969 
Q 1341 3281 1617 3432 
Q 1894 3584 2278 3584 
Q 2916 3584 3314 3078 
Q 3713 2572 3713 1747 
Q 3713 922 3314 415 
Q 2916 -91 2278 -91 
Q 1894 -91 1617 61 
Q 1341 213 1159 525 
L 1159 0 
L 581 0 
L 581 4863 
L 1159 4863 
L 1159 2969 
z
" transform="scale(0.015625)"/>
      <path id="DejaVuSans-6a" d="M 603 3500 
L 1178 3500 
L 1178 -63 
Q 1178 -731 923 -1031 
Q 669 -1331 103 -1331 
L -116 -1331 
L -116 -844 
L 38 -844 
Q 366 -844 484 -692 
Q 603 -541 603 -63 
L 603 3500 
z
M 603 4863 
L 1178 4863 
L 1178 4134 
L 603 4134 
L 603 4863 
z
" transform="scale(0.015625)"/>
     </defs>
     <use xlink:href="#DejaVuSans-6f"/>
     <use xlink:href="#DejaVuSans-62" transform="translate(61.181641 0)"/>
     <use xlink:href="#DejaVuSans-6a" transform="translate(124.658203 0)"/>
     <use xlink:href="#DejaVuSans-65" transform="translate(152.441406 0)"/>
     <use xlink:href="#DejaVuSans-63" transform="translate(213.964844 0)"/>
     <use xlink:href="#DejaVuSans-74" transform="translate(268.945312 0)"/>
    </g>
   </g>
   <g id="text_4">
    <!-- Deterministic -->
    <g style="fill: #111111" transform="translate(218.653376 114.10699) scale(0.083 -0.083)">
     <defs>
      <path id="DejaVuSans-44" d="M 1259 4147 
L 1259 519 
L 2022 519 
Q 2988 519 3436 956 
Q 3884 1394 3884 2338 
Q 3884 3275 3436 3711 
Q 2988 4147 2022 4147 
L 1259 4147 
z
M 628 4666 
L 1925 4666 
Q 3281 4666 3915 4102 
Q 4550 3538 4550 2338 
Q 4550 1131 3912 565 
Q 3275 0 1925 0 
L 628 0 
L 628 4666 
z
" transform="scale(0.015625)"/>
      <path id="DejaVuSans-6d" d="M 3328 2828 
Q 3544 3216 3844 3400 
Q 4144 3584 4550 3584 
Q 5097 3584 5394 3201 
Q 5691 2819 5691 2113 
L 5691 0 
L 5113 0 
L 5113 2094 
Q 5113 2597 4934 2840 
Q 4756 3084 4391 3084 
Q 3944 3084 3684 2787 
Q 3425 2491 3425 1978 
L 3425 0 
L 2847 0 
L 2847 2094 
Q 2847 2600 2669 2842 
Q 2491 3084 2119 3084 
Q 1678 3084 1418 2786 
Q 1159 2488 1159 1978 
L 1159 0 
L 581 0 
L 581 3500 
L 1159 3500 
L 1159 2956 
Q 1356 3278 1631 3431 
Q 1906 3584 2284 3584 
Q 2666 3584 2933 3390 
Q 3200 3197 3328 2828 
z
" transform="scale(0.015625)"/>
     </defs>
     <use xlink:href="#DejaVuSans-44"/>
     <use xlink:href="#DejaVuSans-65" transform="translate(77.001953 0)"/>
     <use xlink:href="#DejaVuSans-74" transform="translate(138.525391 0)"/>
     <use xlink:href="#DejaVuSans-65" transform="translate(177.734375 0)"/>
     <use xlink:href="#DejaVuSans-72" transform="translate(239.257812 0)"/>
     <use xlink:href="#DejaVuSans-6d" transform="translate(278.621094 0)"/>
     <use xlink:href="#DejaVuSans-69" transform="translate(376.033203 0)"/>
     <use xlink:href="#DejaVuSans-6e" transform="translate(403.816406 0)"/>
     <use xlink:href="#DejaVuSans-69" transform="translate(467.195312 0)"/>
     <use xlink:href="#DejaVuSans-73" transform="translate(494.978516 0)"/>
     <use xlink:href="#DejaVuSans-74" transform="translate(547.078125 0)"/>
     <use xlink:href="#DejaVuSans-69" transform="translate(586.287109 0)"/>
     <use xlink:href="#DejaVuSans-63" transform="translate(614.070312 0)"/>
    </g>
    <!-- canonicalisation -->
    <g style="fill: #111111" transform="translate(212.855696 123.71651) scale(0.083 -0.083)">
     <defs>
      <path id="DejaVuSans-61" d="M 2194 1759 
Q 1497 1759 1228 1600 
Q 959 1441 959 1056 
Q 959 750 1161 570 
Q 1363 391 1709 391 
Q 2188 391 2477 730 
Q 2766 1069 2766 1631 
L 2766 1759 
L 2194 1759 
z
M 3341 1997 
L 3341 0 
L 2766 0 
L 2766 531 
Q 2569 213 2275 61 
Q 1981 -91 1556 -91 
Q 1019 -91 701 211 
Q 384 513 384 1019 
Q 384 1609 779 1909 
Q 1175 2209 1959 2209 
L 2766 2209 
L 2766 2266 
Q 2766 2663 2505 2880 
Q 2244 3097 1772 3097 
Q 1472 3097 1187 3025 
Q 903 2953 641 2809 
L 641 3341 
Q 956 3463 1253 3523 
Q 1550 3584 1831 3584 
Q 2591 3584 2966 3190 
Q 3341 2797 3341 1997 
z
" transform="scale(0.015625)"/>
      <path id="DejaVuSans-6c" d="M 603 4863 
L 1178 4863 
L 1178 0 
L 603 0 
L 603 4863 
z
" transform="scale(0.015625)"/>
     </defs>
     <use xlink:href="#DejaVuSans-63"/>
     <use xlink:href="#DejaVuSans-61" transform="translate(54.980469 0)"/>
     <use xlink:href="#DejaVuSans-6e" transform="translate(116.259766 0)"/>
     <use xlink:href="#DejaVuSans-6f" transform="translate(179.638672 0)"/>
     <use xlink:href="#DejaVuSans-6e" transform="translate(240.820312 0)"/>
     <use xlink:href="#DejaVuSans-69" transform="translate(304.199219 0)"/>
     <use xlink:href="#DejaVuSans-63" transform="translate(331.982422 0)"/>
     <use xlink:href="#DejaVuSans-61" transform="translate(386.962891 0)"/>
     <use xlink:href="#DejaVuSans-6c" transform="translate(448.242188 0)"/>
     <use xlink:href="#DejaVuSans-69" transform="translate(476.025391 0)"/>
     <use xlink:href="#DejaVuSans-73" transform="translate(503.808594 0)"/>
     <use xlink:href="#DejaVuSans-61" transform="translate(555.908203 0)"/>
     <use xlink:href="#DejaVuSans-74" transform="translate(617.1875 0)"/>
     <use xlink:href="#DejaVuSans-69" transform="translate(656.396484 0)"/>
     <use xlink:href="#DejaVuSans-6f" transform="translate(684.179688 0)"/>
     <use xlink:href="#DejaVuSans-6e" transform="translate(745.361328 0)"/>
    </g>
   </g>
   <g id="text_5">
    <!-- SHA-256 -->
    <g style="fill: #111111" transform="translate(383.483249 114.10699) scale(0.083 -0.083)">
     <defs>
      <path id="DejaVuSans-53" d="M 3425 4513 
L 3425 3897 
Q 3066 4069 2747 4153 
Q 2428 4238 2131 4238 
Q 1616 4238 1336 4038 
Q 1056 3838 1056 3469 
Q 1056 3159 1242 3001 
Q 1428 2844 1947 2747 
L 2328 2669 
Q 3034 2534 3370 2195 
Q 3706 1856 3706 1288 
Q 3706 609 3251 259 
Q 2797 -91 1919 -91 
Q 1588 -91 1214 -16 
Q 841 59 441 206 
L 441 856 
Q 825 641 1194 531 
Q 1563 422 1919 422 
Q 2459 422 2753 634 
Q 3047 847 3047 1241 
Q 3047 1584 2836 1778 
Q 2625 1972 2144 2069 
L 1759 2144 
Q 1053 2284 737 2584 
Q 422 2884 422 3419 
Q 422 4038 858 4394 
Q 1294 4750 2059 4750 
Q 2388 4750 2728 4690 
Q 3069 4631 3425 4513 
z
" transform="scale(0.015625)"/>
      <path id="DejaVuSans-48" d="M 628 4666 
L 1259 4666 
L 1259 2753 
L 3553 2753 
L 3553 4666 
L 4184 4666 
L 4184 0 
L 3553 0 
L 3553 2222 
L 1259 2222 
L 1259 0 
L 628 0 
L 628 4666 
z
" transform="scale(0.015625)"/>
      <path id="DejaVuSans-41" d="M 2188 4044 
L 1331 1722 
L 3047 1722 
L 2188 4044 
z
M 1831 4666 
L 2547 4666 
L 4325 0 
L 3669 0 
L 3244 1197 
L 1141 1197 
L 716 0 
L 50 0 
L 1831 4666 
z
" transform="scale(0.015625)"/>
      <path id="DejaVuSans-2d" d="M 313 2009 
L 1997 2009 
L 1997 1497 
L 313 1497 
L 313 2009 
z
" transform="scale(0.015625)"/>
      <path id="DejaVuSans-32" d="M 1228 531 
L 3431 531 
L 3431 0 
L 469 0 
L 469 531 
Q 828 903 1448 1529 
Q 2069 2156 2228 2338 
Q 2531 2678 2651 2914 
Q 2772 3150 2772 3378 
Q 2772 3750 2511 3984 
Q 2250 4219 1831 4219 
Q 1534 4219 1204 4116 
Q 875 4013 500 3803 
L 500 4441 
Q 881 4594 1212 4672 
Q 1544 4750 1819 4750 
Q 2544 4750 2975 4387 
Q 3406 4025 3406 3419 
Q 3406 3131 3298 2873 
Q 3191 2616 2906 2266 
Q 2828 2175 2409 1742 
Q 1991 1309 1228 531 
z
" transform="scale(0.015625)"/>
      <path id="DejaVuSans-35" d="M 691 4666 
L 3169 4666 
L 3169 4134 
L 1269 4134 
L 1269 2991 
Q 1406 3038 1543 3061 
Q 1681 3084 1819 3084 
Q 2600 3084 3056 2656 
Q 3513 2228 3513 1497 
Q 3513 744 3044 326 
Q 2575 -91 1722 -91 
Q 1428 -91 1123 -41 
Q 819 9 494 109 
L 494 744 
Q 775 591 1075 516 
Q 1375 441 1709 441 
Q 2250 441 2565 725 
Q 2881 1009 2881 1497 
Q 2881 1984 2565 2268 
Q 2250 2553 1709 2553 
Q 1456 2553 1204 2497 
Q 953 2441 691 2322 
L 691 4666 
z
" transform="scale(0.015625)"/>
      <path id="DejaVuSans-36" d="M 2113 2584 
Q 1688 2584 1439 2293 
Q 1191 2003 1191 1497 
Q 1191 994 1439 701 
Q 1688 409 2113 409 
Q 2538 409 2786 701 
Q 3034 994 3034 1497 
Q 3034 2003 2786 2293 
Q 2538 2584 2113 2584 
z
M 3366 4563 
L 3366 3988 
Q 3128 4100 2886 4159 
Q 2644 4219 2406 4219 
Q 1781 4219 1451 3797 
Q 1122 3375 1075 2522 
Q 1259 2794 1537 2939 
Q 1816 3084 2150 3084 
Q 2853 3084 3261 2657 
Q 3669 2231 3669 1497 
Q 3669 778 3244 343 
Q 2819 -91 2113 -91 
Q 1303 -91 875 529 
Q 447 1150 447 2328 
Q 447 3434 972 4092 
Q 1497 4750 2381 4750 
Q 2619 4750 2861 4703 
Q 3103 4656 3366 4563 
z
" transform="scale(0.015625)"/>
     </defs>
     <use xlink:href="#DejaVuSans-53"/>
     <use xlink:href="#DejaVuSans-48" transform="translate(63.476562 0)"/>
     <use xlink:href="#DejaVuSans-41" transform="translate(138.671875 0)"/>
     <use xlink:href="#DejaVuSans-2d" transform="translate(204.830078 0)"/>
     <use xlink:href="#DejaVuSans-32" transform="translate(240.914062 0)"/>
     <use xlink:href="#DejaVuSans-35" transform="translate(304.537109 0)"/>
     <use xlink:href="#DejaVuSans-36" transform="translate(368.160156 0)"/>
    </g>
    <!-- leaf hash -->
    <g style="fill: #111111" transform="translate(382.40814 123.71651) scale(0.083 -0.083)">
     <defs>
      <path id="DejaVuSans-66" d="M 2375 4863 
L 2375 4384 
L 1825 4384 
Q 1516 4384 1395 4259 
Q 1275 4134 1275 3809 
L 1275 3500 
L 2222 3500 
L 2222 3053 
L 1275 3053 
L 1275 0 
L 697 0 
L 697 3053 
L 147 3053 
L 147 3500 
L 697 3500 
L 697 3744 
Q 697 4328 969 4595 
Q 1241 4863 1831 4863 
L 2375 4863 
z
" transform="scale(0.015625)"/>
      <path id="DejaVuSans-20" transform="scale(0.015625)"/>
      <path id="DejaVuSans-68" d="M 3513 2113 
L 3513 0 
L 2938 0 
L 2938 2094 
Q 2938 2591 2744 2837 
Q 2550 3084 2163 3084 
Q 1697 3084 1428 2787 
Q 1159 2491 1159 1978 
L 1159 0 
L 581 0 
L 581 4863 
L 1159 4863 
L 1159 2956 
Q 1366 3272 1645 3428 
Q 1925 3584 2291 3584 
Q 2894 3584 3203 3211 
Q 3513 2838 3513 2113 
z
" transform="scale(0.015625)"/>
     </defs>
     <use xlink:href="#DejaVuSans-6c"/>
     <use xlink:href="#DejaVuSans-65" transform="translate(27.783203 0)"/>
     <use xlink:href="#DejaVuSans-61" transform="translate(89.306641 0)"/>
     <use xlink:href="#DejaVuSans-66" transform="translate(150.585938 0)"/>
     <use xlink:href="#DejaVuSans-20" transform="translate(185.791016 0)"/>
     <use xlink:href="#DejaVuSans-68" transform="translate(217.578125 0)"/>
     <use xlink:href="#DejaVuSans-61" transform="translate(280.957031 0)"/>
     <use xlink:href="#DejaVuSans-73" transform="translate(342.236328 0)"/>
     <use xlink:href="#DejaVuSans-68" transform="translate(394.335938 0)"/>
    </g>
   </g>
   <g id="text_6">
    <!-- Merkle append -->
    <g style="fill: #111111" transform="translate(546.622392 114.10699) scale(0.083 -0.083)">
     <defs>
      <path id="DejaVuSans-4d" d="M 628 4666 
L 1569 4666 
L 2759 1491 
L 3956 4666 
L 4897 4666 
L 4897 0 
L 4281 0 
L 4281 4097 
L 3078 897 
L 2444 897 
L 1241 4097 
L 1241 0 
L 628 0 
L 628 4666 
z
" transform="scale(0.015625)"/>
      <path id="DejaVuSans-6b" d="M 581 4863 
L 1159 4863 
L 1159 1991 
L 2875 3500 
L 3609 3500 
L 1753 1863 
L 3688 0 
L 2938 0 
L 1159 1709 
L 1159 0 
L 581 0 
L 581 4863 
z
" transform="scale(0.015625)"/>
      <path id="DejaVuSans-70" d="M 1159 525 
L 1159 -1331 
L 581 -1331 
L 581 3500 
L 1159 3500 
L 1159 2969 
Q 1341 3281 1617 3432 
Q 1894 3584 2278 3584 
Q 2916 3584 3314 3078 
Q 3713 2572 3713 1747 
Q 3713 922 3314 415 
Q 2916 -91 2278 -91 
Q 1894 -91 1617 61 
Q 1341 213 1159 525 
z
M 3116 1747 
Q 3116 2381 2855 2742 
Q 2594 3103 2138 3103 
Q 1681 3103 1420 2742 
Q 1159 2381 1159 1747 
Q 1159 1113 1420 752 
Q 1681 391 2138 391 
Q 2594 391 2855 752 
Q 3116 1113 3116 1747 
z
" transform="scale(0.015625)"/>
     </defs>
     <use xlink:href="#DejaVuSans-4d"/>
     <use xlink:href="#DejaVuSans-65" transform="translate(86.279297 0)"/>
     <use xlink:href="#DejaVuSans-72" transform="translate(147.802734 0)"/>
     <use xlink:href="#DejaVuSans-6b" transform="translate(188.916016 0)"/>
     <use xlink:href="#DejaVuSans-6c" transform="translate(246.826172 0)"/>
     <use xlink:href="#DejaVuSans-65" transform="translate(274.609375 0)"/>
     <use xlink:href="#DejaVuSans-20" transform="translate(336.132812 0)"/>
     <use xlink:href="#DejaVuSans-61" transform="translate(367.919922 0)"/>
     <use xlink:href="#DejaVuSans-70" transform="translate(429.199219 0)"/>
     <use xlink:href="#DejaVuSans-70" transform="translate(492.675781 0)"/>
     <use xlink:href="#DejaVuSans-65" transform="translate(556.152344 0)"/>
     <use xlink:href="#DejaVuSans-6e" transform="translate(617.675781 0)"/>
     <use xlink:href="#DejaVuSans-64" transform="translate(681.054688 0)"/>
    </g>
    <!-- and checkpoint root -->
    <g style="fill: #111111" transform="translate(536.023681 123.71651) scale(0.083 -0.083)">
     <use xlink:href="#DejaVuSans-61"/>
     <use xlink:href="#DejaVuSans-6e" transform="translate(61.279297 0)"/>
     <use xlink:href="#DejaVuSans-64" transform="translate(124.658203 0)"/>
     <use xlink:href="#DejaVuSans-20" transform="translate(188.134766 0)"/>
     <use xlink:href="#DejaVuSans-63" transform="translate(219.921875 0)"/>
     <use xlink:href="#DejaVuSans-68" transform="translate(274.902344 0)"/>
     <use xlink:href="#DejaVuSans-65" transform="translate(338.28125 0)"/>
     <use xlink:href="#DejaVuSans-63" transform="translate(399.804688 0)"/>
     <use xlink:href="#DejaVuSans-6b" transform="translate(454.785156 0)"/>
     <use xlink:href="#DejaVuSans-70" transform="translate(512.695312 0)"/>
     <use xlink:href="#DejaVuSans-6f" transform="translate(576.171875 0)"/>
     <use xlink:href="#DejaVuSans-69" transform="translate(637.353516 0)"/>
     <use xlink:href="#DejaVuSans-6e" transform="translate(665.136719 0)"/>
     <use xlink:href="#DejaVuSans-74" transform="translate(728.515625 0)"/>
     <use xlink:href="#DejaVuSans-20" transform="translate(767.724609 0)"/>
     <use xlink:href="#DejaVuSans-72" transform="translate(799.511719 0)"/>
     <use xlink:href="#DejaVuSans-6f" transform="translate(838.375 0)"/>
     <use xlink:href="#DejaVuSans-6f" transform="translate(899.556641 0)"/>
     <use xlink:href="#DejaVuSans-74" transform="translate(960.738281 0)"/>
    </g>
   </g>
   <g id="text_7">
    <!-- Receipt + -->
    <g style="fill: #111111" transform="translate(557.224994 198.54354) scale(0.083 -0.083)">
     <defs>
      <path id="DejaVuSans-52" d="M 2841 2188 
Q 3044 2119 3236 1894 
Q 3428 1669 3622 1275 
L 4263 0 
L 3584 0 
L 2988 1197 
Q 2756 1666 2539 1819 
Q 2322 1972 1947 1972 
L 1259 1972 
L 1259 0 
L 628 0 
L 628 4666 
L 2053 4666 
Q 2853 4666 3247 4331 
Q 3641 3997 3641 3322 
Q 3641 2881 3436 2590 
Q 3231 2300 2841 2188 
z
M 1259 4147 
L 1259 2491 
L 2053 2491 
Q 2509 2491 2742 2702 
Q 2975 2913 2975 3322 
Q 2975 3731 2742 3939 
Q 2509 4147 2053 4147 
L 1259 4147 
z
" transform="scale(0.015625)"/>
      <path id="DejaVuSans-2b" d="M 2944 4013 
L 2944 2272 
L 4684 2272 
L 4684 1741 
L 2944 1741 
L 2944 0 
L 2419 0 
L 2419 1741 
L 678 1741 
L 678 2272 
L 2419 2272 
L 2419 4013 
L 2944 4013 
z
" transform="scale(0.015625)"/>
     </defs>
     <use xlink:href="#DejaVuSans-52"/>
     <use xlink:href="#DejaVuSans-65" transform="translate(64.982422 0)"/>
     <use xlink:href="#DejaVuSans-63" transform="translate(126.505859 0)"/>
     <use xlink:href="#DejaVuSans-65" transform="translate(181.486328 0)"/>
     <use xlink:href="#DejaVuSans-69" transform="translate(243.009766 0)"/>
     <use xlink:href="#DejaVuSans-70" transform="translate(270.792969 0)"/>
     <use xlink:href="#DejaVuSans-74" transform="translate(334.269531 0)"/>
     <use xlink:href="#DejaVuSans-20" transform="translate(373.478516 0)"/>
     <use xlink:href="#DejaVuSans-2b" transform="translate(405.265625 0)"/>
    </g>
    <!-- inclusion proof -->
    <g style="fill: #111111" transform="translate(547.08408 208.153059) scale(0.083 -0.083)">
     <use xlink:href="#DejaVuSans-69"/>
     <use xlink:href="#DejaVuSans-6e" transform="translate(27.783203 0)"/>
     <use xlink:href="#DejaVuSans-63" transform="translate(91.162109 0)"/>
     <use xlink:href="#DejaVuSans-6c" transform="translate(146.142578 0)"/>
     <use xlink:href="#DejaVuSans-75" transform="translate(173.925781 0)"/>
     <use xlink:href="#DejaVuSans-73" transform="translate(237.304688 0)"/>
     <use xlink:href="#DejaVuSans-69" transform="translate(289.404297 0)"/>
     <use xlink:href="#DejaVuSans-6f" transform="translate(317.1875 0)"/>
     <use xlink:href="#DejaVuSans-6e" transform="translate(378.369141 0)"/>
     <use xlink:href="#DejaVuSans-20" transform="translate(441.748047 0)"/>
     <use xlink:href="#DejaVuSans-70" transform="translate(473.535156 0)"/>
     <use xlink:href="#DejaVuSans-72" transform="translate(537.011719 0)"/>
     <use xlink:href="#DejaVuSans-6f" transform="translate(575.875 0)"/>
     <use xlink:href="#DejaVuSans-6f" transform="translate(637.056641 0)"/>
     <use xlink:href="#DejaVuSans-66" transform="translate(698.238281 0)"/>
    </g>
   </g>
   <g id="text_8">
    <!-- Verifier checks -->
    <g style="fill: #111111" transform="translate(370.968405 198.54354) scale(0.083 -0.083)">
     <defs>
      <path id="DejaVuSans-56" d="M 1831 0 
L 50 4666 
L 709 4666 
L 2188 738 
L 3669 4666 
L 4325 4666 
L 2547 0 
L 1831 0 
z
" transform="scale(0.015625)"/>
     </defs>
     <use xlink:href="#DejaVuSans-56"/>
     <use xlink:href="#DejaVuSans-65" transform="translate(60.658203 0)"/>
     <use xlink:href="#DejaVuSans-72" transform="translate(122.181641 0)"/>
     <use xlink:href="#DejaVuSans-69" transform="translate(163.294922 0)"/>
     <use xlink:href="#DejaVuSans-66" transform="translate(191.078125 0)"/>
     <use xlink:href="#DejaVuSans-69" transform="translate(226.283203 0)"/>
     <use xlink:href="#DejaVuSans-65" transform="translate(254.066406 0)"/>
     <use xlink:href="#DejaVuSans-72" transform="translate(315.589844 0)"/>
     <use xlink:href="#DejaVuSans-20" transform="translate(356.703125 0)"/>
     <use xlink:href="#DejaVuSans-63" transform="translate(388.490234 0)"/>
     <use xlink:href="#DejaVuSans-68" transform="translate(443.470703 0)"/>
     <use xlink:href="#DejaVuSans-65" transform="translate(506.849609 0)"/>
     <use xlink:href="#DejaVuSans-63" transform="translate(568.373047 0)"/>
     <use xlink:href="#DejaVuSans-6b" transform="translate(623.353516 0)"/>
     <use xlink:href="#DejaVuSans-73" transform="translate(681.263672 0)"/>
    </g>
    <!-- root, path and receipt -->
    <g style="fill: #111111" transform="translate(356.150312 208.153059) scale(0.083 -0.083)">
     <defs>
      <path id="DejaVuSans-2c" d="M 750 794 
L 1409 794 
L 1409 256 
L 897 -744 
L 494 -744 
L 750 256 
L 750 794 
z
" transform="scale(0.015625)"/>
     </defs>
     <use xlink:href="#DejaVuSans-72"/>
     <use xlink:href="#DejaVuSans-6f" transform="translate(38.863281 0)"/>
     <use xlink:href="#DejaVuSans-6f" transform="translate(100.044922 0)"/>
     <use xlink:href="#DejaVuSans-74" transform="translate(161.226562 0)"/>
     <use xlink:href="#DejaVuSans-2c" transform="translate(200.435547 0)"/>
     <use xlink:href="#DejaVuSans-20" transform="translate(232.222656 0)"/>
     <use xlink:href="#DejaVuSans-70" transform="translate(264.009766 0)"/>
     <use xlink:href="#DejaVuSans-61" transform="translate(327.486328 0)"/>
     <use xlink:href="#DejaVuSans-74" transform="translate(388.765625 0)"/>
     <use xlink:href="#DejaVuSans-68" transform="translate(427.974609 0)"/>
     <use xlink:href="#DejaVuSans-20" transform="translate(491.353516 0)"/>
     <use xlink:href="#DejaVuSans-61" transform="translate(523.140625 0)"/>
     <use xlink:href="#DejaVuSans-6e" transform="translate(584.419922 0)"/>
     <use xlink:href="#DejaVuSans-64" transform="translate(647.798828 0)"/>
     <use xlink:href="#DejaVuSans-20" transform="translate(711.275391 0)"/>
     <use xlink:href="#DejaVuSans-72" transform="translate(743.0625 0)"/>
     <use xlink:href="#DejaVuSans-65" transform="translate(781.925781 0)"/>
     <use xlink:href="#DejaVuSans-63" transform="translate(843.449219 0)"/>
     <use xlink:href="#DejaVuSans-65" transform="translate(898.429688 0)"/>
     <use xlink:href="#DejaVuSans-69" transform="translate(959.953125 0)"/>
     <use xlink:href="#DejaVuSans-70" transform="translate(987.736328 0)"/>
     <use xlink:href="#DejaVuSans-74" transform="translate(1051.212891 0)"/>
    </g>
   </g>
   <g id="text_9">
    <!-- Tamper rejection -->
    <g style="fill: #111111" transform="translate(191.787653 198.634424) scale(0.08 -0.08)">
     <use xlink:href="#DejaVuSans-54"/>
     <use xlink:href="#DejaVuSans-61" transform="translate(44.583984 0)"/>
     <use xlink:href="#DejaVuSans-6d" transform="translate(105.863281 0)"/>
     <use xlink:href="#DejaVuSans-70" transform="translate(203.275391 0)"/>
     <use xlink:href="#DejaVuSans-65" transform="translate(266.751953 0)"/>
     <use xlink:href="#DejaVuSans-72" transform="translate(328.275391 0)"/>
     <use xlink:href="#DejaVuSans-20" transform="translate(369.388672 0)"/>
     <use xlink:href="#DejaVuSans-72" transform="translate(401.175781 0)"/>
     <use xlink:href="#DejaVuSans-65" transform="translate(440.039062 0)"/>
     <use xlink:href="#DejaVuSans-6a" transform="translate(501.5625 0)"/>
     <use xlink:href="#DejaVuSans-65" transform="translate(529.345703 0)"/>
     <use xlink:href="#DejaVuSans-63" transform="translate(590.869141 0)"/>
     <use xlink:href="#DejaVuSans-74" transform="translate(645.849609 0)"/>
     <use xlink:href="#DejaVuSans-69" transform="translate(685.058594 0)"/>
     <use xlink:href="#DejaVuSans-6f" transform="translate(712.841797 0)"/>
     <use xlink:href="#DejaVuSans-6e" transform="translate(774.023438 0)"/>
    </g>
    <!-- and property tests -->
    <g style="fill: #111111" transform="translate(188.328903 207.896612) scale(0.08 -0.08)">
     <defs>
      <path id="DejaVuSans-79" d="M 2059 -325 
Q 1816 -950 1584 -1140 
Q 1353 -1331 966 -1331 
L 506 -1331 
L 506 -850 
L 844 -850 
Q 1081 -850 1212 -737 
Q 1344 -625 1503 -206 
L 1606 56 
L 191 3500 
L 800 3500 
L 1894 763 
L 2988 3500 
L 3597 3500 
L 2059 -325 
z
" transform="scale(0.015625)"/>
     </defs>
     <use xlink:href="#DejaVuSans-61"/>
     <use xlink:href="#DejaVuSans-6e" transform="translate(61.279297 0)"/>
     <use xlink:href="#DejaVuSans-64" transform="translate(124.658203 0)"/>
     <use xlink:href="#DejaVuSans-20" transform="translate(188.134766 0)"/>
     <use xlink:href="#DejaVuSans-70" transform="translate(219.921875 0)"/>
     <use xlink:href="#DejaVuSans-72" transform="translate(283.398438 0)"/>
     <use xlink:href="#DejaVuSans-6f" transform="translate(322.261719 0)"/>
     <use xlink:href="#DejaVuSans-70" transform="translate(383.443359 0)"/>
     <use xlink:href="#DejaVuSans-65" transform="translate(446.919922 0)"/>
     <use xlink:href="#DejaVuSans-72" transform="translate(508.443359 0)"/>
     <use xlink:href="#DejaVuSans-74" transform="translate(549.556641 0)"/>
     <use xlink:href="#DejaVuSans-79" transform="translate(588.765625 0)"/>
     <use xlink:href="#DejaVuSans-20" transform="translate(647.945312 0)"/>
     <use xlink:href="#DejaVuSans-74" transform="translate(679.732422 0)"/>
     <use xlink:href="#DejaVuSans-65" transform="translate(718.941406 0)"/>
     <use xlink:href="#DejaVuSans-73" transform="translate(780.464844 0)"/>
     <use xlink:href="#DejaVuSans-74" transform="translate(832.564453 0)"/>
     <use xlink:href="#DejaVuSans-73" transform="translate(871.773438 0)"/>
    </g>
   </g>
   <g id="text_10">
    <!-- Local Python reference implementation only; not production performance or external witnessing. -->
    <g style="fill: #111111" transform="translate(206.848357 305.375797) scale(0.083 -0.083)">
     <defs>
      <path id="DejaVuSans-4c" d="M 628 4666 
L 1259 4666 
L 1259 531 
L 3531 531 
L 3531 0 
L 628 0 
L 628 4666 
z
" transform="scale(0.015625)"/>
      <path id="DejaVuSans-50" d="M 1259 4147 
L 1259 2394 
L 2053 2394 
Q 2494 2394 2734 2622 
Q 2975 2850 2975 3272 
Q 2975 3691 2734 3919 
Q 2494 4147 2053 4147 
L 1259 4147 
z
M 628 4666 
L 2053 4666 
Q 2838 4666 3239 4311 
Q 3641 3956 3641 3272 
Q 3641 2581 3239 2228 
Q 2838 1875 2053 1875 
L 1259 1875 
L 1259 0 
L 628 0 
L 628 4666 
z
" transform="scale(0.015625)"/>
      <path id="DejaVuSans-3b" d="M 750 3309 
L 1409 3309 
L 1409 2516 
L 750 2516 
L 750 3309 
z
M 750 794 
L 1409 794 
L 1409 256 
L 897 -744 
L 494 -744 
L 750 256 
L 750 794 
z
" transform="scale(0.015625)"/>
      <path id="DejaVuSans-78" d="M 3513 3500 
L 2247 1797 
L 3578 0 
L 2900 0 
L 1881 1375 
L 863 0 
L 184 0 
L 1544 1831 
L 300 3500 
L 978 3500 
L 1906 2253 
L 2834 3500 
L 3513 3500 
z
" transform="scale(0.015625)"/>
      <path id="DejaVuSans-77" d="M 269 3500 
L 844 3500 
L 1563 769 
L 2278 3500 
L 2956 3500 
L 3675 769 
L 4391 3500 
L 4966 3500 
L 4050 0 
L 3372 0 
L 2619 2869 
L 1863 0 
L 1184 0 
L 269 3500 
z
" transform="scale(0.015625)"/>
      <path id="DejaVuSans-67" d="M 2906 1791 
Q 2906 2416 2648 2759 
Q 2391 3103 1925 3103 
Q 1463 3103 1205 2759 
Q 947 2416 947 1791 
Q 947 1169 1205 825 
Q 1463 481 1925 481 
Q 2391 481 2648 825 
Q 2906 1169 2906 1791 
z
M 3481 434 
Q 3481 -459 3084 -895 
Q 2688 -1331 1869 -1331 
Q 1566 -1331 1297 -1286 
Q 1028 -1241 775 -1147 
L 775 -588 
Q 1028 -725 1275 -790 
Q 1522 -856 1778 -856 
Q 2344 -856 2625 -561 
Q 2906 -266 2906 331 
L 2906 616 
Q 2728 306 2450 153 
Q 2172 0 1784 0 
Q 1141 0 747 490 
Q 353 981 353 1791 
Q 353 2603 747 3093 
Q 1141 3584 1784 3584 
Q 2172 3584 2450 3431 
Q 2728 3278 2906 2969 
L 2906 3500 
L 3481 3500 
L 3481 434 
z
" transform="scale(0.015625)"/>
      <path id="DejaVuSans-2e" d="M 684 794 
L 1344 794 
L 1344 0 
L 684 0 
L 684 794 
z
" transform="scale(0.015625)"/>
     </defs>
     <use xlink:href="#DejaVuSans-4c"/>
     <use xlink:href="#DejaVuSans-6f" transform="translate(53.962891 0)"/>
     <use xlink:href="#DejaVuSans-63" transform="translate(115.144531 0)"/>
     <use xlink:href="#DejaVuSans-61" transform="translate(170.125 0)"/>
     <use xlink:href="#DejaVuSans-6c" transform="translate(231.404297 0)"/>
     <use xlink:href="#DejaVuSans-20" transform="translate(259.1875 0)"/>
     <use xlink:href="#DejaVuSans-50" transform="translate(290.974609 0)"/>
     <use xlink:href="#DejaVuSans-79" transform="translate(351.277344 0)"/>
     <use xlink:href="#DejaVuSans-74" transform="translate(410.457031 0)"/>
     <use xlink:href="#DejaVuSans-68" transform="translate(449.666016 0)"/>
     <use xlink:href="#DejaVuSans-6f" transform="translate(513.044922 0)"/>
     <use xlink:href="#DejaVuSans-6e" transform="translate(574.226562 0)"/>
     <use xlink:href="#DejaVuSans-20" transform="translate(637.605469 0)"/>
     <use xlink:href="#DejaVuSans-72" transform="translate(669.392578 0)"/>
     <use xlink:href="#DejaVuSans-65" transform="translate(708.255859 0)"/>
     <use xlink:href="#DejaVuSans-66" transform="translate(769.779297 0)"/>
     <use xlink:href="#DejaVuSans-65" transform="translate(804.984375 0)"/>
     <use xlink:href="#DejaVuSans-72" transform="translate(866.507812 0)"/>
     <use xlink:href="#DejaVuSans-65" transform="translate(905.371094 0)"/>
     <use xlink:href="#DejaVuSans-6e" transform="translate(966.894531 0)"/>
     <use xlink:href="#DejaVuSans-63" transform="translate(1030.273438 0)"/>
     <use xlink:href="#DejaVuSans-65" transform="translate(1085.253906 0)"/>
     <use xlink:href="#DejaVuSans-20" transform="translate(1146.777344 0)"/>
     <use xlink:href="#DejaVuSans-69" transform="translate(1178.564453 0)"/>
     <use xlink:href="#DejaVuSans-6d" transform="translate(1206.347656 0)"/>
     <use xlink:href="#DejaVuSans-70" transform="translate(1303.759766 0)"/>
     <use xlink:href="#DejaVuSans-6c" transform="translate(1367.236328 0)"/>
     <use xlink:href="#DejaVuSans-65" transform="translate(1395.019531 0)"/>
     <use xlink:href="#DejaVuSans-6d" transform="translate(1456.542969 0)"/>
     <use xlink:href="#DejaVuSans-65" transform="translate(1553.955078 0)"/>
     <use xlink:href="#DejaVuSans-6e" transform="translate(1615.478516 0)"/>
     <use xlink:href="#DejaVuSans-74" transform="translate(1678.857422 0)"/>
     <use xlink:href="#DejaVuSans-61" transform="translate(1718.066406 0)"/>
     <use xlink:href="#DejaVuSans-74" transform="translate(1779.345703 0)"/>
     <use xlink:href="#DejaVuSans-69" transform="translate(1818.554688 0)"/>
     <use xlink:href="#DejaVuSans-6f" transform="translate(1846.337891 0)"/>
     <use xlink:href="#DejaVuSans-6e" transform="translate(1907.519531 0)"/>
     <use xlink:href="#DejaVuSans-20" transform="translate(1970.898438 0)"/>
     <use xlink:href="#DejaVuSans-6f" transform="translate(2002.685547 0)"/>
     <use xlink:href="#DejaVuSans-6e" transform="translate(2063.867188 0)"/>
     <use xlink:href="#DejaVuSans-6c" transform="translate(2127.246094 0)"/>
     <use xlink:href="#DejaVuSans-79" transform="translate(2155.029297 0)"/>
     <use xlink:href="#DejaVuSans-3b" transform="translate(2214.208984 0)"/>
     <use xlink:href="#DejaVuSans-20" transform="translate(2247.900391 0)"/>
     <use xlink:href="#DejaVuSans-6e" transform="translate(2279.6875 0)"/>
     <use xlink:href="#DejaVuSans-6f" transform="translate(2343.066406 0)"/>
     <use xlink:href="#DejaVuSans-74" transform="translate(2404.248047 0)"/>
     <use xlink:href="#DejaVuSans-20" transform="translate(2443.457031 0)"/>
     <use xlink:href="#DejaVuSans-70" transform="translate(2475.244141 0)"/>
     <use xlink:href="#DejaVuSans-72" transform="translate(2538.720703 0)"/>
     <use xlink:href="#DejaVuSans-6f" transform="translate(2577.583984 0)"/>
     <use xlink:href="#DejaVuSans-64" transform="translate(2638.765625 0)"/>
     <use xlink:href="#DejaVuSans-75" transform="translate(2702.242188 0)"/>
     <use xlink:href="#DejaVuSans-63" transform="translate(2765.621094 0)"/>
     <use xlink:href="#DejaVuSans-74" transform="translate(2820.601562 0)"/>
     <use xlink:href="#DejaVuSans-69" transform="translate(2859.810547 0)"/>
     <use xlink:href="#DejaVuSans-6f" transform="translate(2887.59375 0)"/>
     <use xlink:href="#DejaVuSans-6e" transform="translate(2948.775391 0)"/>
     <use xlink:href="#DejaVuSans-20" transform="translate(3012.154297 0)"/>
     <use xlink:href="#DejaVuSans-70" transform="translate(3043.941406 0)"/>
     <use xlink:href="#DejaVuSans-65" transform="translate(3107.417969 0)"/>
     <use xlink:href="#DejaVuSans-72" transform="translate(3168.941406 0)"/>
     <use xlink:href="#DejaVuSans-66" transform="translate(3210.054688 0)"/>
     <use xlink:href="#DejaVuSans-6f" transform="translate(3245.259766 0)"/>
     <use xlink:href="#DejaVuSans-72" transform="translate(3306.441406 0)"/>
     <use xlink:href="#DejaVuSans-6d" transform="translate(3345.804688 0)"/>
     <use xlink:href="#DejaVuSans-61" transform="translate(3443.216797 0)"/>
     <use xlink:href="#DejaVuSans-6e" transform="translate(3504.496094 0)"/>
     <use xlink:href="#DejaVuSans-63" transform="translate(3567.875 0)"/>
     <use xlink:href="#DejaVuSans-65" transform="translate(3622.855469 0)"/>
     <use xlink:href="#DejaVuSans-20" transform="translate(3684.378906 0)"/>
     <use xlink:href="#DejaVuSans-6f" transform="translate(3716.166016 0)"/>
     <use xlink:href="#DejaVuSans-72" transform="translate(3777.347656 0)"/>
     <use xlink:href="#DejaVuSans-20" transform="translate(3818.460938 0)"/>
     <use xlink:href="#DejaVuSans-65" transform="translate(3850.248047 0)"/>
     <use xlink:href="#DejaVuSans-78" transform="translate(3910.021484 0)"/>
     <use xlink:href="#DejaVuSans-74" transform="translate(3969.201172 0)"/>
     <use xlink:href="#DejaVuSans-65" transform="translate(4008.410156 0)"/>
     <use xlink:href="#DejaVuSans-72" transform="translate(4069.933594 0)"/>
     <use xlink:href="#DejaVuSans-6e" transform="translate(4109.296875 0)"/>
     <use xlink:href="#DejaVuSans-61" transform="translate(4172.675781 0)"/>
     <use xlink:href="#DejaVuSans-6c" transform="translate(4233.955078 0)"/>
     <use xlink:href="#DejaVuSans-20" transform="translate(4261.738281 0)"/>
     <use xlink:href="#DejaVuSans-77" transform="translate(4293.525391 0)"/>
     <use xlink:href="#DejaVuSans-69" transform="translate(4375.3125 0)"/>
     <use xlink:href="#DejaVuSans-74" transform="translate(4403.095703 0)"/>
     <use xlink:href="#DejaVuSans-6e" transform="translate(4442.304688 0)"/>
     <use xlink:href="#DejaVuSans-65" transform="translate(4505.683594 0)"/>
     <use xlink:href="#DejaVuSans-73" transform="translate(4567.207031 0)"/>
     <use xlink:href="#DejaVuSans-73" transform="translate(4619.306641 0)"/>
     <use xlink:href="#DejaVuSans-69" transform="translate(4671.40625 0)"/>
     <use xlink:href="#DejaVuSans-6e" transform="translate(4699.189453 0)"/>
     <use xlink:href="#DejaVuSans-67" transform="translate(4762.568359 0)"/>
     <use xlink:href="#DejaVuSans-2e" transform="translate(4826.044922 0)"/>
    </g>
   </g>
   <g id="text_11">
    <!-- A2 executed locally -->
    <g style="fill: #111111" transform="translate(184.799356 251.788908) scale(0.083 -0.083)">
     <use xlink:href="#DejaVuSans-41"/>
     <use xlink:href="#DejaVuSans-32" transform="translate(68.408203 0)"/>
     <use xlink:href="#DejaVuSans-20" transform="translate(132.03125 0)"/>
     <use xlink:href="#DejaVuSans-65" transform="translate(163.818359 0)"/>
     <use xlink:href="#DejaVuSans-78" transform="translate(223.591797 0)"/>
     <use xlink:href="#DejaVuSans-65" transform="translate(279.646484 0)"/>
     <use xlink:href="#DejaVuSans-63" transform="translate(341.169922 0)"/>
     <use xlink:href="#DejaVuSans-75" transform="translate(396.150391 0)"/>
     <use xlink:href="#DejaVuSans-74" transform="translate(459.529297 0)"/>
     <use xlink:href="#DejaVuSans-65" transform="translate(498.738281 0)"/>
     <use xlink:href="#DejaVuSans-64" transform="translate(560.261719 0)"/>
     <use xlink:href="#DejaVuSans-20" transform="translate(623.738281 0)"/>
     <use xlink:href="#DejaVuSans-6c" transform="translate(655.525391 0)"/>
     <use xlink:href="#DejaVuSans-6f" transform="translate(683.308594 0)"/>
     <use xlink:href="#DejaVuSans-63" transform="translate(744.490234 0)"/>
     <use xlink:href="#DejaVuSans-61" transform="translate(799.470703 0)"/>
     <use xlink:href="#DejaVuSans-6c" transform="translate(860.75 0)"/>
     <use xlink:href="#DejaVuSans-6c" transform="translate(888.533203 0)"/>
     <use xlink:href="#DejaVuSans-79" transform="translate(916.316406 0)"/>
    </g>
    <!-- 1,000, 10,000 objects; 10 retained -->
    <g style="fill: #111111" transform="translate(153.350137 261.398427) scale(0.083 -0.083)">
     <defs>
      <path id="DejaVuSans-31" d="M 794 531 
L 1825 531 
L 1825 4091 
L 703 3866 
L 703 4441 
L 1819 4666 
L 2450 4666 
L 2450 531 
L 3481 531 
L 3481 0 
L 794 0 
L 794 531 
z
" transform="scale(0.015625)"/>
      <path id="DejaVuSans-30" d="M 2034 4250 
Q 1547 4250 1301 3770 
Q 1056 3291 1056 2328 
Q 1056 1369 1301 889 
Q 1547 409 2034 409 
Q 2525 409 2770 889 
Q 3016 1369 3016 2328 
Q 3016 3291 2770 3770 
Q 2525 4250 2034 4250 
z
M 2034 4750 
Q 2819 4750 3233 4129 
Q 3647 3509 3647 2328 
Q 3647 1150 3233 529 
Q 2819 -91 2034 -91 
Q 1250 -91 836 529 
Q 422 1150 422 2328 
Q 422 3509 836 4129 
Q 1250 4750 2034 4750 
z
" transform="scale(0.015625)"/>
     </defs>
     <use xlink:href="#DejaVuSans-31"/>
     <use xlink:href="#DejaVuSans-2c" transform="translate(63.623047 0)"/>
     <use xlink:href="#DejaVuSans-30" transform="translate(95.410156 0)"/>
     <use xlink:href="#DejaVuSans-30" transform="translate(159.033203 0)"/>
     <use xlink:href="#DejaVuSans-30" transform="translate(222.65625 0)"/>
     <use xlink:href="#DejaVuSans-2c" transform="translate(286.279297 0)"/>
     <use xlink:href="#DejaVuSans-20" transform="translate(318.066406 0)"/>
     <use xlink:href="#DejaVuSans-31" transform="translate(349.853516 0)"/>
     <use xlink:href="#DejaVuSans-30" transform="translate(413.476562 0)"/>
     <use xlink:href="#DejaVuSans-2c" transform="translate(477.099609 0)"/>
     <use xlink:href="#DejaVuSans-30" transform="translate(508.886719 0)"/>
     <use xlink:href="#DejaVuSans-30" transform="translate(572.509766 0)"/>
     <use xlink:href="#DejaVuSans-30" transform="translate(636.132812 0)"/>
     <use xlink:href="#DejaVuSans-20" transform="translate(699.755859 0)"/>
     <use xlink:href="#DejaVuSans-6f" transform="translate(731.542969 0)"/>
     <use xlink:href="#DejaVuSans-62" transform="translate(792.724609 0)"/>
     <use xlink:href="#DejaVuSans-6a" transform="translate(856.201172 0)"/>
     <use xlink:href="#DejaVuSans-65" transform="translate(883.984375 0)"/>
     <use xlink:href="#DejaVuSans-63" transform="translate(945.507812 0)"/>
     <use xlink:href="#DejaVuSans-74" transform="translate(1000.488281 0)"/>
     <use xlink:href="#DejaVuSans-73" transform="translate(1039.697266 0)"/>
     <use xlink:href="#DejaVuSans-3b" transform="translate(1091.796875 0)"/>
     <use xlink:href="#DejaVuSans-20" transform="translate(1125.488281 0)"/>
     <use xlink:href="#DejaVuSans-31" transform="translate(1157.275391 0)"/>
     <use xlink:href="#DejaVuSans-30" transform="translate(1220.898438 0)"/>
     <use xlink:href="#DejaVuSans-20" transform="translate(1284.521484 0)"/>
     <use xlink:href="#DejaVuSans-72" transform="translate(1316.308594 0)"/>
     <use xlink:href="#DejaVuSans-65" transform="translate(1355.171875 0)"/>
     <use xlink:href="#DejaVuSans-74" transform="translate(1416.695312 0)"/>
     <use xlink:href="#DejaVuSans-61" transform="translate(1455.904297 0)"/>
     <use xlink:href="#DejaVuSans-69" transform="translate(1517.183594 0)"/>
     <use xlink:href="#DejaVuSans-6e" transform="translate(1544.966797 0)"/>
     <use xlink:href="#DejaVuSans-65" transform="translate(1608.345703 0)"/>
     <use xlink:href="#DejaVuSans-64" transform="translate(1669.869141 0)"/>
    </g>
    <!-- reps -->
    <g style="fill: #111111" transform="translate(216.3212 271.007947) scale(0.083 -0.083)">
     <use xlink:href="#DejaVuSans-72"/>
     <use xlink:href="#DejaVuSans-65" transform="translate(38.863281 0)"/>
     <use xlink:href="#DejaVuSans-70" transform="translate(100.386719 0)"/>
     <use xlink:href="#DejaVuSans-73" transform="translate(163.863281 0)"/>
    </g>
   </g>
   <g id="text_12">
    <!-- Tamper/receipt checks -->
    <g style="fill: #111111" transform="translate(389.851564 256.593667) scale(0.083 -0.083)">
     <defs>
      <path id="DejaVuSans-2f" d="M 1625 4666 
L 2156 4666 
L 531 -594 
L 0 -594 
L 1625 4666 
z
" transform="scale(0.015625)"/>
     </defs>
     <use xlink:href="#DejaVuSans-54"/>
     <use xlink:href="#DejaVuSans-61" transform="translate(44.583984 0)"/>
     <use xlink:href="#DejaVuSans-6d" transform="translate(105.863281 0)"/>
     <use xlink:href="#DejaVuSans-70" transform="translate(203.275391 0)"/>
     <use xlink:href="#DejaVuSans-65" transform="translate(266.751953 0)"/>
     <use xlink:href="#DejaVuSans-72" transform="translate(328.275391 0)"/>
     <use xlink:href="#DejaVuSans-2f" transform="translate(369.388672 0)"/>
     <use xlink:href="#DejaVuSans-72" transform="translate(403.080078 0)"/>
     <use xlink:href="#DejaVuSans-65" transform="translate(441.943359 0)"/>
     <use xlink:href="#DejaVuSans-63" transform="translate(503.466797 0)"/>
     <use xlink:href="#DejaVuSans-65" transform="translate(558.447266 0)"/>
     <use xlink:href="#DejaVuSans-69" transform="translate(619.970703 0)"/>
     <use xlink:href="#DejaVuSans-70" transform="translate(647.753906 0)"/>
     <use xlink:href="#DejaVuSans-74" transform="translate(711.230469 0)"/>
     <use xlink:href="#DejaVuSans-20" transform="translate(750.439453 0)"/>
     <use xlink:href="#DejaVuSans-63" transform="translate(782.226562 0)"/>
     <use xlink:href="#DejaVuSans-68" transform="translate(837.207031 0)"/>
     <use xlink:href="#DejaVuSans-65" transform="translate(900.585938 0)"/>
     <use xlink:href="#DejaVuSans-63" transform="translate(962.109375 0)"/>
     <use xlink:href="#DejaVuSans-6b" transform="translate(1017.089844 0)"/>
     <use xlink:href="#DejaVuSans-73" transform="translate(1075 0)"/>
    </g>
    <!-- 7/7 cases passed -->
    <g style="fill: #111111" transform="translate(400.917798 266.203187) scale(0.083 -0.083)">
     <defs>
      <path id="DejaVuSans-37" d="M 525 4666 
L 3525 4666 
L 3525 4397 
L 1831 0 
L 1172 0 
L 2766 4134 
L 525 4134 
L 525 4666 
z
" transform="scale(0.015625)"/>
     </defs>
     <use xlink:href="#DejaVuSans-37"/>
     <use xlink:href="#DejaVuSans-2f" transform="translate(63.623047 0)"/>
     <use xlink:href="#DejaVuSans-37" transform="translate(97.314453 0)"/>
     <use xlink:href="#DejaVuSans-20" transform="translate(160.9375 0)"/>
     <use xlink:href="#DejaVuSans-63" transform="translate(192.724609 0)"/>
     <use xlink:href="#DejaVuSans-61" transform="translate(247.705078 0)"/>
     <use xlink:href="#DejaVuSans-73" transform="translate(308.984375 0)"/>
     <use xlink:href="#DejaVuSans-65" transform="translate(361.083984 0)"/>
     <use xlink:href="#DejaVuSans-73" transform="translate(422.607422 0)"/>
     <use xlink:href="#DejaVuSans-20" transform="translate(474.707031 0)"/>
     <use xlink:href="#DejaVuSans-70" transform="translate(506.494141 0)"/>
     <use xlink:href="#DejaVuSans-61" transform="translate(569.970703 0)"/>
     <use xlink:href="#DejaVuSans-73" transform="translate(631.25 0)"/>
     <use xlink:href="#DejaVuSans-73" transform="translate(683.349609 0)"/>
     <use xlink:href="#DejaVuSans-65" transform="translate(735.449219 0)"/>
     <use xlink:href="#DejaVuSans-64" transform="translate(796.972656 0)"/>
    </g>
   </g>
   <g id="text_13">
    <!-- A1/A3 not executed -->
    <g style="fill: #111111" transform="translate(578.911479 256.593667) scale(0.083 -0.083)">
     <defs>
      <path id="DejaVuSans-33" d="M 2597 2516 
Q 3050 2419 3304 2112 
Q 3559 1806 3559 1356 
Q 3559 666 3084 287 
Q 2609 -91 1734 -91 
Q 1441 -91 1130 -33 
Q 819 25 488 141 
L 488 750 
Q 750 597 1062 519 
Q 1375 441 1716 441 
Q 2309 441 2620 675 
Q 2931 909 2931 1356 
Q 2931 1769 2642 2001 
Q 2353 2234 1838 2234 
L 1294 2234 
L 1294 2753 
L 1863 2753 
Q 2328 2753 2575 2939 
Q 2822 3125 2822 3475 
Q 2822 3834 2567 4026 
Q 2313 4219 1838 4219 
Q 1578 4219 1281 4162 
Q 984 4106 628 3988 
L 628 4550 
Q 988 4650 1302 4700 
Q 1616 4750 1894 4750 
Q 2613 4750 3031 4423 
Q 3450 4097 3450 3541 
Q 3450 3153 3228 2886 
Q 3006 2619 2597 2516 
z
" transform="scale(0.015625)"/>
     </defs>
     <use xlink:href="#DejaVuSans-41"/>
     <use xlink:href="#DejaVuSans-31" transform="translate(68.408203 0)"/>
     <use xlink:href="#DejaVuSans-2f" transform="translate(132.03125 0)"/>
     <use xlink:href="#DejaVuSans-41" transform="translate(165.722656 0)"/>
     <use xlink:href="#DejaVuSans-33" transform="translate(234.130859 0)"/>
     <use xlink:href="#DejaVuSans-20" transform="translate(297.753906 0)"/>
     <use xlink:href="#DejaVuSans-6e" transform="translate(329.541016 0)"/>
     <use xlink:href="#DejaVuSans-6f" transform="translate(392.919922 0)"/>
     <use xlink:href="#DejaVuSans-74" transform="translate(454.101562 0)"/>
     <use xlink:href="#DejaVuSans-20" transform="translate(493.310547 0)"/>
     <use xlink:href="#DejaVuSans-65" transform="translate(525.097656 0)"/>
     <use xlink:href="#DejaVuSans-78" transform="translate(584.871094 0)"/>
     <use xlink:href="#DejaVuSans-65" transform="translate(640.925781 0)"/>
     <use xlink:href="#DejaVuSans-63" transform="translate(702.449219 0)"/>
     <use xlink:href="#DejaVuSans-75" transform="translate(757.429688 0)"/>
     <use xlink:href="#DejaVuSans-74" transform="translate(820.808594 0)"/>
     <use xlink:href="#DejaVuSans-65" transform="translate(860.017578 0)"/>
     <use xlink:href="#DejaVuSans-64" transform="translate(921.541016 0)"/>
    </g>
    <!-- in this runtime -->
    <g style="fill: #111111" transform="translate(589.455721 266.203187) scale(0.083 -0.083)">
     <use xlink:href="#DejaVuSans-69"/>
     <use xlink:href="#DejaVuSans-6e" transform="translate(27.783203 0)"/>
     <use xlink:href="#DejaVuSans-20" transform="translate(91.162109 0)"/>
     <use xlink:href="#DejaVuSans-74" transform="translate(122.949219 0)"/>
     <use xlink:href="#DejaVuSans-68" transform="translate(162.158203 0)"/>
     <use xlink:href="#DejaVuSans-69" transform="translate(225.537109 0)"/>
     <use xlink:href="#DejaVuSans-73" transform="translate(253.320312 0)"/>
     <use xlink:href="#DejaVuSans-20" transform="translate(305.419922 0)"/>
     <use xlink:href="#DejaVuSans-72" transform="translate(337.207031 0)"/>
     <use xlink:href="#DejaVuSans-75" transform="translate(378.320312 0)"/>
     <use xlink:href="#DejaVuSans-6e" transform="translate(441.699219 0)"/>
     <use xlink:href="#DejaVuSans-74" transform="translate(505.078125 0)"/>
     <use xlink:href="#DejaVuSans-69" transform="translate(544.287109 0)"/>
     <use xlink:href="#DejaVuSans-6d" transform="translate(572.070312 0)"/>
     <use xlink:href="#DejaVuSans-65" transform="translate(669.482422 0)"/>
    </g>
   </g>
   <g id="text_14">
    <!-- A2 Merkle local reference execution and verification flow -->
    <g transform="translate(214.725389 34.739488) scale(0.12 -0.12)">
     <defs>
      <path id="DejaVuSans-Bold-41" d="M 3419 850 
L 1538 850 
L 1241 0 
L 31 0 
L 1759 4666 
L 3194 4666 
L 4922 0 
L 3713 0 
L 3419 850 
z
M 1838 1716 
L 3116 1716 
L 2478 3572 
L 1838 1716 
z
" transform="scale(0.015625)"/>
      <path id="DejaVuSans-Bold-32" d="M 1844 884 
L 3897 884 
L 3897 0 
L 506 0 
L 506 884 
L 2209 2388 
Q 2438 2594 2547 2791 
Q 2656 2988 2656 3200 
Q 2656 3528 2436 3728 
Q 2216 3928 1850 3928 
Q 1569 3928 1234 3808 
Q 900 3688 519 3450 
L 519 4475 
Q 925 4609 1322 4679 
Q 1719 4750 2100 4750 
Q 2938 4750 3402 4381 
Q 3866 4013 3866 3353 
Q 3866 2972 3669 2642 
Q 3472 2313 2841 1759 
L 1844 884 
z
" transform="scale(0.015625)"/>
      <path id="DejaVuSans-Bold-4d" d="M 588 4666 
L 2119 4666 
L 3181 2169 
L 4250 4666 
L 5778 4666 
L 5778 0 
L 4641 0 
L 4641 3413 
L 3566 897 
L 2803 897 
L 1728 3413 
L 1728 0 
L 588 0 
L 588 4666 
z
" transform="scale(0.015625)"/>
      <path id="DejaVuSans-Bold-6b" d="M 538 4863 
L 1656 4863 
L 1656 2216 
L 2944 3500 
L 4244 3500 
L 2534 1894 
L 4378 0 
L 3022 0 
L 1656 1459 
L 1656 0 
L 538 0 
L 538 4863 
z
" transform="scale(0.015625)"/>
      <path id="DejaVuSans-Bold-6c" d="M 538 4863 
L 1656 4863 
L 1656 0 
L 538 0 
L 538 4863 
z
" transform="scale(0.015625)"/>
      <path id="DejaVuSans-Bold-78" d="M 1422 1791 
L 159 3500 
L 1344 3500 
L 2059 2463 
L 2784 3500 
L 3969 3500 
L 2706 1797 
L 4031 0 
L 2847 0 
L 2059 1106 
L 1281 0 
L 97 0 
L 1422 1791 
z
" transform="scale(0.015625)"/>
      <path id="DejaVuSans-Bold-75" d="M 500 1363 
L 500 3500 
L 1625 3500 
L 1625 3150 
Q 1625 2866 1622 2436 
Q 1619 2006 1619 1863 
Q 1619 1441 1641 1255 
Q 1663 1069 1716 984 
Q 1784 875 1895 815 
Q 2006 756 2150 756 
Q 2500 756 2700 1025 
Q 2900 1294 2900 1772 
L 2900 3500 
L 4019 3500 
L 4019 0 
L 2900 0 
L 2900 506 
Q 2647 200 2364 54 
Q 2081 -91 1741 -91 
Q 1134 -91 817 281 
Q 500 653 500 1363 
z
" transform="scale(0.015625)"/>
      <path id="DejaVuSans-Bold-77" d="M 225 3500 
L 1313 3500 
L 1900 1088 
L 2491 3500 
L 3425 3500 
L 4013 1113 
L 4603 3500 
L 5691 3500 
L 4769 0 
L 3547 0 
L 2956 2406 
L 2369 0 
L 1147 0 
L 225 3500 
z
" transform="scale(0.015625)"/>
     </defs>
     <use xlink:href="#DejaVuSans-Bold-41"/>
     <use xlink:href="#DejaVuSans-Bold-32" transform="translate(77.392578 0)"/>
     <use xlink:href="#DejaVuSans-Bold-20" transform="translate(146.972656 0)"/>
     <use xlink:href="#DejaVuSans-Bold-4d" transform="translate(181.787109 0)"/>
     <use xlink:href="#DejaVuSans-Bold-65" transform="translate(281.298828 0)"/>
     <use xlink:href="#DejaVuSans-Bold-72" transform="translate(349.121094 0)"/>
     <use xlink:href="#DejaVuSans-Bold-6b" transform="translate(398.4375 0)"/>
     <use xlink:href="#DejaVuSans-Bold-6c" transform="translate(464.941406 0)"/>
     <use xlink:href="#DejaVuSans-Bold-65" transform="translate(499.21875 0)"/>
     <use xlink:href="#DejaVuSans-Bold-20" transform="translate(567.041016 0)"/>
     <use xlink:href="#DejaVuSans-Bold-6c" transform="translate(601.855469 0)"/>
     <use xlink:href="#DejaVuSans-Bold-6f" transform="translate(636.132812 0)"/>
     <use xlink:href="#DejaVuSans-Bold-63" transform="translate(704.833984 0)"/>
     <use xlink:href="#DejaVuSans-Bold-61" transform="translate(764.111328 0)"/>
     <use xlink:href="#DejaVuSans-Bold-6c" transform="translate(831.591797 0)"/>
     <use xlink:href="#DejaVuSans-Bold-20" transform="translate(865.869141 0)"/>
     <use xlink:href="#DejaVuSans-Bold-72" transform="translate(900.683594 0)"/>
     <use xlink:href="#DejaVuSans-Bold-65" transform="translate(950 0)"/>
     <use xlink:href="#DejaVuSans-Bold-66" transform="translate(1017.822266 0)"/>
     <use xlink:href="#DejaVuSans-Bold-65" transform="translate(1061.328125 0)"/>
     <use xlink:href="#DejaVuSans-Bold-72" transform="translate(1129.150391 0)"/>
     <use xlink:href="#DejaVuSans-Bold-65" transform="translate(1178.466797 0)"/>
     <use xlink:href="#DejaVuSans-Bold-6e" transform="translate(1246.289062 0)"/>
     <use xlink:href="#DejaVuSans-Bold-63" transform="translate(1317.480469 0)"/>
     <use xlink:href="#DejaVuSans-Bold-65" transform="translate(1376.757812 0)"/>
     <use xlink:href="#DejaVuSans-Bold-20" transform="translate(1444.580078 0)"/>
     <use xlink:href="#DejaVuSans-Bold-65" transform="translate(1479.394531 0)"/>
     <use xlink:href="#DejaVuSans-Bold-78" transform="translate(1547.216797 0)"/>
     <use xlink:href="#DejaVuSans-Bold-65" transform="translate(1611.71875 0)"/>
     <use xlink:href="#DejaVuSans-Bold-63" transform="translate(1679.541016 0)"/>
     <use xlink:href="#DejaVuSans-Bold-75" transform="translate(1738.818359 0)"/>
     <use xlink:href="#DejaVuSans-Bold-74" transform="translate(1810.009766 0)"/>
     <use xlink:href="#DejaVuSans-Bold-69" transform="translate(1857.8125 0)"/>
     <use xlink:href="#DejaVuSans-Bold-6f" transform="translate(1892.089844 0)"/>
     <use xlink:href="#DejaVuSans-Bold-6e" transform="translate(1960.791016 0)"/>
     <use xlink:href="#DejaVuSans-Bold-20" transform="translate(2031.982422 0)"/>
     <use xlink:href="#DejaVuSans-Bold-61" transform="translate(2066.796875 0)"/>
     <use xlink:href="#DejaVuSans-Bold-6e" transform="translate(2134.277344 0)"/>
     <use xlink:href="#DejaVuSans-Bold-64" transform="translate(2205.46875 0)"/>
     <use xlink:href="#DejaVuSans-Bold-20" transform="translate(2277.050781 0)"/>
     <use xlink:href="#DejaVuSans-Bold-76" transform="translate(2311.865234 0)"/>
     <use xlink:href="#DejaVuSans-Bold-65" transform="translate(2377.050781 0)"/>
     <use xlink:href="#DejaVuSans-Bold-72" transform="translate(2444.873047 0)"/>
     <use xlink:href="#DejaVuSans-Bold-69" transform="translate(2494.189453 0)"/>
     <use xlink:href="#DejaVuSans-Bold-66" transform="translate(2528.466797 0)"/>
     <use xlink:href="#DejaVuSans-Bold-69" transform="translate(2571.972656 0)"/>
     <use xlink:href="#DejaVuSans-Bold-63" transform="translate(2606.25 0)"/>
     <use xlink:href="#DejaVuSans-Bold-61" transform="translate(2665.527344 0)"/>
     <use xlink:href="#DejaVuSans-Bold-74" transform="translate(2733.007812 0)"/>
     <use xlink:href="#DejaVuSans-Bold-69" transform="translate(2780.810547 0)"/>
     <use xlink:href="#DejaVuSans-Bold-6f" transform="translate(2815.087891 0)"/>
     <use xlink:href="#DejaVuSans-Bold-6e" transform="translate(2883.789062 0)"/>
     <use xlink:href="#DejaVuSans-Bold-20" transform="translate(2954.980469 0)"/>
     <use xlink:href="#DejaVuSans-Bold-66" transform="translate(2989.794922 0)"/>
     <use xlink:href="#DejaVuSans-Bold-6c" transform="translate(3033.300781 0)"/>
     <use xlink:href="#DejaVuSans-Bold-6f" transform="translate(3067.578125 0)"/>
     <use xlink:href="#DejaVuSans-Bold-77" transform="translate(3136.279297 0)"/>
    </g>
   </g>
  </g>
 </g>
 <defs>
  <clipPath id="p24b039ec47">
   <rect x="28.030716" y="42.739488" width="760.83372" height="288.491544"/>
  </clipPath>
 </defs>
</svg>
