<?xml version="1.0" encoding="utf-8" standalone="no"?>
<!DOCTYPE svg PUBLIC "-//W3C//DTD SVG 1.1//EN"
  "http://www.w3.org/Graphics/SVG/1.1/DTD/svg11.dtd">
<svg xmlns:xlink="http://www.w3.org/1999/xlink" width="518.175562pt" height="251.278125pt" viewBox="0 0 518.175562 251.278125" xmlns="http://www.w3.org/2000/svg" version="1.1">
 <metadata>
  <rdf:RDF xmlns:dc="http://purl.org/dc/elements/1.1/" xmlns:cc="http://creativecommons.org/ns#" xmlns:rdf="http://www.w3.org/1999/02/22-rdf-syntax-ns#">
   <cc:Work>
    <dc:type rdf:resource="http://purl.org/dc/dcmitype/StillImage"/>
    <dc:date>2026-07-04T04:09:40.186034</dc:date>
    <dc:format>image/svg+xml</dc:format>
    <dc:creator>
     <cc:Agent>
      <dc:title>Matplotlib v3.10.8, https://matplotlib.org/</dc:title>
     </cc:Agent>
    </dc:creator>
   </cc:Work>
  </rdf:RDF>
 </metadata>
 <defs>
  <style type="text/css">*{stroke-linejoin: round; stroke-linecap: butt}</style>
 </defs>
 <g id="figure_1">
  <g id="patch_1">
   <path d="M 0 251.278125 
L 518.175562 251.278125 
L 518.175562 0 
L 0 0 
z
" style="fill: #ffffff"/>
  </g>
  <g id="axes_1">
   <g id="text_1">
    <g id="patch_2">
     <path d="M 7.2 131.949187 
L 90.703125 131.949187 
Q 95.703125 131.949187 95.703125 126.949188 
L 95.703125 117.271062 
Q 95.703125 112.271062 90.703125 112.271062 
L 7.2 112.271062 
Q 2.2 112.271062 2.2 117.271062 
L 2.2 126.949188 
Q 2.2 131.949187 7.2 131.949187 
L 7.2 131.949187 
z
" style="fill: none; stroke: #000000; stroke-linejoin: miter"/>
    </g>
    <!-- FHIR/BALP event -->
    <g transform="translate(7.2 124.8695) scale(0.1 -0.1)">
     <defs>
      <path id="DejaVuSans-46" d="M 628 4666 
L 3309 4666 
L 3309 4134 
L 1259 4134 
L 1259 2759 
L 3109 2759 
L 3109 2228 
L 1259 2228 
L 1259 0 
L 628 0 
L 628 4666 
z
" transform="scale(0.015625)"/>
      <path id="DejaVuSans-48" d="M 628 4666 
L 1259 4666 
L 1259 2753 
L 3553 2753 
L 3553 4666 
L 4184 4666 
L 4184 0 
L 3553 0 
L 3553 2222 
L 1259 2222 
L 1259 0 
L 628 0 
L 628 4666 
z
" transform="scale(0.015625)"/>
      <path id="DejaVuSans-49" d="M 628 4666 
L 1259 4666 
L 1259 0 
L 628 0 
L 628 4666 
z
" transform="scale(0.015625)"/>
      <path id="DejaVuSans-52" d="M 2841 2188 
Q 3044 2119 3236 1894 
Q 3428 1669 3622 1275 
L 4263 0 
L 3584 0 
L 2988 1197 
Q 2756 1666 2539 1819 
Q 2322 1972 1947 1972 
L 1259 1972 
L 1259 0 
L 628 0 
L 628 4666 
L 2053 4666 
Q 2853 4666 3247 4331 
Q 3641 3997 3641 3322 
Q 3641 2881 3436 2590 
Q 3231 2300 2841 2188 
z
M 1259 4147 
L 1259 2491 
L 2053 2491 
Q 2509 2491 2742 2702 
Q 2975 2913 2975 3322 
Q 2975 3731 2742 3939 
Q 2509 4147 2053 4147 
L 1259 4147 
z
" transform="scale(0.015625)"/>
      <path id="DejaVuSans-2f" d="M 1625 4666 
L 2156 4666 
L 531 -594 
L 0 -594 
L 1625 4666 
z
" transform="scale(0.015625)"/>
      <path id="DejaVuSans-42" d="M 1259 2228 
L 1259 519 
L 2272 519 
Q 2781 519 3026 730 
Q 3272 941 3272 1375 
Q 3272 1813 3026 2020 
Q 2781 2228 2272 2228 
L 1259 2228 
z
M 1259 4147 
L 1259 2741 
L 2194 2741 
Q 2656 2741 2882 2914 
Q 3109 3088 3109 3444 
Q 3109 3797 2882 3972 
Q 2656 4147 2194 4147 
L 1259 4147 
z
M 628 4666 
L 2241 4666 
Q 2963 4666 3353 4366 
Q 3744 4066 3744 3513 
Q 3744 3084 3544 2831 
Q 3344 2578 2956 2516 
Q 3422 2416 3680 2098 
Q 3938 1781 3938 1306 
Q 3938 681 3513 340 
Q 3088 0 2303 0 
L 628 0 
L 628 4666 
z
" transform="scale(0.015625)"/>
      <path id="DejaVuSans-41" d="M 2188 4044 
L 1331 1722 
L 3047 1722 
L 2188 4044 
z
M 1831 4666 
L 2547 4666 
L 4325 0 
L 3669 0 
L 3244 1197 
L 1141 1197 
L 716 0 
L 50 0 
L 1831 4666 
z
" transform="scale(0.015625)"/>
      <path id="DejaVuSans-4c" d="M 628 4666 
L 1259 4666 
L 1259 531 
L 3531 531 
L 3531 0 
L 628 0 
L 628 4666 
z
" transform="scale(0.015625)"/>
      <path id="DejaVuSans-50" d="M 1259 4147 
L 1259 2394 
L 2053 2394 
Q 2494 2394 2734 2622 
Q 2975 2850 2975 3272 
Q 2975 3691 2734 3919 
Q 2494 4147 2053 4147 
L 1259 4147 
z
M 628 4666 
L 2053 4666 
Q 2838 4666 3239 4311 
Q 3641 3956 3641 3272 
Q 3641 2581 3239 2228 
Q 2838 1875 2053 1875 
L 1259 1875 
L 1259 0 
L 628 0 
L 628 4666 
z
" transform="scale(0.015625)"/>
      <path id="DejaVuSans-20" transform="scale(0.015625)"/>
      <path id="DejaVuSans-65" d="M 3597 1894 
L 3597 1613 
L 953 1613 
Q 991 1019 1311 708 
Q 1631 397 2203 397 
Q 2534 397 2845 478 
Q 3156 559 3463 722 
L 3463 178 
Q 3153 47 2828 -22 
Q 2503 -91 2169 -91 
Q 1331 -91 842 396 
Q 353 884 353 1716 
Q 353 2575 817 3079 
Q 1281 3584 2069 3584 
Q 2775 3584 3186 3129 
Q 3597 2675 3597 1894 
z
M 3022 2063 
Q 3016 2534 2758 2815 
Q 2500 3097 2075 3097 
Q 1594 3097 1305 2825 
Q 1016 2553 972 2059 
L 3022 2063 
z
" transform="scale(0.015625)"/>
      <path id="DejaVuSans-76" d="M 191 3500 
L 800 3500 
L 1894 563 
L 2988 3500 
L 3597 3500 
L 2284 0 
L 1503 0 
L 191 3500 
z
" transform="scale(0.015625)"/>
      <path id="DejaVuSans-6e" d="M 3513 2113 
L 3513 0 
L 2938 0 
L 2938 2094 
Q 2938 2591 2744 2837 
Q 2550 3084 2163 3084 
Q 1697 3084 1428 2787 
Q 1159 2491 1159 1978 
L 1159 0 
L 581 0 
L 581 3500 
L 1159 3500 
L 1159 2956 
Q 1366 3272 1645 3428 
Q 1925 3584 2291 3584 
Q 2894 3584 3203 3211 
Q 3513 2838 3513 2113 
z
" transform="scale(0.015625)"/>
      <path id="DejaVuSans-74" d="M 1172 4494 
L 1172 3500 
L 2356 3500 
L 2356 3053 
L 1172 3053 
L 1172 1153 
Q 1172 725 1289 603 
Q 1406 481 1766 481 
L 2356 481 
L 2356 0 
L 1766 0 
Q 1100 0 847 248 
Q 594 497 594 1153 
L 594 3053 
L 172 3053 
L 172 3500 
L 594 3500 
L 594 4494 
L 1172 4494 
z
" transform="scale(0.015625)"/>
     </defs>
     <use xlink:href="#DejaVuSans-46"/>
     <use xlink:href="#DejaVuSans-48" transform="translate(57.519531 0)"/>
     <use xlink:href="#DejaVuSans-49" transform="translate(132.714844 0)"/>
     <use xlink:href="#DejaVuSans-52" transform="translate(162.207031 0)"/>
     <use xlink:href="#DejaVuSans-2f" transform="translate(231.689453 0)"/>
     <use xlink:href="#DejaVuSans-42" transform="translate(265.380859 0)"/>
     <use xlink:href="#DejaVuSans-41" transform="translate(333.984375 0)"/>
     <use xlink:href="#DejaVuSans-4c" transform="translate(402.392578 0)"/>
     <use xlink:href="#DejaVuSans-50" transform="translate(458.105469 0)"/>
     <use xlink:href="#DejaVuSans-20" transform="translate(518.408203 0)"/>
     <use xlink:href="#DejaVuSans-65" transform="translate(550.195312 0)"/>
     <use xlink:href="#DejaVuSans-76" transform="translate(611.71875 0)"/>
     <use xlink:href="#DejaVuSans-65" transform="translate(670.898438 0)"/>
     <use xlink:href="#DejaVuSans-6e" transform="translate(732.421875 0)"/>
     <use xlink:href="#DejaVuSans-74" transform="translate(795.800781 0)"/>
    </g>
   </g>
   <g id="text_2">
    <g id="patch_3">
     <path d="M 131.947781 137.548094 
L 227.099344 137.548094 
Q 232.099344 137.548094 232.099344 132.548094 
L 232.099344 111.672156 
Q 232.099344 106.672156 227.099344 106.672156 
L 131.947781 106.672156 
Q 126.947781 106.672156 126.947781 111.672156 
L 126.947781 132.548094 
Q 126.947781 137.548094 131.947781 137.548094 
L 131.947781 137.548094 
z
" style="fill: none; stroke: #000000; stroke-linejoin: miter"/>
    </g>
    <!-- TrustEvidence -->
    <g transform="translate(144.664969 119.270594) scale(0.1 -0.1)">
     <defs>
      <path id="DejaVuSans-54" d="M -19 4666 
L 3928 4666 
L 3928 4134 
L 2272 4134 
L 2272 0 
L 1638 0 
L 1638 4134 
L -19 4134 
L -19 4666 
z
" transform="scale(0.015625)"/>
      <path id="DejaVuSans-72" d="M 2631 2963 
Q 2534 3019 2420 3045 
Q 2306 3072 2169 3072 
Q 1681 3072 1420 2755 
Q 1159 2438 1159 1844 
L 1159 0 
L 581 0 
L 581 3500 
L 1159 3500 
L 1159 2956 
Q 1341 3275 1631 3429 
Q 1922 3584 2338 3584 
Q 2397 3584 2469 3576 
Q 2541 3569 2628 3553 
L 2631 2963 
z
" transform="scale(0.015625)"/>
      <path id="DejaVuSans-75" d="M 544 1381 
L 544 3500 
L 1119 3500 
L 1119 1403 
Q 1119 906 1312 657 
Q 1506 409 1894 409 
Q 2359 409 2629 706 
Q 2900 1003 2900 1516 
L 2900 3500 
L 3475 3500 
L 3475 0 
L 2900 0 
L 2900 538 
Q 2691 219 2414 64 
Q 2138 -91 1772 -91 
Q 1169 -91 856 284 
Q 544 659 544 1381 
z
M 1991 3584 
L 1991 3584 
z
" transform="scale(0.015625)"/>
      <path id="DejaVuSans-73" d="M 2834 3397 
L 2834 2853 
Q 2591 2978 2328 3040 
Q 2066 3103 1784 3103 
Q 1356 3103 1142 2972 
Q 928 2841 928 2578 
Q 928 2378 1081 2264 
Q 1234 2150 1697 2047 
L 1894 2003 
Q 2506 1872 2764 1633 
Q 3022 1394 3022 966 
Q 3022 478 2636 193 
Q 2250 -91 1575 -91 
Q 1294 -91 989 -36 
Q 684 19 347 128 
L 347 722 
Q 666 556 975 473 
Q 1284 391 1588 391 
Q 1994 391 2212 530 
Q 2431 669 2431 922 
Q 2431 1156 2273 1281 
Q 2116 1406 1581 1522 
L 1381 1569 
Q 847 1681 609 1914 
Q 372 2147 372 2553 
Q 372 3047 722 3315 
Q 1072 3584 1716 3584 
Q 2034 3584 2315 3537 
Q 2597 3491 2834 3397 
z
" transform="scale(0.015625)"/>
      <path id="DejaVuSans-45" d="M 628 4666 
L 3578 4666 
L 3578 4134 
L 1259 4134 
L 1259 2753 
L 3481 2753 
L 3481 2222 
L 1259 2222 
L 1259 531 
L 3634 531 
L 3634 0 
L 628 0 
L 628 4666 
z
" transform="scale(0.015625)"/>
      <path id="DejaVuSans-69" d="M 603 3500 
L 1178 3500 
L 1178 0 
L 603 0 
L 603 3500 
z
M 603 4863 
L 1178 4863 
L 1178 4134 
L 603 4134 
L 603 4863 
z
" transform="scale(0.015625)"/>
      <path id="DejaVuSans-64" d="M 2906 2969 
L 2906 4863 
L 3481 4863 
L 3481 0 
L 2906 0 
L 2906 525 
Q 2725 213 2448 61 
Q 2172 -91 1784 -91 
Q 1150 -91 751 415 
Q 353 922 353 1747 
Q 353 2572 751 3078 
Q 1150 3584 1784 3584 
Q 2172 3584 2448 3432 
Q 2725 3281 2906 2969 
z
M 947 1747 
Q 947 1113 1208 752 
Q 1469 391 1925 391 
Q 2381 391 2643 752 
Q 2906 1113 2906 1747 
Q 2906 2381 2643 2742 
Q 2381 3103 1925 3103 
Q 1469 3103 1208 2742 
Q 947 2381 947 1747 
z
" transform="scale(0.015625)"/>
      <path id="DejaVuSans-63" d="M 3122 3366 
L 3122 2828 
Q 2878 2963 2633 3030 
Q 2388 3097 2138 3097 
Q 1578 3097 1268 2742 
Q 959 2388 959 1747 
Q 959 1106 1268 751 
Q 1578 397 2138 397 
Q 2388 397 2633 464 
Q 2878 531 3122 666 
L 3122 134 
Q 2881 22 2623 -34 
Q 2366 -91 2075 -91 
Q 1284 -91 818 406 
Q 353 903 353 1747 
Q 353 2603 823 3093 
Q 1294 3584 2113 3584 
Q 2378 3584 2631 3529 
Q 2884 3475 3122 3366 
z
" transform="scale(0.015625)"/>
     </defs>
     <use xlink:href="#DejaVuSans-54"/>
     <use xlink:href="#DejaVuSans-72" transform="translate(46.333984 0)"/>
     <use xlink:href="#DejaVuSans-75" transform="translate(87.447266 0)"/>
     <use xlink:href="#DejaVuSans-73" transform="translate(150.826172 0)"/>
     <use xlink:href="#DejaVuSans-74" transform="translate(202.925781 0)"/>
     <use xlink:href="#DejaVuSans-45" transform="translate(242.134766 0)"/>
     <use xlink:href="#DejaVuSans-76" transform="translate(305.318359 0)"/>
     <use xlink:href="#DejaVuSans-69" transform="translate(364.498047 0)"/>
     <use xlink:href="#DejaVuSans-64" transform="translate(392.28125 0)"/>
     <use xlink:href="#DejaVuSans-65" transform="translate(455.757812 0)"/>
     <use xlink:href="#DejaVuSans-6e" transform="translate(517.28125 0)"/>
     <use xlink:href="#DejaVuSans-63" transform="translate(580.660156 0)"/>
     <use xlink:href="#DejaVuSans-65" transform="translate(635.640625 0)"/>
    </g>
    <!-- emission boundary -->
    <g transform="translate(131.947781 130.468406) scale(0.1 -0.1)">
     <defs>
      <path id="DejaVuSans-6d" d="M 3328 2828 
Q 3544 3216 3844 3400 
Q 4144 3584 4550 3584 
Q 5097 3584 5394 3201 
Q 5691 2819 5691 2113 
L 5691 0 
L 5113 0 
L 5113 2094 
Q 5113 2597 4934 2840 
Q 4756 3084 4391 3084 
Q 3944 3084 3684 2787 
Q 3425 2491 3425 1978 
L 3425 0 
L 2847 0 
L 2847 2094 
Q 2847 2600 2669 2842 
Q 2491 3084 2119 3084 
Q 1678 3084 1418 2786 
Q 1159 2488 1159 1978 
L 1159 0 
L 581 0 
L 581 3500 
L 1159 3500 
L 1159 2956 
Q 1356 3278 1631 3431 
Q 1906 3584 2284 3584 
Q 2666 3584 2933 3390 
Q 3200 3197 3328 2828 
z
" transform="scale(0.015625)"/>
      <path id="DejaVuSans-6f" d="M 1959 3097 
Q 1497 3097 1228 2736 
Q 959 2375 959 1747 
Q 959 1119 1226 758 
Q 1494 397 1959 397 
Q 2419 397 2687 759 
Q 2956 1122 2956 1747 
Q 2956 2369 2687 2733 
Q 2419 3097 1959 3097 
z
M 1959 3584 
Q 2709 3584 3137 3096 
Q 3566 2609 3566 1747 
Q 3566 888 3137 398 
Q 2709 -91 1959 -91 
Q 1206 -91 779 398 
Q 353 888 353 1747 
Q 353 2609 779 3096 
Q 1206 3584 1959 3584 
z
" transform="scale(0.015625)"/>
      <path id="DejaVuSans-62" d="M 3116 1747 
Q 3116 2381 2855 2742 
Q 2594 3103 2138 3103 
Q 1681 3103 1420 2742 
Q 1159 2381 1159 1747 
Q 1159 1113 1420 752 
Q 1681 391 2138 391 
Q 2594 391 2855 752 
Q 3116 1113 3116 1747 
z
M 1159 2969 
Q 1341 3281 1617 3432 
Q 1894 3584 2278 3584 
Q 2916 3584 3314 3078 
Q 3713 2572 3713 1747 
Q 3713 922 3314 415 
Q 2916 -91 2278 -91 
Q 1894 -91 1617 61 
Q 1341 213 1159 525 
L 1159 0 
L 581 0 
L 581 4863 
L 1159 4863 
L 1159 2969 
z
" transform="scale(0.015625)"/>
      <path id="DejaVuSans-61" d="M 2194 1759 
Q 1497 1759 1228 1600 
Q 959 1441 959 1056 
Q 959 750 1161 570 
Q 1363 391 1709 391 
Q 2188 391 2477 730 
Q 2766 1069 2766 1631 
L 2766 1759 
L 2194 1759 
z
M 3341 1997 
L 3341 0 
L 2766 0 
L 2766 531 
Q 2569 213 2275 61 
Q 1981 -91 1556 -91 
Q 1019 -91 701 211 
Q 384 513 384 1019 
Q 384 1609 779 1909 
Q 1175 2209 1959 2209 
L 2766 2209 
L 2766 2266 
Q 2766 2663 2505 2880 
Q 2244 3097 1772 3097 
Q 1472 3097 1187 3025 
Q 903 2953 641 2809 
L 641 3341 
Q 956 3463 1253 3523 
Q 1550 3584 1831 3584 
Q 2591 3584 2966 3190 
Q 3341 2797 3341 1997 
z
" transform="scale(0.015625)"/>
      <path id="DejaVuSans-79" d="M 2059 -325 
Q 1816 -950 1584 -1140 
Q 1353 -1331 966 -1331 
L 506 -1331 
L 506 -850 
L 844 -850 
Q 1081 -850 1212 -737 
Q 1344 -625 1503 -206 
L 1606 56 
L 191 3500 
L 800 3500 
L 1894 763 
L 2988 3500 
L 3597 3500 
L 2059 -325 
z
" transform="scale(0.015625)"/>
     </defs>
     <use xlink:href="#DejaVuSans-65"/>
     <use xlink:href="#DejaVuSans-6d" transform="translate(61.523438 0)"/>
     <use xlink:href="#DejaVuSans-69" transform="translate(158.935547 0)"/>
     <use xlink:href="#DejaVuSans-73" transform="translate(186.71875 0)"/>
     <use xlink:href="#DejaVuSans-73" transform="translate(238.818359 0)"/>
     <use xlink:href="#DejaVuSans-69" transform="translate(290.917969 0)"/>
     <use xlink:href="#DejaVuSans-6f" transform="translate(318.701172 0)"/>
     <use xlink:href="#DejaVuSans-6e" transform="translate(379.882812 0)"/>
     <use xlink:href="#DejaVuSans-20" transform="translate(443.261719 0)"/>
     <use xlink:href="#DejaVuSans-62" transform="translate(475.048828 0)"/>
     <use xlink:href="#DejaVuSans-6f" transform="translate(538.525391 0)"/>
     <use xlink:href="#DejaVuSans-75" transform="translate(599.707031 0)"/>
     <use xlink:href="#DejaVuSans-6e" transform="translate(663.085938 0)"/>
     <use xlink:href="#DejaVuSans-64" transform="translate(726.464844 0)"/>
     <use xlink:href="#DejaVuSans-61" transform="translate(789.941406 0)"/>
     <use xlink:href="#DejaVuSans-72" transform="translate(851.220703 0)"/>
     <use xlink:href="#DejaVuSans-79" transform="translate(892.333984 0)"/>
    </g>
   </g>
   <g id="text_3">
    <g id="patch_4">
     <path d="M 274.676281 137.548094 
L 365.602844 137.548094 
Q 370.602844 137.548094 370.602844 132.548094 
L 370.602844 111.672156 
Q 370.602844 106.672156 365.602844 106.672156 
L 274.676281 106.672156 
Q 269.676281 106.672156 269.676281 111.672156 
L 269.676281 132.548094 
Q 269.676281 137.548094 274.676281 137.548094 
L 274.676281 137.548094 
z
" style="fill: none; stroke: #000000; stroke-linejoin: miter"/>
    </g>
    <!-- Evidence backend -->
    <g transform="translate(274.676281 119.270594) scale(0.1 -0.1)">
     <defs>
      <path id="DejaVuSans-6b" d="M 581 4863 
L 1159 4863 
L 1159 1991 
L 2875 3500 
L 3609 3500 
L 1753 1863 
L 3688 0 
L 2938 0 
L 1159 1709 
L 1159 0 
L 581 0 
L 581 4863 
z
" transform="scale(0.015625)"/>
     </defs>
     <use xlink:href="#DejaVuSans-45"/>
     <use xlink:href="#DejaVuSans-76" transform="translate(63.183594 0)"/>
     <use xlink:href="#DejaVuSans-69" transform="translate(122.363281 0)"/>
     <use xlink:href="#DejaVuSans-64" transform="translate(150.146484 0)"/>
     <use xlink:href="#DejaVuSans-65" transform="translate(213.623047 0)"/>
     <use xlink:href="#DejaVuSans-6e" transform="translate(275.146484 0)"/>
     <use xlink:href="#DejaVuSans-63" transform="translate(338.525391 0)"/>
     <use xlink:href="#DejaVuSans-65" transform="translate(393.505859 0)"/>
     <use xlink:href="#DejaVuSans-20" transform="translate(455.029297 0)"/>
     <use xlink:href="#DejaVuSans-62" transform="translate(486.816406 0)"/>
     <use xlink:href="#DejaVuSans-61" transform="translate(550.292969 0)"/>
     <use xlink:href="#DejaVuSans-63" transform="translate(611.572266 0)"/>
     <use xlink:href="#DejaVuSans-6b" transform="translate(666.552734 0)"/>
     <use xlink:href="#DejaVuSans-65" transform="translate(720.837891 0)"/>
     <use xlink:href="#DejaVuSans-6e" transform="translate(782.361328 0)"/>
     <use xlink:href="#DejaVuSans-64" transform="translate(845.740234 0)"/>
    </g>
    <!-- A1/A2/A3 -->
    <g transform="translate(296.966125 130.468406) scale(0.1 -0.1)">
     <defs>
      <path id="DejaVuSans-31" d="M 794 531 
L 1825 531 
L 1825 4091 
L 703 3866 
L 703 4441 
L 1819 4666 
L 2450 4666 
L 2450 531 
L 3481 531 
L 3481 0 
L 794 0 
L 794 531 
z
" transform="scale(0.015625)"/>
      <path id="DejaVuSans-32" d="M 1228 531 
L 3431 531 
L 3431 0 
L 469 0 
L 469 531 
Q 828 903 1448 1529 
Q 2069 2156 2228 2338 
Q 2531 2678 2651 2914 
Q 2772 3150 2772 3378 
Q 2772 3750 2511 3984 
Q 2250 4219 1831 4219 
Q 1534 4219 1204 4116 
Q 875 4013 500 3803 
L 500 4441 
Q 881 4594 1212 4672 
Q 1544 4750 1819 4750 
Q 2544 4750 2975 4387 
Q 3406 4025 3406 3419 
Q 3406 3131 3298 2873 
Q 3191 2616 2906 2266 
Q 2828 2175 2409 1742 
Q 1991 1309 1228 531 
z
" transform="scale(0.015625)"/>
      <path id="DejaVuSans-33" d="M 2597 2516 
Q 3050 2419 3304 2112 
Q 3559 1806 3559 1356 
Q 3559 666 3084 287 
Q 2609 -91 1734 -91 
Q 1441 -91 1130 -33 
Q 819 25 488 141 
L 488 750 
Q 750 597 1062 519 
Q 1375 441 1716 441 
Q 2309 441 2620 675 
Q 2931 909 2931 1356 
Q 2931 1769 2642 2001 
Q 2353 2234 1838 2234 
L 1294 2234 
L 1294 2753 
L 1863 2753 
Q 2328 2753 2575 2939 
Q 2822 3125 2822 3475 
Q 2822 3834 2567 4026 
Q 2313 4219 1838 4219 
Q 1578 4219 1281 4162 
Q 984 4106 628 3988 
L 628 4550 
Q 988 4650 1302 4700 
Q 1616 4750 1894 4750 
Q 2613 4750 3031 4423 
Q 3450 4097 3450 3541 
Q 3450 3153 3228 2886 
Q 3006 2619 2597 2516 
z
" transform="scale(0.015625)"/>
     </defs>
     <use xlink:href="#DejaVuSans-41"/>
     <use xlink:href="#DejaVuSans-31" transform="translate(68.408203 0)"/>
     <use xlink:href="#DejaVuSans-2f" transform="translate(132.03125 0)"/>
     <use xlink:href="#DejaVuSans-41" transform="translate(165.722656 0)"/>
     <use xlink:href="#DejaVuSans-32" transform="translate(234.130859 0)"/>
     <use xlink:href="#DejaVuSans-2f" transform="translate(297.753906 0)"/>
     <use xlink:href="#DejaVuSans-41" transform="translate(331.445312 0)"/>
     <use xlink:href="#DejaVuSans-33" transform="translate(399.853516 0)"/>
    </g>
   </g>
   <g id="text_4">
    <g id="patch_5">
     <path d="M 403.276938 131.949187 
L 478.058188 131.949187 
Q 483.058188 131.949187 483.058188 126.949188 
L 483.058188 117.271062 
Q 483.058188 112.271062 478.058188 112.271062 
L 403.276938 112.271062 
Q 398.276938 112.271062 398.276938 117.271062 
L 398.276938 126.949188 
Q 398.276938 131.949187 403.276938 131.949187 
L 403.276938 131.949187 
z
" style="fill: none; stroke: #000000; stroke-linejoin: miter"/>
    </g>
    <!-- Verifier/auditor -->
    <g transform="translate(403.276938 124.8695) scale(0.1 -0.1)">
     <defs>
      <path id="DejaVuSans-56" d="M 1831 0 
L 50 4666 
L 709 4666 
L 2188 738 
L 3669 4666 
L 4325 4666 
L 2547 0 
L 1831 0 
z
" transform="scale(0.015625)"/>
      <path id="DejaVuSans-66" d="M 2375 4863 
L 2375 4384 
L 1825 4384 
Q 1516 4384 1395 4259 
Q 1275 4134 1275 3809 
L 1275 3500 
L 2222 3500 
L 2222 3053 
L 1275 3053 
L 1275 0 
L 697 0 
L 697 3053 
L 147 3053 
L 147 3500 
L 697 3500 
L 697 3744 
Q 697 4328 969 4595 
Q 1241 4863 1831 4863 
L 2375 4863 
z
" transform="scale(0.015625)"/>
     </defs>
     <use xlink:href="#DejaVuSans-56"/>
     <use xlink:href="#DejaVuSans-65" transform="translate(60.658203 0)"/>
     <use xlink:href="#DejaVuSans-72" transform="translate(122.181641 0)"/>
     <use xlink:href="#DejaVuSans-69" transform="translate(163.294922 0)"/>
     <use xlink:href="#DejaVuSans-66" transform="translate(191.078125 0)"/>
     <use xlink:href="#DejaVuSans-69" transform="translate(226.283203 0)"/>
     <use xlink:href="#DejaVuSans-65" transform="translate(254.066406 0)"/>
     <use xlink:href="#DejaVuSans-72" transform="translate(315.589844 0)"/>
     <use xlink:href="#DejaVuSans-2f" transform="translate(356.703125 0)"/>
     <use xlink:href="#DejaVuSans-61" transform="translate(390.394531 0)"/>
     <use xlink:href="#DejaVuSans-75" transform="translate(451.673828 0)"/>
     <use xlink:href="#DejaVuSans-64" transform="translate(515.052734 0)"/>
     <use xlink:href="#DejaVuSans-69" transform="translate(578.529297 0)"/>
     <use xlink:href="#DejaVuSans-74" transform="translate(606.3125 0)"/>
     <use xlink:href="#DejaVuSans-6f" transform="translate(645.521484 0)"/>
     <use xlink:href="#DejaVuSans-72" transform="translate(706.703125 0)"/>
    </g>
   </g>
   <g id="patch_6">
    <path d="M 106.189611 122.110125 
Q 114.235141 122.110125 121.162636 122.110125 
" style="fill: none; stroke: #000000; stroke-linecap: round"/>
    <path d="M 117.162636 120.110125 
L 121.162636 122.110125 
L 117.162636 124.110125 
" style="fill: none; stroke: #000000; stroke-linecap: round"/>
   </g>
   <g id="patch_7">
    <path d="M 236.762837 122.110125 
Q 249.829068 122.110125 261.777265 122.110125 
" style="fill: none; stroke: #000000; stroke-linecap: round"/>
    <path d="M 257.777265 120.110125 
L 261.777265 122.110125 
L 257.777265 124.110125 
" style="fill: none; stroke: #000000; stroke-linecap: round"/>
   </g>
   <g id="patch_8">
    <path d="M 377.377611 122.110125 
Q 380.401488 122.110125 382.30733 122.110125 
" style="fill: none; stroke: #000000; stroke-linecap: round"/>
    <path d="M 378.30733 120.110125 
L 382.30733 122.110125 
L 378.30733 124.110125 
" style="fill: none; stroke: #000000; stroke-linecap: round"/>
   </g>
   <g id="text_5">
    <!-- Clinical payload custody remains outside the evidence backend -->
    <g transform="translate(100.616188 210.814125) scale(0.1 -0.1)">
     <defs>
      <path id="DejaVuSans-43" d="M 4122 4306 
L 4122 3641 
Q 3803 3938 3442 4084 
Q 3081 4231 2675 4231 
Q 1875 4231 1450 3742 
Q 1025 3253 1025 2328 
Q 1025 1406 1450 917 
Q 1875 428 2675 428 
Q 3081 428 3442 575 
Q 3803 722 4122 1019 
L 4122 359 
Q 3791 134 3420 21 
Q 3050 -91 2638 -91 
Q 1578 -91 968 557 
Q 359 1206 359 2328 
Q 359 3453 968 4101 
Q 1578 4750 2638 4750 
Q 3056 4750 3426 4639 
Q 3797 4528 4122 4306 
z
" transform="scale(0.015625)"/>
      <path id="DejaVuSans-6c" d="M 603 4863 
L 1178 4863 
L 1178 0 
L 603 0 
L 603 4863 
z
" transform="scale(0.015625)"/>
      <path id="DejaVuSans-70" d="M 1159 525 
L 1159 -1331 
L 581 -1331 
L 581 3500 
L 1159 3500 
L 1159 2969 
Q 1341 3281 1617 3432 
Q 1894 3584 2278 3584 
Q 2916 3584 3314 3078 
Q 3713 2572 3713 1747 
Q 3713 922 3314 415 
Q 2916 -91 2278 -91 
Q 1894 -91 1617 61 
Q 1341 213 1159 525 
z
M 3116 1747 
Q 3116 2381 2855 2742 
Q 2594 3103 2138 3103 
Q 1681 3103 1420 2742 
Q 1159 2381 1159 1747 
Q 1159 1113 1420 752 
Q 1681 391 2138 391 
Q 2594 391 2855 752 
Q 3116 1113 3116 1747 
z
" transform="scale(0.015625)"/>
      <path id="DejaVuSans-68" d="M 3513 2113 
L 3513 0 
L 2938 0 
L 2938 2094 
Q 2938 2591 2744 2837 
Q 2550 3084 2163 3084 
Q 1697 3084 1428 2787 
Q 1159 2491 1159 1978 
L 1159 0 
L 581 0 
L 581 4863 
L 1159 4863 
L 1159 2956 
Q 1366 3272 1645 3428 
Q 1925 3584 2291 3584 
Q 2894 3584 3203 3211 
Q 3513 2838 3513 2113 
z
" transform="scale(0.015625)"/>
     </defs>
     <use xlink:href="#DejaVuSans-43"/>
     <use xlink:href="#DejaVuSans-6c" transform="translate(69.824219 0)"/>
     <use xlink:href="#DejaVuSans-69" transform="translate(97.607422 0)"/>
     <use xlink:href="#DejaVuSans-6e" transform="translate(125.390625 0)"/>
     <use xlink:href="#DejaVuSans-69" transform="translate(188.769531 0)"/>
     <use xlink:href="#DejaVuSans-63" transform="translate(216.552734 0)"/>
     <use xlink:href="#DejaVuSans-61" transform="translate(271.533203 0)"/>
     <use xlink:href="#DejaVuSans-6c" transform="translate(332.8125 0)"/>
     <use xlink:href="#DejaVuSans-20" transform="translate(360.595703 0)"/>
     <use xlink:href="#DejaVuSans-70" transform="translate(392.382812 0)"/>
     <use xlink:href="#DejaVuSans-61" transform="translate(455.859375 0)"/>
     <use xlink:href="#DejaVuSans-79" transform="translate(517.138672 0)"/>
     <use xlink:href="#DejaVuSans-6c" transform="translate(576.318359 0)"/>
     <use xlink:href="#DejaVuSans-6f" transform="translate(604.101562 0)"/>
     <use xlink:href="#DejaVuSans-61" transform="translate(665.283203 0)"/>
     <use xlink:href="#DejaVuSans-64" transform="translate(726.5625 0)"/>
     <use xlink:href="#DejaVuSans-20" transform="translate(790.039062 0)"/>
     <use xlink:href="#DejaVuSans-63" transform="translate(821.826172 0)"/>
     <use xlink:href="#DejaVuSans-75" transform="translate(876.806641 0)"/>
     <use xlink:href="#DejaVuSans-73" transform="translate(940.185547 0)"/>
     <use xlink:href="#DejaVuSans-74" transform="translate(992.285156 0)"/>
     <use xlink:href="#DejaVuSans-6f" transform="translate(1031.494141 0)"/>
     <use xlink:href="#DejaVuSans-64" transform="translate(1092.675781 0)"/>
     <use xlink:href="#DejaVuSans-79" transform="translate(1156.152344 0)"/>
     <use xlink:href="#DejaVuSans-20" transform="translate(1215.332031 0)"/>
     <use xlink:href="#DejaVuSans-72" transform="translate(1247.119141 0)"/>
     <use xlink:href="#DejaVuSans-65" transform="translate(1285.982422 0)"/>
     <use xlink:href="#DejaVuSans-6d" transform="translate(1347.505859 0)"/>
     <use xlink:href="#DejaVuSans-61" transform="translate(1444.917969 0)"/>
     <use xlink:href="#DejaVuSans-69" transform="translate(1506.197266 0)"/>
     <use xlink:href="#DejaVuSans-6e" transform="translate(1533.980469 0)"/>
     <use xlink:href="#DejaVuSans-73" transform="translate(1597.359375 0)"/>
     <use xlink:href="#DejaVuSans-20" transform="translate(1649.458984 0)"/>
     <use xlink:href="#DejaVuSans-6f" transform="translate(1681.246094 0)"/>
     <use xlink:href="#DejaVuSans-75" transform="translate(1742.427734 0)"/>
     <use xlink:href="#DejaVuSans-74" transform="translate(1805.806641 0)"/>
     <use xlink:href="#DejaVuSans-73" transform="translate(1845.015625 0)"/>
     <use xlink:href="#DejaVuSans-69" transform="translate(1897.115234 0)"/>
     <use xlink:href="#DejaVuSans-64" transform="translate(1924.898438 0)"/>
     <use xlink:href="#DejaVuSans-65" transform="translate(1988.375 0)"/>
     <use xlink:href="#DejaVuSans-20" transform="translate(2049.898438 0)"/>
     <use xlink:href="#DejaVuSans-74" transform="translate(2081.685547 0)"/>
     <use xlink:href="#DejaVuSans-68" transform="translate(2120.894531 0)"/>
     <use xlink:href="#DejaVuSans-65" transform="translate(2184.273438 0)"/>
     <use xlink:href="#DejaVuSans-20" transform="translate(2245.796875 0)"/>
     <use xlink:href="#DejaVuSans-65" transform="translate(2277.583984 0)"/>
     <use xlink:href="#DejaVuSans-76" transform="translate(2339.107422 0)"/>
     <use xlink:href="#DejaVuSans-69" transform="translate(2398.287109 0)"/>
     <use xlink:href="#DejaVuSans-64" transform="translate(2426.070312 0)"/>
     <use xlink:href="#DejaVuSans-65" transform="translate(2489.546875 0)"/>
     <use xlink:href="#DejaVuSans-6e" transform="translate(2551.070312 0)"/>
     <use xlink:href="#DejaVuSans-63" transform="translate(2614.449219 0)"/>
     <use xlink:href="#DejaVuSans-65" transform="translate(2669.429688 0)"/>
     <use xlink:href="#DejaVuSans-20" transform="translate(2730.953125 0)"/>
     <use xlink:href="#DejaVuSans-62" transform="translate(2762.740234 0)"/>
     <use xlink:href="#DejaVuSans-61" transform="translate(2826.216797 0)"/>
     <use xlink:href="#DejaVuSans-63" transform="translate(2887.496094 0)"/>
     <use xlink:href="#DejaVuSans-6b" transform="translate(2942.476562 0)"/>
     <use xlink:href="#DejaVuSans-65" transform="translate(2996.761719 0)"/>
     <use xlink:href="#DejaVuSans-6e" transform="translate(3058.285156 0)"/>
     <use xlink:href="#DejaVuSans-64" transform="translate(3121.664062 0)"/>
    </g>
   </g>
   <g id="text_6">
    <!-- Evidence boundary and verification path -->
    <g transform="translate(137.801813 16.318125) scale(0.12 -0.12)">
     <use xlink:href="#DejaVuSans-45"/>
     <use xlink:href="#DejaVuSans-76" transform="translate(63.183594 0)"/>
     <use xlink:href="#DejaVuSans-69" transform="translate(122.363281 0)"/>
     <use xlink:href="#DejaVuSans-64" transform="translate(150.146484 0)"/>
     <use xlink:href="#DejaVuSans-65" transform="translate(213.623047 0)"/>
     <use xlink:href="#DejaVuSans-6e" transform="translate(275.146484 0)"/>
     <use xlink:href="#DejaVuSans-63" transform="translate(338.525391 0)"/>
     <use xlink:href="#DejaVuSans-65" transform="translate(393.505859 0)"/>
     <use xlink:href="#DejaVuSans-20" transform="translate(455.029297 0)"/>
     <use xlink:href="#DejaVuSans-62" transform="translate(486.816406 0)"/>
     <use xlink:href="#DejaVuSans-6f" transform="translate(550.292969 0)"/>
     <use xlink:href="#DejaVuSans-75" transform="translate(611.474609 0)"/>
     <use xlink:href="#DejaVuSans-6e" transform="translate(674.853516 0)"/>
     <use xlink:href="#DejaVuSans-64" transform="translate(738.232422 0)"/>
     <use xlink:href="#DejaVuSans-61" transform="translate(801.708984 0)"/>
     <use xlink:href="#DejaVuSans-72" transform="translate(862.988281 0)"/>
     <use xlink:href="#DejaVuSans-79" transform="translate(904.101562 0)"/>
     <use xlink:href="#DejaVuSans-20" transform="translate(963.28125 0)"/>
     <use xlink:href="#DejaVuSans-61" transform="translate(995.068359 0)"/>
     <use xlink:href="#DejaVuSans-6e" transform="translate(1056.347656 0)"/>
     <use xlink:href="#DejaVuSans-64" transform="translate(1119.726562 0)"/>
     <use xlink:href="#DejaVuSans-20" transform="translate(1183.203125 0)"/>
     <use xlink:href="#DejaVuSans-76" transform="translate(1214.990234 0)"/>
     <use xlink:href="#DejaVuSans-65" transform="translate(1274.169922 0)"/>
     <use xlink:href="#DejaVuSans-72" transform="translate(1335.693359 0)"/>
     <use xlink:href="#DejaVuSans-69" transform="translate(1376.806641 0)"/>
     <use xlink:href="#DejaVuSans-66" transform="translate(1404.589844 0)"/>
     <use xlink:href="#DejaVuSans-69" transform="translate(1439.794922 0)"/>
     <use xlink:href="#DejaVuSans-63" transform="translate(1467.578125 0)"/>
     <use xlink:href="#DejaVuSans-61" transform="translate(1522.558594 0)"/>
     <use xlink:href="#DejaVuSans-74" transform="translate(1583.837891 0)"/>
     <use xlink:href="#DejaVuSans-69" transform="translate(1623.046875 0)"/>
     <use xlink:href="#DejaVuSans-6f" transform="translate(1650.830078 0)"/>
     <use xlink:href="#DejaVuSans-6e" transform="translate(1712.011719 0)"/>
     <use xlink:href="#DejaVuSans-20" transform="translate(1775.390625 0)"/>
     <use xlink:href="#DejaVuSans-70" transform="translate(1807.177734 0)"/>
     <use xlink:href="#DejaVuSans-61" transform="translate(1870.654297 0)"/>
     <use xlink:href="#DejaVuSans-74" transform="translate(1931.933594 0)"/>
     <use xlink:href="#DejaVuSans-68" transform="translate(1971.142578 0)"/>
    </g>
   </g>
  </g>
 </g>
</svg>
